<svg width="49" height="49" viewBox="0 0 49 49" fill="none" xmlns="http://www.w3.org/2000/svg">
<path fill-rule="evenodd" clip-rule="evenodd" d="M33.0461 24.5C33.0461 29.1238 29.2197 32.8721 24.4996 32.8721C19.7795 32.8721 15.9531 29.1238 15.9531 24.5C15.9531 19.8762 19.7795 16.1279 24.4996 16.1279C29.2197 16.1279 33.0461 19.8762 33.0461 24.5ZM18.2322 24.5C18.2322 27.8908 21.0382 30.6396 24.4996 30.6396C27.9611 30.6396 30.7671 27.8908 30.7671 24.5C30.7671 21.1093 27.9611 18.3605 24.4996 18.3605C21.0382 18.3605 18.2322 21.1093 18.2322 24.5Z" fill="#040304"/>
<path fill-rule="evenodd" clip-rule="evenodd" d="M36.4654 15.0116C36.4654 16.2446 35.445 17.2442 34.1863 17.2442C32.9276 17.2442 31.9072 16.2446 31.9072 15.0116C31.9072 13.7786 32.9276 12.7791 34.1863 12.7791C35.445 12.7791 36.4654 13.7786 36.4654 15.0116ZM33.0468 15.0116C33.0468 15.6281 33.5569 16.1279 34.1863 16.1279C34.8156 16.1279 35.3258 15.6281 35.3258 15.0116C35.3258 14.3951 34.8156 13.8953 34.1863 13.8953C33.5569 13.8953 33.0468 14.3951 33.0468 15.0116Z" fill="#040304"/>
<path fill-rule="evenodd" clip-rule="evenodd" d="M31.9068 8.31396H17.0928C12.0581 8.31396 7.97656 12.3122 7.97656 17.2442V31.7558C7.97656 36.6879 12.0581 40.6861 17.0928 40.6861H31.9068C36.9416 40.6861 41.0231 36.6879 41.0231 31.7558V17.2442C41.0231 12.3122 36.9416 8.31396 31.9068 8.31396ZM9.1161 17.2442C9.1161 12.9287 12.6874 9.43024 17.0928 9.43024H31.9068C36.3122 9.43024 39.8835 12.9287 39.8835 17.2442V31.7558C39.8835 36.0714 36.3122 39.5698 31.9068 39.5698H17.0928C12.6874 39.5698 9.1161 36.0714 9.1161 31.7558V17.2442Z" fill="#040304"/>
</svg>
