<?xml version="1.0" encoding="utf-8"?>
<!-- Generator: Adobe Illustrator 22.0.1, SVG Export Plug-In . SVG Version: 6.00 Build 0)  -->
<svg version="1.1" id="Layer_1" xmlns="http://www.w3.org/2000/svg" xmlns:xlink="http://www.w3.org/1999/xlink" x="0px" y="0px"
	 viewBox="0 0 33.9 33.4" style="enable-background:new 0 0 33.9 33.4;" xml:space="preserve">
<style type="text/css">
	.st0{fill:#FF0066;}
</style>
<path class="st0" d="M29,7.3c0,1.2-1,2.2-2.3,2.2s-2.3-1-2.3-2.2s1-2.2,2.3-2.2S29,6.1,29,7.3z M25.5,7.3c0,0.6,0.5,1.1,1.1,1.1
	c0.6,0,1.1-0.5,1.1-1.1c0-0.6-0.5-1.1-1.1-1.1C26.1,6.2,25.5,6.7,25.5,7.3z"/>
<path class="st0" d="M25.5,16.8c0,4.6-3.8,8.4-8.5,8.4s-8.5-3.7-8.5-8.4s3.8-8.4,8.5-8.4S25.5,12.2,25.5,16.8z M10.7,16.8
	c0,3.4,2.8,6.1,6.3,6.1c3.5,0,6.3-2.7,6.3-6.1s-2.8-6.1-6.3-6.1C13.5,10.7,10.7,13.4,10.7,16.8z"/>
<path class="st0" d="M9.6,0.6h14.8c5,0,9.1,4,9.1,8.9v14.5c0,4.9-4.1,8.9-9.1,8.9H9.6c-5,0-9.1-4-9.1-8.9V9.6
	C0.5,4.6,4.6,0.6,9.6,0.6z M9.6,1.8c-4.4,0-8,3.5-8,7.8v14.5c0,4.3,3.6,7.8,8,7.8h14.8c4.4,0,8-3.5,8-7.8V9.6c0-4.3-3.6-7.8-8-7.8
	H9.6z"/>
</svg>
