<?xml version="1.0" encoding="utf-8"?>
<!-- Generator: Adobe Illustrator 22.0.1, SVG Export Plug-In . SVG Version: 6.00 Build 0)  -->
<svg version="1.1" id="Layer_1" xmlns="http://www.w3.org/2000/svg" xmlns:xlink="http://www.w3.org/1999/xlink" x="0px" y="0px"
	 viewBox="0 0 33 31.4" style="enable-background:new 0 0 33 31.4;" xml:space="preserve">
<style type="text/css">
	.st0{fill:#FF0066;}
</style>
<path class="st0" d="M25.3,15.9c0,4.6-3.8,8.4-8.5,8.4s-8.5-3.7-8.5-8.4s3.8-8.4,8.5-8.4S25.3,11.3,25.3,15.9z M10.5,15.9
	c0,3.4,2.8,6.1,6.3,6.1c3.5,0,6.3-2.7,6.3-6.1c0-3.4-2.8-6.1-6.3-6.1C13.3,9.8,10.5,12.5,10.5,15.9z"/>
<path class="st0" d="M28.7,6.4c0,1.2-1,2.2-2.3,2.2c-1.3,0-2.3-1-2.3-2.2s1-2.2,2.3-2.2C27.7,4.2,28.7,5.2,28.7,6.4z M25.3,6.4
	c0,0.6,0.5,1.1,1.1,1.1c0.6,0,1.1-0.5,1.1-1.1c0-0.6-0.5-1.1-1.1-1.1C25.8,5.3,25.3,5.8,25.3,6.4z"/>
<path class="st0" d="M24.2-0.3H9.4c-5,0-9.1,4-9.1,8.9v14.5c0,4.9,4.1,8.9,9.1,8.9h14.8c5,0,9.1-4,9.1-8.9V8.7
	C33.3,3.7,29.2-0.3,24.2-0.3z M1.4,8.7c0-4.3,3.6-7.8,8-7.8h14.8c4.4,0,8,3.5,8,7.8v14.5c0,4.3-3.6,7.8-8,7.8H9.4
	c-4.4,0-8-3.5-8-7.8V8.7z"/>
</svg>
