<svg width="26" height="20" viewBox="0 0 26 20" fill="none" xmlns="http://www.w3.org/2000/svg">
<path fill-rule="evenodd" clip-rule="evenodd" d="M23.3406 3.37366C22.7965 3.51079 22.3667 3.48881 22.3667 3.48881L22.3842 3.39475C22.8914 3.02555 24.1711 1.8951 24.3396 1.36592C24.4131 1.13737 24.326 1.05825 24.326 1.05034L22.692 1.68062L21.3242 2.24057C20.3804 1.33339 18.9525 0.755859 17.3543 0.755859C14.5122 0.755859 12.2074 2.58427 12.2074 4.8399C12.2074 5.25306 12.2751 6.0064 12.4184 6.38087C12.4184 6.49954 12.4232 6.26308 12.4184 6.38087C10.5879 6.33604 8.24137 5.6539 6.15238 4.69222C2.03055 2.79612 1.77305 1.48459 1.77305 1.48459C1.12642 2.10783 0.79148 4.17447 1.4478 5.79543C1.86792 6.8327 3.31221 7.76361 3.31221 7.76361C3.31221 7.76361 2.66654 7.77416 1.98989 7.5667C1.31324 7.35925 1.05769 7.15355 1.05769 7.15355C0.655957 8.04402 1.46329 9.6351 2.85724 10.7752C3.67037 11.4415 5.15435 11.8573 5.15435 11.8573L2.83497 11.918C2.70526 13.9644 7.56279 15.1801 7.56279 15.1801C6.13883 16.1752 4.48642 16.7809 2.71591 16.7809C1.79822 16.7809 0.911514 16.656 0.0693359 16.4275C2.40904 18.1785 5.41572 19.3863 8.68569 19.2308C17.3592 18.8167 22.2564 12.0463 22.4897 5.39634L22.5003 5.40953C22.5003 5.40953 22.9069 5.22581 23.7762 4.43642C24.6445 3.64792 25.1856 2.72404 25.1856 2.72404C25.1856 2.72404 23.8856 3.2374 23.3406 3.37366Z" fill="#040304"/>
</svg>
