<svg width="26" height="14" viewBox="0 0 26 14" fill="none" xmlns="http://www.w3.org/2000/svg">
<path fill-rule="evenodd" clip-rule="evenodd" d="M25.3534 1.13898C25.5281 0.609673 25.3534 0.220947 24.5224 0.220947H21.7747C21.0762 0.220947 20.7539 0.55669 20.5792 0.927219C20.5792 0.927219 19.182 4.02293 17.2025 6.03382C16.5622 6.61611 16.271 6.80128 15.9216 6.80128C15.747 6.80128 15.4942 6.61611 15.4942 6.0868V1.13898C15.4942 0.503884 15.2914 0.220947 14.7091 0.220947H10.3913C9.95476 0.220947 9.69215 0.515658 9.69215 0.794849C9.69215 1.39694 10.6819 1.53591 10.7838 3.22925V6.90707C10.7838 7.7136 10.6236 7.85971 10.2743 7.85971C9.3428 7.85971 7.07691 4.75008 5.73308 1.19178C5.46969 0.500316 5.20552 0.220947 4.50328 0.220947H1.75555C0.970489 0.220947 0.813477 0.55669 0.813477 0.927219C0.813477 1.58871 1.74495 4.86978 5.15095 9.2091C7.42155 12.1726 10.6207 13.7791 13.5315 13.7791C15.2783 13.7791 15.4942 13.4223 15.4942 12.8075V10.5679C15.4942 9.85436 15.6596 9.712 16.2127 9.712C16.6203 9.712 17.3189 9.89718 18.9492 11.326C20.8122 13.0193 21.1193 13.7791 22.1672 13.7791H24.9149C25.7 13.7791 26.0925 13.4223 25.8662 12.718C25.6183 12.0163 24.7289 10.9982 23.5485 9.79121C22.9081 9.10331 21.9474 8.36243 21.6563 7.9919C21.2489 7.51576 21.3653 7.304 21.6563 6.88067C21.6563 6.88067 25.004 2.59416 25.3534 1.13898Z" fill="#040304"/>
</svg>
