<?xml version="1.0" encoding="utf-8"?>
<!-- Generator: Adobe Illustrator 22.0.1, SVG Export Plug-In . SVG Version: 6.00 Build 0)  -->
<svg version="1.1" id="Layer_1" xmlns="http://www.w3.org/2000/svg" xmlns:xlink="http://www.w3.org/1999/xlink" x="0px" y="0px"
	 viewBox="0 0 38.7 29.3" style="enable-background:new 0 0 38.7 29.3;" xml:space="preserve">
<style type="text/css">
	.st0{fill:#FF0066;}
</style>
<path class="st0" d="M14.3,23V7.4L28,15.2L14.3,23z"/>
<path class="st0" d="M29.7,0.7H9.2c-4.7,0-8.5,3.7-8.5,8.4v11.2c0,4.6,3.8,8.4,8.5,8.4h20.5c4.7,0,8.5-3.7,8.5-8.4V9.1
	C38.2,4.5,34.4,0.7,29.7,0.7z M1.8,9.1c0-4,3.3-7.3,7.4-7.3h20.5c4.1,0,7.4,3.2,7.4,7.3v11.2c0,4-3.3,7.3-7.4,7.3H9.2
	c-4.1,0-7.4-3.2-7.4-7.3V9.1z"/>
</svg>
