<svg width="49" height="49" viewBox="0 0 49 49" fill="none" xmlns="http://www.w3.org/2000/svg">
<path fill-rule="evenodd" clip-rule="evenodd" d="M19.3721 31.7558V16.1279L33.0465 23.9419L19.3721 31.7558Z" fill="#040304"/>
<path fill-rule="evenodd" clip-rule="evenodd" d="M34.7554 10.5465H14.2438C9.52367 10.5465 5.69727 14.2948 5.69727 18.9186V30.0814C5.69727 34.7052 9.52367 38.4535 14.2438 38.4535H34.7554C39.4755 38.4535 43.3019 34.7052 43.3019 30.0814V18.9186C43.3019 14.2948 39.4755 10.5465 34.7554 10.5465ZM6.8368 18.9186C6.8368 14.9113 10.153 11.6628 14.2438 11.6628H34.7554C38.8462 11.6628 42.1624 14.9113 42.1624 18.9186V30.0814C42.1624 34.0887 38.8462 37.3372 34.7554 37.3372H14.2438C10.153 37.3372 6.8368 34.0887 6.8368 30.0814V18.9186Z" fill="#040304"/>
</svg>
