<?xml version="1.0" encoding="utf-8"?>
<!-- Generator: Adobe Illustrator 22.0.1, SVG Export Plug-In . SVG Version: 6.00 Build 0)  -->
<svg version="1.1" id="Layer_1" xmlns="http://www.w3.org/2000/svg" xmlns:xlink="http://www.w3.org/1999/xlink" x="0px" y="0px"
	 viewBox="0 0 37.6 27.9" style="enable-background:new 0 0 37.6 27.9;" xml:space="preserve">
<style type="text/css">
	.st0{fill:#FF0066;}
</style>
<path class="st0" d="M13.7,21.5V5.8l13.7,7.8L13.7,21.5z"/>
<path class="st0" d="M29.1,0.3H8.5C3.8,0.3,0,4,0,8.6v11.2c0,4.6,3.8,8.4,8.5,8.4h20.5c4.7,0,8.5-3.7,8.5-8.4V8.6
	C37.6,4,33.8,0.3,29.1,0.3z M1.1,8.6c0-4,3.3-7.3,7.4-7.3h20.5c4.1,0,7.4,3.2,7.4,7.3v11.2c0,4-3.3,7.3-7.4,7.3H8.5
	c-4.1,0-7.4-3.2-7.4-7.3V8.6z"/>
</svg>
