<svg width="95" height="42" viewBox="0 0 95 42" fill="none" xmlns="http://www.w3.org/2000/svg">
<path fill-rule="evenodd" clip-rule="evenodd" d="M20.7444 41.5902C32.1916 41.5902 41.4887 32.2905 41.4887 20.7997C41.4887 9.30838 32.1916 0 20.7444 0C9.27941 0 0 9.30838 0 20.7997C0 32.2905 9.27941 41.5902 20.7444 41.5902Z" fill="black"/>
<path fill-rule="evenodd" clip-rule="evenodd" d="M19.9098 11.6717V29.9185H25.6919V28.2778H21.5763V11.6717H19.9098Z" fill="white"/>
<path fill-rule="evenodd" clip-rule="evenodd" d="M14.1201 16.6503C15.4958 16.6503 16.6046 15.5282 16.6046 14.1578C16.6046 12.7863 15.4958 11.6599 14.1201 11.6599C12.7445 11.6599 11.6357 12.7863 11.6357 14.1578C11.6357 15.5292 12.7445 16.6503 14.1201 16.6503Z" fill="white"/>
<path fill-rule="evenodd" clip-rule="evenodd" d="M21.5757 3.39447C21.3589 3.3837 20.9467 3.37024 20.7497 3.37024C11.1745 3.37024 3.38187 11.1909 3.38187 20.7911C3.38187 25.4542 5.18794 29.8249 8.45927 33.1116C11.744 36.3909 16.1027 38.2028 20.7497 38.2028C25.3789 38.2028 29.7366 36.3909 33.0154 33.1116C36.2948 29.8249 38.1095 25.4542 38.1095 20.7911V20.0162H37.4069H25.7079V21.6198H36.4553C36.4553 21.6548 36.4553 21.8249 36.4478 21.8691C35.9014 30.0763 29.0689 36.5766 20.7497 36.5766C16.5386 36.5766 12.5899 34.9338 9.61805 31.9502C6.63656 28.9789 4.99365 25.0207 4.99365 20.7905C4.99365 16.5846 6.63656 12.6059 9.61805 9.62555C12.5899 6.64785 16.5386 5.00501 20.7497 5.00501C20.9311 5.00501 21.3723 5.00501 21.5757 5.01578V3.39447Z" fill="white"/>
<path fill-rule="evenodd" clip-rule="evenodd" d="M88.7917 23.7569H83.7148V18.7078H94.5341V31.8408C92.3088 33.404 88.212 34.4755 84.0272 34.4755C74.8975 34.4755 70.7567 29.5621 70.7567 20.4944C70.7567 11.3825 75.3419 6.60315 84.0712 6.60315C87.9437 6.60315 92.0856 7.63053 94.4461 11.0228L90.5704 14.5977C89.103 12.7211 87.3222 11.7379 84.2043 11.7379C78.594 11.7379 76.8142 15.0026 76.8142 20.5396C76.8142 26.3458 78.6831 29.2045 84.2934 29.2045C86.0303 29.2045 87.8557 28.8481 88.7917 28.4905V23.7569ZM50.8561 7.00107H57.0896V28.8039H70.0021V34.0738H50.8561V7.00107Z" fill="black"/>
</svg>
