<svg width="161" height="22" viewBox="0 0 161 22" fill="none" xmlns="http://www.w3.org/2000/svg">
<mask id="mask0" mask-type="alpha" maskUnits="userSpaceOnUse" x="155" y="0" width="5" height="7">
<path fill-rule="evenodd" clip-rule="evenodd" d="M155.321 0.668701H159.967V6.00204H155.321V0.668701Z" fill="white"/>
</mask>
<g mask="url(#mask0)">
<path fill-rule="evenodd" clip-rule="evenodd" d="M155.321 3.02603C155.321 1.73003 156.371 0.668701 157.642 0.668701C158.923 0.668701 159.962 1.7247 159.967 3.02603C159.967 4.3167 158.917 5.37803 157.642 5.38337C156.371 5.38337 155.321 4.3167 155.321 3.02603ZM159.626 3.02603C159.626 1.91137 158.739 1.01003 157.642 1.01003C156.555 1.01003 155.657 1.9167 155.657 3.02603C155.657 4.13003 156.555 5.04203 157.642 5.04203C158.734 5.04203 159.626 4.13003 159.626 3.02603Z" fill="black"/>
</g>
<mask id="mask1" mask-type="alpha" maskUnits="userSpaceOnUse" x="155" y="0" width="5" height="6">
<path fill-rule="evenodd" clip-rule="evenodd" d="M155.035 0.667615H159.968V5.74873H155.035V0.667615Z" fill="white"/>
</mask>
<g mask="url(#mask1)">
<path fill-rule="evenodd" clip-rule="evenodd" d="M157.575 1.29163C157.638 1.86763 158.094 1.54229 158.294 1.38229C158.362 1.32363 158.451 1.21163 158.499 1.18496C158.53 1.16896 158.577 1.17963 158.598 1.21696C158.614 1.27563 158.625 1.35029 158.588 1.45696C158.546 1.58496 158.472 1.70229 158.436 1.77163C158.331 1.94229 158.226 2.09163 158.1 2.25696C157.9 2.51296 157.643 2.71563 157.433 2.96096C157.113 3.34496 156.929 3.93696 157.029 4.43296C157.055 4.56096 157.113 4.72629 157.233 4.79029C157.942 5.19029 158.467 3.46763 158.226 2.96096C158.194 2.89696 158.126 2.77429 158.037 2.79563C157.59 2.88096 157.38 4.35296 157.664 4.46496C157.648 4.63563 157.375 4.74229 157.296 4.42229C157.27 4.30496 157.265 4.18763 157.27 4.07029C157.281 3.58496 157.669 2.83829 158.115 2.60896C158.315 2.50763 158.598 2.51296 158.709 2.74229C159.108 3.57963 158.037 5.12096 157.107 4.97696C156.656 4.91296 156.493 4.47563 156.53 4.05963C156.556 3.71829 156.698 3.39296 156.892 3.11563C157.286 2.55563 157.9 2.39029 158.199 1.95296C158.199 1.95296 158.21 1.93696 158.215 1.92629C158.22 1.91029 158.205 1.89429 158.184 1.91029C158.147 1.94229 157.979 2.03296 157.858 2.04896C157.617 2.07563 157.485 1.73963 157.443 1.55296C157.433 1.51563 157.433 1.47829 157.391 1.53163C157.275 1.68629 157.186 2.56096 157.065 2.60896L156.593 2.79563C156.593 2.79563 156.577 2.80629 156.567 2.77963C156.514 2.57696 156.997 1.87296 157.134 1.63296C157.149 1.61163 157.26 1.38763 157.281 1.37163C157.317 1.33963 157.533 1.28629 157.575 1.29163Z" fill="black"/>
</g>
<path fill-rule="evenodd" clip-rule="evenodd" d="M54.0513 17.8335H51.7413L49.216 9.70549L49.6045 12.8895V17.8335H45.394V5.59349H50.7963L52.8963 12.3562L54.9963 5.59349H60.3985V17.8335H56.1828V12.8895L56.5713 9.70549L54.0513 17.8335ZM38.2699 17.8335H35.9599L33.4346 9.70549L33.8231 12.8895V17.8335H29.6126V5.59349H35.0201L37.1149 12.3562L39.2149 5.59349H44.6171V17.8335H40.4014V12.8895L40.7951 9.70549L38.2699 17.8335ZM153.392 13.9508C153.392 13.1828 152.972 12.8575 152.253 12.7722C152.106 12.7722 151.817 12.7615 151.392 12.7402C150.961 12.7242 150.389 12.7135 150.184 12.7135V15.0602L151.376 15.0868C151.701 15.0922 151.969 15.0815 152.174 15.0602C152.909 15.0122 153.392 14.8095 153.392 13.9508ZM158.127 13.9402C158.127 15.0122 157.628 15.9455 156.825 16.6175C155.765 17.5028 154.3 17.8335 152.951 17.8335H145.595V9.25216H142.85V5.66816H150.184V9.94016H152.693C154.09 9.94016 155.639 10.2122 156.746 11.1455C157.576 11.8442 158.127 12.8255 158.127 13.9402ZM142.698 9.25216H138.603V17.8335H133.836V9.25216H129.714V5.66816H142.698V9.25216ZM129.494 17.8335H124.743V13.2788H121.22V17.8335H116.516L116.511 5.84949L116.516 5.66816H121.22V9.73749H124.69V5.66816H129.494L129.489 17.6148L129.494 17.8335ZM116.106 17.8335H111.182L110.998 16.5428C110.636 17.0175 109.832 17.4068 109.024 17.7215C108.63 17.8762 108.221 17.9988 107.806 18.0735C107.391 18.1535 106.95 18.1855 106.488 18.1855C105.659 18.1855 104.903 18.0415 104.21 17.7428C103.522 17.4495 103.002 16.9855 102.64 16.3615C102.32 15.6788 102.162 14.9802 102.162 14.2708C102.162 13.3748 102.572 12.6335 103.139 11.9722C103.459 11.5988 103.774 11.3855 104.341 11.1615C104.609 11.0548 104.876 10.9642 105.139 10.8895C105.396 10.8148 105.643 10.7402 105.879 10.7082L107.895 10.3988C108.751 10.2655 109.58 10.1588 109.943 10.0308C110.168 9.95616 110.436 9.71082 110.567 9.55082C110.699 9.39616 110.678 9.23616 110.678 9.06549C110.678 8.83616 110.567 8.64416 110.347 8.48949C110.126 8.33482 109.812 8.25482 109.402 8.25482C108.914 8.25482 108.305 8.32949 108.011 8.47882C107.717 8.62282 107.522 8.92149 107.433 9.36416H102.871C103.023 8.56416 102.997 8.10016 103.217 7.60949C103.443 7.12416 103.795 6.70282 104.267 6.36149C104.75 6.00949 105.407 5.74282 106.252 5.56149C106.656 5.48149 107.139 5.41749 107.69 5.37482C108.247 5.32682 108.856 5.30016 109.538 5.30016C111.197 5.30016 112.442 5.50282 113.266 5.90282C114.095 6.30282 114.636 6.62282 114.883 7.22549C115.135 7.81749 115.303 8.59616 115.382 9.54549V15.9828C115.382 16.6442 115.628 17.1348 116.106 17.4602V17.8335ZM110.757 13.0495C110.757 12.8202 110.736 12.6335 110.694 12.4895C110.363 12.6762 109.848 12.8362 109.15 12.9802C108.615 13.0762 108.048 13.1988 107.57 13.4655C106.893 13.8015 106.929 14.7775 107.523 15.1722C108.205 15.5882 109.355 15.5508 109.932 14.9695C110.478 14.4362 110.757 13.7962 110.757 13.0495ZM98.6239 17.6948C96.7549 18.3615 94.2139 18.4575 92.3502 17.6735C91.1794 17.1775 90.1452 16.3455 89.4889 15.2308C88.8432 14.1642 88.5072 12.9322 88.5072 11.6842C88.5072 10.8468 88.6857 10.0255 88.9744 9.25216C89.6464 7.50282 90.8067 6.49482 92.4867 5.80149C94.4082 5.00682 97.2642 5.03349 99.0912 6.04149C100.829 7.00682 101.737 8.32949 101.979 10.2762H97.0542C96.9649 9.67882 96.8022 9.30549 96.5554 8.99082C95.8677 8.09482 94.3032 8.53216 93.8097 9.41749C93.1744 10.5482 93.0694 12.2122 93.4684 13.4548C93.7362 14.2708 94.6077 14.9588 95.4529 14.9588C96.6552 14.9588 96.9072 14.1428 97.2169 13.1135H101.979C101.926 15.1615 100.724 16.9482 98.6239 17.6948ZM83.5667 11.4442C83.5667 10.9268 83.3987 10.3615 83.0575 9.75349C82.7162 9.14549 82.2227 8.84149 81.577 8.84149C80.9365 8.84149 80.443 9.12949 80.0965 9.70016C79.7552 10.2655 79.582 10.8468 79.582 11.4442C79.582 12.1695 79.7132 12.8522 79.981 13.4868C80.254 14.1162 80.7842 14.4308 81.577 14.4308C82.354 14.4308 82.8737 14.1055 83.152 13.4495C83.404 12.8202 83.5667 12.1268 83.5667 11.4442ZM87.4887 15.4175C86.6014 17.1348 84.9582 18.2068 82.9842 18.2068C81.5667 18.2068 80.6322 17.7375 79.6714 16.7402V21.9935H74.8624V5.65749H79.1202V7.48149C80.0442 5.60949 82.3332 4.92682 84.1812 5.40149C86.1919 5.91349 87.5412 7.63082 88.0242 9.55616C88.4757 11.3535 88.3182 13.8122 87.4887 15.4175ZM74.5475 12.7508H65.528C65.528 13.1295 65.591 13.4602 65.7222 13.7482C66.1055 14.6228 66.809 15.2202 67.817 15.2202C68.552 15.2202 69.4025 14.9162 69.5652 14.1055H74.18C74.0067 15.2628 73.2822 16.2762 72.3477 16.9482C71.4027 17.6255 70.2425 17.9988 69.1032 18.1322C67.6332 18.3135 65.9375 18.2655 64.5777 17.6895C63.0027 17.0228 61.8162 15.7855 61.1757 14.1962C60.5877 12.6442 60.5772 10.9215 61.1547 9.35882C61.7427 7.73216 62.966 6.48416 64.5515 5.81749C66.4782 5.01216 69.1715 5.06549 71.0352 6.00949C72.689 6.84149 73.8177 8.26549 74.285 10.0628C74.516 10.9642 74.6052 11.8282 74.5475 12.7508ZM69.9273 10.3882C69.7593 9.58282 69.4811 9.03349 69.0978 8.72416C68.7094 8.40949 68.2211 8.25482 67.6226 8.25482C67.0503 8.25482 66.5883 8.40416 66.2523 8.70816C65.9111 9.01216 65.6591 9.56682 65.4806 10.3882H69.9273ZM28.0797 15.3908C26.804 17.3108 24.6147 18.2122 22.352 18.2122C20.021 18.2122 17.774 17.3215 16.472 15.3215C15.275 13.4922 15.1227 10.5002 16.1307 8.54282C16.9077 7.03882 18.3252 5.94549 19.9527 5.50282C21.7482 5.00149 23.6855 5.10816 25.4075 5.83349C27.0192 6.50549 28.2162 7.88682 28.736 9.52949C29.303 11.3215 29.1035 13.8495 28.0797 15.3908ZM24.3311 11.6148C24.3311 10.8468 24.1578 10.1535 23.8008 9.53482C23.4438 8.92149 22.8978 8.61216 22.1523 8.61216C21.4856 8.61216 20.9816 8.92149 20.6403 9.54016C20.3043 10.1642 20.1363 10.8522 20.1363 11.6148C20.1363 12.4255 20.3148 13.1988 20.6771 13.9188C21.0341 14.6388 21.5906 15.0015 22.3308 15.0015C23.0501 15.0015 23.5593 14.6495 23.8691 13.9455C24.1788 13.2468 24.3311 12.4682 24.3311 11.6148ZM17.1018 17.8335H10.6391L6.68581 11.1722L5.39956 12.5268V17.8335H0.00256348V1.06549H5.39956V6.47882L10.0301 1.06549H16.3668L10.4238 7.32149L17.1018 17.8335Z" fill="black"/>
</svg>
