<svg width="124" height="37" viewBox="0 0 124 37" fill="none" xmlns="http://www.w3.org/2000/svg">
<mask id="mask0" mask-type="alpha" maskUnits="userSpaceOnUse" x="0" y="0" width="124" height="37">
<path fill-rule="evenodd" clip-rule="evenodd" d="M0.00126648 0.00158691H123.317V36.9742H0.00126648V0.00158691Z" fill="white"/>
</mask>
<g mask="url(#mask0)">
<path fill-rule="evenodd" clip-rule="evenodd" d="M119.937 36.9742H3.38242C1.51532 36.9742 0.00126648 35.4062 0.00126648 33.4882V3.48618C0.00126648 1.56118 1.51532 0.000183105 3.38242 0.000183105H119.937C121.798 0.000183105 123.318 1.56118 123.318 3.48618V33.4882C123.318 35.4062 121.798 36.9742 119.937 36.9742ZM3.38256 1.74318C2.44561 1.74318 1.69198 2.52018 1.69198 3.48618V33.4882C1.69198 34.4542 2.44561 35.2312 3.38256 35.2312H119.937C120.868 35.2312 121.628 34.4542 121.628 33.4882V3.48618C121.628 2.52018 120.868 1.74318 119.937 1.74318H3.38256Z" fill="black"/>
</g>
<path fill-rule="evenodd" clip-rule="evenodd" d="M14.4488 14.3404H14.5235C15.44 13.0314 16.6893 11.6734 17.9318 10.7144C19.2082 9.76939 20.5933 9.22339 21.7271 9.22339C22.9017 9.22339 23.6417 9.76939 24.0355 10.3154C24.3207 10.6864 24.5651 11.3024 24.5651 12.2544C24.5651 13.1364 24.3546 13.8714 24.1781 14.4874L21.7271 23.0554C21.6592 23.2724 21.6185 23.4614 21.6185 23.7904C21.6185 24.3364 22.0462 24.5184 22.3314 24.5184C22.9356 24.5184 23.6078 23.7134 23.859 23.3844C24.2799 22.8314 24.6058 22.3274 24.9181 21.7744C25.1694 21.3334 25.4545 20.7874 25.665 20.3114L26.2014 20.5704C25.9501 21.0744 25.5224 21.8794 25.278 22.2854C24.5651 23.5244 24.0695 24.2244 23.3566 24.8124C22.6165 25.3934 21.9444 25.6104 21.1228 25.6104C20.3828 25.6104 19.8125 25.4704 19.31 24.9244C18.8891 24.4414 18.7058 23.8954 18.7058 23.2374C18.7058 22.5444 18.923 21.5154 19.0996 20.9624L21.2315 13.5424C21.374 13.0944 21.4419 12.9194 21.4419 12.1844C21.4419 11.7434 21.408 11.3374 21.0889 10.9804C20.8377 10.6864 20.5525 10.5394 20.0976 10.5394C18.7465 10.5394 17.2868 11.8554 16.1529 13.1364C15.2703 14.1234 14.6253 15.0404 13.9531 16.2094L11.6108 25.2184H8.45367L12.3237 10.1334H8.91536L9.05794 9.62239H15.6573L14.4488 14.3404Z" fill="black"/>
<path fill-rule="evenodd" clip-rule="evenodd" d="M40.7546 23.0568C40.7206 23.2318 40.646 23.6798 40.646 23.8548C40.646 24.3658 41.0737 24.5198 41.3588 24.5198C41.9971 24.5198 42.5266 23.8198 42.8525 23.4208C43.3074 22.7978 43.5586 22.3568 43.9524 21.7058C44.2308 21.1878 44.4413 20.8238 44.6925 20.3058L45.1881 20.5718C44.8351 21.4118 44.516 21.9928 43.7352 23.2038C43.3821 23.7498 42.9883 24.3658 42.3162 24.8838C41.678 25.3598 40.9311 25.6118 40.1164 25.6118C39.58 25.6118 38.84 25.5068 38.3036 24.9258C37.8419 24.4428 37.7401 23.8198 37.7401 23.2738C37.7401 22.4338 37.9505 21.7058 38.1271 20.9638L38.2696 20.3408H38.161C37.6993 21.0408 37.0611 21.9578 36.0359 22.9448C34.8953 24.0438 32.872 25.6118 30.8148 25.6118C28.5403 25.6118 28.0447 23.8198 28.0447 22.5038C28.0447 21.6288 28.2959 20.8238 28.4724 20.0888L31.0253 10.1348H27.6916L27.8342 9.62378H34.3657L31.3444 21.2998C31.2425 21.7058 31.1339 22.2518 31.1339 22.7208C31.1339 23.9668 32.0844 23.7078 32.3356 24.2258C32.614 24.8068 33.6528 24.2608 35.323 22.7628C36.0359 22.1398 36.8846 21.1878 37.5567 20.3058C38.0592 19.6128 38.4462 18.9898 38.7653 18.3668L41.0058 9.62378H44.1968L40.7546 23.0568Z" fill="black"/>
<path fill-rule="evenodd" clip-rule="evenodd" d="M51.6517 14.8941C51.9029 13.9001 52.609 11.8911 54.1367 10.6801C54.7409 10.2041 55.6235 9.7351 56.6555 9.7351C57.932 9.7351 59.6022 10.3581 59.6022 13.1721C59.6022 13.7601 59.4935 15.0061 59.3578 15.5171L57.9727 20.7881C57.7554 21.6631 57.2259 23.0141 56.0852 24.0431C55.2365 24.8131 54.4558 25.1001 53.5324 25.1001C51.8282 25.1001 50.1988 24.0781 50.1988 21.5511C50.1988 21.0401 50.3006 20.1231 50.4092 19.6541L51.6517 14.8941ZM47.1774 18.9541C47.1774 21.0051 47.9242 22.6851 49.0581 23.8541C50.0561 24.8831 51.4412 25.6111 53.3558 25.6111C54.9921 25.6111 57.6536 25.0301 60.1385 22.1741C62.0871 19.9061 62.6914 17.6381 62.6914 15.7341C62.6914 13.8301 62.0192 12.1431 61.0958 11.0861C59.962 9.7701 58.4683 9.2171 56.7641 9.2171C53.994 9.2171 51.2986 10.7921 49.5266 12.8781C48.1755 14.4881 47.1774 16.6861 47.1774 18.9541Z" fill="black"/>
<path fill-rule="evenodd" clip-rule="evenodd" d="M69.1957 16.7946H75.2315L77.0782 9.62659H80.2693L76.7931 23.0596C76.7524 23.2346 76.6845 23.3466 76.6845 23.6756C76.6845 24.3686 77.1122 24.5226 77.3974 24.5226C78.0356 24.5226 78.5991 23.8226 78.8842 23.4166C79.312 22.8706 79.5564 22.4996 79.9841 21.7716C80.2354 21.3306 80.4866 20.8546 80.7649 20.3086L81.2606 20.5676C80.6291 21.8486 80.2354 22.4996 79.7737 23.1996C79.1355 24.1936 78.6738 24.5856 78.3886 24.8446C77.8251 25.2856 77.1122 25.6146 76.1481 25.6146C75.1908 25.6146 74.6612 25.2856 74.3421 24.9216C74.023 24.5506 73.7718 24.0046 73.7718 23.1996C73.7718 22.5416 73.9483 21.8486 74.1656 20.9666L75.0889 17.3056H69.0531L67.0298 25.2156H63.832L67.7427 10.1376L64.2122 10.5366L64.4702 9.62659H71.0356L69.1957 16.7946Z" fill="black"/>
<path fill-rule="evenodd" clip-rule="evenodd" d="M86.8355 17.9293L87.3719 15.8083C88.0101 13.2813 88.8928 12.0353 89.3612 11.4893C90.3525 10.3133 91.6629 9.73231 92.7628 9.73231C92.98 9.73231 94.0799 9.76731 94.0799 11.1183C94.0799 11.3073 94.046 11.5243 94.0052 11.7063L93.6522 13.3163C93.5435 13.8273 93.2584 14.7863 92.98 15.2973C92.3758 16.4313 91.3777 16.8723 90.7055 17.0123L86.8355 17.9293ZM86.6589 18.5173L91.1671 17.5653C92.4096 17.3063 94.331 16.7603 95.2883 16.0323C96.4222 15.1503 96.9178 13.8273 96.9178 12.6233C96.9178 11.4123 96.2796 10.6073 95.7432 10.1733C94.9625 9.51531 93.8286 9.22131 92.6948 9.22131C90.882 9.22131 88.7569 10.0613 86.978 11.4893C84.527 13.4633 83.2506 16.0323 83.2506 19.2103C83.2506 20.6033 83.5018 22.2483 84.9548 23.8233C86.0207 24.9923 87.1885 25.4123 88.8927 25.3773C90.237 25.3493 92.5522 25.2863 94.8946 23.0183C95.784 22.1713 96.2049 21.5203 96.5308 20.8553L96.0284 20.6383C95.5667 21.4433 94.4329 23.2003 91.9479 24.3343C91.0653 24.7403 90.2098 24.9923 89.1778 24.9923C87.9693 24.9923 87.2632 24.7053 86.6589 23.7883C86.1633 23.0533 86.0547 22.3253 86.0547 21.5203C86.0547 20.8553 86.1633 20.6033 86.2312 20.2743L86.6589 18.5173Z" fill="black"/>
<path fill-rule="evenodd" clip-rule="evenodd" d="M103.951 15.9539C104.169 15.0019 104.664 12.8459 105.547 11.5579C106.226 10.6059 107.36 9.73091 108.426 9.73091C109.139 9.73091 109.845 10.0599 110.272 10.5009C111.121 11.3829 111.23 12.8109 111.23 13.9799C111.23 14.5259 111.196 15.1489 111.087 15.6249L110.272 19.5449C110.096 20.3079 109.6 22.0299 109.24 22.7999C108.392 24.5919 107.075 25.1029 106.083 25.1029C105.547 25.1029 104.664 24.9209 103.951 23.9339C103.211 22.9049 103.103 21.6589 103.103 20.7489C103.103 19.6849 103.211 19.2159 103.388 18.4739L103.951 15.9539ZM105.085 9.62591H98.6286L98.52 10.1369H101.928L96.5714 32.3899H99.8032L102.322 21.4769H102.533C102.567 22.7999 103.137 24.0809 103.843 24.7389C104.732 25.5789 105.975 25.6139 106.62 25.6139C109.173 25.6139 111.196 24.0809 112.506 22.5059C114.068 20.6019 114.604 18.6279 114.604 16.3879C114.604 14.9319 114.353 13.6509 113.606 12.3279C112.33 10.0249 110.374 9.21991 108.745 9.21991C107.536 9.21991 106.688 9.58391 105.798 10.4659C105.051 11.2289 104.8 11.8169 104.413 12.7339H104.271L105.085 9.62591Z" fill="black"/>
<path fill-rule="evenodd" clip-rule="evenodd" d="M13.5003 15.4142C15.123 14.1892 18.7418 9.54816 21.3965 9.54816C23.4809 9.54816 24.3703 10.1992 24.3703 12.5162C24.3703 13.5102 24.0919 14.5042 23.9697 15.2742L23.2161 20.0342C23.0939 20.8322 22.992 21.4202 22.9038 22.0922C22.4964 25.1862 24.3839 22.8412 24.0851 23.6462C23.8611 24.2342 20.1608 28.2032 20.1608 22.3092C20.1608 21.7002 20.2219 21.3502 20.412 20.2862L21.349 14.5392C21.3761 14.3782 21.3761 14.2172 21.4101 14.0562C21.4712 13.6082 21.5662 13.3842 21.5662 12.8662C21.5662 10.8432 20.1133 10.5982 19.414 10.7452C17.5876 11.1442 15.2249 14.2242 13.5411 15.6382L11.0765 24.6822L8.91745 24.8712L10.6895 14.1192C10.7167 13.9932 10.8117 13.4472 10.8117 12.9362C10.8117 11.9002 9.70503 11.5782 8.95818 11.4592L8.13666 11.4172L8.42182 10.3602C9.48776 10.2972 11.3752 10.1012 13.2423 9.62516H14.2064L13.5003 15.4142Z" fill="black"/>
<path fill-rule="evenodd" clip-rule="evenodd" d="M32.1915 20.1924C32.0965 20.6404 31.9403 22.0614 31.9607 22.5444C32.015 23.6364 32.0557 23.6504 33.4544 23.6504C35.6677 23.6504 38.5397 20.3954 39.3816 19.6604L41.4795 9.62238H44.2836L42.5726 19.8074C42.3825 20.9624 42.3214 21.4454 42.3214 21.8934C42.3214 23.0834 42.1585 23.8254 43.0683 23.4124C43.8355 23.0554 44.175 21.4524 44.6095 21.0044L44.8403 20.9624C44.0731 22.4604 43.2991 24.8124 40.5019 25.5824C38.7841 26.0514 38.9335 22.7684 38.9606 20.9134C37.2497 22.5164 33.5834 25.6664 31.0305 25.6664C28.7221 25.6664 29.1363 24.0844 29.1363 22.1174C29.1363 21.5434 29.2313 21.1584 29.3875 20.1574L30.3244 14.5714C30.4466 13.8014 30.5077 13.5424 30.5077 13.2904C30.5077 11.8414 29.4825 11.8414 28.5795 11.7784L27.2963 11.7154L27.6697 10.5114C29.3196 10.4624 30.7861 10.3924 32.7822 9.62238H34.0043L32.1915 20.1924Z" fill="black"/>
<path fill-rule="evenodd" clip-rule="evenodd" d="M55.6631 10.5877C57.5642 10.5877 59.214 11.7427 59.214 15.1447C59.214 18.4277 57.7204 24.1467 53.3547 24.1467C52.0783 24.1467 49.8378 23.5027 49.8378 19.7717C49.8378 15.1097 52.0172 10.5877 55.6631 10.5877ZM55.9142 9.29968C49.8648 9.29968 46.5923 14.7317 46.5923 18.8757C46.5923 22.1517 48.5544 25.4277 53.1984 25.4277C58.2769 25.4277 62.4525 21.1927 62.4525 15.9217C62.4525 11.8407 59.8385 9.29968 55.9142 9.29968Z" fill="black"/>
<path fill-rule="evenodd" clip-rule="evenodd" d="M79.9495 22.6466C78.8224 24.0256 77.9941 25.1246 76.5004 25.1246C75.5363 25.1246 74.6062 25.1386 74.6062 22.4086C74.6062 21.8346 74.7012 21.3236 74.7963 20.7426L75.3259 17.3616H67.6537L66.4384 25.1736H63.6344L65.3521 14.1206C65.3793 13.8616 65.4743 13.4136 65.4743 12.9306C65.4743 12.1606 65.1009 11.6496 64.0078 11.4536L63.261 11.3696L63.4782 10.3616C65.4404 10.2356 66.9409 9.87859 67.8439 9.62659H68.8419L67.8439 16.0806H75.5092L76.5072 9.62659H79.3113L77.7565 19.8116C77.6003 20.9036 77.5053 21.4776 77.5053 21.9606C77.5053 23.2486 78.4083 23.6686 79.094 23.6686C79.8069 23.6686 79.223 23.2766 79.7526 22.7026L79.9495 22.6466Z" fill="black"/>
<path fill-rule="evenodd" clip-rule="evenodd" d="M85.4531 16.9794C86.6684 12.8004 89.5675 10.5884 92.0593 10.5884C93.8992 10.5884 94.68 11.7084 94.68 12.8004C94.68 14.3754 93.3357 16.7904 85.4531 16.9794ZM95.6374 21.3054C94.0419 23.1114 91.8421 23.9164 89.5336 23.9164C87.008 23.9164 85.0186 22.6074 85.0186 19.7444C85.0186 19.1634 85.0458 18.7504 85.202 18.2674C95.7053 17.9454 97.7014 14.9914 97.7014 12.8354C97.7014 11.3234 96.425 9.30042 92.5006 9.30042C86.7024 9.30042 81.7733 14.2144 81.7733 19.4224C81.7733 23.3074 85.2766 25.4284 88.7053 25.4284C91.8828 25.4284 94.0962 23.3354 95.6917 22.0824L95.6374 21.3054Z" fill="black"/>
<path fill-rule="evenodd" clip-rule="evenodd" d="M102.277 21.2515C103.805 12.4805 106.955 10.8145 109.169 10.8145C111.721 10.8145 111.85 13.4115 111.85 14.5035C111.85 19.0955 109.386 23.9185 105.74 23.9185C104.986 23.9185 103.248 23.7015 102.121 22.1545L102.277 21.2515ZM104.212 9.62449H103.336C102.311 9.81349 101.028 10.0375 100.159 10.1005C99.7244 10.1355 99.3781 9.97449 98.9436 9.97449L98.6381 11.1645L99.4732 11.2555C100.159 11.3885 100.845 11.6475 100.845 12.8375C100.845 13.1245 100.75 13.4815 100.688 13.9295L98.5362 26.6835C98.0678 29.3855 100.105 31.1215 97.64 30.9955L97.3277 32.3885H103.18L103.336 31.4295H102.895C101.687 31.4295 101.001 30.5685 101.001 29.0285C101.001 28.6435 101.184 27.7125 101.218 27.4885L101.904 23.4355C103.493 25.2695 105.428 25.4305 106.487 25.4305C112.095 25.4305 115.089 19.1935 115.089 14.6365C115.089 10.7095 112.285 9.30249 110.01 9.30249C107.607 9.30249 104.932 10.8775 103.493 13.8245L104.212 9.62449Z" fill="black"/>
<path fill-rule="evenodd" clip-rule="evenodd" d="M5.95841 5.22846H5.98557C6.05346 5.07446 6.0942 4.97646 6.2232 4.83646C6.37257 4.68946 6.52193 4.62646 6.72562 4.62646C7.00399 4.62646 7.33667 4.76646 7.55393 5.15846C7.68293 5.38246 7.72367 5.60646 7.72367 5.85846C7.72367 6.23646 7.63541 6.57246 7.37062 6.89446C7.13978 7.16746 6.8003 7.42646 6.35899 7.42646C6.25036 7.42646 6.03988 7.41946 5.88372 7.27946C5.7683 7.16746 5.66646 6.95046 5.66646 6.72646H5.62572L5.19799 8.58146H4.64125L5.55783 4.78746H4.97393L4.9943 4.69646H6.10099L5.95841 5.22846ZM5.80927 6.21546C5.77532 6.33446 5.76174 6.41846 5.76174 6.60046C5.76174 6.75446 5.77532 6.96446 5.90432 7.13946C6.02653 7.31446 6.1759 7.34246 6.27095 7.34246C6.44069 7.34246 6.66474 7.25846 6.80732 6.95046C6.86842 6.81746 6.9499 6.52346 6.98385 6.39046L7.12642 5.71846C7.14 5.64146 7.14679 5.53646 7.14679 5.43846C7.14679 5.24246 7.12642 4.99746 6.98385 4.84346C6.91595 4.77346 6.79374 4.71746 6.66474 4.71746C6.48821 4.71746 6.29132 4.86446 6.1759 5.03246C6.02653 5.24946 5.94506 5.62046 5.90432 5.78146L5.80927 6.21546Z" fill="black"/>
<path fill-rule="evenodd" clip-rule="evenodd" d="M10.2779 6.99181C10.21 7.25781 10.0539 7.70581 9.83661 8.01381C9.50393 8.49681 9.00829 8.76281 8.53303 8.76281C8.30219 8.76281 8.11208 8.69281 7.98308 8.59481C7.85408 8.48281 7.77261 8.31481 7.77261 8.16081C7.77261 7.94381 7.94235 7.76181 8.1664 7.76181C8.3565 7.76181 8.53303 7.92281 8.53303 8.14681C8.53303 8.25881 8.47871 8.34281 8.4244 8.39181C8.3565 8.44781 8.26145 8.46181 8.26145 8.54581C8.26145 8.56681 8.26145 8.60181 8.32256 8.63681C8.3565 8.65081 8.41082 8.66481 8.51266 8.66481C8.85214 8.66481 9.05582 8.51081 9.15766 8.37781C9.33419 8.18181 9.47677 7.81781 9.55145 7.55881L9.85698 6.52981H9.85019C9.70082 6.73981 9.42924 7.04781 9.21877 7.19481C9.02866 7.33481 8.77745 7.42581 8.58735 7.42581C8.17319 7.42581 8.12566 7.08281 8.12566 6.90081C8.12566 6.80981 8.15961 6.61381 8.18677 6.52981L8.63487 4.78681H8.05098L8.07135 4.69581H9.17124L8.67561 6.69081C8.65524 6.76081 8.64166 6.87981 8.64166 6.94981C8.64166 7.13881 8.76387 7.20181 8.88608 7.20181C9.04903 7.20181 9.21877 7.05481 9.30703 6.97081C9.48356 6.81681 9.62614 6.65581 9.74156 6.50881C9.82303 6.41081 9.88414 6.33381 9.95203 6.19381L10.3322 4.69581H10.8686L10.2779 6.99181Z" fill="black"/>
<path fill-rule="evenodd" clip-rule="evenodd" d="M13.1792 6.48639C13.0095 6.81539 12.8601 7.01139 12.6904 7.16539C12.5003 7.32639 12.2898 7.43139 12.025 7.43139C11.8213 7.43139 11.5769 7.37539 11.4072 7.24939C11.2849 7.16539 10.993 6.89939 10.993 6.33939C10.993 5.82139 11.1967 5.42239 11.5226 5.10039C11.9232 4.69439 12.3441 4.62439 12.6089 4.62439C13.186 4.62439 13.3693 4.98139 13.3693 5.24739C13.3693 5.49239 13.2064 5.66039 12.9755 5.66039C12.7718 5.66039 12.6157 5.51339 12.6157 5.31739C12.6157 5.18439 12.6836 5.12839 12.7379 5.07239C12.7854 5.03039 12.8533 4.97439 12.8533 4.89039C12.8533 4.84839 12.8329 4.79939 12.7922 4.76439C12.7515 4.73639 12.6632 4.71539 12.6021 4.71539C12.4392 4.71539 12.2083 4.78539 12.0386 5.00939C11.9028 5.19139 11.8213 5.42939 11.767 5.61839C11.5769 6.24839 11.5362 6.53539 11.5362 6.70339C11.5362 6.85039 11.5497 6.99739 11.6516 7.14439C11.7602 7.27739 11.8892 7.33339 12.025 7.33339C12.2423 7.33339 12.4731 7.21439 12.6225 7.07439C12.8465 6.88539 13.0095 6.59839 13.0909 6.43739L13.1792 6.48639Z" fill="black"/>
<path fill-rule="evenodd" clip-rule="evenodd" d="M15.9805 6.48639C15.8107 6.81539 15.6614 7.01139 15.4916 7.16539C15.3015 7.32639 15.0911 7.43139 14.8263 7.43139C14.6226 7.43139 14.3782 7.37539 14.2084 7.24939C14.0862 7.16539 13.7943 6.89939 13.7943 6.33939C13.7943 5.82139 14.0047 5.42239 14.3238 5.10039C14.7244 4.69439 15.1454 4.62439 15.4102 4.62439C15.9941 4.62439 16.1774 4.98139 16.1774 5.24739C16.1774 5.49239 16.0076 5.66039 15.7836 5.66039C15.5731 5.66039 15.4237 5.51339 15.4237 5.31739C15.4237 5.18439 15.4848 5.12839 15.5392 5.07239C15.5867 5.03039 15.6546 4.97439 15.6546 4.89039C15.6546 4.84839 15.6342 4.79939 15.5935 4.76439C15.5527 4.73639 15.4645 4.71539 15.4034 4.71539C15.2404 4.71539 15.0096 4.78539 14.8398 5.00939C14.7041 5.19139 14.6226 5.42939 14.5683 5.61839C14.3782 6.24839 14.3374 6.53539 14.3374 6.70339C14.3374 6.85039 14.351 6.99739 14.4596 7.14439C14.5615 7.27739 14.6905 7.33339 14.8263 7.33339C15.0435 7.33339 15.2744 7.21439 15.4305 7.07439C15.6478 6.88539 15.8107 6.59839 15.899 6.43739L15.9805 6.48639Z" fill="black"/>
<path fill-rule="evenodd" clip-rule="evenodd" d="M17.4287 5.85706H17.8089C17.8632 5.85706 17.999 5.85006 18.1008 5.78006C18.2298 5.68906 18.2842 5.46506 18.3249 5.29006C18.3996 5.01706 18.4539 4.84906 18.5489 4.75806C18.61 4.68106 18.7255 4.62506 18.8884 4.62506C19.0106 4.62506 19.1328 4.67406 19.2143 4.75106C19.2822 4.82106 19.3365 4.92606 19.3365 5.05206C19.3365 5.26206 19.1872 5.42306 18.997 5.42306C18.8613 5.42306 18.6779 5.33206 18.6779 5.12906C18.6779 5.04506 18.7187 4.98206 18.7458 4.96106C18.7662 4.93306 18.7866 4.90506 18.7866 4.85606C18.7866 4.81406 18.773 4.78606 18.7119 4.78606C18.6644 4.78606 18.5693 4.80706 18.5014 5.04506C18.4132 5.29706 18.3792 5.56306 18.2842 5.71006C18.2298 5.80106 18.1755 5.85006 18.1008 5.86406V5.88506C18.2027 5.90606 18.3181 5.94806 18.4132 6.00406C18.5897 6.11606 18.6508 6.28406 18.6508 6.48006C18.6508 6.54306 18.6372 6.63406 18.6304 6.67606L18.5761 6.95606C18.5625 7.06106 18.5557 7.11706 18.5557 7.14506C18.5557 7.18006 18.5625 7.25006 18.644 7.25006C18.773 7.25006 18.9563 6.98406 19.0378 6.85806C19.1057 6.75306 19.1736 6.62006 19.2143 6.53606L19.2958 6.57106C19.2415 6.71106 19.1804 6.79506 19.0853 6.94206C18.9224 7.18006 18.7526 7.43206 18.3996 7.43206C18.0126 7.43206 17.999 7.08906 17.999 6.95606C17.999 6.85106 18.0194 6.71806 18.0397 6.61306L18.1144 6.31906C18.128 6.28406 18.1484 6.23506 18.1484 6.15806C18.1484 6.03906 18.1212 5.97606 18.0126 5.95506C17.9786 5.94806 17.8428 5.94106 17.8089 5.94106H17.4151L17.0553 7.36206H16.5121L17.1775 4.78606H16.5936L16.6139 4.69506H17.7206L17.4287 5.85706Z" fill="black"/>
<path fill-rule="evenodd" clip-rule="evenodd" d="M21.8215 6.99179C21.8148 7.02679 21.808 7.10379 21.808 7.13179C21.808 7.21579 21.8759 7.24379 21.9234 7.24379C22.032 7.24379 22.1271 7.12479 22.1814 7.05479C22.2561 6.94979 22.3036 6.87279 22.3715 6.76079C22.419 6.66979 22.453 6.60679 22.4937 6.52979L22.582 6.56479C22.5209 6.71179 22.4665 6.81679 22.3308 7.01979C22.2697 7.11079 22.2018 7.21579 22.0931 7.30679C21.9777 7.39079 21.8487 7.42579 21.7129 7.42579C21.6247 7.42579 21.4957 7.41179 21.4006 7.31379C21.3259 7.22979 21.3055 7.12479 21.3055 7.03379C21.3055 6.88679 21.3463 6.76079 21.3734 6.63479L21.4006 6.52979H21.3802C21.2988 6.64879 21.1901 6.80979 21.0136 6.97079C20.8235 7.15979 20.4772 7.42579 20.1242 7.42579C19.7372 7.42579 19.6489 7.12479 19.6489 6.89379C19.6489 6.74679 19.6964 6.60679 19.7236 6.48779L20.1581 4.78679H19.5878L19.615 4.69579H20.7284L20.2124 6.69079C20.1989 6.76079 20.1785 6.85179 20.1785 6.93579C20.1785 7.14579 20.3143 7.20179 20.4093 7.20179C20.4365 7.20179 20.6062 7.19479 20.8914 6.94279C21.0136 6.83779 21.163 6.66979 21.2784 6.52979C21.3599 6.40379 21.4278 6.29879 21.4821 6.19379L21.8623 4.69579H22.4122L21.8215 6.99179Z" fill="black"/>
<path fill-rule="evenodd" clip-rule="evenodd" d="M25.0667 6.99181C25.0599 7.02681 25.0531 7.10381 25.0531 7.13181C25.0531 7.21581 25.121 7.24381 25.1686 7.24381C25.2772 7.24381 25.3722 7.12481 25.4266 7.05481C25.5012 6.94981 25.5488 6.87281 25.6167 6.76081C25.6642 6.66981 25.6981 6.60681 25.7389 6.52981L25.8271 6.56481C25.766 6.71181 25.7117 6.81681 25.5759 7.01981C25.5148 7.11081 25.4469 7.21581 25.3383 7.30681C25.2229 7.39081 25.0939 7.42581 24.9581 7.42581C24.8698 7.42581 24.7408 7.41181 24.6458 7.31381C24.5711 7.22981 24.5507 7.12481 24.5507 7.03381C24.5507 6.88681 24.5915 6.76081 24.6186 6.63481L24.6458 6.52981H24.6254C24.5439 6.64881 24.4353 6.80981 24.2588 6.97081C24.0687 7.15981 23.7224 7.42581 23.3693 7.42581C22.9823 7.42581 22.8941 7.12481 22.8941 6.89381C22.8941 6.74681 22.9416 6.60681 22.9688 6.48781L23.4033 4.78681H22.833L22.8601 4.69581H23.9736L23.4576 6.69081C23.444 6.76081 23.4237 6.85181 23.4237 6.93581C23.4237 7.14581 23.5527 7.20181 23.6545 7.20181C23.6817 7.20181 23.8514 7.19481 24.1366 6.94281C24.2588 6.83781 24.4081 6.66981 24.5168 6.52981C24.605 6.40381 24.6729 6.29881 24.7272 6.19381L25.1075 4.69581H25.6574L25.0667 6.99181ZM25.63 3.45681C25.4331 3.67381 25.2633 3.82781 25.1275 3.93281C24.8967 4.10081 24.6523 4.22681 24.4146 4.22681C24.2924 4.22681 24.1363 4.18481 24.0344 4.10081C23.9326 4.01681 23.8715 3.89081 23.8715 3.72981C23.8715 3.47781 24.0684 3.35181 24.2585 3.35181C24.4893 3.35181 24.6047 3.53381 24.6047 3.70881C24.6047 3.89081 24.5029 3.93981 24.4418 3.95381C24.4011 3.96781 24.3467 3.98181 24.3467 4.03781C24.3467 4.07981 24.3739 4.12881 24.469 4.12881C24.6319 4.12881 24.8627 3.98881 24.985 3.90481C25.1547 3.79281 25.3516 3.63181 25.5621 3.37981L25.63 3.45681Z" fill="black"/>
</svg>
