<svg width="168" height="34" viewBox="0 0 168 34" fill="none" xmlns="http://www.w3.org/2000/svg">
<path fill-rule="evenodd" clip-rule="evenodd" d="M25.3654 16.3636C25.3573 16.3678 25.3532 16.3678 25.345 16.3678C25.2712 16.9841 25.1893 18.8073 26.4923 20.4903C27.7584 20.7411 29.1844 21.2426 30.5161 21.8461V15.7176C28.7582 15.6666 26.8774 15.8706 25.3654 16.3636ZM12.147 27.8216C6.78738 24.9656 4.42308 26.1088 3.58308 26.5381C3.08318 26.7888 2.26367 27.2861 1.28845 27.7748V28.7523H12.3683C12.2904 28.4421 12.2125 28.1361 12.147 27.8216ZM3.8817 11.7183C6.27877 8.64131 9.82316 5.51756 15.3016 7.75306C15.7236 8.49256 16.6251 8.60731 16.7603 7.77856C17.1578 8.41606 15.9859 9.20231 15.4204 8.34806C10.1428 6.38456 6.70901 8.95581 3.8776 11.7268L3.8817 11.7183ZM15.6957 7.88056C10.7254 2.87406 5.85337 6.64806 4.17747 8.34381C5.1404 6.67356 11.4875 1.48856 15.6957 7.88056ZM15.9994 7.94006C13.295 3.66031 10.3816 2.87406 6.11606 4.82481C8.26728 3.38831 13.0532 1.53106 15.9994 7.94006ZM16.7569 14.1026C16.3758 14.3406 15.6342 13.8093 15.1056 12.9168C14.5729 12.0201 14.45 11.0978 14.8269 10.8556C15.208 10.6091 15.9456 11.1403 16.4783 12.0371C17.0109 12.9338 17.1339 13.8561 16.7569 14.1026ZM6.98897 17.5196C6.57102 17.6811 5.94819 17.0053 5.59989 16.0193C5.2516 15.0291 5.30897 14.1026 5.73102 13.9411C6.14897 13.7838 6.7677 14.4596 7.11599 15.4413C7.46428 16.4358 7.40692 17.3623 6.98897 17.5196ZM25.1244 12.8446C25.7309 12.1136 26.4848 11.7778 26.8003 12.0966C27.1158 12.4153 26.8741 13.2653 26.2635 14.0006C25.653 14.7358 24.9032 15.0673 24.5876 14.7486C24.2721 14.4298 24.5098 13.5756 25.1244 12.8446ZM7.5864 18.0593C9.39342 17.7278 12.5936 19.0963 15.1628 17.7363C13.2492 19.9888 8.52474 18.6331 7.33645 19.1856C6.37352 20.9961 5.41059 23.3506 5.44338 24.6298C8.11499 24.5491 10.4875 25.8326 12.0159 27.1118C11.9421 26.6613 11.8847 26.1938 11.8643 25.6923C11.602 20.5413 16.5027 21.0386 16.8141 21.0301C16.9084 20.7623 16.4494 17.4388 15.6463 16.2403C10.5407 17.1668 13.0894 10.5708 8.37723 9.25756C13.7327 9.75481 10.9546 15.4498 15.7283 14.9356C16.3429 14.8676 16.6502 14.7443 16.8428 14.6551C19.6127 13.1931 18.322 6.21456 23.6611 4.88006C18.8055 6.95406 20.7273 13.7626 17.6869 15.6496C18.2687 17.4133 18.6252 21.4848 18.6252 21.4848C19.4202 21.7611 20.2479 22.3561 21.0141 23.1296C21.4976 21.2851 22.6859 20.4818 24.2307 20.3331C23.9889 19.2111 24.0422 17.5408 24.2143 16.6101C20.8379 16.8778 20.1864 12.6406 22.2229 10.8726C21.0141 12.7553 21.3706 16.6993 24.8289 15.6156C26.5458 15.0758 28.6151 14.8421 30.5164 14.9611V1.50131H22.5056C19.8135 2.21956 17.273 3.74531 16.4576 7.91881C16.3429 4.08956 18.3917 2.31306 20.8338 1.50131H17.8549C16.7035 2.72956 15.8963 4.63356 16.1585 7.61281C15.5357 4.66331 16.1585 2.73806 17.2525 1.50131H16.0561C15.5807 2.73806 15.3267 4.22131 15.7733 6.72031C15.4619 5.84481 14.9169 3.52431 15.7774 1.50131H1.28845V26.0323C1.84162 25.7093 2.3825 25.3608 2.77996 25.1908C5.36962 18.7521 6.76689 18.1571 7.5864 18.0593ZM17.6752 22.4793C13.3973 21.4763 13.3113 24.7956 13.5531 28.7523H22.8914C22.3505 26.6018 20.3837 22.8746 17.6752 22.4793ZM21.8261 24.0306C23.0144 25.5011 23.9117 27.3031 24.0633 28.7523H30.517V22.5686C23.5716 19.8401 22.1498 22.2413 21.8261 24.0306ZM0.842165 29.2113H30.9592V1.04231H0.842165V29.2113ZM0.00192261 30.0868H31.8072V0.166809H0.00192261V30.0868Z" fill="black"/>
<mask id="mask0" mask-type="alpha" maskUnits="userSpaceOnUse" x="41" y="19" width="127" height="12">
<path fill-rule="evenodd" clip-rule="evenodd" d="M41.2677 19.6768H167.665V30.4068H41.2677V19.6768Z" fill="white"/>
</mask>
<g mask="url(#mask0)">
<path fill-rule="evenodd" clip-rule="evenodd" d="M105.796 20.6798L106.656 20.7393L106.673 20.7563L106.927 21.0028V21.4746L102.858 26.8891V21.0028L102.874 20.9858L103.128 20.7393L103.989 20.6798V19.8936H99.1538V20.6798L100.031 20.7393L100.047 20.7563L100.318 20.9986V28.9716L100.305 28.9886L100.035 29.2988L99.1538 29.3583V30.1446H103.989V29.3583L103.124 29.2946L103.112 29.2776L102.858 28.9716V28.3766L106.927 22.9621V28.9716L106.915 28.9886L106.661 29.2988L105.796 29.3583V30.1446H110.631V29.3583L109.734 29.2988L109.721 29.2776L109.467 28.9673V21.0028L109.484 20.9858L109.738 20.7393L110.631 20.6798V19.8936H105.796V20.6798ZM158.638 19.8936V22.8898H159.782L160.081 21.0411L160.097 21.0241L160.363 20.8286H161.884V28.9716L161.568 29.2988L160.601 29.3583V30.1446H165.703V29.3583L164.731 29.2988L164.42 28.9716V20.8286H165.907L165.92 20.8413L166.211 21.0411L166.518 22.8898H167.665V19.8936H158.638ZM47.6886 20.6756L48.5491 20.7393L48.5655 20.7521L48.8195 20.9986V24.2498H44.9719V20.9986L44.9883 20.9816L45.2424 20.7393L46.1029 20.6756V19.8893H41.2677V20.6756L42.1446 20.7393L42.161 20.7521L42.4315 20.9986V28.9631L42.4192 28.9801L42.1487 29.2946L41.2677 29.3541V30.1403H46.1029V29.3541L45.2383 29.2946L45.2219 29.2733L44.9719 28.9631V25.2741H48.8195V28.9631L48.8032 28.9801L48.5491 29.2946L47.6886 29.3541V30.1403H52.5196V29.3541L51.6223 29.2946L51.61 29.2733L51.3559 28.9631V20.9986L51.3764 20.9816L51.6305 20.7393L52.5196 20.6756V19.8893H47.6886V20.6756ZM56.2615 25.7416L57.4661 22.2566L57.5194 22.1078L58.8019 25.7416H56.2615ZM59.2353 19.8128H57.1701L53.7569 29.2946L52.8062 29.3541V30.1403H56.285V29.3498L55.359 29.2478L55.3426 29.2266L55.1746 29.0183L55.9409 26.6638H59.1943L60.0056 29.0311L59.9892 29.0523L59.854 29.2733L58.8706 29.3541V30.1403H63.5828V29.3498L62.6854 29.2266L59.2353 19.8128ZM125.002 20.6798L125.878 20.7393L125.895 20.7563L126.165 20.9986V28.9716L126.153 28.9886L125.883 29.2988L125.002 29.3583V30.1446H129.837V29.3583L128.968 29.2988L128.956 29.2776L128.702 28.9673V20.8286H132.418V28.9673L132.402 28.9886L132.152 29.2988L131.283 29.3583V30.1446H136.118V29.3583L135.225 29.2988L135.209 29.2776L134.959 28.9716V21.0028L134.975 20.9858L135.225 20.7393L136.118 20.6798V19.8936H125.002V20.6798ZM122.375 28.9801L122.367 28.9886L122.112 29.2351L122.096 29.2393C122.014 29.2521 121.899 29.2606 121.756 29.2733C121.6 29.2903 121.453 29.2988 121.313 29.2988C121.014 29.2988 120.736 29.2648 120.482 29.1926C120.228 29.1161 119.998 29.0226 119.793 28.9078C119.584 28.7931 119.404 28.6656 119.252 28.5253C119.101 28.3808 118.97 28.2363 118.859 28.0876C118.568 27.7008 118.347 27.2418 118.207 26.7106C118.068 26.1793 117.998 25.6056 117.998 24.9978C117.998 24.2711 118.097 23.6166 118.302 23.0513C118.498 22.4733 118.777 22.0058 119.129 21.6403C119.195 21.5723 119.285 21.4916 119.404 21.3896C119.527 21.2918 119.678 21.1941 119.863 21.1006C120.043 21.0028 120.256 20.9263 120.498 20.8541C120.74 20.7861 121.014 20.7563 121.313 20.7563C121.49 20.7563 121.637 20.7691 121.768 20.7861C121.899 20.8031 122.014 20.8286 122.125 20.8626L122.391 21.1218L122.743 22.9918H124.014V20.2931C123.522 20.0976 123.022 19.9488 122.518 19.8511C122.002 19.7448 121.477 19.6981 120.945 19.6981H120.928C120.133 19.6981 119.478 19.7746 118.961 19.9403C118.441 20.1018 118.003 20.3016 117.65 20.5353C117.199 20.8201 116.818 21.1473 116.511 21.5128C116.204 21.8783 115.95 22.2651 115.761 22.6603C115.565 23.0598 115.425 23.4593 115.339 23.8673C115.249 24.2753 115.204 24.6663 115.204 25.0403C115.204 25.3506 115.233 25.6651 115.286 25.9966C115.339 26.3281 115.429 26.6596 115.552 26.9996C115.675 27.3311 115.839 27.6668 116.044 27.9941C116.253 28.3171 116.503 28.6231 116.794 28.9078C117.122 29.2266 117.449 29.4731 117.79 29.6643C118.13 29.8513 118.47 29.9958 118.814 30.1021C119.158 30.1998 119.502 30.2721 119.846 30.3103C120.191 30.3358 120.531 30.3571 120.867 30.3571C121.264 30.3571 121.723 30.3231 122.252 30.2466C122.768 30.1701 123.354 30.0171 124.014 29.7918V26.9996H122.743L122.375 28.9801ZM155.225 24.2286C155.111 24.5643 154.947 24.8278 154.73 25.0106C154.508 25.2103 154.238 25.3378 153.939 25.3846C153.644 25.4313 153.382 25.4526 153.148 25.4526H152.976V20.8286H153.636C153.992 20.8286 154.283 20.9093 154.517 21.0581C154.738 21.2026 154.91 21.3726 155.025 21.5681C155.148 21.7721 155.238 22.0101 155.299 22.2906C155.361 22.5626 155.393 22.8473 155.393 23.1278C155.393 23.5231 155.332 23.8886 155.225 24.2286ZM156.753 20.4418C156.667 20.3993 156.552 20.3398 156.409 20.2761C156.265 20.2208 156.085 20.1571 155.864 20.1018C155.647 20.0508 155.376 19.9956 155.057 19.9573C154.745 19.9148 154.376 19.8936 153.962 19.8936H149.197V20.6798L150.209 20.7393L150.226 20.7606L150.434 21.0071V28.9716L150.115 29.2988L149.197 29.3583V30.1446H154.298V29.3583L153.221 29.2988L153.204 29.2733L152.975 28.9673V26.3833L153.032 26.3918C153.299 26.4258 153.59 26.4386 153.905 26.4386C154.516 26.4343 155.102 26.3663 155.663 26.2218C156.224 26.0816 156.683 25.8436 157.056 25.5078C157.175 25.4058 157.286 25.2826 157.409 25.1381C157.523 24.9936 157.634 24.8193 157.732 24.6153C157.835 24.4156 157.921 24.1776 157.982 23.9013C158.044 23.6293 158.076 23.3191 158.076 22.9706C158.076 22.4266 157.978 21.9378 157.786 21.5086C157.593 21.0836 157.253 20.7266 156.753 20.4418ZM145.014 26.9018C144.875 27.5266 144.642 28.0578 144.314 28.4913C144.052 28.8271 143.773 29.0566 143.474 29.1713C143.183 29.2861 142.921 29.3456 142.679 29.3456H142.675C142.4 29.3456 142.113 29.2776 141.822 29.1501C141.527 29.0141 141.245 28.7718 140.987 28.4276C140.733 28.0918 140.519 27.6541 140.351 27.1058C140.179 26.5576 140.097 25.8818 140.097 25.0701C140.093 24.3901 140.163 23.7526 140.306 23.1533C140.446 22.5541 140.659 22.0526 140.954 21.6573C141.216 21.2918 141.499 21.0453 141.806 20.9221C142.101 20.7988 142.38 20.7393 142.638 20.7393C142.74 20.7393 142.863 20.7521 143.003 20.7691C143.146 20.7903 143.298 20.8371 143.457 20.9093C143.625 20.9731 143.785 21.0751 143.953 21.1983C144.117 21.3216 144.273 21.5001 144.424 21.7211C144.625 22.0143 144.81 22.4223 144.973 22.9366C145.141 23.4636 145.223 24.1308 145.223 24.9511C145.223 25.6226 145.15 26.2728 145.014 26.9018ZM146.1 20.7691C145.571 20.3696 145.022 20.0848 144.452 19.9233C143.879 19.7618 143.301 19.6811 142.707 19.6811C141.891 19.6811 141.178 19.7916 140.576 20.0083C139.97 20.2293 139.462 20.5013 139.052 20.8286C138.658 21.1303 138.343 21.4703 138.109 21.8401C137.876 22.2098 137.691 22.5838 137.56 22.9536C137.425 23.3276 137.335 23.6888 137.294 24.0373C137.249 24.3901 137.224 24.7046 137.224 24.9851C137.224 25.4951 137.278 25.9626 137.376 26.3918C137.47 26.8168 137.605 27.2078 137.773 27.5648C137.937 27.9218 138.134 28.2363 138.351 28.5126C138.577 28.7846 138.806 29.0268 139.052 29.2308C139.503 29.6091 140.027 29.8981 140.621 30.1021C141.215 30.3061 141.863 30.4081 142.559 30.4081C143.33 30.4081 144.03 30.2891 144.653 30.0511C145.288 29.8173 145.833 29.5028 146.309 29.1076C146.94 28.5636 147.386 27.9388 147.669 27.2206C147.948 26.5023 148.087 25.7671 148.087 25.0148C148.087 24.2031 147.931 23.4296 147.612 22.6816C147.288 21.9336 146.788 21.2961 146.1 20.7691ZM87.3937 25.7416L88.5983 22.2566L88.6475 22.1078L89.9341 25.7416H87.3937ZM90.3652 19.8128H88.3001L84.8909 29.2946L84.1779 29.3371V30.1403H87.4191V29.3498L86.493 29.2478L86.4808 29.2266L86.3087 29.0183L87.0749 26.6638H90.3284L91.1356 29.0311L91.1233 29.0523L90.9881 29.2733L90.0006 29.3541V30.1403H94.7127V29.3498L93.8236 29.2266L90.3652 19.8128ZM79.5587 24.6748C79.78 24.5771 79.9726 24.4283 80.1365 24.2286C80.2963 24.0288 80.4643 23.7186 80.6323 23.2851L81.1076 22.0356C81.1568 21.9208 81.1977 21.8231 81.2264 21.7296C81.2592 21.6318 81.3248 21.5086 81.4272 21.3598L81.46 21.3046L82.7097 22.4138C83.0539 22.3628 83.3203 22.2056 83.5211 21.9548C83.7259 21.6871 83.8284 21.3811 83.8284 21.0241C83.8284 20.8116 83.7956 20.6373 83.73 20.4971C83.6645 20.3568 83.5866 20.2378 83.5006 20.1358C83.3981 20.0296 83.2547 19.9233 83.0703 19.8256C82.89 19.7236 82.6442 19.6768 82.3205 19.6768C82.0664 19.6768 81.8452 19.7108 81.6526 19.7873C81.4641 19.8638 81.2838 19.9701 81.1199 20.1103C80.8576 20.3313 80.661 20.5821 80.5257 20.8541C80.3864 21.1346 80.2635 21.4108 80.1529 21.6786L79.5587 23.1618C79.4768 23.3361 79.3948 23.5103 79.3088 23.6761C79.2227 23.8461 79.1039 23.9906 78.9605 24.1138C78.8089 24.2371 78.645 24.3178 78.4729 24.3476C78.3131 24.3731 78.1737 24.3816 78.0631 24.3816H77.3378V20.9986L77.3583 20.9816L77.6083 20.7393L78.4401 20.6756V19.8893H73.5763V20.6756L74.5269 20.7393L74.5433 20.7521L74.8015 20.9986V28.9631L74.7851 28.9801L74.531 29.2946L73.5763 29.3541V30.1403H78.4401V29.3541L77.6042 29.2946L77.5878 29.2733L77.3378 28.9631V25.4101H77.7968C77.9074 25.4101 78.0344 25.4313 78.1656 25.4696C78.3049 25.5078 78.4401 25.5928 78.5753 25.7246C78.6982 25.8393 78.8089 25.9881 78.8949 26.1623C78.981 26.3323 79.0506 26.4981 79.1121 26.6511L80.2758 29.5963V30.1403H83.8284V29.3286L83.058 29.2648L83.0457 29.2521L82.7466 28.9843L81.8247 26.8976C81.7468 26.7063 81.6239 26.4768 81.46 26.2133C81.3002 25.9456 81.0953 25.7033 80.8413 25.4653C80.6118 25.2656 80.4028 25.1126 80.1979 25.0191C79.9972 24.9256 79.7841 24.8576 79.571 24.8193L79.5259 24.8108V24.6876L79.5587 24.6748ZM69.6147 20.6798L70.553 20.8158L70.5653 20.8456L70.6924 21.1431L69.082 25.3846L66.7259 21.0198L66.7464 20.9901L66.9103 20.7393L67.7503 20.6756V19.8893H63.034V20.6798L64.0297 20.8286L67.8528 27.8113L67.8446 27.8411C67.7831 28.0196 67.697 28.2023 67.5864 28.3851C67.4717 28.5763 67.3488 28.7378 67.2053 28.8611C67.0865 28.9716 66.9513 29.0608 66.7915 29.1288C66.6317 29.2011 66.4719 29.2351 66.3162 29.2351H66.1482L66.1318 29.2223L65.9105 29.0226L65.6442 27.2121H64.378V29.9746C64.8083 30.1403 65.1689 30.2423 65.468 30.2891C65.7794 30.3316 66.017 30.3528 66.185 30.3528C66.9677 30.3528 67.6151 30.1276 68.1437 29.6728C68.2092 29.6176 68.2953 29.5241 68.3977 29.4136C68.5002 29.3031 68.6108 29.1586 68.7378 28.9801C68.8567 28.8016 68.9878 28.5848 69.1189 28.3341C69.2541 28.0748 69.3934 27.7646 69.541 27.3948L72.188 20.8158L73.0812 20.6798V19.8893H69.6147V20.6798Z" fill="black"/>
</g>
<path fill-rule="evenodd" clip-rule="evenodd" d="M68.51 9.677L67.6741 9.61751L67.6618 9.6005L67.4078 9.29026V5.73726H67.8667C67.9815 5.73726 68.1044 5.75851 68.2355 5.79251C68.3789 5.83501 68.5141 5.92001 68.6494 6.0475C68.7723 6.17075 68.8788 6.31101 68.9649 6.4895C69.0509 6.6595 69.1247 6.821 69.182 6.97825L70.3457 9.91926V10.4675H74.1401V9.677L73.128 9.58776L73.1157 9.57925L72.8166 9.3115L71.8946 7.22476C71.8168 7.03351 71.6979 6.80401 71.534 6.54051C71.3742 6.27276 71.1653 6.02626 70.9112 5.79251C70.6858 5.59276 70.4728 5.43975 70.2679 5.34201C70.063 5.24851 69.8581 5.18051 69.641 5.14226L69.5959 5.13376V5.01901L69.6328 5.00201C69.8499 4.90426 70.0425 4.75551 70.2064 4.55576C70.3703 4.36026 70.5342 4.04576 70.7022 3.61226L71.1817 2.35851C71.2308 2.25226 71.2677 2.15026 71.2964 2.05676C71.3292 1.95476 71.3988 1.83151 71.4972 1.68701L71.534 1.63601L72.7838 2.74101C73.128 2.68576 73.3943 2.53276 73.591 2.27776C73.8 2.01426 73.8983 1.70826 73.9024 1.34701C73.9024 1.13876 73.8656 0.964506 73.8041 0.824256C73.7344 0.679756 73.6566 0.556506 73.5746 0.463006C73.4722 0.356756 73.3247 0.250506 73.1403 0.152756C72.9641 0.0507558 72.7141 -0.000244141 72.3945 -0.000244141C72.1405 -0.000244141 71.9192 0.0380059 71.7266 0.114506C71.534 0.191006 71.3537 0.293006 71.1898 0.437506C70.9276 0.658506 70.7309 0.909256 70.5957 1.18126C70.4564 1.46176 70.3335 1.73801 70.2228 2.00151L69.6287 3.48901C69.5467 3.66326 69.4648 3.83751 69.3828 4.00326C69.2927 4.17326 69.1779 4.31776 69.0304 4.43676C68.8747 4.56426 68.7149 4.64501 68.5428 4.67051C68.383 4.69601 68.2478 4.71301 68.1331 4.71301H67.4078V1.32576L67.4242 1.30451L67.6782 1.06226L68.51 0.998506V0.216506H63.6462V0.998506L64.5969 1.06226L64.6133 1.07926L64.8714 1.32576V9.29026L64.855 9.30725L64.601 9.61751L63.6462 9.677V10.4675H68.51V9.677Z" fill="black"/>
<path fill-rule="evenodd" clip-rule="evenodd" d="M79.2128 8.13723L79.2046 8.16273C79.1431 8.34123 79.057 8.52823 78.9464 8.71523C78.8317 8.90648 78.7047 9.06373 78.5653 9.19123C78.4465 9.29748 78.3113 9.38673 78.1515 9.45898C77.9958 9.52273 77.836 9.56098 77.6762 9.56098H77.5082L77.4959 9.54398L77.2664 9.34848L77.0042 7.53798H75.738V10.2962C76.1642 10.462 76.5329 10.5682 76.828 10.6107C77.1435 10.6575 77.377 10.683 77.545 10.683C78.3277 10.683 78.9792 10.4535 79.5037 9.99873C79.5692 9.93923 79.6553 9.84998 79.7618 9.73948C79.8602 9.63323 79.9749 9.48448 80.0978 9.30598C80.2167 9.12748 80.3478 8.91498 80.483 8.65573C80.6141 8.40073 80.7534 8.09048 80.9009 7.71648L83.548 1.14173L84.4412 1.00573V0.219482H80.9788V1.00573L81.913 1.14173L81.9294 1.17148L82.0524 1.47323L80.442 5.71473L78.09 1.34573L78.2703 1.06098L79.1144 1.00148V0.219482H74.3981V1.00573L75.3897 1.15448L79.2128 8.13723Z" fill="black"/>
<path fill-rule="evenodd" clip-rule="evenodd" d="M54.1987 7.31954C54.3217 7.65529 54.4856 7.98679 54.6945 8.30979C54.8953 8.64129 55.1453 8.94304 55.4444 9.22779C55.7681 9.54229 56.1 9.79729 56.436 9.98429C56.7761 10.1713 57.1162 10.3158 57.4604 10.4178C57.8046 10.5198 58.1488 10.592 58.493 10.626C58.8372 10.6643 59.1773 10.6813 59.5133 10.6813C59.9107 10.6813 60.3697 10.6388 60.8982 10.5665C61.4145 10.49 62.0046 10.337 62.6602 10.1075V7.31954H61.3899L61.0253 9.30004L61.013 9.31704L60.763 9.55504L60.7425 9.55929C60.6606 9.56779 60.5458 9.58054 60.3983 9.59754C60.2467 9.61454 60.1033 9.62304 59.964 9.62304C59.6608 9.62304 59.378 9.58479 59.1281 9.51254C58.8781 9.44029 58.6487 9.34679 58.4397 9.22779C58.2307 9.11304 58.0504 8.98554 57.8988 8.84104C57.7472 8.70079 57.6161 8.55629 57.5055 8.41179C57.2104 8.02079 56.9974 7.56604 56.8539 7.03054C56.7146 6.50354 56.645 5.93404 56.645 5.31779C56.645 4.58679 56.7433 3.94079 56.9441 3.36704C57.149 2.79754 57.4235 2.32154 57.78 1.95604C57.8415 1.89654 57.9316 1.81154 58.0504 1.71804C58.1734 1.61179 58.325 1.51829 58.5053 1.42054C58.6897 1.32704 58.8986 1.24629 59.1445 1.18254C59.3862 1.11029 59.6608 1.07629 59.964 1.07629C60.132 1.07629 60.2836 1.08479 60.4188 1.10604C60.5458 1.13154 60.6565 1.14854 60.7712 1.18679L61.0376 1.44179L61.3899 3.31604H62.6602V0.617294C62.1685 0.417544 61.6686 0.273044 61.1646 0.166794C60.6483 0.0690439 60.1197 0.0137939 59.587 0.0137939C58.788 0.0137939 58.1283 0.103044 57.612 0.264544C57.0875 0.426044 56.6491 0.625794 56.2967 0.855294C55.8418 1.14429 55.4649 1.47154 55.1535 1.83279C54.8461 2.20254 54.5962 2.58504 54.4036 2.98029C54.2151 3.37554 54.0758 3.77929 53.9857 4.19154C53.8955 4.59529 53.8504 4.98629 53.8504 5.36454C53.8504 5.67054 53.8791 5.98929 53.9365 6.32079C53.9898 6.65229 54.0758 6.98804 54.1987 7.31954Z" fill="black"/>
<path fill-rule="evenodd" clip-rule="evenodd" d="M100.577 10.6813C100.97 10.6813 101.433 10.643 101.962 10.5665C102.478 10.49 103.064 10.337 103.724 10.1075V7.31951H102.454L102.089 9.30001L102.072 9.31276L101.822 9.55501L101.802 9.55926C101.724 9.57201 101.609 9.58051 101.462 9.59751C101.31 9.61451 101.163 9.62301 101.023 9.62301C100.72 9.62301 100.442 9.58476 100.188 9.51251C99.9376 9.44026 99.7081 9.34251 99.5033 9.22776C99.2943 9.11301 99.114 8.98551 98.9624 8.84101C98.8108 8.70076 98.6797 8.56051 98.569 8.41176C98.274 8.02501 98.0568 7.56601 97.9175 7.03051C97.7782 6.50351 97.7085 5.92976 97.7085 5.31776C97.7085 4.58676 97.8069 3.94076 98.0077 3.36701C98.2084 2.79751 98.4871 2.32151 98.8395 1.95601C98.9009 1.89651 98.9952 1.81151 99.114 1.71376C99.2328 1.61176 99.3844 1.51401 99.5688 1.42051C99.7532 1.32701 99.9663 1.24626 100.204 1.17826C100.45 1.11026 100.72 1.07626 101.023 1.07626C101.196 1.07626 101.343 1.08901 101.478 1.10601C101.605 1.12726 101.716 1.14851 101.835 1.18251L102.101 1.44176L102.454 3.31601H103.724V0.617255C103.228 0.417505 102.728 0.273005 102.224 0.171005C101.708 0.0690054 101.183 0.0180054 100.655 0.0180054C99.8516 0.0180054 99.1919 0.0987554 98.6715 0.264505C98.1511 0.426005 97.7126 0.625755 97.3602 0.855255C96.9054 1.14426 96.5284 1.47151 96.2211 1.83701C95.9097 2.20251 95.6557 2.58501 95.4672 2.98026C95.2746 3.37551 95.1353 3.78351 95.0451 4.18726C94.9591 4.59526 94.914 4.99051 94.914 5.36451C94.914 5.66626 94.9427 5.98926 94.996 6.32076C95.0492 6.65226 95.1394 6.98376 95.2623 7.31951C95.3811 7.65526 95.545 7.98676 95.754 8.30976C95.963 8.63701 96.2129 8.94301 96.5039 9.22776C96.8276 9.54226 97.1595 9.79726 97.4996 9.98426C97.8397 10.1755 98.1798 10.32 98.5239 10.4178C98.8681 10.524 99.2123 10.592 99.5524 10.626C99.8966 10.66 100.241 10.6813 100.577 10.6813Z" fill="black"/>
<path fill-rule="evenodd" clip-rule="evenodd" d="M47.91 1.00274L48.7705 1.06224L48.7869 1.07924L49.0409 1.32574V1.80174L44.972 7.21624V1.32574L44.9884 1.30874L45.2425 1.06224L46.103 1.00274V0.216492H41.2679V1.00274L42.1447 1.06224L42.1611 1.07499L42.4316 1.32149V9.29024L42.4193 9.30724L42.1488 9.62174L41.2679 9.68124V10.4632H46.103V9.68124L45.2384 9.61749L45.222 9.60049L44.972 9.29024V8.69524L49.0409 3.28074V9.29024L49.0286 9.30724L48.7746 9.62174L47.91 9.68124V10.4632H52.741V9.68124L51.8478 9.62174L51.8355 9.60049L51.5814 9.29024V1.32574L51.5978 1.30874L51.8518 1.06224L52.741 1.00274V0.216492H47.91V1.00274Z" fill="black"/>
<path fill-rule="evenodd" clip-rule="evenodd" d="M104.784 3.20681H105.935L106.23 1.36231L106.247 1.34956L106.513 1.15406H108.029V9.29706L107.718 9.62005L106.751 9.67956V10.4658H111.848V9.67956L110.885 9.62005L110.57 9.29706V1.15406H112.057L112.069 1.16681L112.36 1.35806L112.668 3.20681H113.815V0.219055H104.784V3.20681Z" fill="black"/>
<path fill-rule="evenodd" clip-rule="evenodd" d="M85.1525 7.31954C85.2754 7.65529 85.4394 7.98679 85.6442 8.30979C85.8491 8.64129 86.0991 8.94304 86.3941 9.22779C86.7178 9.54229 87.0497 9.79729 87.3857 9.98429C87.7299 10.1713 88.07 10.3158 88.4101 10.4178C88.7584 10.5198 89.0985 10.592 89.4468 10.626C89.791 10.6643 90.1311 10.6813 90.4671 10.6813C90.8604 10.6813 91.3234 10.6388 91.852 10.5665C92.3683 10.49 92.9584 10.337 93.614 10.1075V7.31954H92.3437L91.975 9.30004L91.9668 9.31704L91.7127 9.55504L91.6922 9.55929C91.6144 9.56779 91.4996 9.58054 91.3521 9.59754C91.2005 9.61454 91.053 9.62304 90.9137 9.62304C90.6146 9.62304 90.3318 9.58479 90.0778 9.51254C89.8278 9.44029 89.5984 9.34679 89.3935 9.22779C89.1845 9.11304 89.0042 8.98554 88.8526 8.84104C88.701 8.70079 88.5658 8.55629 88.4592 8.41179C88.1642 8.02079 87.9471 7.56604 87.8077 7.03054C87.6684 6.50354 87.5988 5.93404 87.5988 5.31779C87.5988 4.58679 87.6971 3.94079 87.8979 3.36704C88.0987 2.79754 88.3773 2.32154 88.7297 1.95604C88.7912 1.89654 88.8854 1.81154 89.0042 1.71804C89.1272 1.61179 89.2788 1.51829 89.4591 1.42054C89.6434 1.32704 89.8524 1.24629 90.0983 1.18254C90.34 1.11029 90.6146 1.07629 90.9137 1.07629C91.0858 1.07629 91.2333 1.08479 91.3726 1.10604C91.4996 1.13154 91.6103 1.14854 91.725 1.18679L91.9913 1.44179L92.3437 3.31604H93.614V0.617294C93.1223 0.417544 92.6224 0.273044 92.1143 0.166794C91.598 0.0690439 91.0735 0.0137939 90.5408 0.0137939C89.7418 0.0137939 89.078 0.103044 88.5617 0.264544C88.0413 0.426044 87.6029 0.625794 87.2505 0.855294C86.7956 1.14429 86.4187 1.47154 86.1073 1.83279C85.7999 2.20254 85.55 2.58504 85.3574 2.98029C85.1648 3.37554 85.0255 3.77929 84.9354 4.19154C84.8493 4.59529 84.8042 4.98629 84.8042 5.36454C84.8042 5.67054 84.8288 5.98929 84.8862 6.32079C84.9394 6.65229 85.0296 6.98804 85.1525 7.31954Z" fill="black"/>
<path fill-rule="evenodd" clip-rule="evenodd" d="M132.866 7.22435C132.726 7.8491 132.493 8.38035 132.169 8.81385C131.907 9.14535 131.624 9.3791 131.329 9.49385C131.034 9.61285 130.772 9.6681 130.534 9.6681H130.526C130.251 9.6681 129.969 9.60435 129.678 9.46835C129.379 9.3366 129.1 9.09435 128.838 8.7501C128.584 8.4101 128.371 7.97235 128.203 7.42835C128.03 6.8801 127.944 6.20435 127.944 5.3926C127.944 4.7126 128.014 4.07085 128.158 3.47585C128.297 2.88085 128.514 2.37935 128.805 1.97985C129.067 1.61435 129.35 1.36785 129.657 1.24035C129.952 1.1171 130.231 1.06185 130.489 1.06185C130.591 1.06185 130.71 1.07035 130.854 1.09585C130.997 1.11285 131.153 1.15535 131.313 1.2276C131.477 1.2956 131.64 1.39335 131.8 1.52085C131.964 1.64835 132.124 1.8226 132.276 2.03935C132.476 2.33685 132.661 2.74485 132.825 3.26335C132.993 3.78185 133.075 4.45335 133.075 5.2736C133.075 5.9451 133.005 6.59535 132.866 7.22435ZM135.463 3.0041C135.143 2.2561 134.643 1.6186 133.955 1.08735C133.422 0.687847 132.873 0.407347 132.304 0.245847C131.734 0.0843471 131.156 0.00359709 130.562 0.00359709C129.743 -0.000652914 129.034 0.109847 128.427 0.330847C127.825 0.551847 127.317 0.823847 126.903 1.14685C126.51 1.45285 126.198 1.79285 125.961 2.1626C125.727 2.53235 125.543 2.90635 125.411 3.2761C125.276 3.64585 125.19 4.01135 125.145 4.35985C125.1 4.7126 125.08 5.0271 125.08 5.30335C125.08 5.81335 125.125 6.28085 125.227 6.7101C125.325 7.1351 125.457 7.53035 125.625 7.88735C125.788 8.24435 125.985 8.5546 126.206 8.8351C126.424 9.1071 126.657 9.34935 126.903 9.55335C127.354 9.92735 127.878 10.2163 128.472 10.4203C129.067 10.6243 129.714 10.7263 130.411 10.7263C131.181 10.7263 131.882 10.6116 132.508 10.3778C133.139 10.1398 133.689 9.8211 134.16 9.4301C134.791 8.89035 135.242 8.26135 135.52 7.5431C135.799 6.8206 135.942 6.08535 135.942 5.33735C135.942 4.52985 135.782 3.7521 135.463 3.0041ZM120.982 8.2231C120.941 8.49935 120.818 8.7501 120.613 8.98385C120.466 9.14535 120.302 9.2686 120.113 9.3621C119.925 9.4471 119.724 9.5151 119.515 9.55335C119.31 9.5916 119.097 9.6086 118.876 9.6086C118.663 9.6086 118.458 9.59585 118.261 9.57885L118.208 9.57035V5.6476H118.74C118.802 5.6476 118.892 5.65185 119.011 5.6561C119.134 5.66035 119.269 5.67735 119.421 5.70285C119.572 5.7241 119.724 5.76235 119.88 5.81335C120.039 5.8601 120.183 5.92385 120.314 6.00885C120.613 6.20435 120.814 6.44235 120.908 6.7356C120.998 7.0161 121.043 7.30935 121.043 7.60685C121.043 7.75135 121.023 7.9596 120.982 8.2231ZM118.208 1.09585H118.65C118.855 1.09585 119.081 1.11285 119.33 1.15535C119.589 1.19785 119.818 1.3041 120.027 1.4741C120.24 1.6526 120.384 1.87785 120.445 2.14135C120.506 2.38785 120.535 2.61735 120.535 2.82985C120.535 3.0806 120.506 3.3271 120.445 3.56935C120.384 3.8031 120.285 4.00285 120.15 4.16435C120.002 4.35135 119.777 4.5001 119.474 4.61485C119.261 4.6956 119.003 4.73385 118.699 4.73385C118.564 4.73385 118.417 4.72535 118.261 4.70835L118.208 4.7041V1.09585ZM122.876 5.66035C122.724 5.54135 122.552 5.43935 122.367 5.3671C122.183 5.28635 121.999 5.22685 121.827 5.18435C121.646 5.1376 121.482 5.09935 121.331 5.08235C121.179 5.0611 121.052 5.04835 120.958 5.04835H120.905V4.9166L120.95 4.90385C121.253 4.85285 121.544 4.7636 121.822 4.6276C122.097 4.48735 122.359 4.2791 122.617 3.9816C122.81 3.7521 122.945 3.52685 123.023 3.30585C123.097 3.08485 123.134 2.8426 123.134 2.56635C123.134 1.75885 122.839 1.1681 122.24 0.764347C121.937 0.564597 121.577 0.420097 121.15 0.339347C120.72 0.258597 120.286 0.220347 119.843 0.220347H114.553V1.00235L115.459 1.06185L115.471 1.07885L115.729 1.32535V9.28985L115.717 9.30685L115.463 9.6171L114.553 9.6766V10.4671H119.962C120.081 10.4671 120.245 10.4628 120.458 10.4501C120.667 10.4416 120.901 10.4118 121.159 10.3566C121.413 10.3098 121.671 10.2333 121.937 10.1398C122.199 10.0378 122.449 9.90185 122.683 9.7191C122.994 9.48535 123.24 9.19635 123.421 8.8436C123.597 8.4951 123.687 8.05735 123.687 7.53885C123.687 6.9906 123.601 6.57835 123.429 6.3021C123.253 6.0216 123.068 5.80485 122.876 5.66035Z" fill="black"/>
</svg>
