<svg width="65" height="81" viewBox="0 0 65 81" fill="none" xmlns="http://www.w3.org/2000/svg">
<mask id="mask0" mask-type="alpha" maskUnits="userSpaceOnUse" x="1" y="65" width="6" height="8">
<path fill-rule="evenodd" clip-rule="evenodd" d="M1.29931 65.5724H6.69036V72.8032H1.29931V65.5724Z" fill="white"/>
</mask>
<g mask="url(#mask0)">
<path fill-rule="evenodd" clip-rule="evenodd" d="M1.41331 67.1559H1.99731V69.9253L1.98271 70.4242H2.01191C2.15061 70.1495 2.23091 70.0193 2.37691 69.7879L4.01211 67.1559H4.66911V71.2196H4.08511V68.4502L4.10701 67.9441H4.07781C3.92451 68.2622 3.82961 68.3852 3.70551 68.5804L2.07031 71.2196H1.41331V67.1559Z" fill="black"/>
</g>
<path fill-rule="evenodd" clip-rule="evenodd" d="M5.88302 67.1559H6.47432V68.8552H8.42342V67.1559H9.00742V71.2196H8.42342V69.3685H6.47432V71.2196H5.88302V67.1559Z" fill="black"/>
<path fill-rule="evenodd" clip-rule="evenodd" d="M12.4243 67.516H12.5776C13.0959 67.516 13.4682 67.6895 13.6945 67.8631C14.0303 68.1234 14.315 68.5644 14.315 69.1284C14.315 69.6346 14.096 70.0901 13.7456 70.3794C13.5996 70.4878 13.2273 70.7409 12.5776 70.7409H12.4243V71.276H11.833V70.7409H11.687C11.0373 70.7409 10.6577 70.4878 10.5117 70.3794C10.1686 70.0901 9.94958 69.6346 9.94958 69.1284C9.94958 68.5644 10.227 68.1234 10.5701 67.8631C10.7964 67.6895 11.1687 67.516 11.687 67.516H11.833V66.9954H12.4243V67.516ZM11.6712 67.9932C11.4814 67.9932 11.1675 68.0221 10.9047 68.2607C10.7514 68.4054 10.5689 68.6657 10.5689 69.1284C10.5689 69.5551 10.7076 69.8081 10.8682 69.9672C11.1237 70.2275 11.4449 70.2637 11.6712 70.2637H11.8318V67.9932H11.6712ZM12.424 70.2637H12.5846C12.8182 70.2637 13.1394 70.2275 13.3949 69.9672C13.5555 69.8081 13.6942 69.5551 13.6942 69.1284C13.6942 68.6657 13.5117 68.4054 13.3511 68.2607C13.0956 68.0221 12.7817 67.9932 12.5846 67.9932H12.424V70.2637Z" fill="black"/>
<path fill-rule="evenodd" clip-rule="evenodd" d="M18.563 67.7141C18.8696 68.0612 19.0667 68.5673 19.0667 69.1892C19.0667 69.8183 18.855 70.3316 18.563 70.6643C18.3075 70.9607 17.8476 71.2716 17.103 71.2716C16.3511 71.2716 15.8985 70.9607 15.6357 70.6643C15.3437 70.3316 15.132 69.8183 15.132 69.1892C15.132 68.5673 15.3364 68.0612 15.6357 67.7141C15.9715 67.3309 16.446 67.0995 17.103 67.0995C17.76 67.0995 18.2345 67.3309 18.563 67.7141ZM16.1029 68.0756C15.8912 68.3432 15.7525 68.7698 15.7525 69.1892C15.7525 69.529 15.8474 69.9773 16.1029 70.2955C16.3 70.5558 16.6066 70.7655 17.103 70.7655C17.5921 70.7655 17.906 70.5558 18.1031 70.2955C18.3513 69.9773 18.4462 69.529 18.4462 69.1892C18.4462 68.7698 18.3148 68.3432 18.1031 68.0756C17.9133 67.837 17.5775 67.6056 17.103 67.6056C16.6212 67.6056 16.2854 67.837 16.1029 68.0756Z" fill="black"/>
<path fill-rule="evenodd" clip-rule="evenodd" d="M20.0238 67.1559H21.0896C21.4035 67.1559 21.878 67.192 22.2211 67.4523C22.4182 67.6042 22.6299 67.879 22.6299 68.3562C22.6299 68.725 22.4985 68.9997 22.3525 69.1588C22.0021 69.571 21.44 69.5927 21.1845 69.5927H20.6078V71.2196H20.0238V67.1559ZM20.6083 69.0865H21.1923C21.4113 69.0865 21.6668 69.0142 21.8128 68.8768C21.9004 68.7973 22.0026 68.631 22.0026 68.3779C22.0026 68.1393 21.915 67.9657 21.7398 67.8428C21.5281 67.691 21.2872 67.6693 21.1047 67.6693H20.6083V69.0865Z" fill="black"/>
<path fill-rule="evenodd" clip-rule="evenodd" d="M23.488 67.1559H24.4516L25.7364 70.5327L26.992 67.1559H27.9629V71.2196H27.3789V67.6982H27.3643L26.0138 71.2196H25.4371L24.0866 67.6982H24.0793V71.2196H23.488V67.1559Z" fill="black"/>
<path fill-rule="evenodd" clip-rule="evenodd" d="M30.5285 67.1559H31.1417L32.8718 71.2196H32.2294L31.8133 70.1928H29.8131L29.397 71.2196H28.7838L30.5285 67.1559ZM30.8134 67.6982L30.0031 69.7156H31.631L30.8134 67.6982Z" fill="black"/>
<path fill-rule="evenodd" clip-rule="evenodd" d="M34.2747 67.1559V70.7062H36.0851V67.1559H36.6691V70.7062H37.1363V72.1234H36.5596V71.2196H33.6907V67.1559H34.2747Z" fill="black"/>
<path fill-rule="evenodd" clip-rule="evenodd" d="M37.9775 67.1559H38.5615V69.9253L38.5469 70.4242H38.5761C38.7148 70.1495 38.7951 70.0193 38.9411 69.7879L40.5836 67.1559H41.2333V71.2196H40.6493V68.4502L40.6712 67.9441H40.642C40.4887 68.2622 40.3938 68.3852 40.2697 68.5804L38.6345 71.2196H37.9775V67.1559Z" fill="black"/>
<path fill-rule="evenodd" clip-rule="evenodd" d="M45.6528 67.7141C45.9594 68.0612 46.1565 68.5673 46.1565 69.1892C46.1565 69.8183 45.9521 70.3316 45.6528 70.6643C45.3973 70.9607 44.9374 71.2716 44.1928 71.2716C43.4409 71.2716 42.9883 70.9607 42.7255 70.6643C42.4335 70.3316 42.2218 69.8183 42.2218 69.1892C42.2218 68.5673 42.4262 68.0612 42.7255 67.7141C43.0613 67.3309 43.5358 67.0995 44.1928 67.0995C44.8498 67.0995 45.3243 67.3309 45.6528 67.7141ZM43.1927 68.0756C42.981 68.3432 42.8423 68.7698 42.8423 69.1892C42.8423 69.529 42.9372 69.9773 43.1927 70.2955C43.3898 70.5558 43.6964 70.7655 44.1928 70.7655C44.6819 70.7655 44.9958 70.5558 45.1929 70.2955C45.4411 69.9773 45.536 69.529 45.536 69.1892C45.536 68.7698 45.4046 68.3432 45.1929 68.0756C45.0031 67.837 44.6746 67.6056 44.1928 67.6056C43.711 67.6056 43.3752 67.837 43.1927 68.0756Z" fill="black"/>
<path fill-rule="evenodd" clip-rule="evenodd" d="M47.1451 67.1559H47.7291V68.8552H49.6855V67.1559H50.2695V71.2196H49.6855V69.3685H47.7291V71.2196H47.1451V67.1559Z" fill="black"/>
<path fill-rule="evenodd" clip-rule="evenodd" d="M51.483 67.1559H52.067V68.8552H54.0234V67.1559H54.6074V71.2196H54.0234V69.3685H52.067V71.2196H51.483V67.1559Z" fill="black"/>
<mask id="mask1" mask-type="alpha" maskUnits="userSpaceOnUse" x="55" y="67" width="8" height="8">
<path fill-rule="evenodd" clip-rule="evenodd" d="M55.5942 67.0995H62.8898V74.3303H55.5942V67.0995Z" fill="white"/>
</mask>
<g mask="url(#mask1)">
<path fill-rule="evenodd" clip-rule="evenodd" d="M59.025 67.7141C59.3316 68.0612 59.5287 68.5673 59.5287 69.1892C59.5287 69.8183 59.317 70.3316 59.025 70.6643C58.7622 70.9607 58.3096 71.2716 57.5577 71.2716C56.8131 71.2716 56.3532 70.9607 56.0977 70.6643C55.8057 70.3316 55.594 69.8183 55.594 69.1892C55.594 68.5673 55.7911 68.0612 56.0977 67.7141C56.4335 67.3309 56.9007 67.0995 57.5577 67.0995C58.2147 67.0995 58.6892 67.3309 59.025 67.7141ZM56.5576 68.0756C56.3459 68.3432 56.2145 68.7698 56.2145 69.1892C56.2145 69.529 56.3094 69.9773 56.5576 70.2955C56.7547 70.5558 57.0686 70.7655 57.5577 70.7655C58.0541 70.7655 58.3607 70.5558 58.5651 70.2955C58.8133 69.9773 58.9082 69.529 58.9082 69.1892C58.9082 68.7698 58.7695 68.3432 58.5651 68.0756C58.3753 67.837 58.0395 67.6056 57.5577 67.6056C57.0759 67.6056 56.7474 67.837 56.5576 68.0756Z" fill="black"/>
</g>
<mask id="mask2" mask-type="alpha" maskUnits="userSpaceOnUse" x="58" y="65" width="5" height="8">
<path fill-rule="evenodd" clip-rule="evenodd" d="M58.0075 65.5724H62.8897V72.8032H58.0075V65.5724Z" fill="white"/>
</mask>
<g mask="url(#mask2)">
<path fill-rule="evenodd" clip-rule="evenodd" d="M60.5161 67.1559H62.801V67.6693H61.1074V68.8552H62.655V69.3685H61.1074V70.7062H62.801V71.2196H60.5161V67.1559Z" fill="black"/>
</g>
<mask id="mask3" mask-type="alpha" maskUnits="userSpaceOnUse" x="1" y="75" width="8" height="5">
<path fill-rule="evenodd" clip-rule="evenodd" d="M1.29941 75.2696H8.59722V79.3875H1.29941V75.2696Z" fill="white"/>
</mask>
<g mask="url(#mask3)">
<path fill-rule="evenodd" clip-rule="evenodd" d="M3.04305 75.2695H3.65625L5.38635 79.3332H4.74395L4.33515 78.3065H2.32765L1.91885 79.3332H1.29835L3.04305 75.2695ZM3.33527 75.8118L2.51767 77.8292H4.14557L3.33527 75.8118Z" fill="black"/>
</g>
<mask id="mask4" mask-type="alpha" maskUnits="userSpaceOnUse" x="3" y="73" width="9" height="7">
<path fill-rule="evenodd" clip-rule="evenodd" d="M3.73095 73.686H11.0309V79.3875H3.73095V73.686Z" fill="white"/>
</mask>
<g mask="url(#mask4)">
<path fill-rule="evenodd" clip-rule="evenodd" d="M6.2969 75.2696H8.465V75.7757H6.8809V79.3333H6.2969V75.2696Z" fill="black"/>
</g>
<mask id="mask5" mask-type="alpha" maskUnits="userSpaceOnUse" x="6" y="73" width="9" height="7">
<path fill-rule="evenodd" clip-rule="evenodd" d="M6.89078 73.686H14.1908V79.3875H6.89078V73.686Z" fill="white"/>
</mask>
<g mask="url(#mask5)">
<path fill-rule="evenodd" clip-rule="evenodd" d="M9.39833 75.2696H11.6832V75.7757H9.98963V76.9688H11.5372V77.4822H9.98963V78.8199H11.6832V79.3333H9.39833V75.2696Z" fill="black"/>
</g>
<mask id="mask6" mask-type="alpha" maskUnits="userSpaceOnUse" x="10" y="73" width="9" height="7">
<path fill-rule="evenodd" clip-rule="evenodd" d="M10.7351 73.686H18.0351V79.3875H10.7351V73.686Z" fill="white"/>
</mask>
<g mask="url(#mask6)">
<path fill-rule="evenodd" clip-rule="evenodd" d="M12.8229 75.2696H13.4069V76.9688H15.3633V75.2696H15.9473V79.3333H15.3633V77.4822H13.4069V79.3333H12.8229V75.2696Z" fill="black"/>
</g>
<mask id="mask7" mask-type="alpha" maskUnits="userSpaceOnUse" x="14" y="73" width="9" height="7">
<path fill-rule="evenodd" clip-rule="evenodd" d="M14.7985 73.6846H22.0985V79.3875H14.7985V73.6846Z" fill="white"/>
</mask>
<g mask="url(#mask7)">
<path fill-rule="evenodd" clip-rule="evenodd" d="M18.1565 75.7779H16.8863V75.2717H20.0107V75.7779H18.7405V79.3282H18.1565V75.7779Z" fill="black"/>
</g>
<mask id="mask8" mask-type="alpha" maskUnits="userSpaceOnUse" x="18" y="73" width="8" height="7">
<path fill-rule="evenodd" clip-rule="evenodd" d="M18.4521 73.6846H25.7521V79.3875H18.4521V73.6846Z" fill="white"/>
</mask>
<g mask="url(#mask8)">
<path fill-rule="evenodd" clip-rule="evenodd" d="M23.5913 75.9478C23.3358 75.796 23.0438 75.7236 22.7518 75.7236C22.3868 75.7236 22.0218 75.8321 21.7517 76.049C21.4232 76.3021 21.1823 76.736 21.1823 77.3C21.1823 77.7916 21.3648 78.146 21.5692 78.3773C21.8466 78.7027 22.2554 78.8763 22.8102 78.8763C23.0073 78.8763 23.2847 78.8329 23.6059 78.6883L23.6424 79.245C23.3066 79.3752 23.0292 79.3897 22.7956 79.3897C22.2481 79.3897 21.6057 79.2812 21.1239 78.7967C20.8173 78.4786 20.5618 77.9507 20.5618 77.3C20.5618 76.8733 20.6713 76.1575 21.321 75.6586C21.7444 75.3404 22.27 75.2103 22.7518 75.2103C23.1971 75.2103 23.4526 75.297 23.6424 75.391L23.5913 75.9478Z" fill="black"/>
</g>
<mask id="mask9" mask-type="alpha" maskUnits="userSpaceOnUse" x="22" y="73" width="8" height="7">
<path fill-rule="evenodd" clip-rule="evenodd" d="M22.3516 73.6846H29.6516V79.3875H22.3516V73.6846Z" fill="white"/>
</mask>
<g mask="url(#mask9)">
<path fill-rule="evenodd" clip-rule="evenodd" d="M25.7096 75.7779H24.4394V75.2717H27.5638V75.7779H26.2936V79.3282H25.7096V75.7779Z" fill="black"/>
</g>
<mask id="mask10" mask-type="alpha" maskUnits="userSpaceOnUse" x="28" y="75" width="8" height="5">
<path fill-rule="evenodd" clip-rule="evenodd" d="M28.4967 75.2696H35.7967V79.3875H28.4967V75.2696Z" fill="white"/>
</mask>
<g mask="url(#mask10)">
<path fill-rule="evenodd" clip-rule="evenodd" d="M28.4961 75.2695H29.6057C29.9561 75.2695 30.3941 75.3129 30.7007 75.5515C30.9343 75.7251 31.0365 75.9781 31.0365 76.2963C31.0365 76.4626 31.0073 76.7085 30.8321 76.9181C30.6788 77.0917 30.416 77.2146 30.197 77.258V77.2725C30.4671 77.2869 30.708 77.4026 30.8686 77.5472C31.0292 77.7063 31.1387 77.9521 31.1387 78.2414C31.1387 78.6318 30.9854 78.8777 30.8248 79.0151C30.4817 79.3043 29.9123 79.3332 29.5838 79.3332H28.4961V75.2695ZM29.0811 77.0049H29.4096C29.6651 77.0049 30.0812 77.0049 30.2929 76.8025C30.4389 76.6578 30.4535 76.4698 30.4535 76.3686C30.4535 76.1734 30.4024 76.0143 30.2418 75.8986C30.0958 75.7829 29.8841 75.7468 29.7016 75.7468H29.0811V77.0049ZM29.0805 78.856H29.5258C29.774 78.856 30.1609 78.8343 30.3653 78.6318C30.4456 78.5378 30.5186 78.4077 30.5186 78.1763C30.5186 77.916 30.431 77.728 30.1682 77.5906C29.9638 77.4966 29.7083 77.4821 29.4601 77.4821H29.0805V78.856Z" fill="black"/>
</g>
<mask id="mask11" mask-type="alpha" maskUnits="userSpaceOnUse" x="32" y="75" width="8" height="5">
<path fill-rule="evenodd" clip-rule="evenodd" d="M32.0451 75.2132H39.3451V79.3875H32.0451V75.2132Z" fill="white"/>
</mask>
<g mask="url(#mask11)">
<path fill-rule="evenodd" clip-rule="evenodd" d="M35.4763 75.8278C35.7829 76.1748 35.98 76.681 35.98 77.3028C35.98 77.9319 35.7683 78.4453 35.4763 78.7779C35.2208 79.0744 34.7609 79.3853 34.009 79.3853C33.2644 79.3853 32.8045 79.0744 32.549 78.7779C32.257 78.4453 32.0453 77.9319 32.0453 77.3028C32.0453 76.681 32.2424 76.1748 32.549 75.8278C32.8848 75.4445 33.352 75.2131 34.009 75.2131C34.666 75.2131 35.1405 75.4445 35.4763 75.8278ZM33.0162 76.1893C32.7972 76.4568 32.6658 76.8834 32.6658 77.3028C32.6658 77.6427 32.7607 78.091 33.0162 78.4091C33.206 78.6694 33.5199 78.8791 34.009 78.8791C34.5054 78.8791 34.812 78.6694 35.0164 78.4091C35.2646 78.091 35.3595 77.6427 35.3595 77.3028C35.3595 76.8834 35.2208 76.4568 35.0164 76.1893C34.8266 75.9507 34.4908 75.7193 34.009 75.7193C33.5345 75.7193 33.1987 75.9507 33.0162 76.1893Z" fill="black"/>
</g>
<mask id="mask12" mask-type="alpha" maskUnits="userSpaceOnUse" x="38" y="75" width="9" height="5">
<path fill-rule="evenodd" clip-rule="evenodd" d="M38.7909 75.2696H46.0909V79.3875H38.7909V75.2696Z" fill="white"/>
</mask>
<g mask="url(#mask12)">
<path fill-rule="evenodd" clip-rule="evenodd" d="M38.7907 75.2695H39.8638C40.1704 75.2695 40.6449 75.3057 40.988 75.566C41.1851 75.7178 41.3968 75.9926 41.3968 76.4698C41.3968 76.8386 41.2654 77.1134 41.1194 77.2725C40.769 77.6846 40.2069 77.7063 39.9514 77.7063H39.3747V79.3332H38.7907V75.2695ZM39.375 77.2001H39.959C40.178 77.2001 40.4335 77.1278 40.5795 76.9905C40.6671 76.9109 40.7766 76.7446 40.7766 76.4915C40.7766 76.2529 40.6817 76.0794 40.5065 75.9565C40.2948 75.8046 40.0539 75.7757 39.8714 75.7757H39.375V77.2001Z" fill="black"/>
</g>
<mask id="mask13" mask-type="alpha" maskUnits="userSpaceOnUse" x="42" y="75" width="8" height="5">
<path fill-rule="evenodd" clip-rule="evenodd" d="M42.2287 75.2132H49.5287V79.3875H42.2287V75.2132Z" fill="white"/>
</mask>
<g mask="url(#mask13)">
<path fill-rule="evenodd" clip-rule="evenodd" d="M45.6599 75.8278C45.9665 76.1748 46.1636 76.681 46.1636 77.3028C46.1636 77.9319 45.9519 78.4453 45.6599 78.7779C45.4044 79.0744 44.9445 79.3853 44.1999 79.3853C43.448 79.3853 42.9954 79.0744 42.7326 78.7779C42.4406 78.4453 42.2289 77.9319 42.2289 77.3028C42.2289 76.681 42.4333 76.1748 42.7326 75.8278C43.0684 75.4445 43.5429 75.2131 44.1999 75.2131C44.8569 75.2131 45.3314 75.4445 45.6599 75.8278ZM43.1998 76.1893C42.9881 76.4568 42.8494 76.8834 42.8494 77.3028C42.8494 77.6427 42.9443 78.091 43.1998 78.4091C43.3969 78.6694 43.7035 78.8791 44.1999 78.8791C44.689 78.8791 45.0029 78.6694 45.2 78.4091C45.4482 78.091 45.5431 77.6427 45.5431 77.3028C45.5431 76.8834 45.4117 76.4568 45.2 76.1893C45.0102 75.9507 44.6817 75.7193 44.1999 75.7193C43.7181 75.7193 43.3823 75.9507 43.1998 76.1893Z" fill="black"/>
</g>
<mask id="mask14" mask-type="alpha" maskUnits="userSpaceOnUse" x="44" y="73" width="9" height="7">
<path fill-rule="evenodd" clip-rule="evenodd" d="M44.9967 73.6846H52.2967V79.3875H44.9967V73.6846Z" fill="white"/>
</mask>
<g mask="url(#mask14)">
<path fill-rule="evenodd" clip-rule="evenodd" d="M50.1395 75.9478C49.8767 75.796 49.5847 75.7236 49.2927 75.7236C48.9277 75.7236 48.57 75.8321 48.2999 76.049C47.9714 76.3021 47.7232 76.736 47.7232 77.3C47.7232 77.7916 47.9057 78.146 48.1174 78.3773C48.3948 78.7027 48.7963 78.8763 49.3584 78.8763C49.5482 78.8763 49.8329 78.8329 50.1541 78.6883L50.1906 79.245C49.8475 79.3752 49.5774 79.3897 49.3365 79.3897C48.789 79.3897 48.1539 79.2812 47.6721 78.7967C47.3655 78.4786 47.1027 77.9507 47.1027 77.3C47.1027 76.8733 47.2122 76.1575 47.8692 75.6586C48.2926 75.3404 48.8182 75.2103 49.2927 75.2103C49.738 75.2103 49.9935 75.297 50.1833 75.391L50.1395 75.9478Z" fill="black"/>
</g>
<mask id="mask15" mask-type="alpha" maskUnits="userSpaceOnUse" x="48" y="73" width="9" height="7">
<path fill-rule="evenodd" clip-rule="evenodd" d="M48.7857 73.6846H56.0857V79.3875H48.7857V73.6846Z" fill="white"/>
</mask>
<g mask="url(#mask15)">
<path fill-rule="evenodd" clip-rule="evenodd" d="M53.9249 75.9478C53.6694 75.796 53.3774 75.7236 53.0854 75.7236C52.7204 75.7236 52.3554 75.8321 52.0853 76.049C51.7568 76.3021 51.5159 76.736 51.5159 77.3C51.5159 77.7916 51.6911 78.146 51.9028 78.3773C52.1802 78.7027 52.5817 78.8763 53.1438 78.8763C53.3409 78.8763 53.6183 78.8329 53.9395 78.6883L53.976 79.245C53.6402 79.3752 53.3628 79.3897 53.1219 79.3897C52.5817 79.3897 51.9393 79.2812 51.4575 78.7967C51.1509 78.4786 50.8954 77.9507 50.8954 77.3C50.8954 76.8733 50.9976 76.1575 51.6546 75.6586C52.078 75.3404 52.6036 75.2103 53.0854 75.2103C53.5307 75.2103 53.7862 75.297 53.9687 75.391L53.9249 75.9478Z" fill="black"/>
</g>
<mask id="mask16" mask-type="alpha" maskUnits="userSpaceOnUse" x="52" y="73" width="9" height="7">
<path fill-rule="evenodd" clip-rule="evenodd" d="M52.9935 73.686H60.2935V79.3875H52.9935V73.686Z" fill="white"/>
</mask>
<g mask="url(#mask16)">
<path fill-rule="evenodd" clip-rule="evenodd" d="M55.0156 75.2696H55.5996V78.039L55.585 78.5379H55.6142C55.7529 78.2631 55.8332 78.133 55.9792 77.9016L57.6144 75.2696H58.2714V79.3333H57.6874V76.5639L57.7093 76.0577H57.6801C57.5268 76.3759 57.4319 76.4988 57.3078 76.694L55.6726 79.3333H55.0156V75.2696Z" fill="black"/>
</g>
<mask id="mask17" mask-type="alpha" maskUnits="userSpaceOnUse" x="57" y="73" width="6" height="7">
<path fill-rule="evenodd" clip-rule="evenodd" d="M57.5874 73.686H62.8893V79.3875H57.5874V73.686Z" fill="white"/>
</mask>
<g mask="url(#mask17)">
<path fill-rule="evenodd" clip-rule="evenodd" d="M59.6102 75.2696H60.1942V78.039L60.1796 78.5379H60.2088C60.3475 78.2631 60.4278 78.133 60.5738 77.9016L62.209 75.2696H62.866V79.3333H62.282V76.5639L62.3039 76.0577H62.2747C62.1214 76.3759 62.0265 76.4988 61.9024 76.694L60.2672 79.3333H59.6102V75.2696Z" fill="black"/>
</g>
<path fill-rule="evenodd" clip-rule="evenodd" d="M22.4616 48.0486C22.4616 48.7644 22.9872 49.285 23.7026 49.285H28.7396V46.7977H23.7026C22.9872 46.7977 22.4616 47.311 22.4616 48.0486Z" fill="black"/>
<mask id="mask18" mask-type="alpha" maskUnits="userSpaceOnUse" x="1" y="0" width="62" height="62">
<path fill-rule="evenodd" clip-rule="evenodd" d="M1.464 0.232239H62.8899V61.0726H1.464V0.232239Z" fill="white"/>
</mask>
<g mask="url(#mask18)">
<path fill-rule="evenodd" clip-rule="evenodd" d="M51.462 49.1781H58.6817V52.4464H51.462C48.9362 52.4464 47.301 50.9351 47.301 48.5417V42.3305C47.301 39.9588 48.9362 38.4114 51.462 38.4114H59.5431L57.6451 41.6797H51.462C51.0678 41.6797 50.7831 41.9184 50.7831 42.3305V48.5417C50.7831 48.9611 51.0678 49.1781 51.462 49.1781ZM38.5339 49.1781H45.7463V52.4464H38.5339C36.0008 52.4464 34.3656 50.9351 34.3656 48.5417V42.3305C34.3656 39.9588 36.0008 38.4114 38.5339 38.4114H46.6077L44.7097 41.6797H38.5339C38.1324 41.6797 37.8477 41.9184 37.8477 42.3305V48.5417C37.8477 48.9611 38.1324 49.1781 38.5339 49.1781ZM32.2268 52.4464H23.277C20.7658 52.4464 18.9262 50.617 18.9262 48.1296C18.9262 45.6567 20.7658 43.8273 23.277 43.8273H28.7447V42.3305C28.7447 41.9184 28.4965 41.6797 28.0804 41.6797H19.6562L21.5615 38.4114H28.0804C30.5916 38.4114 32.2268 39.9588 32.2268 42.3305V52.4464ZM13.6775 41.6797V52.4464H10.1954V41.6797H5.31173V38.4114H19.2328L17.3348 41.6797H13.6775ZM1.464 61.0727H62.8935V0.232971H1.464V61.0727Z" fill="black"/>
</g>
</svg>
