<svg width="94" height="82" viewBox="0 0 94 82" fill="none" xmlns="http://www.w3.org/2000/svg">
<path fill-rule="evenodd" clip-rule="evenodd" d="M9.15865 36.1087C11.542 37.8776 11.5754 41.7052 12.3243 41.6613C13.0794 41.6174 13.1036 40.1706 12.7519 38.9289C12.3971 37.6901 11.5541 36.6271 11.9483 35.9711C12.3365 35.3151 12.955 35.3941 13.6252 35.3883C14.2923 35.3854 19.9838 35.3883 22.1792 35.4264C24.3776 35.4644 27.243 35.1745 28.4286 35.9652C29.6234 36.753 30.1116 38.2993 30.2177 39.2716C30.4421 41.304 30.4906 44.1213 30.5543 44.912C30.6119 45.7027 31.4488 60.8317 31.4063 61.3325C31.3699 61.8362 31.4488 62.0002 31.3336 62.2872C31.2214 62.5742 30.8878 63.1131 30.1995 63.2214C29.5112 63.3298 10.0319 63.2214 9.81058 63.2214C9.58923 63.2214 9.10407 62.8056 9.21626 62.2316C9.32846 61.6576 11.921 54.5236 12.0029 54.3625C12.0908 54.2014 12.2485 54.014 12.573 54.014C12.8974 54.014 23.5467 53.9525 24.5322 53.9613C25.5207 53.9701 25.7754 53.5571 25.9574 53.1823C26.2333 52.6054 26.1605 49.7734 25.8967 48.5756C25.4146 46.4026 23.4254 45.0233 22.7765 45.0409C22.1246 45.0584 12.1485 44.9208 11.9817 45.0819C11.8149 45.2429 11.6481 45.4684 11.4268 46.4759C11.2054 47.4833 9.98039 54.0579 9.11923 56.3949C8.26717 58.729 7.93362 59.5754 7.53942 60.3983C7.15129 61.2271 6.45994 62.8056 5.95658 63.0955C5.45626 63.3825 4.64058 63.2741 4.52839 62.9169C4.4162 62.5566 4.30097 61.5668 4.71033 59.016C5.12271 56.4652 6.86929 47.8962 6.57213 46.4231C6.27497 44.9501 5.45626 44.9676 5.08329 44.9676C4.71033 44.9676 2.94555 44.9852 2.6302 44.8241C2.31181 44.6631 1.47491 44.4317 1.5871 43.313C1.69929 42.2001 2.47858 40.4401 2.518 39.2189C2.55439 37.9976 2.40278 35.5904 2.68478 35.1042C2.96375 34.621 3.33065 34.3809 4.022 34.3809C4.70729 34.3809 7.82142 35.1042 9.15865 36.1087Z" fill="black"/>
<path fill-rule="evenodd" clip-rule="evenodd" d="M47.355 44.6642C47.355 43.5162 47.2822 41.5394 46.4999 40.0312C45.7176 38.52 44.2469 38.2535 43.3342 38.2711C42.4246 38.2887 30.7261 38.233 30.1651 38.233C29.6072 38.233 29.3495 38.0163 28.9765 38.5933C28.6005 39.1673 29.683 40.9303 29.8649 41.718C30.0529 42.5088 30.1409 43.7563 29.5071 43.809C28.8764 43.8676 28.7491 43.0125 28.6399 42.0402C28.5308 41.0738 28.0456 39.5245 26.8539 38.7368C25.6622 37.946 22.7998 38.233 20.6044 38.1979C18.4091 38.1598 12.7145 38.1569 12.0444 38.1598C11.3773 38.1657 10.7617 38.0837 10.3675 38.7426C9.9794 39.3957 10.8163 40.4588 11.1711 41.7005C11.5289 42.9422 11.5016 44.3889 10.7496 44.4328C9.99456 44.4768 10.5252 40.778 7.80527 38.8803C6.46501 37.8758 3.13256 37.1553 2.44121 37.1553C1.75592 37.1553 1.38598 37.3925 1.10398 37.8758C0.828045 38.3619 0.973593 40.7663 0.937206 41.9875C0.900819 43.2116 0.121528 44.9717 0.0123672 46.0845C-0.0998264 47.2003 0.734045 47.4317 1.0494 47.5928C1.36779 47.7568 3.13256 47.7392 3.50553 47.7392C3.8785 47.7392 4.70024 47.7187 4.99437 49.1947C5.29153 50.6678 3.54495 59.2368 3.13256 61.7875C2.72321 64.3383 2.83843 65.3282 2.94759 65.6855C3.05979 66.0457 3.8785 66.154 4.38185 65.8641C4.88217 65.58 5.5705 63.9986 5.96469 63.1728C6.35282 62.344 6.68637 61.5005 7.5445 59.1665C8.39656 56.8295 9.62766 50.2548 9.85205 49.2474C10.0734 48.2429 10.2371 48.0145 10.4039 47.8534C10.5707 47.6923 20.5468 47.83 21.1957 47.8124C21.8507 47.7948 23.8338 49.1742 24.3189 51.3472C24.5858 52.545 24.6586 55.374 24.3796 55.9538C24.2007 56.3287 23.9399 56.7416 22.9575 56.7328C21.9689 56.724 11.3197 56.7855 10.9952 56.7855C10.6677 56.7855 10.5131 56.973 10.4282 57.134C10.3433 57.2951 7.75069 64.4291 7.63546 65.0031C7.5263 65.58 8.00843 65.993 8.23585 65.993C8.45721 65.993 27.9334 66.1013 28.6187 65.993C29.3131 65.8846 29.6436 65.3458 29.7528 65.0588C29.8649 64.7718 29.7952 64.6107 29.8316 64.104C29.8649 63.6003 28.9765 47.6835 28.9765 47.6835C28.9765 47.6835 39.8047 47.7568 40.2474 47.8651C40.6962 47.9705 40.7295 48.0789 41.3633 48.6178C41.997 49.1566 43.1129 51.0631 43.6314 55.3388C44.1529 59.6116 44.062 63.4568 44.0074 64.2827C43.9498 65.1115 42.4519 66.0369 42.4519 66.0369C43.7133 66.0252 47.1003 66.2097 47.6613 65.7821C48.1373 65.4219 48.3193 64.968 48.3193 64.391C48.3193 63.817 47.355 45.8151 47.355 44.6642Z" fill="black"/>
<path fill-rule="evenodd" clip-rule="evenodd" d="M2.44251 37.1539C1.75419 37.1539 1.38425 37.3911 1.10528 37.8743C0.829349 38.3604 0.974898 40.7677 0.938511 41.9889C0.899091 43.2102 0.119801 44.9702 0.0106397 46.086C-0.101554 47.2018 0.735349 47.4332 1.0507 47.5942C1.31148 47.726 2.55774 47.7377 3.19754 47.7377H3.50683H3.53412C3.91619 47.7377 4.70458 47.7553 4.99567 49.1932C5.2898 50.6692 3.54322 59.2353 3.13387 61.7861C2.72451 64.3398 2.83974 65.3297 2.9489 65.6869C3.01561 65.9037 3.34612 66.0296 3.70696 66.0296C3.93741 66.0296 4.18303 65.9769 4.38316 65.8656C4.88348 65.5786 5.56877 64.0001 5.96296 63.1742C6.35109 62.3454 6.68464 61.4991 7.5458 59.165C8.39787 56.828 9.62593 50.2534 9.85032 49.2459C10.0747 48.2444 10.2354 48.013 10.4052 47.8519C10.4659 47.7904 11.9456 47.7729 13.7892 47.7729C16.5061 47.7729 20.0175 47.8139 20.9757 47.8139C21.0818 47.8139 21.1576 47.8139 21.197 47.8109H21.2061C21.8732 47.8109 23.8381 49.1874 24.3203 51.3457C24.5871 52.5435 24.6568 55.3754 24.3779 55.9524C24.202 56.3243 23.9473 56.7314 22.9861 56.7314H22.9588C22.8921 56.7314 22.7859 56.7314 22.6464 56.7314C20.6239 56.7314 11.2997 56.7841 10.9935 56.7841C10.669 56.7841 10.5113 56.9715 10.4295 57.1326C10.3415 57.2937 7.75199 64.4277 7.63677 65.0017C7.52761 65.5786 8.00974 65.9915 8.23412 65.9915C8.3827 65.9915 17.0883 66.0413 23.0801 66.0413C26.0759 66.0413 28.3926 66.0267 28.62 65.9915C29.3113 65.8832 29.6449 65.3443 29.7541 65.0573C29.8663 64.7703 29.7965 64.6092 29.8299 64.1026C29.8663 63.6018 28.9778 47.6821 28.9778 47.6821C28.9778 47.6821 39.803 47.7553 40.2487 47.8637C40.6944 47.9691 40.7308 48.0774 41.3646 48.6192C41.9983 49.1552 43.1112 51.0617 43.6327 55.3374C44.1543 59.6102 44.0633 63.4583 44.0057 64.2842C43.9481 65.11 42.4501 66.0354 42.4501 66.0354H42.5744C43.1657 66.0354 44.1057 66.0677 45.0245 66.0677C46.2101 66.0677 47.3563 66.0149 47.6595 65.7836C48.1356 65.4234 48.3206 64.9665 48.3206 64.3925C48.3206 63.8156 47.3563 45.8166 47.3563 44.6627C47.3563 43.5147 47.2805 41.5409 46.4982 40.0297C45.7401 38.5684 44.3362 38.2697 43.4204 38.2697C43.3932 38.2697 43.3628 38.2726 43.3325 38.2726C43.2112 38.2755 42.9019 38.2755 42.4471 38.2755C39.5058 38.2755 30.6516 38.2345 30.1664 38.2345C29.9239 38.2345 29.7419 38.1935 29.5782 38.1935C29.3629 38.1935 29.187 38.2638 28.9778 38.5918C28.6018 39.1658 29.6813 40.9288 29.8663 41.7195C30.0512 42.5102 30.1422 43.7549 29.5084 43.8076C29.4872 43.8105 29.469 43.8105 29.4478 43.8105C28.8686 43.8105 28.7473 42.9788 28.6412 42.0417C28.5321 41.0723 28.0439 39.526 26.8552 38.7353C26.1335 38.2579 24.8115 38.1759 23.3893 38.1759C22.604 38.1759 21.7913 38.1994 21.0363 38.1994C20.8877 38.1994 20.7452 38.1994 20.6027 38.1964C18.7924 38.1672 14.5897 38.1584 12.8068 38.1584C12.4308 38.1584 12.1639 38.1613 12.0457 38.1613H11.9668H11.7091C11.1724 38.1613 10.6933 38.1964 10.3658 38.7412C9.97767 39.3972 10.8176 40.4573 11.1724 41.7019C11.5272 42.9407 11.4999 44.3874 10.7479 44.4314H10.7327C9.9989 44.4314 10.5083 40.7648 7.80657 38.8788C6.46328 37.8743 3.13387 37.1539 2.44251 37.1539ZM2.44246 37.7396C3.01859 37.7396 6.22975 38.4395 7.44872 39.3532C8.98304 40.4251 9.36814 42.1998 9.61982 43.3742C9.81388 44.2557 9.97459 45.0171 10.7812 45.0171H10.7842C11.1299 44.9966 11.4361 44.8297 11.6454 44.5456C12.1608 43.8515 12.0426 42.5395 11.7576 41.5467C11.6241 41.084 11.4331 40.6447 11.2512 40.2406C11.0601 39.8042 10.7933 39.2039 10.8934 39.034C11.0328 38.7997 11.1784 38.7441 11.8243 38.7441H11.8334L12.0456 38.747H12.0487L12.8067 38.7441C14.5867 38.7441 18.7833 38.7529 20.5936 38.7851L21.0363 38.788C21.4123 38.788 21.8065 38.7792 22.2037 38.7734C22.5979 38.7675 22.9981 38.7617 23.3893 38.7617C24.5203 38.7617 25.897 38.8114 26.5095 39.2185C27.4677 39.8511 27.9286 41.1689 28.0347 42.1061C28.1499 43.0725 28.2985 44.3933 29.5508 44.3933H29.5599C29.8601 44.3669 30.1239 44.2234 30.3028 43.9833C30.7971 43.3302 30.5758 42.0914 30.4575 41.5907C30.3847 41.2744 30.2088 40.8761 30.0269 40.4514C29.8389 40.018 29.4447 39.116 29.4932 38.9022C29.5418 38.8261 29.5721 38.7909 29.5812 38.7792C29.6357 38.7792 29.6873 38.788 29.751 38.7939C29.8723 38.8056 30.0087 38.8202 30.1664 38.8202L32.3314 38.829C35.2667 38.8407 40.3548 38.8612 42.447 38.8612C42.9079 38.8612 43.2233 38.8612 43.4204 38.8583C44.0905 38.8583 45.3125 39.0428 45.9584 40.2933C46.7468 41.8191 46.7468 43.9599 46.7468 44.6627C46.7468 45.3539 47.0712 51.6357 47.3563 57.1765C47.5382 60.7669 47.7141 64.1612 47.7141 64.3925C47.7141 64.823 47.5928 65.0924 47.3078 65.3092C47.2319 65.3472 46.8317 65.479 45.0245 65.479C44.697 65.479 44.3665 65.4761 44.0511 65.4702C44.3452 65.1305 44.5818 64.7322 44.6121 64.3193C44.6667 63.5052 44.7607 59.5779 44.233 55.27C43.6054 50.104 42.1832 48.5372 41.7678 48.1799L41.4434 47.8988C41.0795 47.5767 40.8976 47.4156 40.3972 47.2955C39.9454 47.1872 33.0531 47.1257 28.9808 47.0964L28.3349 47.0934L28.3713 47.7143C28.723 54.0107 29.2416 63.5637 29.2264 64.0616C29.2082 64.2754 29.2112 64.4335 29.2143 64.5653C29.2143 64.7439 29.2143 64.782 29.1839 64.8552C29.1567 64.9372 28.9778 65.3414 28.532 65.4117C28.3925 65.4292 27.4919 65.4556 23.08 65.4556C17.9039 65.4556 10.7023 65.4175 8.74349 65.4087L8.36446 65.4292C8.36446 65.4292 8.19162 65.315 8.23104 65.1129C8.35233 64.5477 10.8236 57.7417 10.9934 57.3698L13.0068 57.3581C15.9421 57.3464 21.1909 57.3171 22.6464 57.3171H22.986C24.2353 57.3171 24.681 56.7197 24.9297 56.1984C25.3208 55.3784 25.1571 52.3209 24.9115 51.2227C24.3657 48.7832 22.1764 47.2252 21.1818 47.2252H20.9756C20.6208 47.2252 19.9113 47.2223 19.0168 47.2164C17.5128 47.2047 15.4933 47.1872 13.7892 47.1872C10.2354 47.1872 10.202 47.2223 9.97459 47.439C9.69259 47.7114 9.49246 48.0628 9.25898 49.1229C9.21349 49.3221 9.12859 49.7409 9.0164 50.3002C8.57065 52.5201 7.64278 57.1326 6.97266 58.9688C6.12969 61.2619 5.79311 62.1141 5.41104 62.9282L5.25336 63.265C5.01382 63.7834 4.37098 65.1598 4.07382 65.3619C3.98285 65.4117 3.84336 65.4439 3.70691 65.4439C3.65536 65.4439 3.61291 65.4409 3.57653 65.4409C3.54014 65.4409 3.51588 65.4439 3.51588 65.4644C3.44917 65.192 3.34607 64.3017 3.7342 61.8769C3.83124 61.2648 4.00711 60.3072 4.21027 59.1826C5.10175 54.327 5.81736 50.2153 5.58995 49.0819C5.3322 47.8022 4.64388 47.1549 3.40369 47.1549H3.19749C1.67227 47.1549 1.34782 47.0759 1.33569 47.0759L1.19924 47.0114L1.18407 47.0056C0.792913 46.8299 0.559429 46.6922 0.61401 46.1417C0.656461 45.6936 0.835365 45.0903 1.02033 44.4519C1.26595 43.6172 1.52065 42.7504 1.54491 42.0065C1.55401 41.6375 1.55098 41.1631 1.54491 40.6623C1.53582 39.8306 1.51762 38.4337 1.63285 38.1613C1.79962 37.8743 1.96336 37.7396 2.44246 37.7396Z" fill="white"/>
<mask id="mask0" mask-type="alpha" maskUnits="userSpaceOnUse" x="0" y="-1" width="93" height="82">
<path fill-rule="evenodd" clip-rule="evenodd" d="M0 80.2162H92.7113V-0.000305176H0V80.2162Z" fill="white"/>
</mask>
<g mask="url(#mask0)">
<path fill-rule="evenodd" clip-rule="evenodd" d="M53.8741 40.8972H54.5473V36.0826H53.8741V40.8972Z" fill="black"/>
<path fill-rule="evenodd" clip-rule="evenodd" d="M54.2132 34.8646C52.1421 34.8646 50.4592 36.4929 50.4592 38.4931C50.4592 40.4904 52.1421 42.1158 54.2132 42.1158C56.2842 42.1158 57.9671 40.4904 57.9671 38.4931C57.9671 36.4929 56.2842 34.8646 54.2132 34.8646ZM54.2131 42.2651C52.0572 42.2651 50.3045 40.5724 50.3045 38.4931C50.3045 36.408 52.0572 34.7153 54.2131 34.7153C56.369 34.7153 58.1247 36.408 58.1247 38.4931C58.1247 40.5724 56.369 42.2651 54.2131 42.2651Z" fill="black"/>
<path fill-rule="evenodd" clip-rule="evenodd" d="M22.7504 4.78876C24.3333 4.78876 24.5304 3.91605 24.5304 3.24248C24.5304 2.56598 24.3333 1.69326 22.7504 1.69326H22.6777V4.78876H22.7504ZM21.5952 1.69326H21.5225C19.9366 1.69326 19.7425 2.56598 19.7425 3.24248C19.7425 3.91605 19.9366 4.78876 21.5225 4.78876H21.5952V1.69326ZM21.5952 5.57948H21.3678C20.7916 5.57948 18.5872 5.46234 18.5872 3.24248C18.5872 2.33755 18.9996 0.902549 21.3678 0.902549H21.5952V0.000549316H22.6777V0.902549H22.9051C25.2733 0.902549 25.6857 2.33755 25.6857 3.24248C25.6857 5.46234 23.4752 5.57948 22.9051 5.57948H22.6777V6.39069H21.5952V5.57948Z" fill="black"/>
<path fill-rule="evenodd" clip-rule="evenodd" d="M29.4811 5.45652C30.9366 5.45652 31.2155 4.17674 31.2155 3.29816C31.2155 2.41666 30.9366 1.13981 29.4811 1.13981C28.0226 1.13981 27.7436 2.41666 27.7436 3.29816C27.7436 4.17674 28.0226 5.45652 29.4811 5.45652ZM29.4811 0.275879C29.9936 0.275879 32.3709 0.340307 32.3709 3.29816C32.3709 6.25602 29.9936 6.32045 29.4811 6.32045C28.9656 6.32045 26.5883 6.25602 26.5883 3.29816C26.5883 0.340307 28.9656 0.275879 29.4811 0.275879Z" fill="black"/>
<path fill-rule="evenodd" clip-rule="evenodd" d="M34.7197 6.14883H33.6402V0.446899H34.7197V2.72826H37.3456V0.446899H38.4281V6.14883H37.3456V3.59219H34.7197V6.14883Z" fill="black"/>
<path fill-rule="evenodd" clip-rule="evenodd" d="M41.9183 1.31113V1.99349C41.9183 3.25863 41.7758 4.21042 41.0996 5.2852H43.7073V1.31113H41.9183ZM45.5964 5.2852L45.5449 7.43478H44.6018V6.14913H40.3112V7.43478H39.3651L39.3166 5.2852H39.82C40.2081 4.80492 40.8418 3.77992 40.8418 1.6772V0.447205H44.7868V5.2852H45.5964Z" fill="black"/>
<path fill-rule="evenodd" clip-rule="evenodd" d="M20.029 11.3289H21.2814C21.7817 11.3289 22.4821 11.2644 22.4821 10.4093C22.4821 9.50435 21.7059 9.45457 21.2935 9.45457H20.029V11.3289ZM21.3026 8.59357C22.2305 8.59357 23.595 8.74 23.595 10.3595C23.595 11.3933 22.9976 12.1928 21.2935 12.1928H20.029V14.2955H18.9496V8.59357H21.3026Z" fill="black"/>
<path fill-rule="evenodd" clip-rule="evenodd" d="M27.1536 12.2326L26.2591 9.69941L25.3646 12.2326H27.1536ZM24.649 14.2943H23.4937L25.7163 8.59241H26.8019L29.0245 14.2943H27.8692L27.4387 13.0965H25.0796L24.649 14.2943Z" fill="black"/>
<path fill-rule="evenodd" clip-rule="evenodd" d="M30.5442 12.3468C30.5533 12.8183 30.7625 13.6003 32.0513 13.6003C32.8548 13.6003 33.3703 13.2664 33.3703 12.6485C33.3703 11.9398 32.8639 11.7553 32.2059 11.7553H31.3933V10.8884H32.0967C32.3484 10.8884 33.1338 10.8738 33.1338 10.1387C33.1338 9.63498 32.7972 9.28355 31.936 9.28355C30.9142 9.28355 30.6291 9.77555 30.6079 10.2705H29.5405C29.5648 8.77983 30.7383 8.42255 32.027 8.42255C32.8366 8.42255 34.2436 8.61876 34.2436 10.0333C34.2436 10.7683 33.7796 11.2135 33.2611 11.2867V11.3043C33.8979 11.3921 34.4801 11.8578 34.4801 12.7539C34.4801 13.4216 34.1011 14.4642 31.9876 14.4642C30.4684 14.4642 29.5314 13.8375 29.4738 12.3468H30.5442Z" fill="black"/>
<path fill-rule="evenodd" clip-rule="evenodd" d="M36.9344 13.4301H38.4081C39.0692 13.4301 39.5634 13.2749 39.5634 12.5808C39.5634 11.8165 38.8842 11.7696 38.4384 11.7696H36.9344V13.4301ZM36.9344 10.9057H38.3626C38.9599 10.9057 39.3208 10.727 39.3208 10.2292C39.3208 9.4736 38.5627 9.45603 38.3383 9.45603H36.9344V10.9057ZM38.6386 8.5921C40.1395 8.5921 40.4336 9.40624 40.4336 10.033C40.4336 10.6626 40.0304 11.1575 39.4573 11.2542V11.2717C39.9455 11.3537 40.6762 11.6817 40.6762 12.695C40.6762 14.1388 39.4057 14.294 38.5173 14.294H35.858V8.5921H38.6386Z" fill="black"/>
<path fill-rule="evenodd" clip-rule="evenodd" d="M45.9424 8.59241H46.9976V14.2943H45.9181V10.1211L43.1072 14.2943H42.055V8.59241H43.1314V12.7627L45.9424 8.59241Z" fill="black"/>
<path fill-rule="evenodd" clip-rule="evenodd" d="M47.9916 9.45548V8.59448H52.7795V9.45548H50.9268V14.2935H49.8443V9.45548H47.9916Z" fill="black"/>
<path fill-rule="evenodd" clip-rule="evenodd" d="M57.6629 8.59241H58.7212V14.2943H57.6387V10.1211L54.8308 14.2943H53.7756V8.59241H54.8551V12.7627L57.6629 8.59241Z" fill="black"/>
<path fill-rule="evenodd" clip-rule="evenodd" d="M62.4718 9.45548C62.1746 9.45548 61.2801 9.45548 61.2801 10.4014C61.2801 11.2331 62.0745 11.3063 62.5445 11.3063H63.8787V9.45548H62.4718ZM62.8508 12.1703L61.4347 14.2935H60.0672L61.738 12.0531C61.1861 11.9887 60.1703 11.6695 60.1703 10.3751C60.1703 8.66477 61.6864 8.59448 62.5233 8.59448H64.9552V14.2935H63.8787V12.1703H62.8508Z" fill="black"/>
<path fill-rule="evenodd" clip-rule="evenodd" d="M24.0919 20.4912C24.007 21.3551 23.534 22.6085 21.5357 22.6085C21.0839 22.6085 18.6096 22.5675 18.6096 19.6829C18.6096 17.343 20.0075 16.5669 21.4781 16.5669C23.5037 16.5669 23.9585 17.7647 24.007 18.5788H22.9366C22.8699 18.1044 22.5818 17.4308 21.4781 17.4308C20.1651 17.4308 19.7649 18.4617 19.7649 19.6419C19.7649 20.9803 20.526 21.7446 21.5873 21.7446C22.5637 21.7446 22.9882 21.1033 23.0215 20.4912H24.0919Z" fill="black"/>
<path fill-rule="evenodd" clip-rule="evenodd" d="M27.8525 21.7461C29.311 21.7461 29.59 20.4692 29.59 19.5877C29.59 18.7062 29.311 17.4294 27.8525 17.4294C26.394 17.4294 26.1181 18.7062 26.1181 19.5877C26.1181 20.4692 26.394 21.7461 27.8525 21.7461ZM27.8525 16.5654C28.368 16.5654 30.7423 16.6299 30.7423 19.5877C30.7423 22.5426 28.368 22.61 27.8525 22.61C27.3401 22.61 24.9628 22.5426 24.9628 19.5877C24.9628 16.6299 27.3401 16.5654 27.8525 16.5654Z" fill="black"/>
<path fill-rule="evenodd" clip-rule="evenodd" d="M33.0907 21.5744H34.5644C35.2224 21.5744 35.7196 21.4192 35.7196 20.7252C35.7196 19.9637 35.0404 19.914 34.5916 19.914H33.0907V21.5744ZM33.0907 19.05H34.5159C35.1163 19.05 35.4771 18.8714 35.4771 18.3735C35.4771 17.618 34.716 17.6004 34.4916 17.6004H33.0907V19.05ZM34.7948 16.7365C36.2958 16.7365 36.5869 17.5535 36.5869 18.1773C36.5869 18.807 36.1866 19.3019 35.6105 19.3985V19.4161C36.0987 19.4981 36.8325 19.8261 36.8325 20.8423C36.8325 22.2832 35.562 22.4384 34.6735 22.4384H32.0112V16.7365H34.7948Z" fill="black"/>
<path fill-rule="evenodd" clip-rule="evenodd" d="M39.2886 19.4738H40.544C41.0413 19.4738 41.7417 19.4094 41.7417 18.5542C41.7417 17.6493 40.9685 17.5995 40.5531 17.5995H39.2886V19.4738ZM40.5622 16.7385C41.4901 16.7385 42.8546 16.885 42.8546 18.5045C42.8546 19.5382 42.2572 20.3377 40.5531 20.3377H39.2887V22.4405H38.2092V16.7385H40.5622Z" fill="black"/>
<path fill-rule="evenodd" clip-rule="evenodd" d="M48.0922 19.0828V19.9468H45.0903V21.5751H48.5319V22.439H44.0077V16.7371H48.4379V17.601H45.0903V19.0828H48.0922Z" fill="black"/>
<path fill-rule="evenodd" clip-rule="evenodd" d="M50.639 17.9267H50.6238L50.639 18.1463V22.4396H49.5625V16.7377H51.1727L52.7828 21.0632L54.3899 16.7377H56.0031V22.4396H54.9236V18.1463L54.9418 17.9267H54.9236L53.1891 22.4396H52.3734L50.639 17.9267Z" fill="black"/>
<path fill-rule="evenodd" clip-rule="evenodd" d="M61.6871 19.0828V19.9468H58.6882V21.5751H62.1268V22.439H57.6057V16.7371H62.0328V17.601H58.6882V19.0828H61.6871Z" fill="black"/>
<path fill-rule="evenodd" clip-rule="evenodd" d="M64.2338 22.4381H63.1574V16.7362H64.2338V19.0176H66.8628V16.7362H67.9453V22.4381H66.8628V19.8815H64.2338V22.4381Z" fill="black"/>
<path fill-rule="evenodd" clip-rule="evenodd" d="M70.624 22.4381H69.5476V16.7362H70.624V19.0176H73.253V16.7362H74.3355V22.4381H73.253V19.8815H70.624V22.4381Z" fill="black"/>
<path fill-rule="evenodd" clip-rule="evenodd" d="M78.4948 21.7461C79.9503 21.7461 80.2292 20.4692 80.2292 19.5877C80.2292 18.7062 79.9503 17.4294 78.4948 17.4294C77.0363 17.4294 76.7603 18.7062 76.7603 19.5877C76.7603 20.4692 77.0363 21.7461 78.4948 21.7461ZM78.4948 16.5654C79.0073 16.5654 81.3845 16.6299 81.3845 19.5877C81.3845 22.5426 79.0073 22.61 78.4948 22.61C77.9793 22.61 75.599 22.5426 75.599 19.5877C75.599 16.6299 77.9793 16.5654 78.4948 16.5654Z" fill="black"/>
<path fill-rule="evenodd" clip-rule="evenodd" d="M83.7301 22.4381H82.6536V16.7362H86.5107V17.6001H83.7301V22.4381Z" fill="black"/>
<path fill-rule="evenodd" clip-rule="evenodd" d="M89.8184 21.7461C91.2769 21.7461 91.5529 20.4692 91.5529 19.5877C91.5529 18.7062 91.2769 17.4294 89.8184 17.4294C88.3599 17.4294 88.084 18.7062 88.084 19.5877C88.084 20.4692 88.3599 21.7461 89.8184 21.7461ZM89.8185 16.5654C90.3339 16.5654 92.7112 16.6299 92.7112 19.5877C92.7112 22.5426 90.3339 22.61 89.8185 22.61C89.306 22.61 86.9287 22.5426 86.9287 19.5877C86.9287 16.6299 89.306 16.5654 89.8185 16.5654Z" fill="black"/>
<path fill-rule="evenodd" clip-rule="evenodd" d="M18.3412 25.745V24.8811H23.1292V25.745H21.2765V30.583H20.1939V25.745H18.3412Z" fill="black"/>
<path fill-rule="evenodd" clip-rule="evenodd" d="M28.2079 27.2272V28.0911H25.206V29.7194H28.6476V30.5833H24.1235V24.8814H28.5536V25.7453H25.206V27.2272H28.2079Z" fill="black"/>
<path fill-rule="evenodd" clip-rule="evenodd" d="M32.5846 28.5219L31.6901 25.9887L30.7956 28.5219H32.5846ZM30.08 30.5836H28.9247L31.1504 24.8817H32.2329L34.4556 30.5836H33.3003L32.8697 29.3859H30.5106L30.08 30.5836Z" fill="black"/>
<path fill-rule="evenodd" clip-rule="evenodd" d="M34.1183 25.745V24.8811H38.9062V25.745H37.0535V30.583H35.971V25.745H34.1183Z" fill="black"/>
<path fill-rule="evenodd" clip-rule="evenodd" d="M40.9826 27.6182H42.2409C42.7382 27.6182 43.4387 27.5537 43.4387 26.6986C43.4387 25.7937 42.6624 25.7439 42.247 25.7439H40.9826V27.6182ZM42.2561 24.8799C43.187 24.8799 44.5515 25.0293 44.5515 26.6488C44.5515 27.6826 43.9511 28.4821 42.247 28.4821H40.9825V30.5848H39.9061V24.8799H42.2561Z" fill="black"/>
<path fill-rule="evenodd" clip-rule="evenodd" d="M48.1101 28.5219L47.2156 25.9887L46.3211 28.5219H48.1101ZM45.6055 30.5836H44.4502L46.6729 24.8817H47.7554L49.981 30.5836H48.8288L48.3952 29.3859H46.0361L45.6055 30.5836Z" fill="black"/>
<path fill-rule="evenodd" clip-rule="evenodd" d="M58.6312 68.5839C60.214 68.5839 60.4111 67.7112 60.4111 67.0376C60.4111 66.3611 60.214 65.4884 58.6312 65.4884H58.5554V68.5839H58.6312ZM57.4758 65.4884H57.4C55.8111 65.4884 55.6231 66.3611 55.6231 67.0376C55.6231 67.7112 55.8111 68.5839 57.4 68.5839H57.4758V65.4884ZM57.4758 69.3746H57.2484C56.6723 69.3746 54.4648 69.2575 54.4648 67.0376C54.4648 66.1327 54.8802 64.7006 57.2484 64.7006H57.4758V63.7957H58.5553V64.7006H58.7827C61.1509 64.7006 61.5663 66.1327 61.5663 67.0376C61.5663 69.2575 59.3558 69.3746 58.7827 69.3746H58.5553V70.1888H57.4758V69.3746Z" fill="black"/>
<path fill-rule="evenodd" clip-rule="evenodd" d="M65.3618 69.251C66.8173 69.251 67.0962 67.9742 67.0962 67.0927C67.0962 66.2112 66.8173 64.9343 65.3618 64.9343C63.9033 64.9343 63.6243 66.2112 63.6243 67.0927C63.6243 67.9742 63.9033 69.251 65.3618 69.251ZM65.3618 64.0733C65.8743 64.0733 68.2516 64.1377 68.2516 67.0927C68.2516 70.0505 65.8743 70.1149 65.3618 70.1149C64.8463 70.1149 62.4691 70.0505 62.4691 67.0927C62.4691 64.1377 64.8463 64.0733 65.3618 64.0733Z" fill="black"/>
<path fill-rule="evenodd" clip-rule="evenodd" d="M70.5974 69.9439H69.5209V64.242H70.5974V66.5234H73.2264V64.242H74.3089V69.9439H73.2264V67.3873H70.5974V69.9439Z" fill="black"/>
<path fill-rule="evenodd" clip-rule="evenodd" d="M77.7989 65.1062V65.7915C77.7989 67.0537 77.6564 68.0055 76.9802 69.0832H79.5879V65.1062H77.7989ZM81.474 69.0832L81.4255 71.2299H80.4795V69.9442H76.1888V71.2299H75.2427L75.1942 69.0832H75.7006C76.0887 68.6 76.7195 67.575 76.7195 65.4723V64.2452H80.6644V69.0832H81.474Z" fill="black"/>
<path fill-rule="evenodd" clip-rule="evenodd" d="M18.7142 74.7342H18.6808V80.0027H16.8827V72.6256H19.4116L21.234 77.695L23.0594 72.6256H25.5944V80.0027H23.7932V74.7342H23.7598L21.8465 80.0027H20.6245L18.7142 74.7342Z" fill="black"/>
<path fill-rule="evenodd" clip-rule="evenodd" d="M31.8559 72.6256H33.6541V80.0056H31.8559V75.1852L28.8085 80.0056H27.0074V72.6256H28.8085V77.3904L31.8559 72.6256Z" fill="black"/>
<path fill-rule="evenodd" clip-rule="evenodd" d="M36.526 80.0051H34.2548L36.9444 76.1686L34.4944 72.6251H36.6352L38.0997 75.0528L39.5734 72.6251H41.7112L39.255 76.1686L41.9537 80.0051H39.6795L38.0997 77.466L36.526 80.0051Z" fill="black"/>
<path fill-rule="evenodd" clip-rule="evenodd" d="M47.9323 76.3157C47.9323 75.6392 47.8444 73.8498 46.0099 73.8498C45.0153 73.8498 44.0996 74.3652 44.0996 76.3157C44.0996 78.2456 45.0153 78.7815 46.0099 78.7815C47.8444 78.7815 47.9323 76.9365 47.9323 76.3157ZM42.1468 76.3157C42.1468 74.5995 42.9959 72.4148 46.0099 72.4148C48.6389 72.4148 49.876 74.0812 49.876 76.3157C49.876 78.5501 48.6389 80.2136 46.0099 80.2136C42.9959 80.2136 42.1468 78.0318 42.1468 76.3157Z" fill="black"/>
<path fill-rule="evenodd" clip-rule="evenodd" d="M53.2122 76.9693V75.6221H56.1292C55.9503 73.9118 54.7738 73.8474 54.2158 73.8474C52.9089 73.8474 52.5148 74.6088 52.4602 75.0803H50.6226C50.7136 73.8913 51.5778 72.4153 54.1097 72.4153C57.2754 72.4153 58.0729 74.4829 58.0729 76.2196C58.0729 80.0179 55.265 80.2171 54.228 80.2171C51.8901 80.2171 50.659 78.9519 50.5377 77.3471H52.3753C52.4026 78.0441 52.9726 78.785 54.2067 78.785C54.9466 78.785 56.0716 78.539 56.1292 76.9693H53.2122Z" fill="black"/>
<path fill-rule="evenodd" clip-rule="evenodd" d="M58.4385 78.5709C60.1427 78.7935 60.1882 77.379 60.2185 76.1461L60.2731 72.6259H65.9282V80.003H64.1271V74.058H61.9742L61.9196 76.6293C61.8802 78.0672 61.6588 80.4276 58.4385 80.003V78.5709Z" fill="black"/>
<path fill-rule="evenodd" clip-rule="evenodd" d="M74.2011 77.4019C74.0798 78.5089 73.437 80.2133 70.7262 80.2133C68.7764 80.2133 66.9843 79.3523 66.9843 76.453C66.9843 72.5638 69.9226 72.4174 70.6625 72.4174C73.3794 72.4174 74.0556 74.0486 74.1132 75.1351H72.3454C72.1695 73.9022 71.1658 73.8495 70.7474 73.8495C70.3471 73.8495 68.928 73.9227 68.928 76.3886C68.928 77.7796 69.583 78.7812 70.805 78.7812C71.9936 78.7812 72.3211 77.9495 72.4091 77.4019H74.2011Z" fill="black"/>
<path fill-rule="evenodd" clip-rule="evenodd" d="M78.9033 77.3697L77.9208 74.5553L76.9141 77.3697H78.9033ZM78.8275 72.6254L81.696 80.0054H79.7857L79.2944 78.6231H76.523L76.0439 80.0054H74.1426L77.0021 72.6254H78.8275Z" fill="black"/>
</g>
</svg>
