<svg width="117" height="42" viewBox="0 0 117 42" fill="none" xmlns="http://www.w3.org/2000/svg">
<path fill-rule="evenodd" clip-rule="evenodd" d="M60.7827 8.39068V25.172V41.9533H64.0049H67.2271V35.6065C67.2271 32.114 67.2491 29.2598 67.2857 29.2598C67.315 29.2598 67.4761 29.4821 67.6445 29.7474C68.4281 30.9953 69.739 32.0136 71.1743 32.4941C73.0344 33.1252 75.6488 33.0965 77.6261 32.4367C79.6473 31.7626 81.3463 30.3426 82.5693 28.3203C83.4188 26.9147 84.1291 24.7776 84.4074 22.7695C84.5685 21.6149 84.5905 18.8754 84.444 17.8571C83.9826 14.6012 82.9208 12.2633 81.0753 10.4704C79.64 9.07197 78.0582 8.26877 76.0589 7.91019C75.2534 7.76676 73.3786 7.74525 72.5731 7.87433C71.7675 8.00342 70.6764 8.39068 69.9953 8.79229C69.2264 9.23692 68.0693 10.3557 67.4834 11.2163L67.044 11.8473L67.0221 10.119L67.0074 8.39068H63.8951H60.7827ZM75.7294 26.6565C75.2094 27.0653 74.294 27.4884 73.6203 27.639C72.9685 27.7824 71.6577 27.7824 71.1084 27.639C70.3248 27.4382 69.6511 27.0509 69.0579 26.4701C68.2377 25.6525 67.6885 24.6341 67.337 23.2787C67.0513 22.1815 66.9854 21.4715 67.0294 20.0085C67.0733 18.5169 67.2198 17.6706 67.6226 16.6236C67.9667 15.72 68.2816 15.2466 68.9847 14.5582C70.0099 13.5542 70.8667 13.2315 72.4998 13.2386C74.1109 13.2386 75.041 13.59 76.0223 14.551C77.1647 15.6698 77.714 17.1686 77.9263 19.7002C78.1753 22.7552 77.3478 25.3872 75.7294 26.6565Z" fill="#040304"/>
<path fill-rule="evenodd" clip-rule="evenodd" d="M9.70327 33.1323C5.00176 32.6662 1.80884 30.8661 0.585858 27.9975C0.278282 27.266 0 26.0469 0 25.4086V24.8851H3.29545H6.5909V25.1218C6.5909 25.5019 6.80327 26.2477 7.00832 26.6278C7.24267 27.0366 7.73332 27.4955 8.24595 27.768C9.47625 28.4207 12.0613 28.6573 13.6358 28.2629C15.0858 27.8971 15.9646 27.0509 15.9646 26.0182C15.9646 25.4803 15.8401 25.2006 15.4666 24.8708C14.7636 24.254 13.8189 23.9456 10.5674 23.3074C9.57145 23.1066 8.28989 22.8269 7.726 22.6834C4.37196 21.8516 2.3654 20.5822 1.46464 18.7535C1.0399 17.8857 0.944696 17.4626 0.900756 16.2434C0.871463 15.3255 0.88611 15.053 1.02525 14.4147C1.34015 12.9087 1.94065 11.7541 2.95858 10.707C4.21818 9.409 5.76338 8.64165 7.9457 8.23288C8.72928 8.08945 9.04418 8.06793 10.875 8.06793C12.4861 8.06793 13.1086 8.09662 13.7677 8.19702C17.8687 8.82094 20.2121 10.5278 21.2227 13.6258C21.3985 14.1565 21.6767 15.5478 21.6767 15.8777C21.6767 15.8992 20.2634 15.9207 18.5351 15.9207H15.3934L15.2762 15.4187C14.9613 14.0561 14.0972 13.2386 12.6545 12.9517C11.9002 12.8011 10.0768 12.8011 9.32979 12.9446C8.28989 13.1597 7.66741 13.5398 7.37448 14.1422C6.83257 15.2394 7.15479 16.0426 8.3558 16.5948C9.13938 16.9606 9.87903 17.1614 12.2664 17.6491C15.8621 18.3805 17.0851 18.7248 18.5644 19.4276C21.0176 20.5894 22.2406 22.2532 22.3798 24.6341C22.5409 27.223 21.4863 29.6183 19.5603 31.0382C18.2495 32.0064 16.4113 32.702 14.2949 33.0319C13.4454 33.161 10.6553 33.2256 9.70327 33.1323Z" fill="#040304"/>
<path fill-rule="evenodd" clip-rule="evenodd" d="M104.616 32.8844C104.928 32.9103 105.213 32.934 105.345 32.9387C106.143 32.9889 106.399 32.9889 107.175 32.9172C111.145 32.5515 114.264 30.5649 115.912 27.3449C116.146 26.8931 116.732 25.4086 116.732 25.2724C116.732 25.258 115.26 25.2437 113.459 25.2437H110.178L109.936 25.7529C109.599 26.4557 109.013 27.0151 108.215 27.3951C107.336 27.8111 106.736 27.9187 105.564 27.8756C103.96 27.8183 102.899 27.4095 101.969 26.4987C101.383 25.925 101.082 25.4445 100.804 24.6556C100.606 24.0604 100.401 22.913 100.401 22.3608V22.0165H108.677H116.952V20.1519C116.952 18.1798 116.886 17.3407 116.652 16.1718C115.546 10.6784 111.723 7.78827 105.564 7.78827C102.759 7.78827 100.621 8.34047 98.739 9.55963C94.8797 12.041 93.1001 17.3264 94.0741 23.3791C94.9895 29.0948 98.4314 32.3363 104.136 32.8455C104.292 32.8576 104.457 32.8713 104.616 32.8844ZM108.83 14.2713C109.665 15.0889 110.171 16.1789 110.383 17.6634L110.427 17.9288H105.41H100.401L100.445 17.6276C100.826 15.1749 102.056 13.5972 103.99 13.0808C104.729 12.88 106.135 12.8944 106.846 13.1167C107.695 13.3677 108.215 13.6761 108.83 14.2713Z" fill="#040304"/>
<path fill-rule="evenodd" clip-rule="evenodd" d="M85.9747 16.351V0.215149H89.1969H92.4191V16.351V32.4869H89.1969H85.9747V16.351Z" fill="#040304"/>
<path fill-rule="evenodd" clip-rule="evenodd" d="M24.0934 20.367V8.39063H27.1691H30.2449V10.1476C30.2449 11.1158 30.2669 11.9047 30.3035 11.9047C30.3328 11.9047 30.4646 11.711 30.5964 11.4744C31.2116 10.37 32.2002 9.35161 33.2254 8.75637C34.5729 7.97468 36.4257 7.62328 38.2785 7.80974C40.6878 8.0464 42.1305 8.88546 43.6464 10.9293L44.1078 11.5533L44.3641 11.1732C46.3487 8.24003 49.4025 7.17147 53.1666 8.07508C56.3595 8.8496 58.432 11.0513 58.9153 14.178C59.0105 14.7661 59.0252 16.2793 59.0252 23.6157V32.3435H55.8396H52.6613L52.632 24.4046L52.61 16.4586L52.4489 15.8562C52.0901 14.5438 51.5555 13.8123 50.6181 13.3605L50.0615 13.088L49.029 13.0951C48.1209 13.0951 47.9451 13.1166 47.4838 13.2816C46.854 13.4967 46.2242 13.8983 45.8727 14.2999C45.7335 14.4577 45.4845 14.8522 45.3234 15.1677C44.7669 16.2865 44.7961 15.8203 44.7669 24.548L44.7376 32.3435H41.5593H38.3737V25.0142C38.3737 16.4227 38.359 16.1861 37.7292 14.9239C37.1141 13.6832 36.0083 13.0521 34.4557 13.0521C32.4199 13.0593 31.1969 13.9916 30.6696 15.9422C30.5085 16.5231 30.5085 16.5877 30.4866 24.4405L30.4573 32.3435H27.2717H24.0934V20.367Z" fill="#040304"/>
<path fill-rule="evenodd" clip-rule="evenodd" d="M24.0934 2.90446V0L27.1545 0.014343L30.2083 0.0358575L30.2303 2.92597L30.2449 5.80891H27.1692H24.0934V2.90446Z" fill="#040304"/>
</svg>
