<svg width="11" height="12" viewBox="0 0 11 12" fill="none" xmlns="http://www.w3.org/2000/svg">
<path fill-rule="evenodd" clip-rule="evenodd" d="M5.5 0C2.75645 0 0.5 2.14672 0.5 4.83403C0.5 5.52641 0.650862 6.18568 0.922554 6.78179C1.22835 7.48152 1.80259 8.20417 2.51655 8.97799C3.06158 9.56873 3.71559 10.2176 4.43646 10.9328C4.6673 11.1619 4.90501 11.3977 5.14818 11.6406L5.50714 11.9992L5.86042 11.635C6.1567 11.3296 6.44536 11.0349 6.72377 10.7506C7.43721 10.0221 8.08335 9.36232 8.61788 8.76796C9.35348 7.95002 9.93834 7.19248 10.2028 6.47946C10.3952 5.96542 10.5 5.4111 10.5 4.83403C10.5 2.14672 8.24355 0 5.5 0ZM1.5 4.83403C1.5 2.7341 3.27298 1 5.5 1C7.72702 1 9.5 2.7341 9.5 4.83403C9.5 5.28937 9.4174 5.7253 9.26599 6.12953L9.26537 6.13119C9.07352 6.64897 8.60791 7.28358 7.87434 8.09927C7.35498 8.67677 6.73176 9.31313 6.02542 10.0344C5.85377 10.2096 5.6772 10.3899 5.49603 10.5756C5.37095 10.4513 5.24817 10.3294 5.12778 10.21L5.12777 10.21C4.41175 9.49953 3.78019 8.8729 3.25151 8.29989C2.54614 7.53537 2.07138 6.91515 1.83757 6.37834L1.83764 6.37831L1.83394 6.37022C1.61916 5.90015 1.5 5.38091 1.5 4.83403ZM4.35 4.69697C4.35 4.06288 4.86342 3.54965 5.49576 3.54965C6.12811 3.54965 6.64153 4.06288 6.64153 4.69697C6.64153 5.33107 6.12811 5.8443 5.49576 5.8443C4.86342 5.8443 4.35 5.33107 4.35 4.69697ZM5.49576 2.54965C4.31024 2.54965 3.35 3.51149 3.35 4.69697C3.35 5.88246 4.31024 6.8443 5.49576 6.8443C6.68128 6.8443 7.64153 5.88246 7.64153 4.69697C7.64153 3.51149 6.68128 2.54965 5.49576 2.54965Z" fill="black"/>
</svg>
