<svg width="20" height="20" viewBox="0 0 20 20" fill="none" xmlns="http://www.w3.org/2000/svg">
<path fill-rule="evenodd" clip-rule="evenodd" d="M0 10C0 15.5228 4.47715 20 10 20C15.5228 20 20 15.5228 20 10C20 4.47715 15.5228 0 10 0C4.47715 0 0 4.47715 0 10ZM19.0476 10C19.0476 14.9969 14.9969 19.0476 10 19.0476C5.00314 19.0476 0.952381 14.9969 0.952381 10C0.952381 5.00314 5.00314 0.952381 10 0.952381C14.9969 0.952381 19.0476 5.00314 19.0476 10Z" fill="#FF0066"/>
<path d="M9.36107 2.38025L10.3134 2.38163L10.3017 10.4894L5.2373 10.4821L5.23869 9.52969L9.35067 9.53566L9.36107 2.38025Z" fill="#FF0066"/>
</svg>
