<svg width="20" height="20" viewBox="0 0 20 20" fill="none" xmlns="http://www.w3.org/2000/svg">
<path d="M10.5761 3.50138L9.62376 3.5L9.61337 10.6554L5.50138 10.6494L5.5 11.6018L10.5644 11.6092L10.5761 3.50138Z" fill="#FF0066"/>
<path fill-rule="evenodd" clip-rule="evenodd" d="M10 20C4.47715 20 0 15.5228 0 10C0 4.47715 4.47715 0 10 0C15.5228 0 20 4.47715 20 10C20 15.5228 15.5228 20 10 20ZM10 19.0476C14.9969 19.0476 19.0476 14.9969 19.0476 10C19.0476 5.00314 14.9969 0.952381 10 0.952381C5.00314 0.952381 0.952381 5.00314 0.952381 10C0.952381 14.9969 5.00314 19.0476 10 19.0476Z" fill="#FF0066"/>
</svg>
