<svg width="12" height="13" viewBox="0 0 12 13" fill="none" xmlns="http://www.w3.org/2000/svg">
<path fill-rule="evenodd" clip-rule="evenodd" d="M6 0.501465C2.68629 0.501465 0 3.18776 0 6.50146C0 9.81517 2.68629 12.5015 6 12.5015C9.31371 12.5015 12 9.81517 12 6.50146C12 3.18776 9.31371 0.501465 6 0.501465ZM1 6.50146C1 3.74004 3.23858 1.50146 6 1.50146C8.76142 1.50146 11 3.74004 11 6.50146C11 9.26289 8.76142 11.5015 6 11.5015C3.23858 11.5015 1 9.26289 1 6.50146ZM4 6.50146V7.50146H6.57059V3.37794H5.57059V6.50146H4Z" fill="#040304"/>
</svg>
