<svg width="14" height="14" viewBox="0 0 14 14" fill="none" xmlns="http://www.w3.org/2000/svg">
<path d="M0 12H14" stroke="#040304"/>
<path d="M0 7H14" stroke="#040304"/>
<path d="M0 2H14" stroke="#040304"/>
<path d="M4.5 2C4.5 2.82843 3.82843 3.5 3 3.5C2.17157 3.5 1.5 2.82843 1.5 2C1.5 1.17157 2.17157 0.5 3 0.5C3.82843 0.5 4.5 1.17157 4.5 2Z" fill="white" stroke="#040304"/>
<path d="M11.5 7C11.5 7.82843 10.8284 8.5 10 8.5C9.17157 8.5 8.5 7.82843 8.5 7C8.5 6.17157 9.17157 5.5 10 5.5C10.8284 5.5 11.5 6.17157 11.5 7Z" fill="white" stroke="#040304"/>
<path d="M7.5 12C7.5 12.8284 6.82843 13.5 6 13.5C5.17157 13.5 4.5 12.8284 4.5 12C4.5 11.1716 5.17157 10.5 6 10.5C6.82843 10.5 7.5 11.1716 7.5 12Z" fill="white" stroke="#040304"/>
</svg>
