<svg width="72" height="14" viewBox="0 0 72 14" fill="none" xmlns="http://www.w3.org/2000/svg">
<path d="M0 0H72V14H0V0Z" fill="#040304"/>
<path fill-rule="evenodd" clip-rule="evenodd" d="M10.7753 7.7028C10.7713 7.7038 10.7693 7.7048 10.7663 7.7048C10.7353 7.9548 10.7013 8.7038 11.2543 9.3908C11.7933 9.4958 12.3983 9.7008 12.9643 9.9478V7.4358C12.2163 7.4168 11.4173 7.4988 10.7753 7.7028ZM5.16031 12.3948C2.8823 11.2258 1.87931 11.6938 1.52131 11.8688C1.30931 11.9728 0.962305 12.1768 0.546305 12.3748V12.7768H5.25431C5.22031 12.6488 5.1883 12.5218 5.16031 12.3948ZM1.64931 5.8008C2.66831 4.5388 4.17331 3.2608 6.50031 4.1748C6.68031 4.4788 7.06231 4.5248 7.12031 4.1868C7.28831 4.4468 6.79131 4.7688 6.55031 4.4198C4.30931 3.6158 2.85131 4.6678 1.64831 5.8038L1.64931 5.8008ZM6.66831 4.2268C4.55631 2.1788 2.48631 3.7228 1.77531 4.4178C2.18431 3.7318 4.88031 1.6098 6.66831 4.2268ZM6.79731 4.2518C5.6483 2.4988 4.41031 2.1788 2.59831 2.9758C3.51231 2.3898 5.54531 1.6268 6.79731 4.2518ZM7.11831 6.7748C6.9573 6.8748 6.6423 6.6568 6.41631 6.2908C6.1903 5.9228 6.1383 5.5448 6.2993 5.4458C6.4603 5.3468 6.7743 5.5628 7.00031 5.9318C7.22631 6.2978 7.2793 6.6758 7.11831 6.7748ZM2.96831 8.1768C2.79031 8.2418 2.52631 7.9658 2.3783 7.5608C2.23031 7.1548 2.25531 6.7748 2.43431 6.7098C2.6113 6.6448 2.87531 6.9218 3.02231 7.3258C3.17131 7.7308 3.14531 8.1108 2.96831 8.1768ZM10.6723 6.2598C10.9313 5.9608 11.2503 5.8238 11.3853 5.9538C11.5183 6.0858 11.4163 6.4338 11.1563 6.7348C10.8973 7.0358 10.5793 7.1718 10.4433 7.0408C10.3103 6.9098 10.4123 6.5598 10.6723 6.2598ZM3.22231 8.3978C3.98931 8.2628 5.35031 8.8208 6.44131 8.2648C5.62931 9.1858 3.62031 8.6328 3.11731 8.8578C2.70731 9.5988 2.29831 10.5618 2.31331 11.0888C3.44731 11.0548 4.45431 11.5798 5.10431 12.1048C5.07331 11.9208 5.04931 11.7288 5.03931 11.5238C4.92831 9.4148 7.01031 9.6158 7.14231 9.6128C7.18231 9.5048 6.98731 8.1418 6.64631 7.6508C4.4783 8.0318 5.56031 5.3288 3.55931 4.7928C5.83431 4.9958 4.65331 7.3278 6.68131 7.1178C6.94331 7.0908 7.07331 7.0398 7.1543 7.0028C8.3313 6.4038 7.78231 3.5458 10.0513 2.9978C7.98831 3.8488 8.80531 6.6358 7.51431 7.4088C7.7603 8.1338 7.91331 9.8008 7.91331 9.8008C8.25031 9.9118 8.60231 10.1568 8.9283 10.4728C9.1313 9.7188 9.63731 9.3888 10.2933 9.3268C10.1903 8.8688 10.2133 8.1838 10.2863 7.8018C8.8523 7.9138 8.57531 6.1778 9.44131 5.4538C8.92731 6.2238 9.07931 7.8398 10.5463 7.3958C11.2763 7.1758 12.1563 7.0788 12.9643 7.1268V1.6148H9.56131C8.4173 1.9098 7.33731 2.5338 6.99131 4.2428C6.94331 2.6758 7.81231 1.9468 8.84931 1.6148H7.58431C7.09631 2.1168 6.7543 2.8968 6.86431 4.1188C6.59931 2.9098 6.86431 2.1218 7.32831 1.6148H6.82031C6.61931 2.1208 6.51131 2.7278 6.70131 3.7538C6.56731 3.3948 6.33731 2.4428 6.70231 1.6148H0.546305V11.6628C0.782305 11.5308 1.01131 11.3888 1.18131 11.3168C2.28031 8.6818 2.87531 8.4368 3.22231 8.3978ZM7.50831 10.2068C5.69131 9.7958 5.65331 11.1558 5.7563 12.7768H9.7233C9.49531 11.8958 8.65831 10.3688 7.50831 10.2068ZM9.27231 10.8428C9.77631 11.4448 10.1573 12.1828 10.2223 12.7768H12.9643V10.2428C10.0133 9.1268 9.40931 10.1088 9.27231 10.8428ZM13.1513 12.9658L0.358305 12.9648V1.4278H13.1513V12.9658ZM0.000305176 13.3238H13.5123V1.0698H0.000305176V13.3238Z" fill="white"/>
<path fill-rule="evenodd" clip-rule="evenodd" d="M44.9438 9.4703L45.3088 9.4933L45.3158 9.4993L45.4238 9.6023V9.7963L43.6948 12.0133V9.6023L43.7018 9.5953L43.8098 9.4933L44.1758 9.4703V9.1493H42.1228V9.4703L42.4948 9.4933L42.5008 9.4993L42.6158 9.6013V12.8663L42.6108 12.8723L42.4958 13.0003L42.1228 13.0253V13.3453H44.1758V13.0253L43.8078 12.9993L43.8028 12.9923L43.6948 12.8663V12.6213L45.4238 10.4053V12.8663L45.4188 12.8723L45.3118 13.0003L44.9438 13.0253V13.3453H46.9968V13.0253L46.6168 13.0003L46.6098 12.9923L46.5038 12.8653V9.6023L46.5098 9.5953L46.6178 9.4933L46.9968 9.4703V9.1483H44.9438V9.4703ZM67.3898 9.1493V10.3733H67.8778L68.0038 9.6183L68.0118 9.6123L68.1248 9.5323H68.7698V12.8663L68.6358 13.0003L68.2248 13.0253V13.3453H70.3928V13.0253L69.9808 13.0003L69.8478 12.8663V9.5323H70.4798L70.4858 9.5363L70.6078 9.6173L70.7388 10.3733H71.2268V9.1493H67.3898ZM20.2578 9.4673L20.6238 9.4923L20.6308 9.4983L20.7388 9.6003V10.9313H19.1048V9.6003L19.1108 9.5933L19.2188 9.4923L19.5848 9.4673V9.1473H17.5318V9.4673L17.9038 9.4923L17.9098 9.4983L18.0258 9.6003V12.8633L18.0198 12.8703L17.9058 12.9983L17.5318 13.0223V13.3443H19.5848V13.0223L19.2178 12.9983L19.2108 12.9903L19.1048 12.8633V11.3513H20.7388V12.8633L20.7338 12.8703L20.6248 12.9983L20.2578 13.0223V13.3433H22.3108V13.0223L21.9298 12.9983L21.9248 12.9903L21.8178 12.8633V9.6003L21.8248 9.5933L21.9328 9.4923L22.3108 9.4693V9.1473H20.2578V9.4673ZM23.9008 11.5443L24.4118 10.1153L24.4338 10.0553L24.9798 11.5443H23.9008ZM25.1648 9.1153H24.2868L22.8378 12.9983L22.4328 13.0223V13.3433H23.9108V13.0213L23.5178 12.9793L23.5108 12.9713L23.4408 12.8853L23.7658 11.9213H25.1468L25.4898 12.8893L25.4848 12.8993L25.4268 12.9913L25.0088 13.0223V13.3443H27.0108V13.0213L26.6308 12.9713L25.1648 9.1153ZM53.1028 9.4703L53.4738 9.4933L53.4808 9.4993L53.5968 9.6013V12.8663L53.5908 12.8723L53.4768 13.0003L53.1028 13.0253V13.3453H55.1558V13.0253L54.7878 13.0003L54.7818 12.9923L54.6748 12.8653V9.5323H56.2518V12.8653L56.2468 12.8723L56.1388 13.0003L55.7708 13.0253V13.3453H57.8248V13.0253L57.4438 13.0003L57.4378 12.9923L57.3308 12.8663V9.6023L57.3398 9.5953L57.4458 9.4933L57.8248 9.4703V9.1493H53.1028V9.4703ZM51.9868 12.8683L51.9828 12.8733L51.8758 12.9743L51.8668 12.9753C51.8348 12.9803 51.7848 12.9843 51.7228 12.9913C51.6578 12.9973 51.5948 13.0003 51.5358 13.0003C51.4078 13.0003 51.2898 12.9863 51.1818 12.9553C51.0748 12.9263 50.9778 12.8873 50.8898 12.8393C50.8018 12.7923 50.7248 12.7403 50.6598 12.6823C50.5958 12.6233 50.5398 12.5653 50.4928 12.5043C50.3688 12.3463 50.2768 12.1583 50.2168 11.9393C50.1578 11.7223 50.1278 11.4883 50.1278 11.2383C50.1278 10.9413 50.1708 10.6743 50.2558 10.4403C50.3398 10.2043 50.4578 10.0113 50.6088 9.8623C50.6348 9.8353 50.6738 9.8023 50.7248 9.7613C50.7768 9.7203 50.8418 9.6803 50.9188 9.6423C50.9958 9.6023 51.0858 9.5713 51.1888 9.5413C51.2918 9.5143 51.4078 9.5003 51.5358 9.5003C51.6098 9.5003 51.6728 9.5053 51.7298 9.5133C51.7848 9.5213 51.8318 9.5313 51.8808 9.5443L51.9938 9.6513L52.1438 10.4163H52.6828V9.3123C52.4738 9.2313 52.2618 9.1713 52.0478 9.1293C51.8268 9.0873 51.6048 9.0673 51.3788 9.0673H51.3718C51.0348 9.0673 50.7558 9.1003 50.5368 9.1673C50.3158 9.2343 50.1298 9.3163 49.9788 9.4103C49.7878 9.5283 49.6268 9.6613 49.4948 9.8123C49.3638 9.9613 49.2568 10.1183 49.1758 10.2813C49.0938 10.4433 49.0348 10.6093 48.9968 10.7753C48.9598 10.9423 48.9408 11.1033 48.9408 11.2563C48.9408 11.3823 48.9528 11.5123 48.9748 11.6483C48.9978 11.7833 49.0358 11.9193 49.0888 12.0583C49.1398 12.1953 49.2108 12.3303 49.2978 12.4643C49.3858 12.5983 49.4918 12.7233 49.6158 12.8393C49.7548 12.9693 49.8948 13.0733 50.0388 13.1503C50.1828 13.2263 50.3278 13.2853 50.4738 13.3283C50.6198 13.3693 50.7668 13.3983 50.9128 13.4123C51.0588 13.4263 51.2038 13.4343 51.3468 13.4343C51.5148 13.4343 51.7098 13.4183 51.9348 13.3873C52.1538 13.3573 52.4028 13.2933 52.6828 13.2003V12.0583H52.1438L51.9868 12.8683ZM65.9408 10.9223C65.8928 11.0613 65.8228 11.1683 65.7318 11.2423C65.6358 11.3253 65.5228 11.3773 65.3938 11.3973C65.2698 11.4163 65.1578 11.4253 65.0588 11.4253H64.9848V9.5323H65.2668C65.4178 9.5323 65.5428 9.5633 65.6408 9.6243C65.7358 9.6853 65.8068 9.7543 65.8568 9.8333C65.9088 9.9163 65.9478 10.0153 65.9728 10.1293C65.9998 10.2413 66.0118 10.3583 66.0118 10.4733C66.0118 10.6353 65.9878 10.7843 65.9408 10.9223ZM66.5908 9.3723C66.5528 9.3533 66.5058 9.3303 66.4448 9.3053C66.3838 9.2813 66.3078 9.2563 66.2128 9.2343C66.1208 9.2103 66.0058 9.1903 65.8708 9.1743C65.7378 9.1573 65.5818 9.1493 65.4058 9.1493H63.3808V9.4703L63.8108 9.4933L63.8178 9.5023L63.9048 9.6043V12.8663L63.7718 13.0003L63.3808 13.0253V13.3453H65.5478V13.0253L65.0898 13.0003L65.0848 12.9913L64.9848 12.8653V11.8063L65.0098 11.8093C65.1228 11.8223 65.2468 11.8283 65.3808 11.8283C65.6408 11.8273 65.8898 11.7983 66.1288 11.7403C66.3658 11.6813 66.5618 11.5843 66.7198 11.4473C66.7688 11.4063 66.8188 11.3563 66.8688 11.2953C66.9178 11.2363 66.9648 11.1643 67.0078 11.0813C67.0508 10.9993 67.0868 10.9023 67.1128 10.7893C67.1398 10.6783 67.1538 10.5513 67.1538 10.4083C67.1538 10.1853 67.1118 9.9853 67.0298 9.8093C66.9468 9.6343 66.8018 9.4903 66.5908 9.3723ZM61.6028 12.0183C61.5438 12.2753 61.4448 12.4923 61.3068 12.6693C61.1948 12.8063 61.0768 12.9003 60.9498 12.9483C60.8248 12.9953 60.7138 13.0203 60.6118 13.0203H60.6098C60.4928 13.0203 60.3718 12.9923 60.2478 12.9393C60.1218 12.8843 60.0028 12.7843 59.8918 12.6443C59.7848 12.5063 59.6938 12.3253 59.6228 12.1013C59.5488 11.8773 59.5138 11.6003 59.5138 11.2693C59.5128 10.9913 59.5428 10.7273 59.6028 10.4833C59.6628 10.2383 59.7538 10.0323 59.8788 9.8703C59.9898 9.7203 60.1108 9.6193 60.2398 9.5683C60.3658 9.5193 60.4838 9.4933 60.5928 9.4933C60.6368 9.4933 60.6898 9.4983 60.7488 9.5063C60.8098 9.5163 60.8748 9.5333 60.9428 9.5633C61.0138 9.5903 61.0818 9.6313 61.1518 9.6823C61.2218 9.7343 61.2878 9.8063 61.3528 9.8963C61.4388 10.0173 61.5158 10.1843 61.5858 10.3953C61.6568 10.6103 61.6918 10.8843 61.6918 11.2183C61.6918 11.4953 61.6628 11.7613 61.6028 12.0183ZM62.0658 9.5053C61.8408 9.3423 61.6068 9.2273 61.3638 9.1603C61.1218 9.0943 60.8758 9.0603 60.6248 9.0603C60.2768 9.0603 59.9738 9.1063 59.7178 9.1953C59.4618 9.2843 59.2458 9.3973 59.0708 9.5313C58.9028 9.6553 58.7708 9.7933 58.6708 9.9453C58.5708 10.0973 58.4928 10.2503 58.4368 10.4023C58.3798 10.5543 58.3418 10.7023 58.3238 10.8453C58.3048 10.9913 58.2958 11.1193 58.2958 11.2323C58.2958 11.4413 58.3168 11.6333 58.3578 11.8083C58.3998 11.9843 58.4568 12.1443 58.5268 12.2893C58.5978 12.4363 58.6798 12.5653 58.7738 12.6773C58.8688 12.7903 58.9668 12.8883 59.0708 12.9723C59.2628 13.1263 59.4848 13.2443 59.7368 13.3283C59.9888 13.4113 60.2648 13.4533 60.5618 13.4533C60.8878 13.4533 61.1848 13.4053 61.4508 13.3093C61.7198 13.2123 61.9528 13.0833 62.1538 12.9213C62.4208 12.6993 62.6128 12.4433 62.7318 12.1493C62.8498 11.8553 62.9098 11.5533 62.9098 11.2433C62.9098 10.9133 62.8418 10.5963 62.7058 10.2883C62.5698 9.9833 62.3578 9.7213 62.0658 9.5053ZM37.1258 11.5443L37.6368 10.1153L37.6588 10.0553L38.2048 11.5443H37.1258ZM38.3888 9.1153H37.5118L36.0638 12.9983L35.7598 13.0163V13.3443H37.1358V13.0213L36.7428 12.9793L36.7368 12.9713L36.6648 12.8853L36.9908 11.9213H38.3718L38.7148 12.8893L38.7098 12.8993L38.6528 12.9913L38.2338 13.0223V13.3443H40.2358V13.0213L39.8568 12.9713L38.3888 9.1153ZM33.7988 11.1073C33.8918 11.0663 33.9728 11.0053 34.0428 10.9223C34.1108 10.8413 34.1818 10.7143 34.2548 10.5373L34.4558 10.0253C34.4768 9.9783 34.4938 9.9373 34.5068 9.9013C34.5198 9.8583 34.5488 9.8093 34.5908 9.7483L34.6058 9.7273L35.1368 10.1803C35.2828 10.1573 35.3958 10.0963 35.4808 9.9913C35.5688 9.8833 35.6118 9.7573 35.6118 9.6113C35.6118 9.5243 35.5968 9.4523 35.5698 9.3963C35.5418 9.3363 35.5088 9.2873 35.4728 9.2473C35.4298 9.2023 35.3678 9.1603 35.2888 9.1193C35.2138 9.0793 35.1088 9.0583 34.9708 9.0583C34.8638 9.0583 34.7698 9.0743 34.6878 9.1043C34.6068 9.1353 34.5308 9.1793 34.4608 9.2373C34.3488 9.3263 34.2658 9.4293 34.2088 9.5413C34.1488 9.6573 34.0968 9.7693 34.0508 9.8793L33.7978 10.4873C33.7628 10.5583 33.7288 10.6293 33.6928 10.6973C33.6548 10.7683 33.6058 10.8253 33.5438 10.8743C33.4788 10.9273 33.4088 10.9603 33.3368 10.9723C33.2688 10.9823 33.2108 10.9873 33.1618 10.9873H32.8548V9.6003L32.8618 9.5933L32.9688 9.4923L33.3218 9.4693V9.1473H31.2568V9.4673L31.6598 9.4923L31.6668 9.4983L31.7758 9.6003V12.8633L31.7698 12.8703L31.6628 12.9983L31.2568 13.0223V13.3443L33.3218 13.3433V13.0223L32.9668 12.9983L32.9608 12.9903L32.8548 12.8633V11.4083H33.0488C33.0968 11.4083 33.1498 11.4163 33.2068 11.4313C33.2648 11.4473 33.3228 11.4823 33.3808 11.5343C33.4328 11.5823 33.4788 11.6433 33.5148 11.7153C33.5518 11.7853 33.5828 11.8523 33.6078 11.9163L34.1018 13.1203V13.3443H35.6118V13.0133L35.2838 12.9863L35.2788 12.9803L35.1528 12.8713L34.7598 12.0163C34.7268 11.9383 34.6758 11.8443 34.6058 11.7363C34.5388 11.6273 34.4508 11.5263 34.3418 11.4303C34.2458 11.3483 34.1558 11.2853 34.0698 11.2473C33.9838 11.2083 33.8948 11.1813 33.8028 11.1633L33.7848 11.1603V11.1133L33.7988 11.1073ZM29.5738 9.4703L29.9718 9.5263L29.9768 9.5373L30.0318 9.6603L29.3458 11.3983L28.3468 9.6093L28.3548 9.5983L28.4238 9.4923L28.7808 9.4673V9.1473H26.7788V9.4703L27.1998 9.5323L28.8238 12.3903L28.8208 12.4023C28.7948 12.4753 28.7578 12.5493 28.7118 12.6273C28.6628 12.7043 28.6098 12.7703 28.5488 12.8213C28.4998 12.8663 28.4418 12.9023 28.3748 12.9313C28.3058 12.9593 28.2388 12.9733 28.1728 12.9733H28.1008L28.0928 12.9683L27.9988 12.8863L27.8868 12.1453H27.3488V13.2763C27.5298 13.3433 27.6848 13.3863 27.8128 13.4053C27.9438 13.4233 28.0458 13.4323 28.1148 13.4323C28.4488 13.4323 28.7238 13.3383 28.9478 13.1543C28.9758 13.1293 29.0128 13.0933 29.0558 13.0473C29.0998 13.0023 29.1478 12.9433 29.1998 12.8703C29.2518 12.7973 29.3068 12.7073 29.3618 12.6043C29.4198 12.4993 29.4788 12.3713 29.5418 12.2203L30.6668 9.5263L31.0458 9.4703V9.1473H29.5738V9.4703Z" fill="white"/>
<mask id="mask0" mask-type="alpha" maskUnits="userSpaceOnUse" x="27" y="0" width="5" height="6">
<path fill-rule="evenodd" clip-rule="evenodd" d="M27.0379 0.9999H31.4949V5.2865H27.0379V0.9999Z" fill="white"/>
</mask>
<g mask="url(#mask0)">
<path fill-rule="evenodd" clip-rule="evenodd" d="M29.1039 4.9645L28.7489 4.9405L28.7429 4.9325L28.6359 4.8055V3.3505H28.8299C28.8789 3.3505 28.9319 3.3595 28.9879 3.3735C29.0479 3.3895 29.1049 3.4245 29.1629 3.4775C29.2149 3.5265 29.2609 3.5855 29.2969 3.6575C29.3339 3.7275 29.3649 3.7945 29.3899 3.8595L29.8839 5.0625V5.2865H31.4949V4.9645L31.0659 4.9275L31.0609 4.9215L30.9339 4.8135L30.5409 3.9585C30.5089 3.8805 30.4579 3.7865 30.3879 3.6785C30.3209 3.5695 30.2329 3.4685 30.1239 3.3735C30.0279 3.2895 29.9369 3.2285 29.8509 3.1895C29.7639 3.1515 29.6759 3.1225 29.5849 3.1065L29.5659 3.1035V3.0565L29.5809 3.0495C29.6729 3.0075 29.7549 2.9465 29.8249 2.8655C29.8939 2.7845 29.9639 2.6555 30.0349 2.4805L30.2389 1.9675C30.2589 1.9215 30.2759 1.8795 30.2879 1.8425C30.3019 1.8005 30.3309 1.7515 30.3729 1.6915L30.3879 1.6705L30.9189 2.1225C31.0649 2.1015 31.1779 2.0385 31.2629 1.9335C31.3509 1.8255 31.3929 1.6995 31.3949 1.5525C31.3949 1.4675 31.3789 1.3955 31.3519 1.3375C31.3229 1.2785 31.2909 1.2295 31.2549 1.1895C31.2109 1.1465 31.1499 1.1035 31.0709 1.0615C30.9959 1.0215 30.8909 0.9995 30.7529 0.9995C30.6459 0.9995 30.5509 1.0165 30.4699 1.0465C30.3879 1.0775 30.3119 1.1205 30.2429 1.1795C30.1309 1.2695 30.0459 1.3705 29.9889 1.4845C29.9309 1.5995 29.8779 1.7115 29.8319 1.8205L29.5799 2.4285C29.5449 2.5005 29.5099 2.5715 29.4739 2.6395C29.4369 2.7095 29.3869 2.7695 29.3259 2.8175C29.2599 2.8695 29.1909 2.9025 29.1179 2.9125C29.0509 2.9245 28.9919 2.9305 28.9439 2.9305H28.6359V1.5425L28.6429 1.5355L28.7509 1.4355L29.1039 1.4095V1.0885H27.0379V1.4095L27.4419 1.4355L27.4489 1.4415L27.5579 1.5425V4.8055L27.5519 4.8125L27.4439 4.9405L27.0379 4.9645V5.2865H29.1039V4.9645Z" fill="white"/>
</g>
<path fill-rule="evenodd" clip-rule="evenodd" d="M33.6498 4.3326L33.6468 4.3436C33.6208 4.4166 33.5838 4.4926 33.5368 4.5686C33.4888 4.6466 33.4358 4.7126 33.3748 4.7646C33.3258 4.8086 33.2678 4.8446 33.1998 4.8726C33.1328 4.9006 33.0658 4.9156 32.9978 4.9156H32.9258L32.9208 4.9096L32.8238 4.8286L32.7128 4.0876H32.1738V5.2166C32.3558 5.2856 32.5108 5.3286 32.6378 5.3466C32.7708 5.3656 32.8708 5.3746 32.9418 5.3746C33.2748 5.3746 33.5508 5.2806 33.7738 5.0956C33.8018 5.0706 33.8378 5.0356 33.8828 4.9896C33.9248 4.9446 33.9738 4.8856 34.0258 4.8116C34.0768 4.7396 34.1318 4.6496 34.1898 4.5456C34.2448 4.4406 34.3058 4.3136 34.3668 4.1616L35.4918 1.4686L35.8718 1.4126V1.0896H34.4008V1.4126L34.7978 1.4686L34.8038 1.4796L34.8578 1.6026L34.1718 3.3406L33.1738 1.5516L33.2508 1.4356L33.6078 1.4096V1.0896H31.6048V1.4126L32.0258 1.4746L33.6498 4.3326Z" fill="white"/>
<path fill-rule="evenodd" clip-rule="evenodd" d="M23.0238 3.9977C23.0758 4.1367 23.1458 4.2707 23.2338 4.4047C23.3208 4.5387 23.4268 4.6627 23.5528 4.7807C23.6908 4.9097 23.8318 5.0127 23.9738 5.0907C24.1188 5.1667 24.2648 5.2267 24.4088 5.2687C24.5558 5.3097 24.7018 5.3377 24.8478 5.3527C24.9948 5.3677 25.1388 5.3747 25.2818 5.3747C25.4498 5.3747 25.6458 5.3587 25.8698 5.3277C26.0888 5.2967 26.3398 5.2337 26.6188 5.1407V3.9977H26.0798L25.9238 4.8097L25.9178 4.8147L25.8118 4.9137L25.8038 4.9157C25.7698 4.9197 25.7208 4.9247 25.6578 4.9317C25.5938 4.9377 25.5318 4.9417 25.4728 4.9417C25.3438 4.9417 25.2248 4.9257 25.1168 4.8957C25.0108 4.8657 24.9138 4.8267 24.8248 4.7797C24.7368 4.7317 24.6608 4.6807 24.5968 4.6217C24.5308 4.5627 24.4758 4.5057 24.4288 4.4447C24.3038 4.2857 24.2128 4.0977 24.1518 3.8797C24.0928 3.6627 24.0638 3.4297 24.0638 3.1787C24.0638 2.8797 24.1058 2.6147 24.1908 2.3797C24.2768 2.1457 24.3948 1.9517 24.5448 1.8027C24.5718 1.7757 24.6088 1.7427 24.6608 1.7027C24.7128 1.6617 24.7768 1.6217 24.8538 1.5827C24.9308 1.5437 25.0218 1.5107 25.1248 1.4827C25.2288 1.4547 25.3438 1.4407 25.4728 1.4407C25.5448 1.4407 25.6078 1.4447 25.6658 1.4537C25.7208 1.4627 25.7678 1.4707 25.8158 1.4857L25.9298 1.5917L26.0798 2.3577H26.6188V1.2527C26.4088 1.1717 26.1978 1.1107 25.9828 1.0697C25.7638 1.0267 25.5398 1.0077 25.3138 1.0077C24.9738 1.0077 24.6938 1.0407 24.4728 1.1067C24.2518 1.1737 24.0658 1.2567 23.9158 1.3517C23.7228 1.4687 23.5618 1.6017 23.4308 1.7517C23.2988 1.9017 23.1928 2.0597 23.1118 2.2217C23.0308 2.3837 22.9708 2.5487 22.9338 2.7157C22.8958 2.8827 22.8768 3.0437 22.8768 3.1977C22.8768 3.3227 22.8878 3.4527 22.9118 3.5887C22.9348 3.7247 22.9728 3.8607 23.0238 3.9977Z" fill="white"/>
<path fill-rule="evenodd" clip-rule="evenodd" d="M42.726 5.3746C42.893 5.3746 43.089 5.3586 43.314 5.3276C43.534 5.2976 43.783 5.2336 44.062 5.1406V3.9986H43.523L43.368 4.8096L43.361 4.8136L43.255 4.9146L43.247 4.9156C43.214 4.9206 43.165 4.9246 43.102 4.9316C43.038 4.9376 42.975 4.9406 42.916 4.9406C42.788 4.9406 42.669 4.9266 42.561 4.8956C42.454 4.8666 42.357 4.8266 42.269 4.7796C42.182 4.7326 42.105 4.6806 42.039 4.6216C41.976 4.5636 41.92 4.5056 41.873 4.4446C41.748 4.2866 41.656 4.0976 41.597 3.8796C41.537 3.6626 41.507 3.4286 41.507 3.1786C41.507 2.8806 41.55 2.6136 41.634 2.3796C41.72 2.1456 41.839 1.9516 41.988 1.8026C42.015 1.7756 42.053 1.7426 42.103 1.7016C42.156 1.6606 42.22 1.6206 42.298 1.5826C42.375 1.5436 42.466 1.5106 42.567 1.4816C42.671 1.4546 42.788 1.4406 42.916 1.4406C42.989 1.4406 43.053 1.4456 43.109 1.4536C43.163 1.4616 43.21 1.4716 43.261 1.4846L43.373 1.5906L43.523 2.3576H44.062V1.2526C43.853 1.1716 43.641 1.1106 43.426 1.0696C43.207 1.0276 42.984 1.0076 42.758 1.0076C42.418 1.0076 42.137 1.0406 41.916 1.1076C41.695 1.1736 41.51 1.2566 41.359 1.3516C41.167 1.4686 41.006 1.6026 40.875 1.7516C40.744 1.9026 40.636 2.0586 40.555 2.2216C40.474 2.3836 40.414 2.5496 40.377 2.7146C40.339 2.8826 40.321 3.0436 40.321 3.1976C40.321 3.3216 40.332 3.4526 40.355 3.5886C40.378 3.7246 40.416 3.8596 40.468 3.9986C40.519 4.1356 40.589 4.2706 40.677 4.4046C40.765 4.5376 40.871 4.6626 40.996 4.7796C41.134 4.9096 41.274 5.0126 41.418 5.0896C41.562 5.1666 41.707 5.2266 41.853 5.2676C42 5.3096 42.146 5.3386 42.292 5.3536C42.438 5.3666 42.583 5.3746 42.726 5.3746Z" fill="white"/>
<path fill-rule="evenodd" clip-rule="evenodd" d="M20.353 1.4098L20.719 1.4348L20.726 1.4408L20.834 1.5428V1.7378L19.105 3.9548V1.5428L19.112 1.5358L19.219 1.4348L19.585 1.4098V1.0898H17.532V1.4098L17.904 1.4348L17.91 1.4398L18.025 1.5418V4.8058L18.02 4.8128L17.906 4.9408L17.532 4.9648V5.2858H19.585V4.9648L19.218 4.9388L19.211 4.9318L19.105 4.8058V4.5608L20.834 2.3448V4.8058L20.829 4.8108L20.721 4.9408L20.353 4.9648V5.2858H22.406V4.9648L22.025 4.9408L22.02 4.9318L21.914 4.8058V1.5428L21.92 1.5358L22.028 1.4348L22.406 1.4098V1.0898H20.353V1.4098Z" fill="white"/>
<path fill-rule="evenodd" clip-rule="evenodd" d="M44.5136 2.3131H45.0026L45.1266 1.5581L45.1346 1.5531L45.2486 1.4731H45.8936V4.8071L45.7596 4.9401L45.3486 4.9641V5.2871H47.5146V4.9641L47.1046 4.9401L46.9716 4.8071V1.4731H47.6026L47.6086 1.4761L47.7306 1.5571L47.8626 2.3131H48.3496V1.0891H44.5136V2.3131Z" fill="white"/>
<path fill-rule="evenodd" clip-rule="evenodd" d="M36.1733 3.9977C36.2253 4.1367 36.2963 4.2707 36.3823 4.4047C36.4703 4.5387 36.5763 4.6627 36.7013 4.7807C36.8393 4.9097 36.9803 5.0127 37.1233 5.0907C37.2683 5.1667 37.4123 5.2267 37.5583 5.2687C37.7053 5.3097 37.8513 5.3377 37.9973 5.3527C38.1433 5.3677 38.2883 5.3747 38.4313 5.3747C38.5983 5.3747 38.7953 5.3587 39.0193 5.3277C39.2383 5.2967 39.4893 5.2337 39.7683 5.1407V3.9977H39.2293L39.0723 4.8097L39.0683 4.8147L38.9603 4.9137L38.9523 4.9157C38.9193 4.9197 38.8703 4.9247 38.8073 4.9317C38.7433 4.9377 38.6803 4.9417 38.6213 4.9417C38.4933 4.9417 38.3743 4.9257 38.2663 4.8957C38.1593 4.8657 38.0623 4.8267 37.9743 4.7797C37.8863 4.7317 37.8103 4.6807 37.7453 4.6217C37.6813 4.5627 37.6253 4.5057 37.5783 4.4447C37.4533 4.2857 37.3613 4.0977 37.3013 3.8797C37.2423 3.6627 37.2133 3.4297 37.2133 3.1787C37.2133 2.8797 37.2553 2.6147 37.3403 2.3797C37.4253 2.1457 37.5433 1.9517 37.6933 1.8027C37.7193 1.7757 37.7583 1.7427 37.8103 1.7027C37.8623 1.6617 37.9263 1.6217 38.0033 1.5827C38.0813 1.5437 38.1713 1.5107 38.2743 1.4827C38.3773 1.4547 38.4933 1.4407 38.6213 1.4407C38.6943 1.4407 38.7573 1.4447 38.8153 1.4537C38.8703 1.4627 38.9173 1.4707 38.9653 1.4857L39.0793 1.5917L39.2293 2.3577H39.7683V1.2527C39.5583 1.1717 39.3473 1.1107 39.1313 1.0697C38.9123 1.0267 38.6903 1.0077 38.4643 1.0077C38.1233 1.0077 37.8413 1.0407 37.6223 1.1067C37.4003 1.1737 37.2153 1.2567 37.0643 1.3517C36.8723 1.4687 36.7113 1.6017 36.5803 1.7517C36.4483 1.9017 36.3423 2.0597 36.2603 2.2217C36.1793 2.3837 36.1203 2.5487 36.0823 2.7157C36.0443 2.8827 36.0263 3.0437 36.0263 3.1977C36.0263 3.3227 36.0373 3.4527 36.0603 3.5887C36.0833 3.7247 36.1213 3.8607 36.1733 3.9977Z" fill="white"/>
<path fill-rule="evenodd" clip-rule="evenodd" d="M56.4418 3.9576C56.3828 4.2166 56.2848 4.4336 56.1458 4.6086C56.0358 4.7466 55.9158 4.8416 55.7888 4.8896C55.6638 4.9366 55.5518 4.9596 55.4518 4.9596H55.4478C55.3318 4.9596 55.2118 4.9326 55.0878 4.8786C54.9608 4.8236 54.8418 4.7266 54.7308 4.5836C54.6228 4.4456 54.5338 4.2656 54.4618 4.0426C54.3888 3.8176 54.3518 3.5406 54.3518 3.2096C54.3518 2.9306 54.3818 2.6676 54.4418 2.4236C54.5018 2.1786 54.5928 1.9746 54.7168 1.8116C54.8298 1.6616 54.9488 1.5606 55.0798 1.5086C55.2048 1.4586 55.3238 1.4346 55.4328 1.4346C55.4758 1.4346 55.5268 1.4386 55.5878 1.4476C55.6488 1.4556 55.7148 1.4746 55.7828 1.5026C55.8528 1.5306 55.9208 1.5706 55.9898 1.6226C56.0608 1.6756 56.1268 1.7456 56.1918 1.8366C56.2768 1.9566 56.3558 2.1236 56.4248 2.3366C56.4958 2.5506 56.5308 2.8236 56.5308 3.1596C56.5308 3.4356 56.5018 3.7006 56.4418 3.9576ZM57.5458 2.2296C57.4108 1.9236 57.1968 1.6626 56.9048 1.4456C56.6798 1.2816 56.4448 1.1676 56.2048 1.1006C55.9618 1.0346 55.7158 1.0016 55.4638 1.0016C55.1158 0.9996 54.8148 1.0456 54.5578 1.1366C54.3008 1.2256 54.0848 1.3366 53.9098 1.4706C53.7418 1.5956 53.6098 1.7326 53.5098 1.8856C53.4098 2.0366 53.3318 2.1896 53.2758 2.3426C53.2188 2.4936 53.1828 2.6426 53.1628 2.7866C53.1448 2.9316 53.1338 3.0596 53.1338 3.1716C53.1338 3.3816 53.1548 3.5726 53.1968 3.7476C53.2398 3.9236 53.2958 4.0846 53.3658 4.2296C53.4368 4.3766 53.5188 4.5056 53.6128 4.6176C53.7068 4.7296 53.8058 4.8286 53.9098 4.9116C54.1018 5.0656 54.3228 5.1856 54.5768 5.2686C54.8298 5.3516 55.1038 5.3946 55.3998 5.3946C55.7268 5.3946 56.0238 5.3466 56.2918 5.2496C56.5588 5.1526 56.7928 5.0236 56.9928 4.8616C57.2598 4.6406 57.4518 4.3836 57.5698 4.0896C57.6898 3.7946 57.7498 3.4926 57.7498 3.1856C57.7498 2.8546 57.6818 2.5356 57.5458 2.2296ZM51.3948 4.3676C51.3778 4.4796 51.3238 4.5836 51.2368 4.6806C51.1748 4.7466 51.1048 4.7976 51.0248 4.8346C50.9448 4.8706 50.8598 4.8966 50.7708 4.9116C50.6848 4.9276 50.5928 4.9356 50.4998 4.9356C50.4088 4.9356 50.3228 4.9306 50.2378 4.9226L50.2158 4.9196V3.3126H50.4418C50.4688 3.3126 50.5058 3.3136 50.5568 3.3156C50.6088 3.3186 50.6658 3.3236 50.7318 3.3356C50.7958 3.3466 50.8598 3.3606 50.9268 3.3806C50.9938 3.3996 51.0558 3.4276 51.1108 3.4616C51.2388 3.5406 51.3228 3.6396 51.3628 3.7586C51.4008 3.8746 51.4198 3.9936 51.4198 4.1146C51.4198 4.1756 51.4118 4.2596 51.3948 4.3676ZM50.2158 1.4476H50.4048C50.4898 1.4476 50.5868 1.4556 50.6918 1.4736C50.8018 1.4896 50.8998 1.5346 50.9878 1.6036C51.0798 1.6786 51.1398 1.7696 51.1668 1.8756C51.1928 1.9786 51.2048 2.0726 51.2048 2.1596C51.2048 2.2636 51.1928 2.3626 51.1668 2.4606C51.1398 2.5586 51.0988 2.6406 51.0418 2.7066C50.9788 2.7816 50.8828 2.8436 50.7548 2.8906C50.6628 2.9236 50.5528 2.9386 50.4248 2.9386C50.3668 2.9386 50.3038 2.9366 50.2378 2.9296L50.2158 2.9276V1.4476ZM52.1988 3.3166C52.1338 3.2686 52.0608 3.2286 51.9838 3.1976C51.9038 3.1656 51.8268 3.1406 51.7528 3.1216C51.6768 3.1036 51.6078 3.0886 51.5428 3.0806C51.4778 3.0726 51.4248 3.0676 51.3848 3.0676H51.3608V3.0136L51.3808 3.0096C51.5088 2.9886 51.6318 2.9506 51.7518 2.8956C51.8678 2.8386 51.9798 2.7526 52.0878 2.6316C52.1708 2.5356 52.2278 2.4436 52.2608 2.3536C52.2928 2.2646 52.3098 2.1636 52.3098 2.0526C52.3088 1.7206 52.1828 1.4786 51.9278 1.3126C51.7998 1.2306 51.6468 1.1726 51.4658 1.1396C51.2828 1.1056 51.0978 1.0896 50.9108 1.0896H48.6628V1.4096L49.0478 1.4356L49.0538 1.4406L49.1628 1.5426V4.8056L49.1568 4.8116L49.0498 4.9396L48.6628 4.9646V5.2866H50.9608C51.0108 5.2866 51.0808 5.2836 51.1718 5.2796C51.2598 5.2756 51.3598 5.2636 51.4688 5.2416C51.5768 5.2216 51.6878 5.1906 51.7998 5.1516C51.9118 5.1116 52.0168 5.0556 52.1168 4.9796C52.2498 4.8856 52.3538 4.7676 52.4298 4.6216C52.5048 4.4786 52.5438 4.3006 52.5438 4.0886C52.5438 3.8636 52.5058 3.6936 52.4328 3.5826C52.3588 3.4666 52.2798 3.3776 52.1988 3.3166Z" fill="white"/>
</svg>
