<svg width="457" height="195" viewBox="0 0 457 195" fill="none" xmlns="http://www.w3.org/2000/svg">
<path fill-rule="evenodd" clip-rule="evenodd" d="M221.74 164.37V172.44H232.74V164.37H236.54V185.23H232.74V176.49H221.74V185.23H217.97V164.37H221.74Z" fill="black"/>
<path fill-rule="evenodd" clip-rule="evenodd" d="M251.63 163.87C248.606 163.771 245.716 165.119 243.85 167.5L244.91 170.79C246.419 168.904 248.725 167.834 251.14 167.9C254.15 167.9 256.74 169.43 256.74 172.9V173.9C255.44 172.69 252.94 172.19 251.01 172.19C246.37 172.19 242.69 174.7 242.69 178.96C242.69 183.22 245.95 185.73 250.89 185.73C253.22 185.73 255.89 184.81 256.89 183.39V185.23H260.57V172.06C260.57 166.87 257.15 163.87 251.63 163.87ZM251.54 176.07C253.77 176.07 256.1 176.66 256.77 177.83V179.42C256.1 180.75 253.76 181.67 251.54 181.67C248.29 181.67 246.54 180.67 246.54 178.87C246.54 177.07 248.41 176.07 251.54 176.07Z" fill="black"/>
<path fill-rule="evenodd" clip-rule="evenodd" d="M283.02 155.23V185.23L291.38 185.24C296.73 185.24 300.82 181.6 300.82 176.08C300.82 170.73 296.94 167.01 291.42 167.01H286.78V159.45H298.36V155.23H283.02ZM296.91 176.11C296.91 178.811 294.721 181 292.02 181H286.75V171.22H292.02C294.721 171.22 296.91 173.409 296.91 176.11Z" fill="black"/>
<path fill-rule="evenodd" clip-rule="evenodd" d="M310.65 182.97C311.32 184.52 313.79 185.73 316.97 185.73C323.006 185.705 327.88 180.791 327.855 174.755C327.83 168.719 322.916 163.845 316.88 163.87C313.71 163.87 311.2 165.04 310.53 166.58V164.37H306.85V194.13H310.65V182.97ZM310.65 171.39C311.37 169.38 313.96 167.92 316.84 167.92C321.06 167.92 323.84 170.52 323.84 174.74C323.84 178.96 321.06 181.67 316.84 181.67C313.96 181.67 311.37 180.2 310.65 178.2V171.39Z" fill="black"/>
<path fill-rule="evenodd" clip-rule="evenodd" d="M332.779 179.254C334.597 183.33 338.71 185.893 343.17 185.73C346.02 185.699 348.739 184.527 350.72 182.477C352.7 180.427 353.777 177.67 353.71 174.82C353.719 170.357 351.016 166.335 346.88 164.659C342.743 162.982 338.003 163.986 334.902 167.196C331.801 170.406 330.961 175.178 332.779 179.254ZM348.034 179.747C346.754 181.042 344.989 181.74 343.17 181.67C341.352 181.733 339.591 181.034 338.312 179.74C337.034 178.446 336.355 176.677 336.44 174.86C336.44 171.143 339.453 168.13 343.17 168.13C346.887 168.13 349.9 171.143 349.9 174.86C349.991 176.678 349.314 178.452 348.034 179.747Z" fill="black"/>
<path fill-rule="evenodd" clip-rule="evenodd" d="M363.76 164.37V172.44H374.71V164.37H378.51V185.23H374.71V176.49H363.76V185.23H359.97V164.37H363.76Z" fill="black"/>
<path fill-rule="evenodd" clip-rule="evenodd" d="M389.87 164.37V172.44H400.87V164.37H404.67V185.23H400.87V176.49H389.87V185.23H386.07V164.37H389.87Z" fill="black"/>
<path fill-rule="evenodd" clip-rule="evenodd" d="M411.033 179.24C412.845 183.317 416.951 185.885 421.41 185.73C424.264 185.704 426.988 184.535 428.973 182.484C430.957 180.434 432.037 177.673 431.97 174.82C431.98 170.358 429.279 166.338 425.145 164.66C421.011 162.982 416.272 163.982 413.169 167.188C410.066 170.394 409.221 175.163 411.033 179.24ZM426.271 179.743C424.992 181.038 423.229 181.737 421.41 181.67C419.591 181.737 417.828 181.038 416.549 179.743C415.27 178.449 414.592 176.678 414.68 174.86C414.68 171.143 417.693 168.13 421.41 168.13C425.127 168.13 428.14 171.143 428.14 174.86C428.228 176.678 427.55 178.449 426.271 179.743Z" fill="black"/>
<path fill-rule="evenodd" clip-rule="evenodd" d="M447.55 149.37C444.236 149.37 441.55 152.056 441.55 155.37C441.55 158.684 444.236 161.37 447.55 161.37C450.864 161.37 453.55 158.684 453.55 155.37C453.55 152.056 450.864 149.37 447.55 149.37ZM441.97 164.37V178.96L453.09 164.37H456.89V185.23H453.09V170.64L441.97 185.23H438.17V164.37H441.97ZM450.15 155.39C450.15 153.954 448.986 152.79 447.55 152.79C446.86 152.787 446.197 153.06 445.709 153.549C445.22 154.037 444.947 154.7 444.95 155.39C444.95 156.826 446.114 157.99 447.55 157.99C448.986 157.99 450.15 156.826 450.15 155.39Z" fill="black"/>
<path fill-rule="evenodd" clip-rule="evenodd" d="M233.65 117.82H226.71V134.62H222.91V117.82H215.97V113.77H233.65V117.82Z" fill="black"/>
<path fill-rule="evenodd" clip-rule="evenodd" d="M256.05 131.31L255.05 128.31C253.339 130.042 251.015 131.031 248.58 131.06C244.57 131.06 241.81 129.26 241.43 125.58H257.43C257.51 125.111 257.55 124.636 257.55 124.16C257.55 118.25 253.81 113.25 247.81 113.25C241.5 113.25 237.57 118.39 237.57 124.25C237.57 130.93 242.17 135.15 248.4 135.15C252.33 135.15 255.17 133.15 256.05 131.31ZM247.81 117.32C250.87 117.32 253.29 119.24 253.5 121.75H241.71C242.05 119.2 244.75 117.32 247.81 117.32Z" fill="black"/>
<path fill-rule="evenodd" clip-rule="evenodd" d="M271.18 113.26C268.158 113.166 265.272 114.518 263.41 116.9L264.53 120.18C266.04 118.302 268.341 117.236 270.75 117.3C273.76 117.3 276.36 118.83 276.36 122.3V123.3C275.06 122.08 272.55 121.58 270.63 121.58C265.99 121.58 262.31 124.08 262.31 128.35C262.31 132.62 265.57 135.12 270.5 135.12C272.82 135.12 275.5 134.21 276.5 132.78V134.62H280.18V121.46C280.18 116.32 276.7 113.26 271.18 113.26ZM271.1 125.47C273.33 125.47 275.66 126.05 276.33 127.23V128.81C275.66 130.15 273.32 131.07 271.1 131.07C267.85 131.07 266.1 130.07 266.1 128.27C266.1 126.47 267.97 125.47 271.1 125.47Z" fill="black"/>
<path fill-rule="evenodd" clip-rule="evenodd" d="M302.81 117.82H295.87V134.62H292.07V117.82H285.13V113.77H302.81V117.82Z" fill="black"/>
<path fill-rule="evenodd" clip-rule="evenodd" d="M311.96 132.33C312.63 133.87 315.09 135.08 318.27 135.08C324.038 134.71 328.521 129.913 328.5 124.132C328.479 118.352 323.961 113.588 318.19 113.26C315.01 113.26 312.5 114.43 311.83 115.98V113.77H308.15V143.49H311.96V132.33ZM311.96 120.75C312.67 118.74 315.26 117.28 318.14 117.28V117.32C322.37 117.32 325.14 119.87 325.14 124.09C325.14 128.31 322.37 131.03 318.14 131.03C315.26 131.03 312.67 129.56 311.96 127.56V120.75Z" fill="black"/>
<path fill-rule="evenodd" clip-rule="evenodd" d="M187.62 0L139.873 63.7531C167.223 70.5205 186.572 94.8793 186.974 123.053C187.377 151.23 168.726 176.135 141.573 183.677C114.42 191.218 85.5967 179.499 71.4101 155.15L47.4701 187.15V0H187.62ZM1.81427 170.944C3.48751 166.912 7.425 164.286 11.7901 164.29C17.7453 164.296 22.5701 169.125 22.5701 175.08C22.5701 179.445 19.9401 183.38 15.9069 185.05C11.8737 186.719 7.23197 185.794 4.14684 182.706C1.06171 179.618 0.141035 174.976 1.81427 170.944ZM5.28006 175.08C5.28006 178.675 8.19469 181.59 11.7901 181.59C15.3832 181.585 18.2946 178.673 18.3001 175.08C18.3001 171.485 15.3854 168.57 11.7901 168.57C8.19469 168.57 5.28006 171.485 5.28006 175.08ZM51.7401 4.32V174.32L69.1901 151.07C59.0668 130.197 61.4429 105.419 75.3483 86.8504C89.2538 68.2817 112.362 59.0293 135.24 62.87L179.08 4.32H51.7401ZM132.33 66.7L72.0801 147.15C64.2416 129.306 65.9392 108.711 76.5938 92.3914C87.2484 76.0717 105.42 66.2323 124.91 66.23C127.391 66.2302 129.869 66.3872 132.33 66.7ZM116.634 180.972C134.64 183.58 152.821 177.55 165.7 164.7C180.637 149.764 186.216 127.86 180.246 107.599C174.275 87.3375 157.709 71.9592 137.06 67.51L74.2001 151.45C82.9049 167.426 98.6289 178.365 116.634 180.972Z" fill="black"/>
</svg>
