<svg width="310" height="421" viewBox="0 0 310 421" fill="none" xmlns="http://www.w3.org/2000/svg">
<path fill-rule="evenodd" clip-rule="evenodd" d="M76.7429 391.906V399.781H87.4329V391.906H91.1459V412.266H87.4329V403.739H76.7429V412.266H73.0299V391.906H76.7429Z" fill="black"/>
<path fill-rule="evenodd" clip-rule="evenodd" d="M111.326 405.045C110.674 403.902 108.43 403.331 106.226 403.331C103.166 403.331 101.33 404.311 101.33 406.065C101.33 407.696 103.044 408.799 106.226 408.799C108.388 408.799 110.674 407.9 111.326 406.595V405.045ZM98.7189 394.967C100.228 392.845 103.044 391.417 106.307 391.417C111.694 391.417 115.04 394.396 115.04 399.414V412.267H111.449V410.472C110.429 411.858 107.858 412.756 105.614 412.756C100.8 412.756 97.6169 410.308 97.6169 406.147C97.6169 401.903 101.208 399.536 105.736 399.536C107.613 399.536 110.061 400.026 111.326 401.209V400.231C111.326 396.844 108.797 395.375 105.859 395.375C103.289 395.375 101.004 396.517 99.7789 398.19L98.7189 394.967Z" fill="black"/>
<path fill-rule="evenodd" clip-rule="evenodd" d="M145.768 408.145C148.502 408.145 150.46 406.023 150.46 403.372C150.46 400.556 148.42 398.597 145.768 398.597H140.627V408.145H145.768ZM136.955 412.266V382.97H151.929V387.091H140.627V394.476H145.157C150.542 394.476 154.336 398.108 154.336 403.331C154.336 408.716 150.338 412.266 145.116 412.266H136.955Z" fill="black"/>
<path fill-rule="evenodd" clip-rule="evenodd" d="M170.368 395.375C167.553 395.375 165.022 396.803 164.329 398.761V405.412C165.022 407.37 167.553 408.799 170.368 408.799C174.488 408.799 177.222 406.146 177.222 402.025C177.222 397.986 174.488 395.375 170.368 395.375ZM170.49 412.756C167.389 412.756 164.981 411.573 164.329 410.063V420.957H160.616V391.906H164.207V394.069C164.859 392.56 167.307 391.417 170.408 391.417C176.08 391.417 180.935 395.782 180.935 402.106C180.935 408.391 176.039 412.756 170.49 412.756Z" fill="black"/>
<path fill-rule="evenodd" clip-rule="evenodd" d="M196.457 408.799C200.211 408.799 203.025 406.147 203.025 402.148C203.025 398.15 200.211 395.375 196.457 395.375C192.703 395.375 189.888 398.15 189.888 402.107C189.888 406.147 192.703 408.799 196.457 408.799ZM196.457 412.756C190.907 412.756 186.175 408.228 186.175 402.107C186.175 395.986 190.907 391.417 196.457 391.417C202.006 391.417 206.739 395.986 206.739 402.107C206.739 408.228 202.006 412.756 196.457 412.756Z" fill="black"/>
<path fill-rule="evenodd" clip-rule="evenodd" d="M216.942 391.906V399.781H227.632V391.906H231.345V412.266H227.632V403.739H216.942V412.266H213.229V391.906H216.942Z" fill="black"/>
<path fill-rule="evenodd" clip-rule="evenodd" d="M242.827 391.906V399.781H253.517V391.906H257.23V412.266H253.517V403.739H242.827V412.266H239.114V391.906H242.827Z" fill="black"/>
<path fill-rule="evenodd" clip-rule="evenodd" d="M274.004 408.799C277.758 408.799 280.572 406.147 280.572 402.148C280.572 398.15 277.758 395.375 274.004 395.375C270.25 395.375 267.435 398.15 267.435 402.107C267.435 406.147 270.25 408.799 274.004 408.799ZM274.004 412.756C268.454 412.756 263.722 408.228 263.722 402.107C263.722 395.986 268.454 391.417 274.004 391.417C279.553 391.417 284.286 395.986 284.286 402.107C284.286 408.228 279.553 412.756 274.004 412.756Z" fill="black"/>
<path fill-rule="evenodd" clip-rule="evenodd" d="M306.445 383.746C306.445 387.174 303.548 389.662 299.917 389.662C296.285 389.662 293.388 387.174 293.388 383.746L296.612 383.216C296.734 384.643 297.918 385.949 299.917 385.949C301.916 385.949 303.099 384.643 303.221 383.216L306.445 383.746ZM294.49 391.906V406.146L305.343 391.906H309.056V412.267H305.343V398.026L294.49 412.267H290.777V391.906H294.49Z" fill="black"/>
<path fill-rule="evenodd" clip-rule="evenodd" d="M88.3728 347.142H81.5998V363.544H77.8868V347.142H71.1128V343.184H88.3728V347.142Z" fill="black"/>
<path fill-rule="evenodd" clip-rule="evenodd" d="M108.156 350.976C107.953 348.528 105.586 346.652 102.607 346.652C99.629 346.652 96.976 348.488 96.65 350.976H108.156ZM109.666 357.382L110.645 360.28C109.789 362.075 107.014 364.033 103.178 364.033C97.099 364.033 92.611 359.912 92.611 353.383C92.611 347.671 96.446 342.694 102.607 342.694C108.483 342.694 112.114 347.59 112.114 353.343C112.114 353.832 112.073 354.241 111.992 354.73H96.405C96.772 358.321 99.466 360.076 103.383 360.076C105.994 360.076 108.523 358.688 109.666 357.382Z" fill="black"/>
<path fill-rule="evenodd" clip-rule="evenodd" d="M130.83 356.322C130.177 355.179 127.934 354.608 125.729 354.608C122.67 354.608 120.834 355.588 120.834 357.342C120.834 358.973 122.547 360.076 125.729 360.076C127.893 360.076 130.177 359.177 130.83 357.872V356.322ZM118.223 346.244C119.731 344.122 122.547 342.694 125.811 342.694C131.197 342.694 134.543 345.673 134.543 350.691V363.544H130.952V361.749C129.933 363.135 127.362 364.033 125.118 364.033C120.303 364.033 117.12 361.585 117.12 357.424C117.12 353.18 120.711 350.813 125.24 350.813C127.117 350.813 129.565 351.303 130.83 352.486V351.508C130.83 348.121 128.301 346.652 125.362 346.652C122.792 346.652 120.507 347.794 119.283 349.467L118.223 346.244Z" fill="black"/>
<path fill-rule="evenodd" clip-rule="evenodd" d="M157.093 347.142H150.32V363.544H146.607V347.142H139.834V343.184H157.093V347.142Z" fill="black"/>
<path fill-rule="evenodd" clip-rule="evenodd" d="M172.471 346.652C169.656 346.652 167.125 348.08 166.432 350.038V356.689C167.125 358.647 169.656 360.076 172.471 360.076C176.591 360.076 179.325 357.423 179.325 353.302C179.325 349.263 176.591 346.652 172.471 346.652ZM172.593 364.033C169.492 364.033 167.084 362.85 166.432 361.34V372.234H162.719V343.183H166.31V345.346C166.962 343.837 169.41 342.694 172.511 342.694C178.183 342.694 183.038 347.059 183.038 353.383C183.038 359.668 178.142 364.033 172.593 364.033Z" fill="black"/>
<mask id="mask0" mask-type="alpha" maskUnits="userSpaceOnUse" x="0" y="260" width="35" height="35">
<path fill-rule="evenodd" clip-rule="evenodd" d="M0 260.172H34.0314V294.202H0V260.172Z" fill="white"/>
</mask>
<g mask="url(#mask0)">
<path fill-rule="evenodd" clip-rule="evenodd" d="M17.0154 260.172C7.61839 260.172 -0.000610352 267.79 -0.000610352 277.188C-0.000610352 286.585 7.61839 294.202 17.0154 294.202C26.4124 294.202 34.0314 286.585 34.0314 277.188C34.0314 267.79 26.4124 260.172 17.0154 260.172ZM17.0154 266.912C22.6814 266.912 27.2904 271.522 27.2904 277.188C27.2904 282.853 22.6814 287.462 17.0154 287.462C11.3494 287.462 6.74039 282.853 6.74039 277.188C6.74039 271.522 11.3494 266.912 17.0154 266.912Z" fill="black"/>
</g>
<path fill-rule="evenodd" clip-rule="evenodd" d="M294.382 1H73.3005V296.225L294.382 1ZM280.913 7.74L80.0405 275.979V7.74H280.913Z" fill="black"/>
<path fill-rule="evenodd" clip-rule="evenodd" d="M195.468 98.7339C141.49 98.7339 97.7345 142.491 97.7345 196.469C97.7345 250.445 141.49 294.202 195.468 294.202C249.447 294.202 293.202 250.445 293.202 196.469C293.202 142.491 249.447 98.7339 195.468 98.7339ZM195.468 105.475C219.774 105.475 242.624 114.94 259.812 132.126C276.997 149.313 286.463 172.163 286.463 196.469C286.463 220.774 276.997 243.624 259.812 260.811C242.624 277.997 219.774 287.462 195.468 287.462C171.162 287.462 148.312 277.997 131.125 260.811C113.939 243.624 104.474 220.774 104.474 196.469C104.474 172.163 113.939 149.313 131.125 132.126C148.312 114.94 171.162 105.475 195.468 105.475Z" fill="black"/>
</svg>
