<svg width="182" height="78" viewBox="0 0 182 78" fill="none" xmlns="http://www.w3.org/2000/svg">
<path fill-rule="evenodd" clip-rule="evenodd" d="M88.308 65.748V68.976H92.6888V65.748H94.2021V74.092H92.6888V70.596H88.308V74.092H86.8066V65.748H88.308Z" fill="black"/>
<path fill-rule="evenodd" clip-rule="evenodd" d="M100.212 65.5479C99.0075 65.5082 97.8567 66.0476 97.1133 66.9999L97.5355 68.3159C98.1365 67.5615 99.0549 67.1336 100.017 67.1599C101.215 67.1599 102.247 67.7719 102.247 69.16V69.56C101.729 69.0759 100.733 68.8759 99.9648 68.8759C98.1169 68.8759 96.6514 69.88 96.6514 71.584C96.6514 73.288 97.9497 74.292 99.917 74.292C100.845 74.292 101.908 73.924 102.307 73.356V74.092H103.772V68.8239C103.772 66.7479 102.41 65.5479 100.212 65.5479ZM100.176 70.4279C101.064 70.4279 101.992 70.6639 102.259 71.1319V71.768C101.992 72.3 101.06 72.668 100.176 72.668C98.8816 72.668 98.1846 72.268 98.1846 71.548C98.1846 70.8279 98.9294 70.4279 100.176 70.4279Z" fill="black"/>
<path fill-rule="evenodd" clip-rule="evenodd" d="M112.713 62.092V74.092L116.042 74.096C118.173 74.096 119.802 72.64 119.802 70.432C119.802 68.292 118.257 66.804 116.058 66.804H114.21V63.78H118.822V62.092H112.713ZM118.245 70.444C118.245 71.5243 117.373 72.4 116.297 72.4H114.198V68.488H116.297C117.373 68.488 118.245 69.3638 118.245 70.444Z" fill="black"/>
<path fill-rule="evenodd" clip-rule="evenodd" d="M123.716 73.1879C123.983 73.8079 124.967 74.2919 126.233 74.2919C128.637 74.2819 130.578 72.3165 130.568 69.9019C130.558 67.4873 128.602 65.5379 126.198 65.5479C124.935 65.5479 123.936 66.0159 123.669 66.6319V65.7479H122.203V77.6519H123.716V73.1879ZM123.716 68.5559C124.003 67.7519 125.035 67.1679 126.182 67.1679C127.862 67.1679 128.969 68.2079 128.969 69.8959C128.969 71.5839 127.862 72.6679 126.182 72.6679C125.035 72.6679 124.003 72.0799 123.716 71.2799V68.5559Z" fill="black"/>
<path fill-rule="evenodd" clip-rule="evenodd" d="M132.529 71.7017C133.254 73.3321 134.891 74.3572 136.668 74.292C137.803 74.2794 138.886 73.8109 139.674 72.9909C140.463 72.1709 140.892 71.0678 140.865 69.9279C140.869 68.1426 139.792 66.5341 138.145 65.8634C136.498 65.1927 134.61 65.5944 133.375 66.8784C132.14 68.1624 131.805 70.0712 132.529 71.7017ZM138.605 71.8986C138.095 72.4166 137.392 72.6958 136.668 72.6679C135.944 72.6933 135.242 72.4134 134.733 71.8959C134.224 71.3785 133.954 70.6707 133.987 69.9439C133.987 68.4572 135.187 67.2519 136.668 67.2519C138.148 67.2519 139.348 68.4572 139.348 69.9439C139.384 70.6713 139.115 71.3806 138.605 71.8986Z" fill="black"/>
<path fill-rule="evenodd" clip-rule="evenodd" d="M144.868 65.748V68.976H149.229V65.748H150.742V74.092H149.229V70.596H144.868V74.092H143.358V65.748H144.868Z" fill="black"/>
<path fill-rule="evenodd" clip-rule="evenodd" d="M155.266 65.748V68.976H159.647V65.748H161.16V74.092H159.647V70.596H155.266V74.092H153.753V65.748H155.266Z" fill="black"/>
<path fill-rule="evenodd" clip-rule="evenodd" d="M163.694 71.6959C164.416 73.3267 166.051 74.354 167.827 74.292C168.963 74.2816 170.048 73.8139 170.838 72.9937C171.629 72.1735 172.059 71.0692 172.032 69.928C172.036 68.1434 170.96 66.5352 169.314 65.864C167.668 65.1927 165.781 65.5929 164.545 66.8752C163.309 68.1575 162.972 70.0651 163.694 71.6959ZM169.762 71.8973C169.253 72.415 168.551 72.6946 167.827 72.668C167.102 72.6946 166.4 72.415 165.891 71.8973C165.381 71.3796 165.111 70.671 165.146 69.944C165.146 68.4572 166.346 67.252 167.827 67.252C169.307 67.252 170.507 68.4572 170.507 69.944C170.542 70.671 170.272 71.3796 169.762 71.8973Z" fill="black"/>
<path fill-rule="evenodd" clip-rule="evenodd" d="M178.237 59.748C176.917 59.748 175.847 60.8226 175.847 62.148C175.847 63.4735 176.917 64.548 178.237 64.548C179.556 64.548 180.626 63.4735 180.626 62.148C180.626 60.8226 179.556 59.748 178.237 59.748ZM176.014 65.7481V71.584L180.443 65.7481H181.956V74.092H180.443V68.256L176.014 74.092H174.501V65.7481H176.014ZM179.272 62.156C179.272 61.5817 178.808 61.116 178.237 61.116C177.962 61.115 177.698 61.2242 177.503 61.4195C177.309 61.6147 177.2 61.8799 177.201 62.156C177.201 62.7304 177.665 63.1961 178.237 63.1961C178.808 63.1961 179.272 62.7304 179.272 62.156Z" fill="black"/>
<path fill-rule="evenodd" clip-rule="evenodd" d="M93.0518 47.1281H90.2879V53.8481H88.7746V47.1281H86.0107V45.5081H93.0518V47.1281Z" fill="black"/>
<path fill-rule="evenodd" clip-rule="evenodd" d="M101.972 52.5241L101.574 51.3241C100.892 52.017 99.9666 52.4123 98.997 52.4241C97.4001 52.4241 96.3009 51.7041 96.1496 50.2321H102.522C102.553 50.0444 102.569 49.8544 102.569 49.6641C102.569 47.3001 101.08 45.3 98.6904 45.3C96.1774 45.3 94.6123 47.3561 94.6123 49.7001C94.6123 52.3721 96.4443 54.0601 98.9254 54.0601C100.49 54.0601 101.622 53.2601 101.972 52.5241ZM98.6904 46.9281C99.909 46.9281 100.873 47.6961 100.956 48.7001H96.261C96.3964 47.6801 97.4717 46.9281 98.6904 46.9281Z" fill="black"/>
<path fill-rule="evenodd" clip-rule="evenodd" d="M107.997 45.3041C106.794 45.2666 105.645 45.8074 104.903 46.7601L105.349 48.0721C105.95 47.3208 106.867 46.8947 107.826 46.9201C109.025 46.9201 110.06 47.5321 110.06 48.9201V49.3201C109.543 48.8321 108.543 48.6321 107.778 48.6321C105.93 48.6321 104.465 49.6321 104.465 51.3401C104.465 53.0481 105.763 54.0481 107.727 54.0481C108.65 54.0481 109.718 53.6841 110.116 53.1121V53.8481H111.582V48.5841C111.582 46.5281 110.196 45.3041 107.997 45.3041ZM107.965 50.1881C108.854 50.1881 109.781 50.4201 110.048 50.8921V51.5241C109.781 52.0601 108.85 52.4281 107.965 52.4281C106.671 52.4281 105.974 52.0281 105.974 51.3081C105.974 50.5881 106.719 50.1881 107.965 50.1881Z" fill="black"/>
<path fill-rule="evenodd" clip-rule="evenodd" d="M120.595 47.1281H117.831V53.8481H116.318V47.1281H113.554V45.5081H120.595V47.1281Z" fill="black"/>
<path fill-rule="evenodd" clip-rule="evenodd" d="M124.238 52.9319C124.505 53.5479 125.485 54.0319 126.751 54.0319C129.048 53.8839 130.834 51.965 130.825 49.6529C130.817 47.3408 129.017 45.435 126.719 45.304C125.453 45.304 124.453 45.772 124.186 46.392V45.508H122.721V57.3959H124.238V52.9319ZM124.238 48.3C124.521 47.4959 125.552 46.9119 126.699 46.9119V46.9279C128.384 46.9279 129.487 47.9479 129.487 49.636C129.487 51.324 128.384 52.412 126.699 52.412C125.552 52.412 124.521 51.824 124.238 51.024V48.3Z" fill="black"/>
<path fill-rule="evenodd" clip-rule="evenodd" d="M74.7199 0L55.7046 25.5013C66.5968 28.2082 74.3026 37.9517 74.4628 49.2211C74.6231 60.4922 67.1952 70.4541 56.3816 73.4707C45.568 76.4873 34.0892 71.7997 28.4394 62.06L18.9053 74.86V0H74.7199ZM0.722899 68.3776C1.38926 66.7649 2.95737 65.7144 4.69575 65.716C7.06742 65.7182 8.98888 67.6499 8.98888 70.032C8.98888 71.778 7.94149 73.352 6.33528 74.0198C4.72907 74.6876 2.88049 74.3176 1.65184 73.0824C0.423191 71.8473 0.0565325 69.9902 0.722899 68.3776ZM2.10317 70.032C2.10317 71.4702 3.26391 72.636 4.69577 72.636C6.12672 72.6338 7.28618 71.4692 7.28837 70.032C7.28837 68.5939 6.12762 67.428 4.69577 67.428C3.26391 67.428 2.10317 68.5939 2.10317 70.032ZM20.6058 1.728V69.728L27.5552 60.428C23.5237 52.0788 24.4699 42.1676 30.0078 34.7402C35.5456 27.3127 44.7484 23.6117 53.8596 25.148L71.3189 1.728H20.6058ZM52.7007 26.68L28.7062 58.86C25.5846 51.7224 26.2606 43.4844 30.5038 36.9566C34.747 30.4287 41.9839 26.4929 49.7457 26.492C50.7337 26.4921 51.7207 26.5549 52.7007 26.68ZM46.4499 72.389C53.6205 73.4319 60.8612 71.02 65.9903 65.88C71.9388 59.9058 74.1609 51.1441 71.7831 43.0395C69.4053 34.935 62.8078 28.7837 54.5844 27.004L29.5505 60.58C33.0172 66.9702 39.2793 71.3461 46.4499 72.389Z" fill="black"/>
</svg>
