<svg width="33" height="33" viewBox="0 0 33 33" fill="none" xmlns="http://www.w3.org/2000/svg">
<mask id="mask0" mask-type="alpha" maskUnits="userSpaceOnUse" x="0" y="28" width="4" height="5">
<path fill-rule="evenodd" clip-rule="evenodd" d="M0 28.9702H3.80415V32.7737H0V28.9702Z" fill="white"/>
</mask>
<g mask="url(#mask0)">
<path fill-rule="evenodd" clip-rule="evenodd" d="M1.9022 28.9702C0.851855 28.9702 -0.000488281 29.8216 -0.000488281 30.872C-0.000488281 31.9223 0.851855 32.7737 1.9022 32.7737C2.9516 32.7737 3.80394 31.9223 3.80394 30.872C3.80394 29.8216 2.9516 28.9702 1.9022 28.9702Z" fill="black"/>
</g>
<mask id="mask1" mask-type="alpha" maskUnits="userSpaceOnUse" x="8" y="0" width="25" height="33">
<path fill-rule="evenodd" clip-rule="evenodd" d="M8.19336 0.000244141H32.9056V33H8.19336V0.000244141Z" fill="white"/>
</mask>
<g mask="url(#mask1)">
<path fill-rule="evenodd" clip-rule="evenodd" d="M21.8497 31.3597C18.1367 31.3597 14.9216 29.2156 13.3564 26.1051L23.5459 12.4988C27.982 13.303 31.3594 17.1848 31.3594 21.8491C31.3594 27.0932 27.0939 31.3597 21.8497 31.3597ZM12.3391 21.8491C12.3391 16.6058 16.6055 12.3385 21.8497 12.3385C21.8657 12.3385 21.8808 12.3413 21.8978 12.3413L12.7398 24.5692C12.4815 23.7065 12.3391 22.7948 12.3391 21.8491ZM9.60765 28.7517V1.41453H30.0799L22.918 10.9789C22.5663 10.9449 22.2099 10.9242 21.8497 10.9242C15.8164 10.9242 10.9248 15.8157 10.9248 21.8491C10.9248 23.2935 11.2114 24.6692 11.7206 25.9307L9.60765 28.7517ZM24.4765 11.2561L32.9066 0.000244141H8.19336V33.0002L12.423 27.3525C14.3182 30.5922 17.8246 32.774 21.8497 32.774C27.8821 32.774 32.7736 27.8824 32.7736 21.8491C32.7736 16.7237 29.2389 12.4337 24.4765 11.2561Z" fill="black"/>
</g>
</svg>
