<svg width="75" height="75" viewBox="0 0 75 75" fill="none" xmlns="http://www.w3.org/2000/svg">
<path fill-rule="evenodd" clip-rule="evenodd" d="M74.7199 0L55.7046 25.5013C66.5968 28.2082 74.3026 37.9517 74.4628 49.2211C74.6231 60.4922 67.1952 70.4541 56.3816 73.4707C45.568 76.4873 34.0892 71.7997 28.4394 62.06L18.9053 74.86V0H74.7199ZM0.722899 68.3776C1.38926 66.7649 2.95737 65.7144 4.69575 65.716C7.06742 65.7182 8.98888 67.6499 8.98888 70.032C8.98888 71.778 7.94149 73.352 6.33528 74.0198C4.72907 74.6876 2.88049 74.3176 1.65184 73.0824C0.423191 71.8473 0.0565325 69.9902 0.722899 68.3776ZM2.10317 70.032C2.10317 71.4702 3.26391 72.636 4.69577 72.636C6.12672 72.6338 7.28618 71.4692 7.28837 70.032C7.28837 68.5939 6.12762 67.428 4.69577 67.428C3.26391 67.428 2.10317 68.5939 2.10317 70.032ZM20.6058 1.728V69.728L27.5552 60.428C23.5237 52.0788 24.4699 42.1676 30.0078 34.7402C35.5456 27.3127 44.7484 23.6117 53.8596 25.148L71.3189 1.728H20.6058ZM52.7007 26.68L28.7062 58.86C25.5846 51.7224 26.2606 43.4844 30.5038 36.9566C34.747 30.4287 41.9839 26.4929 49.7457 26.492C50.7337 26.4921 51.7207 26.5549 52.7007 26.68ZM46.4499 72.389C53.6205 73.4319 60.8612 71.02 65.9903 65.88C71.9388 59.9058 74.1609 51.1441 71.7831 43.0395C69.4053 34.935 62.8078 28.7837 54.5844 27.004L29.5505 60.58C33.0172 66.9702 39.2793 71.3461 46.4499 72.389Z" fill="black"/>
</svg>
