<svg width="59" height="58" viewBox="0 0 59 58" fill="none" xmlns="http://www.w3.org/2000/svg">
<path fill-rule="evenodd" clip-rule="evenodd" d="M58.0164 0L43.3014 19.3803C51.7304 21.4375 57.6934 28.8423 57.8174 37.4067C57.9414 45.9725 52.1934 53.5432 43.8253 55.8358C35.4573 58.1283 26.5744 54.5659 22.2024 47.164L14.8244 56.8916V0H58.0164ZM0.754106 51.9651C1.26977 50.7396 2.48324 49.9412 3.82848 49.9424C5.66379 49.9441 7.1507 51.4121 7.1507 53.2225C7.1507 54.5494 6.34018 55.7456 5.09722 56.2531C3.85426 56.7606 2.42375 56.4795 1.47296 55.5407C0.522179 54.602 0.238441 53.1907 0.754106 51.9651ZM1.82223 53.2225C1.82223 54.3154 2.72047 55.2014 3.8285 55.2014C4.93583 55.1998 5.83308 54.3147 5.83477 53.2225C5.83477 52.1295 4.93653 51.2435 3.8285 51.2435C2.72047 51.2435 1.82223 52.1295 1.82223 53.2225ZM16.1404 1.31323V52.9914L21.5182 45.9237C18.3983 39.5785 19.1306 32.0463 23.416 26.4016C27.7015 20.7569 34.823 17.9443 41.8737 19.1118L55.3845 1.31323H16.1404ZM40.9769 20.2761L22.4089 44.732C19.9932 39.3076 20.5164 33.047 23.7999 28.086C27.0835 23.125 32.6838 20.1339 38.6902 20.1332C39.4547 20.1333 40.2185 20.181 40.9769 20.2761ZM36.1397 55.0137C41.6887 55.8063 47.2919 53.9733 51.261 50.067C55.8642 45.5268 57.5838 38.8681 55.7437 32.7089C53.9037 26.5497 48.7982 21.8748 42.4346 20.5223L23.0622 46.0392C25.7449 50.8956 30.5908 54.2211 36.1397 55.0137Z" fill="#040304"/>
</svg>
