<svg width="20" height="24" viewBox="0 0 20 24" fill="none" xmlns="http://www.w3.org/2000/svg">
<path fill-rule="evenodd" clip-rule="evenodd" d="M10 24C10 24 20 15.4244 20 9.95122C20 4.47805 15.5 0 10 0C4.5 0 0 4.47805 0 9.95122C0 15.4244 10 24 10 24ZM14.2768 18.4275C13.2027 19.6425 12.0495 20.8207 10.8963 21.9149C10.5777 22.2171 10.2774 22.4956 10 22.7474C9.72262 22.4956 9.42225 22.2171 9.10372 21.9149C7.95047 20.8207 6.79728 19.6425 5.72322 18.4275C4.44632 16.983 3.36961 15.5846 2.5588 14.276C1.50936 12.5822 0.952381 11.1095 0.952381 9.95122C0.952381 4.98248 5.03169 0.923077 10 0.923077C14.9683 0.923077 19.0476 4.98248 19.0476 9.95122C19.0476 11.1095 18.4906 12.5822 17.4412 14.276C16.6304 15.5846 15.5537 16.983 14.2768 18.4275Z" fill="#FF0066"/>
<path fill-rule="evenodd" clip-rule="evenodd" d="M6.19043 9.23076C6.19043 11.2615 7.90472 12.9231 9.99995 12.9231C12.0952 12.9231 13.8095 11.2615 13.8095 9.23076C13.8095 7.19999 12.0952 5.53845 9.99995 5.53845C7.90472 5.53845 6.19043 7.19999 6.19043 9.23076ZM12.8571 9.23076C12.8571 10.7517 11.5692 12 9.99995 12C8.4307 12 7.14281 10.7517 7.14281 9.23076C7.14281 7.70979 8.4307 6.46153 9.99995 6.46153C11.5692 6.46153 12.8571 7.70979 12.8571 9.23076Z" fill="#FF0066"/>
</svg>
