<svg width="20" height="26" viewBox="0 0 20 26" fill="none" xmlns="http://www.w3.org/2000/svg">
<path fill-rule="evenodd" clip-rule="evenodd" d="M9.90039 5.41669C7.69125 5.41669 5.90039 7.20755 5.90039 9.41669C5.90039 11.6258 7.69125 13.4167 9.90039 13.4167C12.1095 13.4167 13.9004 11.6258 13.9004 9.41669C13.9004 7.20755 12.1095 5.41669 9.90039 5.41669ZM6.90039 9.41669C6.90039 7.75983 8.24354 6.41669 9.90039 6.41669C11.5572 6.41669 12.9004 7.75983 12.9004 9.41669C12.9004 11.0735 11.5572 12.4167 9.90039 12.4167C8.24354 12.4167 6.90039 11.0735 6.90039 9.41669Z" fill="#FF0066"/>
<path fill-rule="evenodd" clip-rule="evenodd" d="M9.85 0C4.41722 0 0 4.3394 0 9.70833C0 11.0967 0.296012 12.4182 0.829528 13.6137C1.99022 16.3351 5.28888 20.6109 9.49592 24.9082L9.85887 25.2789L10.2159 24.9025C12.4395 22.5587 14.4141 20.2669 15.9548 18.2276C17.4872 16.199 18.6169 14.3859 19.1176 13.0046C19.4946 11.9749 19.7 10.8647 19.7 9.70833C19.7 4.3394 15.2828 0 9.85 0ZM1 9.70833C1 4.90602 4.95505 1 9.85 1C14.7449 1 18.7 4.90602 18.7 9.70833C18.7 10.7458 18.5158 11.7399 18.1783 12.6615L18.1777 12.6631C17.7305 13.8973 16.6773 15.6122 15.1568 17.6248C13.7265 19.5182 11.9061 21.6447 9.84776 23.8358C5.83116 19.6819 2.79778 15.6827 1.74782 13.2178L1.74432 13.2097C1.26578 12.1388 1 10.9547 1 9.70833Z" fill="#FF0066"/>
</svg>
