<svg width="60" height="52" viewBox="0 0 60 52" fill="none" xmlns="http://www.w3.org/2000/svg">
<path fill-rule="evenodd" clip-rule="evenodd" d="M5.84605 22.8982C7.36734 24.0199 7.38863 26.4472 7.8667 26.4193C8.34863 26.3915 8.36412 25.4741 8.1396 24.6866C7.91315 23.9011 7.37508 23.2269 7.6267 22.8109C7.87444 22.3949 8.26928 22.4451 8.69702 22.4413C9.12283 22.4395 12.7557 22.4413 14.157 22.4655C15.5602 22.4896 17.3893 22.3058 18.1461 22.8072C18.9086 23.3068 19.2202 24.2873 19.288 24.9039C19.4312 26.1928 19.4622 27.9793 19.5028 28.4808C19.5396 28.9822 20.0738 38.5762 20.0467 38.8938C20.0235 39.2132 20.0738 39.3172 20.0002 39.4992C19.9286 39.6812 19.7157 40.0229 19.2764 40.0916C18.837 40.1603 6.40347 40.0916 6.26218 40.0916C6.12089 40.0916 5.81121 39.8279 5.88283 39.4639C5.95444 39.0999 7.60928 34.5759 7.66154 34.4738C7.71767 34.3716 7.81831 34.2528 8.02541 34.2528C8.2325 34.2528 15.0299 34.2138 15.659 34.2193C16.2899 34.2249 16.4525 33.9631 16.5686 33.7253C16.7448 33.3595 16.6983 31.5636 16.5299 30.8041C16.2222 29.4261 14.9525 28.5513 14.5383 28.5625C14.1222 28.5736 7.75444 28.4863 7.64799 28.5885C7.54154 28.6906 7.43508 28.8336 7.29379 29.4725C7.1525 30.1113 6.37057 34.2806 5.82089 35.7626C5.27702 37.2428 5.06412 37.7795 4.8125 38.3013C4.56476 38.8269 4.12347 39.8279 3.80218 40.0118C3.48283 40.1938 2.96218 40.1251 2.89057 39.8985C2.81896 39.6701 2.74541 39.0423 3.0067 37.4248C3.26992 35.8072 4.38476 30.3732 4.19508 29.4391C4.00541 28.5049 3.48283 28.5161 3.24476 28.5161C3.0067 28.5161 1.88025 28.5272 1.67896 28.4251C1.47573 28.3229 0.941536 28.1762 1.01315 27.4668C1.08476 26.7611 1.58218 25.6449 1.60734 24.8705C1.63057 24.0961 1.53379 22.5695 1.71379 22.2612C1.89186 21.9548 2.12605 21.8025 2.56734 21.8025C3.00476 21.8025 4.9925 22.2612 5.84605 22.8982Z" fill="black"/>
<path fill-rule="evenodd" clip-rule="evenodd" d="M30.2265 28.3237C30.2265 27.5957 30.1801 26.3422 29.6807 25.3857C29.1813 24.4274 28.2426 24.2584 27.6601 24.2696C27.0794 24.2807 19.6123 24.2454 19.2543 24.2454C18.8981 24.2454 18.7336 24.108 18.4955 24.4739C18.2555 24.8379 18.9465 25.9559 19.0626 26.4554C19.1826 26.9569 19.2388 27.748 18.8343 27.7814C18.4317 27.8186 18.3504 27.2763 18.2807 26.6597C18.211 26.0469 17.9013 25.0644 17.1407 24.5649C16.3801 24.0634 14.553 24.2454 13.1517 24.2232C11.7504 24.199 8.11554 24.1972 7.6878 24.199C7.26199 24.2027 6.86909 24.1507 6.61748 24.5686C6.36973 24.9827 6.90393 25.6569 7.13038 26.4443C7.35877 27.2317 7.34135 28.1492 6.86135 28.177C6.37941 28.2049 6.71812 25.8593 4.98199 24.6559C4.12651 24.0189 1.99941 23.562 1.55812 23.562C1.1207 23.562 0.884574 23.7124 0.704574 24.0189C0.528445 24.3272 0.621348 25.8519 0.598122 26.6263C0.574897 27.4026 0.0774772 28.5187 0.00779981 29.2244C-0.0638131 29.932 0.468445 30.0787 0.669735 30.1809C0.872961 30.2849 1.99941 30.2737 2.23748 30.2737C2.47554 30.2737 3.00006 30.2607 3.1878 31.1967C3.37748 32.1309 2.26264 37.5649 1.99941 39.1824C1.73812 40.8 1.81167 41.4277 1.88135 41.6543C1.95296 41.8827 2.47554 41.9514 2.79683 41.7676C3.11619 41.5874 3.55554 40.5846 3.80715 40.0609C4.0549 39.5353 4.2678 39.0004 4.81554 37.5203C5.35941 36.0383 6.14522 31.869 6.28844 31.2302C6.42974 30.5932 6.53425 30.4483 6.6407 30.3462C6.74715 30.244 13.1149 30.3313 13.5291 30.3202C13.9472 30.309 15.213 31.1837 15.5226 32.5617C15.693 33.3213 15.7394 35.1153 15.5613 35.483C15.4472 35.7207 15.2807 35.9826 14.6536 35.977C14.0226 35.9714 7.22522 36.0104 7.01812 36.0104C6.80909 36.0104 6.71038 36.1293 6.65619 36.2314C6.60199 36.3336 4.94715 40.8576 4.87361 41.2216C4.80393 41.5874 5.11167 41.8493 5.25683 41.8493C5.39812 41.8493 17.8297 41.918 18.2672 41.8493C18.7104 41.7806 18.9213 41.4389 18.991 41.2569C19.0626 41.0749 19.0181 40.9727 19.0413 40.6514C19.0626 40.332 18.4955 30.2384 18.4955 30.2384C18.4955 30.2384 25.4072 30.2849 25.6897 30.3536C25.9762 30.4204 25.9975 30.4892 26.402 30.8309C26.8065 31.1726 27.5188 32.3816 27.8497 35.093C28.1826 37.8026 28.1246 40.241 28.0897 40.7647C28.053 41.2903 27.0968 41.8772 27.0968 41.8772C27.902 41.8697 30.0639 41.9867 30.422 41.7156C30.7259 41.4872 30.842 41.1993 30.842 40.8334C30.842 40.4694 30.2265 29.0536 30.2265 28.3237Z" fill="black"/>
<path fill-rule="evenodd" clip-rule="evenodd" d="M1.55906 23.561C1.1197 23.561 0.883576 23.7115 0.705511 24.0179C0.529382 24.3262 0.622286 25.8527 0.59906 26.6272C0.573898 27.4016 0.0764791 28.5177 0.00680172 29.2253C-0.0648112 29.9329 0.469382 30.0796 0.670673 30.1818C0.837124 30.2653 1.63261 30.2728 2.041 30.2728H2.23841H2.25583C2.4997 30.2728 3.00293 30.2839 3.18874 31.1958C3.37648 32.1318 2.26164 37.5639 2.00035 39.1815C1.73906 40.8009 1.81261 41.4286 1.88229 41.6552C1.92487 41.7926 2.13583 41.8725 2.36616 41.8725C2.51325 41.8725 2.67003 41.839 2.79777 41.7685C3.11712 41.5865 3.55454 40.5855 3.80616 40.0618C4.0539 39.5362 4.2668 38.9995 4.81648 37.5193C5.36035 36.0373 6.14422 31.868 6.28745 31.2292C6.43067 30.594 6.53325 30.4473 6.64164 30.3452C6.68035 30.3062 7.62487 30.295 8.80164 30.295C10.5358 30.295 12.7771 30.321 13.3887 30.321C13.4565 30.321 13.5049 30.321 13.53 30.3192H13.5358C13.9616 30.3192 15.2158 31.192 15.5236 32.5608C15.6939 33.3203 15.7384 35.1162 15.5603 35.482C15.4481 35.7179 15.2855 35.976 14.672 35.976H14.6545C14.612 35.976 14.5442 35.976 14.4552 35.976C13.1642 35.976 7.21261 36.0095 7.01712 36.0095C6.81003 36.0095 6.70938 36.1283 6.65712 36.2305C6.601 36.3326 4.94809 40.8566 4.87454 41.2206C4.80487 41.5865 5.11261 41.8483 5.25583 41.8483C5.35067 41.8483 10.9074 41.8799 14.732 41.8799C16.6442 41.8799 18.1229 41.8706 18.2681 41.8483C18.7094 41.7796 18.9223 41.4379 18.992 41.2559C19.0636 41.0739 19.0191 40.9718 19.0403 40.6505C19.0636 40.3329 18.4965 30.2375 18.4965 30.2375C18.4965 30.2375 25.4062 30.2839 25.6907 30.3526C25.9752 30.4195 25.9984 30.4882 26.4029 30.8317C26.8074 31.1716 27.5178 32.3806 27.8507 35.092C28.1836 37.8016 28.1255 40.2419 28.0887 40.7656C28.052 41.2893 27.0958 41.8762 27.0958 41.8762H27.1752C27.5526 41.8762 28.1526 41.8966 28.7391 41.8966C29.4958 41.8966 30.2274 41.8632 30.421 41.7165C30.7249 41.488 30.8429 41.1983 30.8429 40.8343C30.8429 40.4685 30.2274 29.0545 30.2274 28.3227C30.2274 27.5947 30.1791 26.343 29.6797 25.3847C29.1958 24.458 28.2997 24.2686 27.7152 24.2686C27.6978 24.2686 27.6784 24.2705 27.6591 24.2705C27.5816 24.2723 27.3842 24.2723 27.0939 24.2723C25.2165 24.2723 19.5649 24.2463 19.2552 24.2463C19.1003 24.2463 18.9842 24.2203 18.8797 24.2203C18.7423 24.2203 18.63 24.2649 18.4965 24.4729C18.2565 24.8369 18.9455 25.9549 19.0636 26.4563C19.1816 26.9577 19.2397 27.747 18.8352 27.7805C18.8216 27.7823 18.81 27.7823 18.7965 27.7823C18.4268 27.7823 18.3494 27.2549 18.2816 26.6606C18.212 26.0459 17.9003 25.0653 17.1416 24.5639C16.681 24.2612 15.8371 24.2092 14.9294 24.2092C14.4281 24.2092 13.9094 24.224 13.4274 24.224C13.3326 24.224 13.2416 24.224 13.1507 24.2222C11.9952 24.2036 9.31261 24.198 8.17454 24.198C7.93454 24.198 7.76422 24.1999 7.68874 24.1999H7.63841H7.4739C7.13132 24.1999 6.82551 24.2222 6.61648 24.5676C6.36874 24.9836 6.90487 25.6559 7.13132 26.4452C7.35777 27.2307 7.34035 28.1482 6.86035 28.176H6.85067C6.38229 28.176 6.70745 25.8509 4.98293 24.6549C4.12551 24.0179 2.00035 23.561 1.55906 23.561ZM1.55904 23.9325C1.92678 23.9325 3.97646 24.3763 4.75452 24.9557C5.73388 25.6355 5.97968 26.7609 6.14033 27.5056C6.2642 28.0646 6.36678 28.5475 6.88162 28.5475H6.88355C7.1042 28.5345 7.29968 28.4286 7.43323 28.2485C7.76226 27.8083 7.68678 26.9763 7.50484 26.3467C7.41968 26.0533 7.29775 25.7747 7.18162 25.5185C7.05968 25.2417 6.88936 24.861 6.95323 24.7533C7.04226 24.6047 7.13517 24.5695 7.54742 24.5695H7.55323L7.68871 24.5713H7.69065L8.17452 24.5695C9.31065 24.5695 11.9894 24.575 13.1448 24.5955L13.4274 24.5973C13.6674 24.5973 13.919 24.5917 14.1726 24.588C14.4242 24.5843 14.6797 24.5806 14.9294 24.5806C15.6513 24.5806 16.53 24.6122 16.921 24.8703C17.5326 25.2715 17.8268 26.1072 17.8945 26.7015C17.9681 27.3143 18.0629 28.1519 18.8623 28.1519H18.8681C19.0597 28.1352 19.2281 28.0442 19.3423 27.8919C19.6577 27.4777 19.5165 26.6922 19.441 26.3746C19.3945 26.174 19.2823 25.9215 19.1661 25.6522C19.0461 25.3773 18.7945 24.8053 18.8255 24.6697C18.8565 24.6215 18.8758 24.5992 18.8816 24.5917C18.9165 24.5917 18.9494 24.5973 18.99 24.601C19.0674 24.6085 19.1545 24.6177 19.2552 24.6177L20.6371 24.6233C22.5106 24.6307 25.7584 24.6437 27.0939 24.6437C27.3881 24.6437 27.5894 24.6437 27.7152 24.6419C28.1429 24.6419 28.9229 24.7589 29.3352 25.5519C29.8384 26.5195 29.8384 27.877 29.8384 28.3227C29.8384 28.761 30.0455 32.7446 30.2274 36.2583C30.3436 38.5352 30.4558 40.6876 30.4558 40.8343C30.4558 41.1073 30.3784 41.2782 30.1965 41.4156C30.1481 41.4397 29.8926 41.5233 28.739 41.5233C28.53 41.5233 28.319 41.5215 28.1177 41.5177C28.3055 41.3023 28.4565 41.0497 28.4758 40.7879C28.5106 40.2716 28.5706 37.7812 28.2339 35.0493C27.8332 31.7733 26.9255 30.7797 26.6603 30.5532L26.4532 30.3749C26.221 30.1706 26.1048 30.0685 25.7855 29.9923C25.4971 29.9236 21.0977 29.8846 18.4984 29.866L18.0861 29.8642L18.1094 30.2579C18.3339 34.2507 18.6648 40.3087 18.6552 40.6245C18.6436 40.76 18.6455 40.8603 18.6474 40.9439C18.6474 41.0572 18.6474 41.0813 18.6281 41.1277C18.6106 41.1797 18.4965 41.436 18.2119 41.4806C18.1229 41.4917 17.5481 41.5085 14.7319 41.5085C11.4281 41.5085 6.83129 41.4843 5.58097 41.4787L5.33904 41.4917C5.33904 41.4917 5.22871 41.4193 5.25388 41.2912C5.3313 40.9327 6.90871 36.6167 7.0171 36.3809L8.30226 36.3735C10.1758 36.366 13.5261 36.3475 14.4552 36.3475H14.6719C15.4694 36.3475 15.7539 35.9686 15.9126 35.638C16.1623 35.118 16.0577 33.1792 15.901 32.4827C15.5526 30.9357 14.1552 29.9477 13.5203 29.9477H13.3887C13.1623 29.9477 12.7094 29.9459 12.1384 29.9422C11.1784 29.9347 9.88936 29.9236 8.80162 29.9236C6.53323 29.9236 6.51194 29.9459 6.36678 30.0833C6.18678 30.256 6.05904 30.4789 5.91 31.1512C5.88097 31.2775 5.82678 31.543 5.75517 31.8977C5.47065 33.3055 4.87839 36.2305 4.45065 37.3949C3.91259 38.849 3.69775 39.3895 3.45388 39.9057L3.35323 40.1193C3.20033 40.448 2.79 41.3209 2.60033 41.449C2.54226 41.4806 2.45323 41.501 2.36613 41.501C2.33323 41.501 2.30613 41.4992 2.28291 41.4992C2.25968 41.4992 2.2442 41.501 2.2442 41.514C2.20162 41.3413 2.13581 40.7767 2.38355 39.239C2.44549 38.8509 2.55775 38.2436 2.68742 37.5305C3.25646 34.4513 3.71323 31.8439 3.56807 31.1252C3.40355 30.3136 2.9642 29.9032 2.17259 29.9032H2.04097C1.06742 29.9032 0.860327 29.853 0.852585 29.853L0.765489 29.8122L0.755811 29.8085C0.506134 29.697 0.357102 29.6097 0.39194 29.2606C0.419037 28.9765 0.533231 28.5939 0.651295 28.189C0.808069 27.6597 0.97065 27.11 0.986134 26.6383C0.99194 26.4043 0.990005 26.1035 0.986134 25.7859C0.980327 25.2585 0.968714 24.3726 1.04226 24.1999C1.14871 24.0179 1.25323 23.9325 1.55904 23.9325Z" fill="white"/>
<mask id="mask0" mask-type="alpha" maskUnits="userSpaceOnUse" x="0" y="0" width="60" height="51">
<path fill-rule="evenodd" clip-rule="evenodd" d="M0 50.869H59.1774V0H0V50.869Z" fill="white"/>
</mask>
<g mask="url(#mask0)">
<path fill-rule="evenodd" clip-rule="evenodd" d="M34.3877 25.9347H34.8173V22.8816H34.3877V25.9347Z" fill="black"/>
<path fill-rule="evenodd" clip-rule="evenodd" d="M34.6042 22.1094C33.2823 22.1094 32.2081 23.1419 32.2081 24.4104C32.2081 25.6769 33.2823 26.7076 34.6042 26.7076C35.9262 26.7076 37.0004 25.6769 37.0004 24.4104C37.0004 23.1419 35.9262 22.1094 34.6042 22.1094ZM34.6042 26.8024C33.2281 26.8024 32.1094 25.7289 32.1094 24.4104C32.1094 23.0881 33.2281 22.0146 34.6042 22.0146C35.9803 22.0146 37.101 23.0881 37.101 24.4104C37.101 25.7289 35.9803 26.8024 34.6042 26.8024Z" fill="black"/>
<path fill-rule="evenodd" clip-rule="evenodd" d="M14.5217 3.03692C15.532 3.03692 15.6578 2.48349 15.6578 2.05635C15.6578 1.62735 15.532 1.07392 14.5217 1.07392H14.4752V3.03692H14.5217ZM13.7843 1.07392H13.7378C12.7256 1.07392 12.6017 1.62735 12.6017 2.05635C12.6017 2.48349 12.7256 3.03692 13.7378 3.03692H13.7843V1.07392ZM13.7843 3.53835H13.6391C13.2714 3.53835 11.8643 3.46406 11.8643 2.05635C11.8643 1.48249 12.1275 0.572488 13.6391 0.572488H13.7843V0.000488281H14.4752V0.572488H14.6204C16.132 0.572488 16.3952 1.48249 16.3952 2.05635C16.3952 3.46406 14.9843 3.53835 14.6204 3.53835H14.4752V4.05277H13.7843V3.53835Z" fill="black"/>
<path fill-rule="evenodd" clip-rule="evenodd" d="M18.8176 3.46033C19.7467 3.46033 19.9247 2.64876 19.9247 2.09162C19.9247 1.53262 19.7467 0.722906 18.8176 0.722906C17.8867 0.722906 17.7086 1.53262 17.7086 2.09162C17.7086 2.64876 17.8867 3.46033 18.8176 3.46033ZM18.8176 0.175049C19.1447 0.175049 20.6622 0.215906 20.6622 2.09162C20.6622 3.96733 19.1447 4.00819 18.8176 4.00819C18.4886 4.00819 16.9712 3.96733 16.9712 2.09162C16.9712 0.215906 18.4886 0.175049 18.8176 0.175049Z" fill="black"/>
<path fill-rule="evenodd" clip-rule="evenodd" d="M22.1614 3.8993H21.4724V0.283447H22.1614V1.73016H23.8376V0.283447H24.5285V3.8993H23.8376V2.27802H22.1614V3.8993Z" fill="black"/>
<path fill-rule="evenodd" clip-rule="evenodd" d="M26.7564 0.831549V1.26426C26.7564 2.06655 26.6654 2.67012 26.2338 3.35169H27.8983V0.831549H26.7564ZM29.1041 3.35169L29.0712 4.71483H28.4692V3.89955H25.7305V4.71483H25.1267L25.0957 3.35169H25.417C25.6647 3.04712 26.0693 2.39712 26.0693 1.06369V0.283691H28.5873V3.35169H29.1041Z" fill="black"/>
<path fill-rule="evenodd" clip-rule="evenodd" d="M12.7845 7.18428H13.5838C13.9032 7.18428 14.3503 7.14342 14.3503 6.60114C14.3503 6.02728 13.8548 5.99571 13.5916 5.99571H12.7845V7.18428ZM13.5974 5.44971C14.1897 5.44971 15.0606 5.54256 15.0606 6.56956C15.0606 7.22514 14.6793 7.73214 13.5916 7.73214H12.7845V9.06556H12.0955V5.44971H13.5974Z" fill="black"/>
<path fill-rule="evenodd" clip-rule="evenodd" d="M17.332 7.7574L16.761 6.15097L16.19 7.7574H17.332ZM15.7333 9.06483H14.9958L16.4146 5.44897H17.1075L18.5262 9.06483H17.7888L17.5139 8.30526H16.0081L15.7333 9.06483Z" fill="black"/>
<path fill-rule="evenodd" clip-rule="evenodd" d="M19.4962 7.82988C19.502 8.12888 19.6356 8.62474 20.4582 8.62474C20.9711 8.62474 21.3001 8.41302 21.3001 8.02117C21.3001 7.57174 20.9769 7.45474 20.5569 7.45474H20.0382V6.90502H20.4872C20.6478 6.90502 21.1491 6.89574 21.1491 6.42959C21.1491 6.11017 20.9343 5.88731 20.3846 5.88731C19.7323 5.88731 19.5504 6.19931 19.5369 6.51317H18.8556C18.8711 5.56788 19.6201 5.34131 20.4427 5.34131C20.9594 5.34131 21.8575 5.46574 21.8575 6.36274C21.8575 6.82888 21.5614 7.11117 21.2304 7.15759V7.16874C21.6369 7.22445 22.0085 7.51974 22.0085 8.08802C22.0085 8.51145 21.7665 9.17259 20.4175 9.17259C19.4478 9.17259 18.8498 8.77517 18.813 7.82988H19.4962Z" fill="black"/>
<path fill-rule="evenodd" clip-rule="evenodd" d="M23.5753 8.51673H24.5159C24.9379 8.51673 25.2534 8.4183 25.2534 7.97816C25.2534 7.49344 24.8198 7.46373 24.5353 7.46373H23.5753V8.51673ZM23.5753 6.91587H24.4869C24.8682 6.91587 25.0985 6.80259 25.0985 6.48687C25.0985 6.00773 24.6146 5.99659 24.4714 5.99659H23.5753V6.91587ZM24.663 5.44873C25.6211 5.44873 25.8088 5.96502 25.8088 6.36244C25.8088 6.76173 25.5514 7.07559 25.1856 7.13687V7.14802C25.4972 7.20002 25.9637 7.40802 25.9637 8.05059C25.9637 8.96616 25.1527 9.06459 24.5856 9.06459H22.8882V5.44873H24.663Z" fill="black"/>
<path fill-rule="evenodd" clip-rule="evenodd" d="M29.3248 5.44897H29.9983V9.06483H29.3093V6.4184L27.5151 9.06483H26.8435V5.44897H27.5306V8.09355L29.3248 5.44897Z" fill="black"/>
<path fill-rule="evenodd" clip-rule="evenodd" d="M30.6328 5.9962V5.4502H33.6889V5.9962H32.5064V9.0642H31.8154V5.9962H30.6328Z" fill="black"/>
<path fill-rule="evenodd" clip-rule="evenodd" d="M36.8062 5.44897H37.4817V9.06483H36.7908V6.4184L34.9985 9.06483H34.325V5.44897H35.014V8.09355L36.8062 5.44897Z" fill="black"/>
<path fill-rule="evenodd" clip-rule="evenodd" d="M39.8756 5.99619C39.686 5.99619 39.115 5.99619 39.115 6.59605C39.115 7.12348 39.6221 7.16991 39.9221 7.16991H40.7737V5.99619H39.8756ZM40.1176 7.71777L39.2137 9.0642H38.3408L39.4073 7.64348C39.055 7.60262 38.4066 7.4002 38.4066 6.57934C38.4066 5.49477 39.3744 5.4502 39.9086 5.4502H41.4608V9.0642H40.7737V7.71777H40.1176Z" fill="black"/>
<path fill-rule="evenodd" clip-rule="evenodd" d="M15.3778 12.9944C15.3236 13.5423 15.0216 14.3371 13.7462 14.3371C13.4578 14.3371 11.8784 14.3111 11.8784 12.4819C11.8784 10.998 12.7707 10.5059 13.7094 10.5059C15.0023 10.5059 15.2926 11.2654 15.3236 11.7817H14.6404C14.5978 11.4809 14.4139 11.0537 13.7094 11.0537C12.8713 11.0537 12.6158 11.7074 12.6158 12.4559C12.6158 13.3046 13.1016 13.7893 13.7791 13.7893C14.4023 13.7893 14.6733 13.3826 14.6945 12.9944H15.3778Z" fill="black"/>
<path fill-rule="evenodd" clip-rule="evenodd" d="M17.7781 13.7904C18.7091 13.7904 18.8871 12.9807 18.8871 12.4217C18.8871 11.8627 18.7091 11.053 17.7781 11.053C16.8471 11.053 16.671 11.8627 16.671 12.4217C16.671 12.9807 16.8471 13.7904 17.7781 13.7904ZM17.7781 10.5051C18.1071 10.5051 19.6226 10.546 19.6226 12.4217C19.6226 14.2956 18.1071 14.3383 17.7781 14.3383C17.451 14.3383 15.9336 14.2956 15.9336 12.4217C15.9336 10.546 17.451 10.5051 17.7781 10.5051Z" fill="black"/>
<path fill-rule="evenodd" clip-rule="evenodd" d="M21.1216 13.6815H22.0623C22.4823 13.6815 22.7997 13.5831 22.7997 13.143C22.7997 12.6601 22.3662 12.6285 22.0797 12.6285H21.1216V13.6815ZM21.1217 12.0807H22.0313C22.4146 12.0807 22.6449 11.9674 22.6449 11.6517C22.6449 11.1725 22.1591 11.1614 22.0159 11.1614H21.1217V12.0807ZM22.2094 10.6135C23.1675 10.6135 23.3533 11.1317 23.3533 11.5272C23.3533 11.9265 23.0978 12.2404 22.73 12.3017V12.3128C23.0416 12.3648 23.51 12.5728 23.51 13.2172C23.51 14.131 22.6991 14.2294 22.132 14.2294H20.4326V10.6135H22.2094Z" fill="black"/>
<path fill-rule="evenodd" clip-rule="evenodd" d="M25.0779 12.3493H25.8792C26.1967 12.3493 26.6438 12.3085 26.6438 11.7662C26.6438 11.1923 26.1502 11.1607 25.885 11.1607H25.0779V12.3493ZM25.8909 10.6147C26.4831 10.6147 27.3541 10.7076 27.3541 11.7346C27.3541 12.3902 26.9728 12.8972 25.885 12.8972H25.0779V14.2306H24.3889V10.6147H25.8909Z" fill="black"/>
<path fill-rule="evenodd" clip-rule="evenodd" d="M30.6972 12.1013V12.6492H28.7811V13.6818H30.9778V14.2296H28.0901V10.6138H30.9178V11.1616H28.7811V12.1013H30.6972Z" fill="black"/>
<path fill-rule="evenodd" clip-rule="evenodd" d="M32.3228 11.3683H32.3132L32.3228 11.5075V14.2301H31.6357V10.6143H32.6635L33.6912 13.3573L34.717 10.6143H35.7467V14.2301H35.0577V11.5075L35.0693 11.3683H35.0577L33.9506 14.2301H33.4299L32.3228 11.3683Z" fill="black"/>
<path fill-rule="evenodd" clip-rule="evenodd" d="M39.3747 12.1013V12.6492H37.4605V13.6818H39.6553V14.2296H36.7695V10.6138H39.5953V11.1616H37.4605V12.1013H39.3747Z" fill="black"/>
<path fill-rule="evenodd" clip-rule="evenodd" d="M41.0003 14.2291H40.3132V10.6133H41.0003V12.06H42.6784V10.6133H43.3694V14.2291H42.6784V12.6079H41.0003V14.2291Z" fill="black"/>
<path fill-rule="evenodd" clip-rule="evenodd" d="M45.0792 14.2291H44.3921V10.6133H45.0792V12.06H46.7573V10.6133H47.4482V14.2291H46.7573V12.6079H45.0792V14.2291Z" fill="black"/>
<path fill-rule="evenodd" clip-rule="evenodd" d="M50.103 13.7904C51.0321 13.7904 51.2101 12.9807 51.2101 12.4217C51.2101 11.8627 51.0321 11.053 50.103 11.053C49.1721 11.053 48.9959 11.8627 48.9959 12.4217C48.9959 12.9807 49.1721 13.7904 50.103 13.7904ZM50.103 10.5051C50.4301 10.5051 51.9475 10.546 51.9475 12.4217C51.9475 14.2956 50.4301 14.3383 50.103 14.3383C49.774 14.3383 48.2546 14.2956 48.2546 12.4217C48.2546 10.546 49.774 10.5051 50.103 10.5051Z" fill="black"/>
<path fill-rule="evenodd" clip-rule="evenodd" d="M53.4447 14.2291H52.7576V10.6133H55.2195V11.1611H53.4447V14.2291Z" fill="black"/>
<path fill-rule="evenodd" clip-rule="evenodd" d="M57.3308 13.7904C58.2618 13.7904 58.4379 12.9807 58.4379 12.4217C58.4379 11.8627 58.2618 11.053 57.3308 11.053C56.3999 11.053 56.2237 11.8627 56.2237 12.4217C56.2237 12.9807 56.3999 13.7904 57.3308 13.7904ZM57.3308 10.5051C57.6599 10.5051 59.1773 10.546 59.1773 12.4217C59.1773 14.2956 57.6599 14.3383 57.3308 14.3383C57.0037 14.3383 55.4863 14.2956 55.4863 12.4217C55.4863 10.546 57.0037 10.5051 57.3308 10.5051Z" fill="black"/>
<path fill-rule="evenodd" clip-rule="evenodd" d="M11.7073 16.3262V15.7783H14.7634V16.3262H13.5808V19.3942H12.8899V16.3262H11.7073Z" fill="black"/>
<path fill-rule="evenodd" clip-rule="evenodd" d="M18.005 17.2661V17.814H16.0889V18.8466H18.2857V19.3944H15.3979V15.7786H18.2257V16.3264H16.0889V17.2661H18.005Z" fill="black"/>
<path fill-rule="evenodd" clip-rule="evenodd" d="M20.7988 18.0872L20.2278 16.4808L19.6568 18.0872H20.7988ZM19.2001 19.3947H18.4626L19.8833 15.7788H20.5743L21.993 19.3947H21.2556L20.9807 18.6351H19.4749L19.2001 19.3947Z" fill="black"/>
<path fill-rule="evenodd" clip-rule="evenodd" d="M21.7776 16.3262V15.7783H24.8337V16.3262H23.6511V19.3942H22.9602V16.3262H21.7776Z" fill="black"/>
<path fill-rule="evenodd" clip-rule="evenodd" d="M26.159 17.514H26.9623C27.2797 17.514 27.7268 17.4732 27.7268 16.9309C27.7268 16.357 27.2313 16.3254 26.9661 16.3254H26.159V17.514ZM26.9719 15.7776C27.5661 15.7776 28.4371 15.8723 28.4371 16.8993C28.4371 17.5549 28.0539 18.0619 26.9661 18.0619H26.159V19.3953H25.4719V15.7776H26.9719Z" fill="black"/>
<path fill-rule="evenodd" clip-rule="evenodd" d="M30.7087 18.0872L30.1377 16.4808L29.5667 18.0872H30.7087ZM29.11 19.3947H28.3726L29.7913 15.7788H30.4822L31.9029 19.3947H31.1674L30.8906 18.6351H29.3848L29.11 19.3947Z" fill="black"/>
<path fill-rule="evenodd" clip-rule="evenodd" d="M37.424 43.4922C38.4344 43.4922 38.5602 42.9388 38.5602 42.5117C38.5602 42.0827 38.4344 41.5292 37.424 41.5292H37.3756V43.4922H37.424ZM36.6866 41.5292H36.6382C35.624 41.5292 35.504 42.0827 35.504 42.5117C35.504 42.9388 35.624 43.4922 36.6382 43.4922H36.6866V41.5292ZM36.6866 43.9937H36.5414C36.1737 43.9937 34.7646 43.9194 34.7646 42.5117C34.7646 41.9378 35.0298 41.0297 36.5414 41.0297H36.6866V40.4558H37.3756V41.0297H37.5208C39.0324 41.0297 39.2976 41.9378 39.2976 42.5117C39.2976 43.9194 37.8866 43.9937 37.5208 43.9937H37.3756V44.51H36.6866V43.9937Z" fill="black"/>
<path fill-rule="evenodd" clip-rule="evenodd" d="M41.7202 43.9153C42.6492 43.9153 42.8273 43.1056 42.8273 42.5466C42.8273 41.9876 42.6492 41.1778 41.7202 41.1778C40.7892 41.1778 40.6112 41.9876 40.6112 42.5466C40.6112 43.1056 40.7892 43.9153 41.7202 43.9153ZM41.7202 40.6318C42.0473 40.6318 43.5647 40.6727 43.5647 42.5466C43.5647 44.4223 42.0473 44.4631 41.7202 44.4631C41.3912 44.4631 39.8738 44.4223 39.8738 42.5466C39.8738 40.6727 41.3912 40.6318 41.7202 40.6318Z" fill="black"/>
<path fill-rule="evenodd" clip-rule="evenodd" d="M45.0621 44.3546H44.375V40.7388H45.0621V42.1855H46.7402V40.7388H47.4311V44.3546H46.7402V42.7333H45.0621V44.3546Z" fill="black"/>
<path fill-rule="evenodd" clip-rule="evenodd" d="M49.6589 41.287V41.7215C49.6589 42.522 49.5679 43.1255 49.1363 43.809H50.8008V41.287H49.6589ZM52.0047 43.809L51.9738 45.1703H51.3699V44.355H48.6312V45.1703H48.0273L47.9963 43.809H48.3196C48.5673 43.5025 48.9699 42.8525 48.9699 41.5191V40.741H51.488V43.809H52.0047Z" fill="black"/>
<path fill-rule="evenodd" clip-rule="evenodd" d="M11.9452 47.3923H11.9239V50.7333H10.7761V46.0552H12.3903L13.5535 49.2699L14.7187 46.0552H16.3368V50.7333H15.1871V47.3923H15.1658L13.9445 50.7333H13.1645L11.9452 47.3923Z" fill="black"/>
<path fill-rule="evenodd" clip-rule="evenodd" d="M20.3336 46.0552H21.4813V50.7352H20.3336V47.6783L18.3884 50.7352H17.2388V46.0552H18.3884V49.0767L20.3336 46.0552Z" fill="black"/>
<path fill-rule="evenodd" clip-rule="evenodd" d="M23.3144 50.7349H21.8647L23.5815 48.3021L22.0176 46.0549H23.3841L24.3189 47.5945L25.2596 46.0549H26.6241L25.0564 48.3021L26.7789 50.7349H25.3273L24.3189 49.1248L23.3144 50.7349Z" fill="black"/>
<path fill-rule="evenodd" clip-rule="evenodd" d="M30.5952 48.3953C30.5952 47.9663 30.5391 46.8316 29.3681 46.8316C28.7333 46.8316 28.1488 47.1585 28.1488 48.3953C28.1488 49.6192 28.7333 49.9591 29.3681 49.9591C30.5391 49.9591 30.5952 48.7891 30.5952 48.3953ZM26.9023 48.3953C26.9023 47.3071 27.4443 45.9216 29.3681 45.9216C31.0462 45.9216 31.8359 46.9783 31.8359 48.3953C31.8359 49.8123 31.0462 50.8672 29.3681 50.8672C27.4443 50.8672 26.9023 49.4836 26.9023 48.3953Z" fill="black"/>
<path fill-rule="evenodd" clip-rule="evenodd" d="M33.9652 48.8097V47.9554H35.8271C35.7129 46.8709 34.9619 46.83 34.6058 46.83C33.7716 46.83 33.52 47.3129 33.4852 47.6119H32.3123C32.3703 46.8579 32.9219 45.9219 34.5381 45.9219C36.5587 45.9219 37.0677 47.233 37.0677 48.3343C37.0677 50.743 35.2755 50.8693 34.6135 50.8693C33.1213 50.8693 32.3355 50.067 32.2581 49.0493H33.431C33.4484 49.4913 33.8123 49.9612 34.6 49.9612C35.0723 49.9612 35.7903 49.8052 35.8271 48.8097H33.9652Z" fill="black"/>
<path fill-rule="evenodd" clip-rule="evenodd" d="M37.3013 49.8254C38.389 49.9666 38.418 49.0696 38.4374 48.2877L38.4722 46.0554H42.0819V50.7336H40.9322V46.9636H39.558L39.5232 48.5941C39.498 49.506 39.3568 51.0028 37.3013 50.7336V49.8254Z" fill="black"/>
<path fill-rule="evenodd" clip-rule="evenodd" d="M47.3623 49.0842C47.2849 49.7862 46.8746 50.8671 45.1442 50.8671C43.8997 50.8671 42.7559 50.3211 42.7559 48.4825C42.7559 46.0162 44.6313 45.9233 45.1036 45.9233C46.8378 45.9233 47.2694 46.9578 47.3062 47.6468H46.1778C46.0655 46.8649 45.4249 46.8315 45.1578 46.8315C44.9023 46.8315 43.9965 46.8779 43.9965 48.4416C43.9965 49.3238 44.4146 49.9589 45.1946 49.9589C45.9533 49.9589 46.1623 49.4315 46.2184 49.0842H47.3623Z" fill="black"/>
<path fill-rule="evenodd" clip-rule="evenodd" d="M50.3639 49.0637L49.7368 47.279L49.0942 49.0637H50.3639ZM50.3155 46.0552L52.1465 50.7352H50.9271L50.6136 49.8586H48.8446L48.5387 50.7352H47.3252L49.1504 46.0552H50.3155Z" fill="black"/>
</g>
</svg>
