<svg width="31" height="28" viewBox="0 0 31 28" fill="none" xmlns="http://www.w3.org/2000/svg">
<path fill-rule="evenodd" clip-rule="evenodd" d="M3.02041 12.3298C3.80641 12.9338 3.81741 14.2408 4.06441 14.2258C4.31341 14.2108 4.32141 13.7168 4.20541 13.2928C4.08841 12.8698 3.81041 12.5068 3.94041 12.2828C4.06841 12.0588 4.27241 12.0858 4.49341 12.0838C4.71341 12.0828 6.59041 12.0838 7.31441 12.0968C8.03941 12.1098 8.98441 12.0108 9.37541 12.2808C9.76941 12.5498 9.93041 13.0778 9.96541 13.4098C10.0394 14.1038 10.0554 15.0658 10.0764 15.3358C10.0954 15.6058 10.3714 20.7718 10.3574 20.9428C10.3454 21.1148 10.3714 21.1708 10.3334 21.2688C10.2964 21.3668 10.1864 21.5508 9.95941 21.5878C9.73241 21.6248 3.30841 21.5878 3.23541 21.5878C3.16241 21.5878 3.00241 21.4458 3.03941 21.2498C3.07641 21.0538 3.93141 18.6178 3.95841 18.5628C3.98741 18.5078 4.03941 18.4438 4.14641 18.4438C4.25341 18.4438 7.76541 18.4228 8.09041 18.4258C8.41641 18.4288 8.50041 18.2878 8.56041 18.1598C8.65141 17.9628 8.62741 16.9958 8.54041 16.5868C8.38141 15.8448 7.72541 15.3738 7.51141 15.3798C7.29641 15.3858 4.00641 15.3388 3.95141 15.3938C3.89641 15.4488 3.84141 15.5258 3.76841 15.8698C3.69541 16.2138 3.29141 18.4588 3.00741 19.2568C2.72641 20.0538 2.61641 20.3428 2.48641 20.6238C2.35841 20.9068 2.13041 21.4458 1.96441 21.5448C1.79941 21.6428 1.53041 21.6058 1.49341 21.4838C1.45641 21.3608 1.41841 21.0228 1.55341 20.1518C1.68941 19.2808 2.26541 16.3548 2.16741 15.8518C2.06941 15.3488 1.79941 15.3548 1.67641 15.3548C1.55341 15.3548 0.971407 15.3608 0.867407 15.3058C0.762407 15.2508 0.486407 15.1718 0.523407 14.7898C0.560407 14.4098 0.817407 13.8088 0.830407 13.3918C0.842407 12.9748 0.792407 12.1528 0.885407 11.9868C0.977407 11.8218 1.09841 11.7398 1.32641 11.7398C1.55241 11.7398 2.57941 11.9868 3.02041 12.3298Z" fill="black"/>
<path fill-rule="evenodd" clip-rule="evenodd" d="M15.6171 15.2512C15.6171 14.8592 15.5931 14.1842 15.3351 13.6692C15.0771 13.1532 14.5921 13.0622 14.2911 13.0682C13.9911 13.0742 10.1331 13.0552 9.9481 13.0552C9.7641 13.0552 9.6791 12.9812 9.5561 13.1782C9.4321 13.3742 9.7891 13.9762 9.8491 14.2452C9.9111 14.5152 9.9401 14.9412 9.7311 14.9592C9.5231 14.9792 9.4811 14.6872 9.4451 14.3552C9.4091 14.0252 9.2491 13.4962 8.8561 13.2272C8.4631 12.9572 7.5191 13.0552 6.7951 13.0432C6.0711 13.0302 4.1931 13.0292 3.9721 13.0302C3.7521 13.0322 3.5491 13.0042 3.4191 13.2292C3.2911 13.4522 3.5671 13.8152 3.6841 14.2392C3.8021 14.6632 3.7931 15.1572 3.5451 15.1722C3.2961 15.1872 3.4711 13.9242 2.5741 13.2762C2.1321 12.9332 1.0331 12.6872 0.805101 12.6872C0.579101 12.6872 0.457101 12.7682 0.364101 12.9332C0.273101 13.0992 0.321101 13.9202 0.309101 14.3372C0.297101 14.7552 0.0401011 15.3562 0.00410111 15.7362C-0.0328989 16.1172 0.242101 16.1962 0.346101 16.2512C0.451101 16.3072 1.0331 16.3012 1.1561 16.3012C1.2791 16.3012 1.5501 16.2942 1.6471 16.7982C1.7451 17.3012 1.1691 20.2272 1.0331 21.0982C0.898101 21.9692 0.936101 22.3072 0.972101 22.4292C1.0091 22.5522 1.2791 22.5892 1.4451 22.4902C1.6101 22.3932 1.8371 21.8532 1.9671 21.5712C2.0951 21.2882 2.2051 21.0002 2.4881 20.2032C2.7691 19.4052 3.1751 17.1602 3.2491 16.8162C3.3221 16.4732 3.3761 16.3952 3.4311 16.3402C3.4861 16.2852 6.7761 16.3322 6.9901 16.3262C7.2061 16.3202 7.8601 16.7912 8.0201 17.5332C8.1081 17.9422 8.1321 18.9082 8.0401 19.1062C7.9811 19.2342 7.8951 19.3752 7.5711 19.3722C7.2451 19.3692 3.7331 19.3902 3.6261 19.3902C3.5181 19.3902 3.4671 19.4542 3.4391 19.5092C3.4111 19.5642 2.5561 22.0002 2.5181 22.1962C2.4821 22.3932 2.6411 22.5342 2.7161 22.5342C2.7891 22.5342 9.2121 22.5712 9.4381 22.5342C9.6671 22.4972 9.7761 22.3132 9.8121 22.2152C9.8491 22.1172 9.8261 22.0622 9.8381 21.8892C9.8491 21.7172 9.5561 16.2822 9.5561 16.2822C9.5561 16.2822 13.1271 16.3072 13.2731 16.3442C13.4211 16.3802 13.4321 16.4172 13.6411 16.6012C13.8501 16.7852 14.2181 17.4362 14.3891 18.8962C14.5611 20.3552 14.5311 21.6682 14.5131 21.9502C14.4941 22.2332 14.0001 22.5492 14.0001 22.5492C14.4161 22.5452 15.5331 22.6082 15.7181 22.4622C15.8751 22.3392 15.9351 22.1842 15.9351 21.9872C15.9351 21.7912 15.6171 15.6442 15.6171 15.2512Z" fill="black"/>
<path fill-rule="evenodd" clip-rule="evenodd" d="M0.805495 12.6867C0.578495 12.6867 0.456495 12.7677 0.364495 12.9327C0.273495 13.0987 0.321495 13.9207 0.309495 14.3377C0.296495 14.7547 0.0394949 15.3557 0.00349489 15.7367C-0.0335051 16.1177 0.242495 16.1967 0.346495 16.2517C0.432495 16.2967 0.843495 16.3007 1.05449 16.3007H1.15649H1.16549C1.29149 16.3007 1.55149 16.3067 1.64749 16.7977C1.74449 17.3017 1.16849 20.2267 1.03349 21.0977C0.898495 21.9697 0.936495 22.3077 0.972495 22.4297C0.994495 22.5037 1.10349 22.5467 1.22249 22.5467C1.29849 22.5467 1.37949 22.5287 1.44549 22.4907C1.61049 22.3927 1.83649 21.8537 1.96649 21.5717C2.09449 21.2887 2.20449 20.9997 2.48849 20.2027C2.76949 19.4047 3.17449 17.1597 3.24849 16.8157C3.32249 16.4737 3.37549 16.3947 3.43149 16.3397C3.45149 16.3187 3.93949 16.3127 4.54749 16.3127C5.44349 16.3127 6.60149 16.3267 6.91749 16.3267C6.95249 16.3267 6.97749 16.3267 6.99049 16.3257H6.99349C7.21349 16.3257 7.86149 16.7957 8.02049 17.5327C8.10849 17.9417 8.13149 18.9087 8.03949 19.1057C7.98149 19.2327 7.89749 19.3717 7.58049 19.3717H7.5715C7.5495 19.3717 7.51449 19.3717 7.46849 19.3717C6.8015 19.3717 3.7265 19.3897 3.62549 19.3897C3.51849 19.3897 3.46649 19.4537 3.43949 19.5087C3.41049 19.5637 2.55649 21.9997 2.51849 22.1957C2.48249 22.3927 2.64149 22.5337 2.71549 22.5337C2.76449 22.5337 5.6355 22.5507 7.6115 22.5507C8.59949 22.5507 9.36349 22.5457 9.43849 22.5337C9.66649 22.4967 9.77649 22.3127 9.8125 22.2147C9.84949 22.1167 9.8265 22.0617 9.83749 21.8887C9.84949 21.7177 9.55649 16.2817 9.55649 16.2817C9.55649 16.2817 13.1265 16.3067 13.2735 16.3437C13.4205 16.3797 13.4325 16.4167 13.6415 16.6017C13.8505 16.7847 14.2175 17.4357 14.3895 18.8957C14.5615 20.3547 14.5315 21.6687 14.5125 21.9507C14.4935 22.2327 13.9995 22.5487 13.9995 22.5487H14.0405C14.2355 22.5487 14.5455 22.5597 14.8485 22.5597C15.2395 22.5597 15.6175 22.5417 15.7175 22.4627C15.8745 22.3397 15.9355 22.1837 15.9355 21.9877C15.9355 21.7907 15.6175 15.6447 15.6175 15.2507C15.6175 14.8587 15.5925 14.1847 15.3345 13.6687C15.0845 13.1697 14.6215 13.0677 14.3195 13.0677C14.3105 13.0677 14.3005 13.0687 14.2905 13.0687C14.2505 13.0697 14.1485 13.0697 13.9985 13.0697C13.0285 13.0697 10.1085 13.0557 9.94849 13.0557C9.86849 13.0557 9.80849 13.0417 9.75449 13.0417C9.68349 13.0417 9.62549 13.0657 9.55649 13.1777C9.4325 13.3737 9.7885 13.9757 9.84949 14.2457C9.91049 14.5157 9.94049 14.9407 9.73149 14.9587C9.72449 14.9597 9.71849 14.9597 9.71149 14.9597C9.52049 14.9597 9.48049 14.6757 9.44549 14.3557C9.40949 14.0247 9.2485 13.4967 8.85649 13.2267C8.61849 13.0637 8.1825 13.0357 7.71349 13.0357C7.45449 13.0357 7.18649 13.0437 6.93749 13.0437C6.88849 13.0437 6.8415 13.0437 6.7945 13.0427C6.19749 13.0327 4.81149 13.0297 4.2235 13.0297C4.09949 13.0297 4.01149 13.0307 3.97249 13.0307H3.94649H3.86149C3.68449 13.0307 3.52649 13.0427 3.41849 13.2287C3.29049 13.4527 3.56749 13.8147 3.68449 14.2397C3.8015 14.6627 3.79249 15.1567 3.54449 15.1717H3.53949C3.29749 15.1717 3.46549 13.9197 2.57449 13.2757C2.13149 12.9327 1.03349 12.6867 0.805495 12.6867ZM0.805495 12.8867C0.995495 12.8867 2.05449 13.1257 2.45649 13.4377C2.96249 13.8037 3.08949 14.4097 3.17249 14.8107C3.2365 15.1117 3.28949 15.3717 3.55549 15.3717H3.55649C3.6705 15.3647 3.77149 15.3077 3.84049 15.2107C4.01049 14.9737 3.97149 14.5257 3.87749 14.1867C3.83349 14.0287 3.77049 13.8787 3.71049 13.7407C3.6475 13.5917 3.55949 13.3867 3.59249 13.3287C3.63849 13.2487 3.68649 13.2297 3.89949 13.2297H3.90249L3.97249 13.2307H3.97349L4.2235 13.2297C4.81049 13.2297 6.19449 13.2327 6.79149 13.2437L6.93749 13.2447C7.06149 13.2447 7.19149 13.2417 7.32249 13.2397C7.4525 13.2377 7.58449 13.2357 7.71349 13.2357C8.08649 13.2357 8.54049 13.2527 8.7425 13.3917C9.0585 13.6077 9.21049 14.0577 9.2455 14.3777C9.28349 14.7077 9.3325 15.1587 9.7455 15.1587H9.7485C9.8475 15.1497 9.93449 15.1007 9.99349 15.0187C10.1565 14.7957 10.0835 14.3727 10.0445 14.2017C10.0205 14.0937 9.96249 13.9577 9.9025 13.8127C9.8405 13.6647 9.71049 13.3567 9.7265 13.2837C9.7425 13.2577 9.75249 13.2457 9.7555 13.2417C9.77349 13.2417 9.79049 13.2447 9.8115 13.2467C9.8515 13.2507 9.89649 13.2557 9.94849 13.2557L10.6625 13.2587C11.6305 13.2627 13.3085 13.2697 13.9985 13.2697C14.1505 13.2697 14.2545 13.2697 14.3195 13.2687C14.5405 13.2687 14.9435 13.3317 15.1565 13.7587C15.4165 14.2797 15.4165 15.0107 15.4165 15.2507C15.4165 15.4867 15.5235 17.6317 15.6175 19.5237C15.6775 20.7497 15.7355 21.9087 15.7355 21.9877C15.7355 22.1347 15.6955 22.2267 15.6015 22.3007C15.5765 22.3137 15.4445 22.3587 14.8485 22.3587C14.7405 22.3587 14.6315 22.3577 14.5275 22.3557C14.6245 22.2397 14.7025 22.1037 14.7125 21.9627C14.7305 21.6847 14.7615 20.3437 14.5875 18.8727C14.3805 17.1087 13.9115 16.5737 13.7745 16.4517L13.6675 16.3557C13.5475 16.2457 13.4875 16.1907 13.3225 16.1497C13.1735 16.1127 10.9005 16.0917 9.5575 16.0817L9.3445 16.0807L9.35649 16.2927C9.47249 18.4427 9.64349 21.7047 9.6385 21.8747C9.63249 21.9477 9.6335 22.0017 9.6345 22.0467C9.6345 22.1077 9.63449 22.1207 9.6245 22.1457C9.61549 22.1737 9.55649 22.3117 9.4095 22.3357C9.36349 22.3417 9.06649 22.3507 7.6115 22.3507C5.9045 22.3507 3.5295 22.3377 2.88349 22.3347L2.75849 22.3417C2.75849 22.3417 2.70149 22.3027 2.71449 22.2337C2.75449 22.0407 3.56949 19.7167 3.62549 19.5897L4.28949 19.5857C5.25749 19.5817 6.98849 19.5717 7.46849 19.5717H7.58049C7.9925 19.5717 8.13949 19.3677 8.2215 19.1897C8.3505 18.9097 8.29649 17.8657 8.2155 17.4907C8.03549 16.6577 7.3135 16.1257 6.9855 16.1257H6.91749C6.80049 16.1257 6.56649 16.1247 6.27149 16.1227C5.7755 16.1187 5.10949 16.1127 4.54749 16.1127C3.37549 16.1127 3.3645 16.1247 3.28949 16.1987C3.1965 16.2917 3.13049 16.4117 3.05349 16.7737C3.0385 16.8417 3.01049 16.9847 2.97349 17.1757C2.82649 17.9337 2.52049 19.5087 2.29949 20.1357C2.0215 20.9187 1.91049 21.2097 1.78449 21.4877L1.73249 21.6027C1.65349 21.7797 1.44149 22.2497 1.34349 22.3187C1.31349 22.3357 1.26749 22.3467 1.22249 22.3467C1.20549 22.3467 1.19149 22.3457 1.17949 22.3457C1.16749 22.3457 1.15949 22.3467 1.15949 22.3537C1.13749 22.2607 1.10349 21.9567 1.23149 21.1287C1.26349 20.9197 1.32149 20.5927 1.38849 20.2087C1.68249 18.5507 1.91849 17.1467 1.84349 16.7597C1.75849 16.3227 1.53149 16.1017 1.12249 16.1017H1.05449C0.551495 16.1017 0.444495 16.0747 0.440495 16.0747L0.395495 16.0527L0.390495 16.0507C0.261495 15.9907 0.184495 15.9437 0.202495 15.7557C0.216495 15.6027 0.275495 15.3967 0.336495 15.1787C0.417495 14.8937 0.501495 14.5977 0.509495 14.3437C0.512495 14.2177 0.511495 14.0557 0.509495 13.8847C0.506495 13.6007 0.500495 13.1237 0.538495 13.0307C0.593495 12.9327 0.647495 12.8867 0.805495 12.8867Z" fill="white"/>
<mask id="mask0" mask-type="alpha" maskUnits="userSpaceOnUse" x="0" y="0" width="31" height="28">
<path fill-rule="evenodd" clip-rule="evenodd" d="M0 27.3909H30.575V-0.0001H0V27.3909Z" fill="white"/>
</mask>
<g mask="url(#mask0)">
<path fill-rule="evenodd" clip-rule="evenodd" d="M17.767 13.9649H17.989V12.3209H17.767V13.9649Z" fill="black"/>
<path fill-rule="evenodd" clip-rule="evenodd" d="M17.8788 11.905C17.1958 11.905 16.6408 12.461 16.6408 13.144C16.6408 13.826 17.1958 14.381 17.8788 14.381C18.5618 14.381 19.1168 13.826 19.1168 13.144C19.1168 12.461 18.5618 11.905 17.8788 11.905ZM17.8788 14.432C17.1678 14.432 16.5898 13.854 16.5898 13.144C16.5898 12.432 17.1678 11.854 17.8788 11.854C18.5898 11.854 19.1688 12.432 19.1688 13.144C19.1688 13.854 18.5898 14.432 17.8788 14.432Z" fill="black"/>
<path fill-rule="evenodd" clip-rule="evenodd" d="M7.50281 1.6352C8.02481 1.6352 8.08981 1.3372 8.08981 1.1072C8.08981 0.8762 8.02481 0.5782 7.50281 0.5782H7.47881V1.6352H7.50281ZM7.12181 0.5782H7.09781C6.57481 0.5782 6.51081 0.8762 6.51081 1.1072C6.51081 1.3372 6.57481 1.6352 7.09781 1.6352H7.12181V0.5782ZM7.12181 1.9052H7.04681C6.85681 1.9052 6.12981 1.8652 6.12981 1.1072C6.12981 0.7982 6.26581 0.3082 7.04681 0.3082H7.12181V0.0002H7.47881V0.3082H7.55381C8.33481 0.3082 8.47081 0.7982 8.47081 1.1072C8.47081 1.8652 7.74181 1.9052 7.55381 1.9052H7.47881V2.1822H7.12181V1.9052Z" fill="black"/>
<path fill-rule="evenodd" clip-rule="evenodd" d="M9.72249 1.8632C10.2025 1.8632 10.2945 1.4262 10.2945 1.1262C10.2945 0.8252 10.2025 0.3892 9.72249 0.3892C9.24149 0.3892 9.14949 0.8252 9.14949 1.1262C9.14949 1.4262 9.24149 1.8632 9.72249 1.8632ZM9.72249 0.0942C9.89149 0.0942 10.6755 0.1162 10.6755 1.1262C10.6755 2.1362 9.89149 2.1582 9.72249 2.1582C9.55249 2.1582 8.76849 2.1362 8.76849 1.1262C8.76849 0.1162 9.55249 0.0942 9.72249 0.0942Z" fill="black"/>
<path fill-rule="evenodd" clip-rule="evenodd" d="M11.4501 2.0996H11.0941V0.1526H11.4501V0.9316H12.3161V0.1526H12.6731V2.0996H12.3161V1.2266H11.4501V2.0996Z" fill="black"/>
<path fill-rule="evenodd" clip-rule="evenodd" d="M13.8241 0.4477V0.6807C13.8241 1.1127 13.7771 1.4377 13.5541 1.8047H14.4141V0.4477H13.8241ZM15.0371 1.8047L15.0201 2.5387H14.7091V2.0997H13.2941V2.5387H12.9821L12.9661 1.8047H13.1321C13.2601 1.6407 13.4691 1.2907 13.4691 0.5727V0.1527H14.7701V1.8047H15.0371Z" fill="black"/>
<path fill-rule="evenodd" clip-rule="evenodd" d="M6.6053 3.8684H7.0183C7.1833 3.8684 7.4143 3.8464 7.4143 3.5544C7.4143 3.2454 7.1583 3.2284 7.0223 3.2284H6.6053V3.8684ZM7.0253 2.9344C7.3313 2.9344 7.7813 2.9844 7.7813 3.5374C7.7813 3.8904 7.5843 4.1634 7.0223 4.1634H6.6053V4.8814H6.2493V2.9344H7.0253Z" fill="black"/>
<path fill-rule="evenodd" clip-rule="evenodd" d="M8.95489 4.177L8.65989 3.312L8.36489 4.177H8.95489ZM8.12889 4.881H7.74789L8.48089 2.934H8.83889L9.57189 4.881H9.19089L9.04889 4.472H8.27089L8.12889 4.881Z" fill="black"/>
<path fill-rule="evenodd" clip-rule="evenodd" d="M10.0731 4.216C10.0761 4.377 10.1451 4.644 10.5701 4.644C10.8351 4.644 11.0051 4.53 11.0051 4.319C11.0051 4.077 10.8381 4.014 10.6211 4.014H10.3531V3.718H10.5851C10.6681 3.718 10.9271 3.713 10.9271 3.462C10.9271 3.29 10.8161 3.17 10.5321 3.17C10.1951 3.17 10.1011 3.338 10.0941 3.507H9.74209C9.75009 2.998 10.1371 2.876 10.5621 2.876C10.8291 2.876 11.2931 2.943 11.2931 3.426C11.2931 3.677 11.1401 3.829 10.9691 3.854V3.86C11.1791 3.89 11.3711 4.049 11.3711 4.355C11.3711 4.583 11.2461 4.939 10.5491 4.939C10.0481 4.939 9.73909 4.725 9.72009 4.216H10.0731Z" fill="black"/>
<path fill-rule="evenodd" clip-rule="evenodd" d="M12.1805 4.5859H12.6665C12.8845 4.5859 13.0475 4.5329 13.0475 4.2959C13.0475 4.0349 12.8235 4.0189 12.6765 4.0189H12.1805V4.5859ZM12.1805 3.7239H12.6515C12.8485 3.7239 12.9675 3.6629 12.9675 3.4929C12.9675 3.2349 12.7175 3.2289 12.6435 3.2289H12.1805V3.7239ZM12.7425 2.9339C13.2375 2.9339 13.3345 3.2119 13.3345 3.4259C13.3345 3.6409 13.2015 3.8099 13.0125 3.8429V3.8489C13.1735 3.8769 13.4145 3.9889 13.4145 4.3349C13.4145 4.8279 12.9955 4.8809 12.7025 4.8809H11.8255V2.9339H12.7425Z" fill="black"/>
<path fill-rule="evenodd" clip-rule="evenodd" d="M15.1512 2.934H15.4992V4.881H15.1432V3.456L14.2162 4.881H13.8692V2.934H14.2242V4.358L15.1512 2.934Z" fill="black"/>
<path fill-rule="evenodd" clip-rule="evenodd" d="M15.827 3.2287V2.9347H17.406V3.2287H16.795V4.8807H16.438V3.2287H15.827Z" fill="black"/>
<path fill-rule="evenodd" clip-rule="evenodd" d="M19.0165 2.934H19.3655V4.881H19.0085V3.456L18.0825 4.881H17.7345V2.934H18.0905V4.358L19.0165 2.934Z" fill="black"/>
<path fill-rule="evenodd" clip-rule="evenodd" d="M20.6024 3.2287C20.5044 3.2287 20.2094 3.2287 20.2094 3.5517C20.2094 3.8357 20.4714 3.8607 20.6264 3.8607H21.0664V3.2287H20.6024ZM20.7274 4.1557L20.2604 4.8807H19.8094L20.3604 4.1157C20.1784 4.0937 19.8434 3.9847 19.8434 3.5427C19.8434 2.9587 20.3434 2.9347 20.6194 2.9347H21.4214V4.8807H21.0664V4.1557H20.7274Z" fill="black"/>
<path fill-rule="evenodd" clip-rule="evenodd" d="M7.94521 6.997C7.91721 7.292 7.76121 7.72 7.10221 7.72C6.95321 7.72 6.13721 7.706 6.13721 6.721C6.13721 5.922 6.59821 5.657 7.08321 5.657C7.75121 5.657 7.90121 6.066 7.91721 6.344H7.56421C7.54221 6.182 7.44721 5.952 7.08321 5.952C6.65021 5.952 6.51821 6.304 6.51821 6.707C6.51821 7.164 6.76921 7.425 7.11921 7.425C7.44121 7.425 7.58121 7.206 7.59221 6.997H7.94521Z" fill="black"/>
<path fill-rule="evenodd" clip-rule="evenodd" d="M9.18541 7.4255C9.66641 7.4255 9.75841 6.9895 9.75841 6.6885C9.75841 6.3875 9.66641 5.9515 9.18541 5.9515C8.70441 5.9515 8.61341 6.3875 8.61341 6.6885C8.61341 6.9895 8.70441 7.4255 9.18541 7.4255ZM9.18541 5.6565C9.35541 5.6565 10.1384 5.6785 10.1384 6.6885C10.1384 7.6975 9.35541 7.7205 9.18541 7.7205C9.01641 7.7205 8.23241 7.6975 8.23241 6.6885C8.23241 5.6785 9.01641 5.6565 9.18541 5.6565Z" fill="black"/>
<path fill-rule="evenodd" clip-rule="evenodd" d="M10.9129 7.3669H11.3989C11.6159 7.3669 11.7799 7.3139 11.7799 7.0769C11.7799 6.8169 11.5559 6.7999 11.4079 6.7999H10.9129V7.3669ZM10.9129 6.5049H11.3829C11.5809 6.5049 11.6999 6.4439 11.6999 6.2739C11.6999 6.0159 11.4489 6.0099 11.3749 6.0099H10.9129V6.5049ZM11.4749 5.7149C11.9699 5.7149 12.0659 5.9939 12.0659 6.2069C12.0659 6.4219 11.9339 6.5909 11.7439 6.6239V6.6299C11.9049 6.6579 12.1469 6.7699 12.1469 7.1169C12.1469 7.6089 11.7279 7.6619 11.4349 7.6619H10.5569V5.7149H11.4749Z" fill="black"/>
<path fill-rule="evenodd" clip-rule="evenodd" d="M12.9569 6.6496H13.3709C13.5349 6.6496 13.7659 6.6276 13.7659 6.3356C13.7659 6.0266 13.5109 6.0096 13.3739 6.0096H12.9569V6.6496ZM13.3769 5.7156C13.6829 5.7156 14.1329 5.7656 14.1329 6.3186C14.1329 6.6716 13.9359 6.9446 13.3739 6.9446H12.9569V7.6626H12.6009V5.7156H13.3769Z" fill="black"/>
<path fill-rule="evenodd" clip-rule="evenodd" d="M15.8602 6.5161V6.8111H14.8702V7.3671H16.0052V7.6621H14.5132V5.7151H15.9742V6.0101H14.8702V6.5161H15.8602Z" fill="black"/>
<path fill-rule="evenodd" clip-rule="evenodd" d="M16.7001 6.1213H16.6951L16.7001 6.1963V7.6623H16.3451V5.7153H16.8761L17.4071 7.1923L17.9371 5.7153H18.4691V7.6623H18.1131V6.1963L18.1191 6.1213H18.1131L17.5411 7.6623H17.2721L16.7001 6.1213Z" fill="black"/>
<path fill-rule="evenodd" clip-rule="evenodd" d="M20.3436 6.5161V6.8111H19.3546V7.3671H20.4886V7.6621H18.9976V5.7151H20.4576V6.0101H19.3546V6.5161H20.3436Z" fill="black"/>
<path fill-rule="evenodd" clip-rule="evenodd" d="M21.1835 7.6618H20.8285V5.7148H21.1835V6.4938H22.0505V5.7148H22.4075V7.6618H22.0505V6.7888H21.1835V7.6618Z" fill="black"/>
<path fill-rule="evenodd" clip-rule="evenodd" d="M23.2909 7.6618H22.9359V5.7148H23.2909V6.4938H24.1579V5.7148H24.5149V7.6618H24.1579V6.7888H23.2909V7.6618Z" fill="black"/>
<path fill-rule="evenodd" clip-rule="evenodd" d="M25.8866 7.4255C26.3666 7.4255 26.4586 6.9895 26.4586 6.6885C26.4586 6.3875 26.3666 5.9515 25.8866 5.9515C25.4056 5.9515 25.3146 6.3875 25.3146 6.6885C25.3146 6.9895 25.4056 7.4255 25.8866 7.4255ZM25.8866 5.6565C26.0556 5.6565 26.8396 5.6785 26.8396 6.6885C26.8396 7.6975 26.0556 7.7205 25.8866 7.7205C25.7166 7.7205 24.9316 7.6975 24.9316 6.6885C24.9316 5.6785 25.7166 5.6565 25.8866 5.6565Z" fill="black"/>
<path fill-rule="evenodd" clip-rule="evenodd" d="M27.6131 7.6618H27.2581V5.7148H28.5301V6.0098H27.6131V7.6618Z" fill="black"/>
<path fill-rule="evenodd" clip-rule="evenodd" d="M29.621 7.4255C30.102 7.4255 30.193 6.9895 30.193 6.6885C30.193 6.3875 30.102 5.9515 29.621 5.9515C29.14 5.9515 29.049 6.3875 29.049 6.6885C29.049 6.9895 29.14 7.4255 29.621 7.4255ZM29.621 5.6565C29.791 5.6565 30.575 5.6785 30.575 6.6885C30.575 7.6975 29.791 7.7205 29.621 7.7205C29.452 7.7205 28.668 7.6975 28.668 6.6885C28.668 5.6785 29.452 5.6565 29.621 5.6565Z" fill="black"/>
<path fill-rule="evenodd" clip-rule="evenodd" d="M6.04871 8.791V8.496H7.62771V8.791H7.01671V10.443H6.65971V8.791H6.04871Z" fill="black"/>
<path fill-rule="evenodd" clip-rule="evenodd" d="M9.3026 9.2971V9.5921H8.3126V10.1481H9.4476V10.4431H7.9556V8.4961H9.4166V8.7911H8.3126V9.2971H9.3026Z" fill="black"/>
<path fill-rule="evenodd" clip-rule="evenodd" d="M10.746 9.7392L10.451 8.8742L10.156 9.7392H10.746ZM9.92 10.4432H9.539L10.273 8.4962H10.63L11.363 10.4432H10.982L10.84 10.0342H10.062L9.92 10.4432Z" fill="black"/>
<path fill-rule="evenodd" clip-rule="evenodd" d="M11.2518 8.791V8.496H12.8308V8.791H12.2198V10.443H11.8628V8.791H11.2518Z" fill="black"/>
<path fill-rule="evenodd" clip-rule="evenodd" d="M13.5155 9.4306H13.9305C14.0945 9.4306 14.3255 9.4086 14.3255 9.1166C14.3255 8.8076 14.0695 8.7906 13.9325 8.7906H13.5155V9.4306ZM13.9355 8.4956C14.2425 8.4956 14.6925 8.5466 14.6925 9.0996C14.6925 9.4526 14.4945 9.7256 13.9325 9.7256H13.5155V10.4436H13.1605V8.4956H13.9355Z" fill="black"/>
<path fill-rule="evenodd" clip-rule="evenodd" d="M15.8661 9.7392L15.5711 8.8742L15.2761 9.7392H15.8661ZM15.0401 10.4432H14.6591L15.3921 8.4962H15.7491L16.4831 10.4432H16.1031L15.9601 10.0342H15.1821L15.0401 10.4432Z" fill="black"/>
<path fill-rule="evenodd" clip-rule="evenodd" d="M19.3358 23.4189C19.8578 23.4189 19.9228 23.1209 19.9228 22.8909C19.9228 22.6599 19.8578 22.3619 19.3358 22.3619H19.3108V23.4189H19.3358ZM18.9548 22.3619H18.9298C18.4058 22.3619 18.3438 22.6599 18.3438 22.8909C18.3438 23.1209 18.4058 23.4189 18.9298 23.4189H18.9548V22.3619ZM18.9548 23.6889H18.8798C18.6898 23.6889 17.9618 23.6489 17.9618 22.8909C17.9618 22.5819 18.0988 22.0929 18.8798 22.0929H18.9548V21.7839H19.3108V22.0929H19.3858C20.1668 22.0929 20.3038 22.5819 20.3038 22.8909C20.3038 23.6489 19.5748 23.6889 19.3858 23.6889H19.3108V23.9669H18.9548V23.6889Z" fill="black"/>
<path fill-rule="evenodd" clip-rule="evenodd" d="M21.5555 23.6467C22.0355 23.6467 22.1275 23.2107 22.1275 22.9097C22.1275 22.6087 22.0355 22.1727 21.5555 22.1727C21.0745 22.1727 20.9825 22.6087 20.9825 22.9097C20.9825 23.2107 21.0745 23.6467 21.5555 23.6467ZM21.5555 21.8787C21.7245 21.8787 22.5085 21.9007 22.5085 22.9097C22.5085 23.9197 21.7245 23.9417 21.5555 23.9417C21.3855 23.9417 20.6015 23.9197 20.6015 22.9097C20.6015 21.9007 21.3855 21.8787 21.5555 21.8787Z" fill="black"/>
<path fill-rule="evenodd" clip-rule="evenodd" d="M23.2821 23.8833H22.9271V21.9363H23.2821V22.7153H24.1491V21.9363H24.5061V23.8833H24.1491V23.0103H23.2821V23.8833Z" fill="black"/>
<path fill-rule="evenodd" clip-rule="evenodd" d="M25.6571 22.2314V22.4654C25.6571 22.8964 25.6101 23.2214 25.3871 23.5894H26.2471V22.2314H25.6571ZM26.8691 23.5894L26.8531 24.3224H26.5411V23.8834H25.1261V24.3224H24.8141L24.7981 23.5894H24.9651C25.0931 23.4244 25.3011 23.0744 25.3011 22.3564V21.9374H26.6021V23.5894H26.8691Z" fill="black"/>
<path fill-rule="evenodd" clip-rule="evenodd" d="M6.1717 25.519H6.1607V27.318H5.5677V24.799H6.4017L7.0027 26.53L7.6047 24.799H8.4407V27.318H7.8467V25.519H7.8357L7.2047 27.318H6.8017L6.1717 25.519Z" fill="black"/>
<path fill-rule="evenodd" clip-rule="evenodd" d="M10.5057 24.799H11.0987V27.319H10.5057V25.673L9.50071 27.319H8.90671V24.799H9.50071V26.426L10.5057 24.799Z" fill="black"/>
<path fill-rule="evenodd" clip-rule="evenodd" d="M12.0458 27.3188H11.2968L12.1838 26.0088L11.3758 24.7988H12.0818L12.5648 25.6278L13.0508 24.7988H13.7558L12.9458 26.0088L13.8358 27.3188H13.0858L12.5648 26.4518L12.0458 27.3188Z" fill="black"/>
<path fill-rule="evenodd" clip-rule="evenodd" d="M15.8075 26.059C15.8075 25.828 15.7785 25.217 15.1735 25.217C14.8455 25.217 14.5435 25.393 14.5435 26.059C14.5435 26.718 14.8455 26.901 15.1735 26.901C15.7785 26.901 15.8075 26.271 15.8075 26.059ZM13.8995 26.059C13.8995 25.473 14.1795 24.727 15.1735 24.727C16.0405 24.727 16.4485 25.296 16.4485 26.059C16.4485 26.822 16.0405 27.39 15.1735 27.39C14.1795 27.39 13.8995 26.645 13.8995 26.059Z" fill="black"/>
<path fill-rule="evenodd" clip-rule="evenodd" d="M17.5487 26.2822V25.8222H18.5107C18.4517 25.2382 18.0637 25.2162 17.8797 25.2162C17.4487 25.2162 17.3187 25.4762 17.3007 25.6372H16.6947C16.7247 25.2312 17.0097 24.7272 17.8447 24.7272C18.8887 24.7272 19.1517 25.4332 19.1517 26.0262C19.1517 27.3232 18.2257 27.3912 17.8837 27.3912C17.1127 27.3912 16.7067 26.9592 16.6667 26.4112H17.2727C17.2817 26.6492 17.4697 26.9022 17.8767 26.9022C18.1207 26.9022 18.4917 26.8182 18.5107 26.2822H17.5487Z" fill="black"/>
<path fill-rule="evenodd" clip-rule="evenodd" d="M19.2723 26.8291C19.8343 26.9051 19.8493 26.4221 19.8593 26.0011L19.8773 24.7991H21.7423V27.3181H21.1483V25.2881H20.4383L20.4203 26.1661C20.4073 26.6571 20.3343 27.4631 19.2723 27.3181V26.8291Z" fill="black"/>
<path fill-rule="evenodd" clip-rule="evenodd" d="M24.4706 26.4299C24.4306 26.8079 24.2186 27.3899 23.3246 27.3899C22.6816 27.3899 22.0906 27.0959 22.0906 26.1059C22.0906 24.7779 23.0596 24.7279 23.3036 24.7279C24.1996 24.7279 24.4226 25.2849 24.4416 25.6559H23.8586C23.8006 25.2349 23.4696 25.2169 23.3316 25.2169C23.1996 25.2169 22.7316 25.2419 22.7316 26.0839C22.7316 26.5589 22.9476 26.9009 23.3506 26.9009C23.7426 26.9009 23.8506 26.6169 23.8796 26.4299H24.4706Z" fill="black"/>
<path fill-rule="evenodd" clip-rule="evenodd" d="M26.0213 26.4189L25.6973 25.4579L25.3653 26.4189H26.0213ZM25.9963 24.7989L26.9423 27.3189H26.3123L26.1503 26.8469H25.2363L25.0783 27.3189H24.4513L25.3943 24.7989H25.9963Z" fill="black"/>
</g>
</svg>
