<svg width="79" height="46" viewBox="0 0 79 46" fill="none" xmlns="http://www.w3.org/2000/svg">
<path fill-rule="evenodd" clip-rule="evenodd" d="M8.39307 4.47305C10.9678 6.33258 10.4672 9.96422 11.1824 9.91654C11.8976 9.86886 11.9214 8.45435 11.5876 7.2385C11.2539 6.02266 10.4592 4.98164 10.8248 4.33796C11.1983 3.69428 11.7784 3.77374 12.4141 3.7658C13.0498 3.75785 18.4456 3.7658 20.5197 3.79758C22.6018 3.82937 25.3116 3.55124 26.44 4.33001C27.5684 5.10879 28.0293 6.61866 28.1327 7.57226C28.236 8.52587 28.3552 9.36027 28.9591 9.30464C29.5551 9.24901 29.4756 8.02522 29.3008 7.25439C29.126 6.47562 28.1009 4.75119 28.4585 4.18697C28.8081 3.62276 29.0545 3.83732 29.5869 3.83732C30.1193 3.83732 41.205 3.89294 42.0632 3.87705C42.9294 3.86116 44.3201 4.1234 45.0591 5.60148C45.7981 7.07957 45.8697 9.01856 45.8697 10.147C45.8697 11.2754 46.7835 28.933 46.7835 29.4972C46.7835 30.0614 46.6087 30.5064 46.1558 30.864C45.6233 31.2772 42.4129 31.1024 41.2209 31.1104C41.2209 31.1104 42.6433 30.2044 42.691 29.3939C42.7466 28.5833 42.834 24.8086 42.3413 20.6128C41.8486 16.4169 40.7917 14.5495 40.1878 14.017C39.5918 13.4846 39.552 13.3813 39.1309 13.278C38.7097 13.1747 28.4505 13.1032 28.4505 13.1032C28.4505 13.1032 29.2929 28.7184 29.2611 29.2111C29.2293 29.7038 29.2929 29.8627 29.1896 30.1488C29.0863 30.4349 28.7684 30.9594 28.1168 31.0627C27.4651 31.166 9.01291 31.0627 8.79835 31.0627C8.58379 31.0627 8.13083 30.6574 8.23414 30.0932C8.33745 29.529 10.8009 22.5279 10.8804 22.3769C10.9599 22.218 11.1108 22.0352 11.4208 22.0352C11.7307 22.0352 21.823 21.9717 22.7527 21.9796C23.6905 21.9876 23.9289 21.5823 24.1037 21.2167C24.3659 20.6446 24.3023 17.8712 24.0481 16.6951C23.5871 14.5654 21.7038 13.2065 21.0919 13.2303C20.472 13.2462 11.0234 13.1111 10.8645 13.27C10.7056 13.429 10.5546 13.6515 10.34 14.6369C10.1255 15.6223 8.96523 22.075 8.15467 24.3636C7.34411 26.6523 7.02624 27.4867 6.65275 28.2972C6.27925 29.1078 5.62762 30.6574 5.15082 30.9435C4.67402 31.2216 3.90319 31.1183 3.79194 30.7687C3.68863 30.419 3.57738 29.4495 3.96677 26.9463C4.35615 24.4431 6.00907 16.0355 5.73093 14.5892C5.4528 13.1429 4.67402 13.1588 4.32437 13.1588C3.97471 13.1588 2.29796 13.1747 1.99599 13.0157C1.69401 12.8568 0.899343 12.6264 1.0106 11.5377C1.1139 10.449 1.85295 8.71659 1.89268 7.51664C1.92447 6.31668 1.78937 3.95652 2.05161 3.47972C2.31385 3.00292 2.66351 2.77246 3.32308 2.77246C3.98266 2.77246 7.1216 3.48766 8.39307 4.47305Z" fill="#010303" stroke="black" stroke-width="0.75" stroke-miterlimit="22.9256"/>
<path fill-rule="evenodd" clip-rule="evenodd" d="M52.052 1.72363V6.45191H52.6877" fill="#010303"/>
<path d="M55.4613 34.3846H55.2467C54.7063 34.3846 52.6084 34.2733 52.6084 32.088C52.6084 31.198 52.9978 29.7914 55.2467 29.7914H55.4613V28.9014H56.4864V29.7914H56.7009C58.9499 29.7914 59.3392 31.198 59.3392 32.088C59.3392 34.2654 57.2493 34.3846 56.7009 34.3846H56.4864V35.1872H55.4613V34.3846ZM55.4613 30.5781H55.3897C53.8878 30.5781 53.705 31.4364 53.705 32.0959C53.705 32.7555 53.8878 33.6138 55.3897 33.6138H55.4613V30.5781ZM56.55 33.6138C58.0519 33.6138 58.2347 32.7555 58.2347 32.0959C58.2347 31.4364 58.0519 30.5781 56.55 30.5781H56.4784V33.6138H56.55Z" fill="#010303"/>
<path d="M62.9311 29.1875C63.4158 29.1875 65.6727 29.2511 65.6727 32.1516C65.6727 35.0522 63.4158 35.1157 62.9311 35.1157C62.4463 35.1157 60.1895 35.0522 60.1895 32.1516C60.1895 29.2511 62.4463 29.1875 62.9311 29.1875ZM62.9311 34.2654C64.3138 34.2654 64.576 33.0099 64.576 32.1516C64.576 31.2854 64.3138 30.0378 62.9311 30.0378C61.5483 30.0378 61.2861 31.2934 61.2861 32.1516C61.2861 33.0099 61.5483 34.2654 62.9311 34.2654Z" fill="#010303"/>
<path d="M67.8899 34.949H66.8647V29.3545H67.8899V31.5955H70.3851V29.3545H71.4103V34.949H70.3851V32.4378H67.8899V34.949Z" fill="#010303"/>
<path d="M78.1966 34.0987L78.1489 36.2045H77.2509V34.941H73.1822V36.2045H72.2843L72.2366 34.0987H72.7134C73.0789 33.6298 73.6829 32.6206 73.6829 30.5624V29.3545H77.4258V34.0987H78.1966ZM74.7159 30.1968V30.8644C74.7159 32.104 74.5809 33.0338 73.9372 34.0907H76.4086V30.1889H74.7159V30.1968Z" fill="#010303"/>
<path d="M18.7315 39.6452H18.6997V44.8185H16.9912V37.5791H19.3911L21.1155 42.5537L22.84 37.5791H25.2399V44.8185H23.5313V39.6452H23.5075L21.6957 44.8185H20.5354L18.7315 39.6452Z" fill="#010303"/>
<path d="M31.184 37.5791H32.8925V44.8185H31.184V40.0903L28.2994 44.8185H26.5908V37.5791H28.2994V42.2518L31.184 37.5791Z" fill="#010303"/>
<path d="M35.6103 44.8185H33.4568L35.9997 41.0518L33.6793 37.5791H35.7057L37.0884 39.9552L38.487 37.5791H40.5134L38.1851 41.0518L40.7439 44.8185H38.5903L37.0884 42.3233L35.6103 44.8185Z" fill="#010303"/>
<path d="M40.9346 41.1946C40.9346 39.5099 41.7451 37.3643 44.598 37.3643C47.0933 37.3643 48.2614 39.0013 48.2614 41.1946C48.2614 43.3878 47.0933 45.0249 44.598 45.0249C41.7372 45.0249 40.9346 42.8793 40.9346 41.1946ZM46.4178 41.1946C46.4178 40.535 46.3383 38.7708 44.598 38.7708C43.6603 38.7708 42.7861 39.2794 42.7861 41.1946C42.7861 43.0859 43.6523 43.6183 44.598 43.6183C46.3304 43.6183 46.4178 41.8065 46.4178 41.1946Z" fill="#010303"/>
<path d="M51.4164 41.8382V40.5111H54.1739C54.007 38.8344 52.8945 38.7708 52.362 38.7708C51.1223 38.7708 50.7488 39.5178 50.6932 39.9787H48.9529C49.0324 38.8106 49.8509 37.3643 52.2508 37.3643C55.2467 37.3643 56.0016 39.3907 56.0016 41.0992C56.0016 44.8262 53.3395 45.0169 52.362 45.0169C50.1449 45.0169 48.9767 43.7772 48.8655 42.2038H50.6058C50.6376 42.8872 51.178 43.6104 52.3461 43.6104C53.0454 43.6104 54.1182 43.372 54.1659 41.8303H51.4164V41.8382Z" fill="#010303"/>
<path d="M56.3752 43.412C57.9884 43.6265 58.0282 42.2438 58.0599 41.0359L58.1156 37.5791H63.4716V44.8185H61.7631V38.9857H59.7287L59.6731 41.5127C59.6334 42.9193 59.4268 45.2397 56.3752 44.8185V43.412Z" fill="#010303"/>
<path d="M71.3068 42.2594C71.1956 43.3481 70.5837 45.0169 68.0169 45.0169C66.1653 45.0169 64.4727 44.1666 64.4727 41.3217C64.4727 37.5073 67.254 37.3643 67.9613 37.3643C70.536 37.3643 71.1797 38.9695 71.2273 40.0343H69.5506C69.3837 38.8264 68.4301 38.7708 68.0407 38.7708C67.6593 38.7708 66.3163 38.8423 66.3163 41.2661C66.3163 42.6329 66.9361 43.6104 68.0963 43.6104C69.2248 43.6104 69.5347 42.7918 69.6142 42.2594H71.3068Z" fill="#010303"/>
<path d="M75.6856 37.5791L78.4034 44.8185H76.5915L76.1227 43.4676H73.4923L73.0394 44.8185H71.2434L73.9532 37.5791H75.6856ZM75.7651 42.2279L74.8353 39.4704L73.8817 42.2279H75.7651Z" fill="#010303"/>
<path d="M52.6402 2.07324H52.0999V6.09427H52.6402V2.07324Z" fill="black"/>
<path fill-rule="evenodd" clip-rule="evenodd" d="M49.2788 4.0913C49.2788 5.79189 50.6695 7.18256 52.3701 7.18256C54.0707 7.18256 55.4613 5.79189 55.4613 4.0913C55.4613 2.3907 54.0707 1.00003 52.3701 1.00003C50.6615 0.992087 49.2788 2.38276 49.2788 4.0913Z" stroke="black" stroke-width="0.5669" stroke-miterlimit="22.9256"/>
</svg>
