<svg width="28" height="25" viewBox="0 0 28 25" fill="none" xmlns="http://www.w3.org/2000/svg">
<path fill-rule="evenodd" clip-rule="evenodd" d="M2.7183 11.0953C3.4253 11.6393 3.4343 12.8143 3.6573 12.8013C3.8813 12.7873 3.8883 12.3423 3.7833 11.9613C3.6783 11.5803 3.4293 11.2533 3.5453 11.0523C3.6613 10.8503 3.8443 10.8753 4.0433 10.8733C4.2413 10.8723 5.9303 10.8733 6.5823 10.8853C7.2333 10.8963 8.0843 10.8083 8.4373 11.0503C8.7903 11.2933 8.9363 11.7683 8.9673 12.0663C9.0333 12.6913 9.0483 13.5573 9.0663 13.7993C9.0843 14.0423 9.3323 18.6913 9.3203 18.8453C9.3093 18.9993 9.3323 19.0503 9.2983 19.1383C9.2653 19.2273 9.1653 19.3923 8.9623 19.4253C8.7573 19.4583 2.9773 19.4253 2.9113 19.4253C2.8453 19.4253 2.7013 19.2983 2.7343 19.1213C2.7673 18.9453 3.5373 16.7533 3.5623 16.7033C3.5883 16.6543 3.6353 16.5963 3.7313 16.5963C3.8273 16.5963 6.9883 16.5773 7.2803 16.5793C7.5723 16.5823 7.6493 16.4563 7.7023 16.3413C7.7843 16.1633 7.7633 15.2933 7.6843 14.9253C7.5423 14.2573 6.9523 13.8333 6.7593 13.8393C6.5653 13.8443 3.6053 13.8023 3.5553 13.8523C3.5063 13.9023 3.4573 13.9713 3.3913 14.2803C3.3253 14.5893 2.9613 16.6103 2.7063 17.3273C2.4533 18.0453 2.3533 18.3053 2.2373 18.5583C2.1223 18.8133 1.9173 19.2983 1.7683 19.3863C1.6193 19.4753 1.3763 19.4423 1.3433 19.3313C1.3093 19.2213 1.2773 18.9173 1.3983 18.1333C1.5203 17.3493 2.0393 14.7173 1.9503 14.2643C1.8623 13.8113 1.6193 13.8173 1.5083 13.8173C1.3983 13.8173 0.874298 13.8223 0.780298 13.7733C0.686298 13.7233 0.437298 13.6523 0.471298 13.3093C0.504298 12.9663 0.735298 12.4253 0.747298 12.0503C0.758298 11.6753 0.713298 10.9353 0.796298 10.7863C0.879298 10.6373 0.989298 10.5643 1.1933 10.5643C1.3973 10.5643 2.3203 10.7863 2.7183 11.0953Z" fill="white"/>
<path fill-rule="evenodd" clip-rule="evenodd" d="M2.3165 11.9458C3.1225 12.5288 2.9655 13.6658 3.1895 13.6518C3.4135 13.6378 3.4205 13.1938 3.3165 12.8128C3.2105 12.4308 2.9615 12.1048 3.0765 11.9038C3.1935 11.7018 3.3765 11.7268 3.5745 11.7248C3.7735 11.7238 5.4625 11.7248 6.1145 11.7368C6.7655 11.7478 7.6155 11.6598 7.9695 11.9018C8.3225 12.1448 8.4665 12.6208 8.4985 12.9178C8.5315 13.2158 8.5685 13.4778 8.7565 13.4608C8.9445 13.4448 8.9185 13.0608 8.8625 12.8188C8.8085 12.5758 8.4875 12.0348 8.5985 11.8578C8.7085 11.6808 8.7865 11.7478 8.9515 11.7478C9.1175 11.7478 12.5895 11.7648 12.8595 11.7588C13.1305 11.7548 13.5665 11.8368 13.7985 12.2998C14.0305 12.7628 14.0525 13.3708 14.0525 13.7228C14.0525 14.0768 14.3395 19.6078 14.3395 19.7848C14.3395 19.9618 14.2855 20.1018 14.1435 20.2128C13.9775 20.3428 12.9715 20.2868 12.5985 20.2908C12.5985 20.2908 13.0425 20.0068 13.0595 19.7518C13.0755 19.4988 13.1035 18.3158 12.9475 17.0028C12.7945 15.6888 12.4625 15.1038 12.2745 14.9388C12.0875 14.7728 12.0765 14.7388 11.9445 14.7068C11.8115 14.6738 8.5985 14.6508 8.5985 14.6508C8.5985 14.6508 8.8625 19.5428 8.8525 19.6968C8.8415 19.8518 8.8625 19.9018 8.8295 19.9898C8.7975 20.0788 8.6985 20.2438 8.4935 20.2768C8.2895 20.3098 2.5095 20.2768 2.4435 20.2768C2.3765 20.2768 2.2335 20.1498 2.2665 19.9718C2.2995 19.7968 3.0695 17.6048 3.0945 17.5548C3.1195 17.5058 3.1665 17.4478 3.2625 17.4478C3.3585 17.4478 6.5195 17.4278 6.8125 17.4308C7.1055 17.4338 7.1815 17.3078 7.2345 17.1918C7.3165 17.0138 7.2955 16.1448 7.2165 15.7768C7.0735 15.1088 6.4845 14.6848 6.2905 14.6908C6.0975 14.6958 3.1375 14.6538 3.0875 14.7038C3.0385 14.7528 2.9895 14.8228 2.9235 15.1318C2.8565 15.4408 2.4925 17.4618 2.2385 18.1788C1.9845 18.8958 1.8855 19.1558 1.7695 19.4108C1.6525 19.6648 1.4495 20.1498 1.3005 20.2378C1.1505 20.3268 0.907498 20.2928 0.874498 20.1828C0.842498 20.0728 0.808498 19.7688 0.929498 18.9848C1.0515 18.2008 1.5705 15.5678 1.4825 15.1158C1.3945 14.6628 1.1505 14.6688 1.0405 14.6688C0.929498 14.6688 0.405498 14.6738 0.311498 14.6238C0.217498 14.5738 -0.0305022 14.5038 0.0034978 14.1598C0.0354978 13.8178 0.267498 13.2768 0.278498 12.9018C0.289498 12.5258 0.245498 11.7868 0.327498 11.6368C0.410498 11.4888 0.521498 11.4158 0.724498 11.4158C0.929498 11.4158 1.9185 11.6368 2.3165 11.9458Z" fill="white"/>
<mask id="mask0" mask-type="alpha" maskUnits="userSpaceOnUse" x="0" y="0" width="28" height="25">
<path fill-rule="evenodd" clip-rule="evenodd" d="M0 24.6473H27.512V0.0003H0V24.6473Z" fill="white"/>
</mask>
<g mask="url(#mask0)">
<path fill-rule="evenodd" clip-rule="evenodd" d="M15.988 12.5663H16.188V11.0873H15.988V12.5663Z" fill="white"/>
<path fill-rule="evenodd" clip-rule="evenodd" d="M16.0879 10.7124C15.4739 10.7124 14.9739 11.2124 14.9739 11.8274C14.9739 12.4414 15.4739 12.9414 16.0879 12.9414C16.7019 12.9414 17.2029 12.4414 17.2029 11.8274C17.2029 11.2124 16.7019 10.7124 16.0879 10.7124ZM16.0879 12.9864C15.4479 12.9864 14.9279 12.4664 14.9279 11.8274C14.9279 11.1874 15.4479 10.6664 16.0879 10.6664C16.7279 10.6664 17.2489 11.1874 17.2489 11.8274C17.2489 12.4664 16.7279 12.9864 16.0879 12.9864Z" fill="white"/>
<path fill-rule="evenodd" clip-rule="evenodd" d="M6.7515 1.4712C7.2215 1.4712 7.2795 1.2032 7.2795 0.9952C7.2795 0.7882 7.2215 0.5212 6.7515 0.5212H6.7295V1.4712H6.7515ZM6.4085 0.5212H6.3865C5.9165 0.5212 5.8585 0.7882 5.8585 0.9952C5.8585 1.2032 5.9165 1.4712 6.3865 1.4712H6.4085V0.5212ZM6.4085 1.7142H6.3415C6.1705 1.7142 5.5155 1.6792 5.5155 0.9952C5.5155 0.7182 5.6385 0.2782 6.3415 0.2782H6.4085V-0.0008H6.7295V0.2782H6.7965C7.4995 0.2782 7.6225 0.7182 7.6225 0.9952C7.6225 1.6792 6.9665 1.7142 6.7965 1.7142H6.7295V1.9632H6.4085V1.7142Z" fill="white"/>
<path fill-rule="evenodd" clip-rule="evenodd" d="M8.7486 1.6763C9.1816 1.6763 9.2636 1.2823 9.2636 1.0133C9.2636 0.7423 9.1816 0.3503 8.7486 0.3503C8.3156 0.3503 8.2336 0.7423 8.2336 1.0133C8.2336 1.2823 8.3156 1.6763 8.7486 1.6763ZM8.7486 0.0853C8.9006 0.0853 9.6066 0.1053 9.6066 1.0133C9.6066 1.9223 8.9006 1.9423 8.7486 1.9423C8.5966 1.9423 7.8906 1.9223 7.8906 1.0133C7.8906 0.1053 8.5966 0.0853 8.7486 0.0853Z" fill="white"/>
<path fill-rule="evenodd" clip-rule="evenodd" d="M10.3028 1.8892H9.9828V0.1372H10.3028V0.8382H11.0828V0.1372H11.4038V1.8892H11.0828V1.1042H10.3028V1.8892Z" fill="white"/>
<path fill-rule="evenodd" clip-rule="evenodd" d="M12.44 0.4029V0.6129C12.44 1.0009 12.398 1.2939 12.197 1.6249H12.97V0.4029H12.44ZM13.53 1.6249L13.516 2.2849H13.235V1.8889H11.962V2.2849H11.682L11.667 1.6249H11.816C11.932 1.4759 12.12 1.1619 12.12 0.5149V0.1369H13.291V1.6249H13.53Z" fill="white"/>
<path fill-rule="evenodd" clip-rule="evenodd" d="M5.9434 3.481H6.3164C6.4644 3.481 6.6714 3.461 6.6714 3.199C6.6714 2.92 6.4414 2.906 6.3184 2.906H5.9434V3.481ZM6.3214 2.64C6.5964 2.64 7.0014 2.685 7.0014 3.183C7.0014 3.501 6.8234 3.747 6.3184 3.747H5.9434V4.392H5.6234V2.64H6.3214Z" fill="white"/>
<path fill-rule="evenodd" clip-rule="evenodd" d="M8.0577 3.7583L7.7927 2.9803L7.5277 3.7583H8.0577ZM7.3147 4.3923H6.9717L7.6317 2.6403H7.9537L8.6137 4.3923H8.2707L8.1427 4.0243H7.4427L7.3147 4.3923Z" fill="white"/>
<path fill-rule="evenodd" clip-rule="evenodd" d="M9.064 3.7935C9.067 3.9395 9.129 4.1795 9.512 4.1795C9.75 4.1795 9.902 4.0755 9.902 3.8865C9.902 3.6685 9.752 3.6115 9.557 3.6115H9.316V3.3455H9.524C9.599 3.3455 9.832 3.3415 9.832 3.1155C9.832 2.9605 9.732 2.8535 9.477 2.8535C9.174 2.8535 9.089 3.0035 9.084 3.1555H8.766C8.773 2.6975 9.122 2.5875 9.504 2.5875C9.744 2.5875 10.162 2.6475 10.162 3.0825C10.162 3.3085 10.025 3.4455 9.87 3.4685V3.4735C10.06 3.5005 10.232 3.6445 10.232 3.9195C10.232 4.1235 10.12 4.4435 9.492 4.4435C9.042 4.4435 8.764 4.2525 8.747 3.7935H9.064Z" fill="white"/>
<path fill-rule="evenodd" clip-rule="evenodd" d="M10.961 4.1265H11.398C11.594 4.1265 11.741 4.0785 11.741 3.8655C11.741 3.6315 11.539 3.6155 11.407 3.6155H10.961V4.1265ZM10.961 3.3515H11.384C11.562 3.3515 11.669 3.2955 11.669 3.1435C11.669 2.9105 11.443 2.9045 11.377 2.9045H10.961V3.3515ZM11.466 2.6405C11.912 2.6405 11.999 2.8905 11.999 3.0825C11.999 3.2755 11.879 3.4285 11.709 3.4575V3.4635C11.854 3.4885 12.071 3.5895 12.071 3.9005C12.071 4.3445 11.694 4.3925 11.431 4.3925H10.641V2.6405H11.466Z" fill="white"/>
<path fill-rule="evenodd" clip-rule="evenodd" d="M13.6333 2.6402H13.9463V4.3922H13.6263V3.1102L12.7923 4.3922H12.4793V2.6402H12.8003V3.9212L13.6333 2.6402Z" fill="white"/>
<path fill-rule="evenodd" clip-rule="evenodd" d="M14.2417 2.9048V2.6398H15.6627V2.9048H15.1127V4.3918H14.7917V2.9048H14.2417Z" fill="white"/>
<path fill-rule="evenodd" clip-rule="evenodd" d="M17.1119 2.6402H17.4249V4.3922H17.1049V3.1102L16.2709 4.3922H15.9579V2.6402H16.2789V3.9212L17.1119 2.6402Z" fill="white"/>
<path fill-rule="evenodd" clip-rule="evenodd" d="M18.5386 2.9048C18.4506 2.9048 18.1856 2.9048 18.1856 3.1958C18.1856 3.4518 18.4206 3.4728 18.5606 3.4728H18.9556V2.9048H18.5386ZM18.6506 3.7388L18.2306 4.3918H17.8246L18.3206 3.7038C18.1576 3.6838 17.8556 3.5858 17.8556 3.1878C17.8556 2.6628 18.3056 2.6398 18.5536 2.6398H19.2766V4.3918H18.9556V3.7388H18.6506Z" fill="white"/>
<path fill-rule="evenodd" clip-rule="evenodd" d="M7.1495 6.2964C7.1245 6.5614 6.9845 6.9464 6.3905 6.9464C6.2565 6.9464 5.5235 6.9344 5.5235 6.0484C5.5235 5.3284 5.9385 5.0904 6.3735 5.0904C6.9745 5.0904 7.1095 5.4584 7.1245 5.7084H6.8065C6.7865 5.5634 6.7005 5.3554 6.3735 5.3554C5.9835 5.3554 5.8655 5.6734 5.8655 6.0354C5.8655 6.4454 6.0915 6.6814 6.4065 6.6814C6.6965 6.6814 6.8215 6.4834 6.8315 6.2964H7.1495Z" fill="white"/>
<path fill-rule="evenodd" clip-rule="evenodd" d="M8.2657 6.6812C8.6987 6.6812 8.7807 6.2892 8.7807 6.0182C8.7807 5.7472 8.6987 5.3562 8.2657 5.3562C7.8327 5.3562 7.7497 5.7472 7.7497 6.0182C7.7497 6.2892 7.8327 6.6812 8.2657 6.6812ZM8.2657 5.0902C8.4177 5.0902 9.1227 5.1102 9.1227 6.0182C9.1227 6.9272 8.4177 6.9472 8.2657 6.9472C8.1137 6.9472 7.4077 6.9272 7.4077 6.0182C7.4077 5.1102 8.1137 5.0902 8.2657 5.0902Z" fill="white"/>
<path fill-rule="evenodd" clip-rule="evenodd" d="M9.8199 6.6294H10.2569C10.4529 6.6294 10.5999 6.5814 10.5999 6.3684C10.5999 6.1334 10.3979 6.1184 10.2659 6.1184H9.8199V6.6294ZM9.8199 5.8534H10.2429C10.4209 5.8534 10.5279 5.7984 10.5279 5.6464C10.5279 5.4124 10.3019 5.4074 10.2359 5.4074H9.8199V5.8534ZM10.3249 5.1424C10.7709 5.1424 10.8579 5.3934 10.8579 5.5854C10.8579 5.7784 10.7379 5.9314 10.5679 5.9604V5.9664C10.7129 5.9914 10.9299 6.0914 10.9299 6.4034C10.9299 6.8464 10.5529 6.8944 10.2899 6.8944H9.4999V5.1424H10.3249Z" fill="white"/>
<path fill-rule="evenodd" clip-rule="evenodd" d="M11.6592 5.9839H12.0322C12.1792 5.9839 12.3872 5.9629 12.3872 5.7009C12.3872 5.4229 12.1572 5.4079 12.0342 5.4079H11.6592V5.9839ZM12.0372 5.1429C12.3122 5.1429 12.7172 5.1879 12.7172 5.6859C12.7172 6.0039 12.5392 6.2489 12.0342 6.2489H11.6592V6.8949H11.3382V5.1429H12.0372Z" fill="white"/>
<path fill-rule="evenodd" clip-rule="evenodd" d="M14.2715 5.8628V6.1288H13.3805V6.6298H14.4015V6.8938H13.0605V5.1428H14.3745V5.4078H13.3805V5.8628H14.2715Z" fill="white"/>
<path fill-rule="evenodd" clip-rule="evenodd" d="M15.0274 5.5083H15.0234L15.0274 5.5753V6.8953H14.7074V5.1433H15.1854L15.6634 6.4713L16.1404 5.1433H16.6184V6.8953H16.2984V5.5753L16.3044 5.5083H16.2984L15.7834 6.8953H15.5424L15.0274 5.5083Z" fill="white"/>
<path fill-rule="evenodd" clip-rule="evenodd" d="M18.3057 5.8628V6.1288H17.4157V6.6298H18.4357V6.8938H17.0957V5.1428H18.4087V5.4078H17.4157V5.8628H18.3057Z" fill="white"/>
<path fill-rule="evenodd" clip-rule="evenodd" d="M19.0616 6.8941H18.7416V5.1421H19.0616V5.8431H19.8416V5.1421H20.1626V6.8941H19.8416V6.1091H19.0616V6.8941Z" fill="white"/>
<path fill-rule="evenodd" clip-rule="evenodd" d="M20.9585 6.8941H20.6385V5.1421H20.9585V5.8431H21.7385V5.1421H22.0595V6.8941H21.7385V6.1091H20.9585V6.8941Z" fill="white"/>
<path fill-rule="evenodd" clip-rule="evenodd" d="M23.2935 6.6812C23.7265 6.6812 23.8085 6.2892 23.8085 6.0182C23.8085 5.7472 23.7265 5.3562 23.2935 5.3562C22.8605 5.3562 22.7785 5.7472 22.7785 6.0182C22.7785 6.2892 22.8605 6.6812 23.2935 6.6812ZM23.2935 5.0902C23.4455 5.0902 24.1515 5.1102 24.1515 6.0182C24.1515 6.9272 23.4455 6.9472 23.2935 6.9472C23.1415 6.9472 22.4345 6.9272 22.4345 6.0182C22.4345 5.1102 23.1415 5.0902 23.2935 5.0902Z" fill="white"/>
<path fill-rule="evenodd" clip-rule="evenodd" d="M24.8472 6.8941H24.5272V5.1421H25.6732V5.4081H24.8472V6.8941Z" fill="white"/>
<path fill-rule="evenodd" clip-rule="evenodd" d="M26.6539 6.6812C27.0869 6.6812 27.1699 6.2892 27.1699 6.0182C27.1699 5.7472 27.0869 5.3562 26.6539 5.3562C26.2209 5.3562 26.1389 5.7472 26.1389 6.0182C26.1389 6.2892 26.2209 6.6812 26.6539 6.6812ZM26.6539 5.0902C26.8069 5.0902 27.5119 5.1102 27.5119 6.0182C27.5119 6.9272 26.8069 6.9472 26.6539 6.9472C26.5019 6.9472 25.7969 6.9272 25.7969 6.0182C25.7969 5.1102 26.5019 5.0902 26.6539 5.0902Z" fill="white"/>
<path fill-rule="evenodd" clip-rule="evenodd" d="M5.4429 7.9107V7.6447H6.8639V7.9107H6.3139V9.3967H5.9929V7.9107H5.4429Z" fill="white"/>
<path fill-rule="evenodd" clip-rule="evenodd" d="M8.3707 8.3658V8.6318H7.4797V9.1328H8.5007V9.3968H7.1587V7.6448H8.4737V7.9108H7.4797V8.3658H8.3707Z" fill="white"/>
<path fill-rule="evenodd" clip-rule="evenodd" d="M9.6695 8.7642L9.4035 7.9852L9.1385 8.7642H9.6695ZM8.9255 9.3972H8.5835L9.2445 7.6452H9.5645L10.2255 9.3972H9.8825L9.7535 9.0292H9.0545L8.9255 9.3972Z" fill="white"/>
<path fill-rule="evenodd" clip-rule="evenodd" d="M10.125 7.9107V7.6447H11.546V7.9107H10.996V9.3967H10.675V7.9107H10.125Z" fill="white"/>
<path fill-rule="evenodd" clip-rule="evenodd" d="M12.1622 8.4859H12.5352C12.6832 8.4859 12.8902 8.4659 12.8902 8.2039C12.8902 7.9259 12.6602 7.9109 12.5372 7.9109H12.1622V8.4859ZM12.5402 7.6449C12.8152 7.6449 13.2202 7.6899 13.2202 8.1879C13.2202 8.5069 13.0422 8.7519 12.5372 8.7519H12.1622V9.3969H11.8422V7.6449H12.5402Z" fill="white"/>
<path fill-rule="evenodd" clip-rule="evenodd" d="M14.2769 8.7642L14.0119 7.9852L13.7459 8.7642H14.2769ZM13.5339 9.3972H13.1909L13.8509 7.6452H14.1719L14.8329 9.3972H14.4899L14.3609 9.0292H13.6619L13.5339 9.3972Z" fill="white"/>
<path fill-rule="evenodd" clip-rule="evenodd" d="M17.399 21.0728C17.869 21.0728 17.927 20.8048 17.927 20.5978C17.927 20.3898 17.869 20.1228 17.399 20.1228H17.377V21.0728H17.399ZM17.056 20.1228H17.034C16.563 20.1228 16.506 20.3898 16.506 20.5978C16.506 20.8048 16.563 21.0728 17.034 21.0728H17.056V20.1228ZM17.056 21.3158H16.989C16.818 21.3158 16.163 21.2808 16.163 20.5978C16.163 20.3198 16.286 19.8798 16.989 19.8798H17.056V19.6018H17.377V19.8798H17.444C18.147 19.8798 18.27 20.3198 18.27 20.5978C18.27 21.2808 17.615 21.3158 17.444 21.3158H17.377V21.5658H17.056V21.3158Z" fill="white"/>
<path fill-rule="evenodd" clip-rule="evenodd" d="M19.396 21.2779C19.829 21.2779 19.911 20.8849 19.911 20.6149C19.911 20.3439 19.829 19.9519 19.396 19.9519C18.963 19.9519 18.881 20.3439 18.881 20.6149C18.881 20.8849 18.963 21.2779 19.396 21.2779ZM19.396 19.6869C19.548 19.6869 20.254 19.7069 20.254 20.6149C20.254 21.5239 19.548 21.5439 19.396 21.5439C19.244 21.5439 18.538 21.5239 18.538 20.6149C18.538 19.7069 19.244 19.6869 19.396 19.6869Z" fill="white"/>
<path fill-rule="evenodd" clip-rule="evenodd" d="M20.9502 21.4908H20.6302V19.7388H20.9502V20.4398H21.7302V19.7388H22.0512V21.4908H21.7302V20.7058H20.9502V21.4908Z" fill="white"/>
<path fill-rule="evenodd" clip-rule="evenodd" d="M23.0874 20.0044V20.2154C23.0874 20.6034 23.0454 20.8954 22.8444 21.2264H23.6174V20.0044H23.0874ZM24.1774 21.2264L24.1634 21.8864H23.8824V21.4914H22.6084V21.8864H22.3284L22.3144 21.2264H22.4634C22.5794 21.0774 22.7664 20.7634 22.7664 20.1174V19.7394H23.9384V21.2264H24.1774Z" fill="white"/>
<path fill-rule="evenodd" clip-rule="evenodd" d="M5.5538 22.9624H5.5438V24.5824H5.0098V22.3154H5.7618L6.3018 23.8734L6.8428 22.3154H7.5948V24.5824H7.0608V22.9624H7.0508L6.4828 24.5824H6.1198L5.5538 22.9624Z" fill="white"/>
<path fill-rule="evenodd" clip-rule="evenodd" d="M9.4532 22.315H9.9872V24.583H9.4532V23.102L8.5492 24.583H8.0152V22.315H8.5492V23.78L9.4532 22.315Z" fill="white"/>
<path fill-rule="evenodd" clip-rule="evenodd" d="M10.8394 24.5826H10.1654L10.9624 23.4026L10.2364 22.3146H10.8714L11.3054 23.0606L11.7434 22.3146H12.3784L11.6494 23.4026L12.4494 24.5826H11.7754L11.3054 23.8026L10.8394 24.5826Z" fill="white"/>
<path fill-rule="evenodd" clip-rule="evenodd" d="M14.2237 23.4488C14.2237 23.2418 14.1977 22.6908 13.6537 22.6908C13.3587 22.6908 13.0867 22.8498 13.0867 23.4488C13.0867 24.0418 13.3587 24.2068 13.6537 24.2068C14.1977 24.2068 14.2237 23.6398 14.2237 23.4488ZM12.5067 23.4488C12.5067 22.9218 12.7597 22.2508 13.6537 22.2508C14.4337 22.2508 14.8007 22.7618 14.8007 23.4488C14.8007 24.1358 14.4337 24.6468 13.6537 24.6468C12.7597 24.6468 12.5067 23.9758 12.5067 23.4488Z" fill="white"/>
<path fill-rule="evenodd" clip-rule="evenodd" d="M15.7911 23.6499V23.2359H16.6561C16.6031 22.7109 16.2541 22.6909 16.0891 22.6909C15.7011 22.6909 15.5831 22.9239 15.5671 23.0699H15.0231C15.0491 22.7039 15.3061 22.2509 16.0571 22.2509C16.9961 22.2509 17.2321 22.8849 17.2321 23.4199C17.2321 24.5869 16.4001 24.6469 16.0921 24.6469C15.3991 24.6469 15.0331 24.2579 14.9971 23.7659H15.5421C15.5511 23.9799 15.7201 24.2079 16.0861 24.2079C16.3061 24.2079 16.6401 24.1319 16.6561 23.6499H15.7911Z" fill="white"/>
<path fill-rule="evenodd" clip-rule="evenodd" d="M17.3423 24.1421C17.8473 24.2101 17.8613 23.7761 17.8693 23.3971L17.8863 22.3151H19.5643V24.5821H19.0303V22.7551H18.3913L18.3753 23.5451C18.3633 23.9871 18.2973 24.7111 17.3423 24.5821V24.1421Z" fill="white"/>
<path fill-rule="evenodd" clip-rule="evenodd" d="M22.0191 23.7828C21.9841 24.1228 21.7921 24.6468 20.9891 24.6468C20.4091 24.6468 19.8781 24.3818 19.8781 23.4908C19.8781 22.2958 20.7491 22.2508 20.9701 22.2508C21.7761 22.2508 21.9771 22.7528 21.9931 23.0868H21.4691C21.4161 22.7078 21.1191 22.6908 20.9951 22.6908C20.8761 22.6908 20.4551 22.7138 20.4551 23.4708C20.4551 23.8988 20.6481 24.2068 21.0111 24.2068C21.3651 24.2068 21.4611 23.9508 21.4871 23.7828H22.0191Z" fill="white"/>
<path fill-rule="evenodd" clip-rule="evenodd" d="M23.4146 23.773L23.1226 22.908L22.8246 23.773H23.4146ZM23.3926 22.315L24.2436 24.583H23.6776L23.5316 24.158H22.7076L22.5656 24.583H22.0016L22.8516 22.315H23.3926Z" fill="white"/>
</g>
</svg>
