<svg width="122" height="24" viewBox="0 0 122 24" fill="none" xmlns="http://www.w3.org/2000/svg">
<path fill-rule="evenodd" clip-rule="evenodd" d="M18.42 11.5508C18.4141 11.5538 18.4111 11.5538 18.4051 11.5538C18.3516 11.9888 18.2921 13.2758 19.2383 14.4638C20.1578 14.6408 21.1933 14.9948 22.1603 15.4208V11.0948C20.8838 11.0588 19.518 11.2028 18.42 11.5508ZM8.82061 19.6388C4.92852 17.6228 3.21159 18.4298 2.60159 18.7328C2.23857 18.9098 1.64344 19.2608 0.935249 19.6058V20.2958H8.9813C8.92476 20.0768 8.86822 19.8608 8.82061 19.6388ZM2.81897 8.2718C4.5597 6.0998 7.1336 3.8948 11.112 5.4728C11.4185 5.9948 12.0731 6.0758 12.1713 5.4908C12.4599 5.9408 11.6089 6.4958 11.1983 5.8928C7.3657 4.5068 4.87214 6.3218 2.81599 8.2778L2.81897 8.2718ZM11.3976 5.5628C7.78823 2.0288 4.25023 4.6928 3.03321 5.8898C3.73248 4.7108 8.3417 1.0508 11.3976 5.5628ZM11.6176 5.6048C9.65374 2.5838 7.53808 2.0288 4.44047 3.4058C6.00267 2.3918 9.47818 1.0808 11.6176 5.6048ZM12.1683 9.9548C11.8915 10.1228 11.353 9.7478 10.9691 9.1178C10.5823 8.4848 10.493 7.8338 10.7668 7.6628C11.0435 7.4888 11.5791 7.8638 11.9659 8.4968C12.3528 9.1298 12.442 9.7808 12.1683 9.9548ZM5.07436 12.3668C4.77085 12.4808 4.31855 12.0038 4.06563 11.3078C3.8127 10.6088 3.85436 9.9548 4.16085 9.8408C4.46436 9.7298 4.91367 10.2068 5.1666 10.8998C5.41953 11.6018 5.37787 12.2558 5.07436 12.3668ZM18.2444 9.0668C18.6848 8.5508 19.2323 8.3138 19.4614 8.5388C19.6906 8.7638 19.515 9.3638 19.0716 9.8828C18.6283 10.4018 18.0837 10.6358 17.8546 10.4108C17.6255 10.1858 17.7981 9.5828 18.2444 9.0668ZM5.50876 12.7478C6.821 12.5138 9.14496 13.4798 11.0107 12.5198C9.62105 14.1098 6.19018 13.1528 5.32725 13.5428C4.62798 14.8208 3.92871 16.4828 3.95252 17.3858C5.89261 17.3288 7.61549 18.2348 8.72539 19.1378C8.67183 18.8198 8.63018 18.4898 8.6153 18.1358C8.42486 14.4998 11.9837 14.8508 12.2098 14.8448C12.2783 14.6558 11.945 12.3098 11.3618 11.4638C7.65417 12.1178 9.505 7.4618 6.08305 6.5348C9.97217 6.8858 7.95471 10.9058 11.4213 10.5428C11.8676 10.4948 12.0908 10.4078 12.2307 10.3448C14.2422 9.3128 13.3049 4.3868 17.1821 3.4448C13.656 4.9088 15.0515 9.7148 12.8436 11.0468C13.2662 12.2918 13.5251 15.1658 13.5251 15.1658C14.1023 15.3608 14.7034 15.7808 15.2598 16.3268C15.611 15.0248 16.4739 14.4578 17.5957 14.3528C17.4201 13.5608 17.4588 12.3818 17.5838 11.7248C15.1319 11.9138 14.6588 8.9228 16.1376 7.6748C15.2598 9.0038 15.5187 11.7878 18.0301 11.0228C19.2769 10.6418 20.7796 10.4768 22.1603 10.5608V1.0598H16.343C14.388 1.5668 12.5431 2.6438 11.951 5.5898C11.8676 2.8868 13.3554 1.6328 15.1289 1.0598H12.9656C12.1295 1.9268 11.5433 3.2708 11.7337 5.3738C11.2814 3.2918 11.7337 1.9328 12.5282 1.0598H11.6593C11.3142 1.9328 11.1297 2.9798 11.454 4.7438C11.2279 4.1258 10.8321 2.4878 11.457 1.0598H0.935249V18.3758C1.33696 18.1478 1.72974 17.9018 2.01837 17.7818C3.89896 13.2368 4.91364 12.8168 5.50876 12.7478ZM12.8349 15.8678C9.72832 15.1598 9.66583 17.5028 9.84139 20.2958H16.6228C16.23 18.7778 14.8017 16.1468 12.8349 15.8678ZM15.8492 16.9628C16.7121 18.0008 17.3638 19.2728 17.4739 20.2958H22.1604V15.9308C17.1168 14.0048 16.0842 15.6998 15.8492 16.9628ZM0.61089 20.6198H22.4816V0.735798H0.61089V20.6198ZM0.000976562 21.2378H23.0977V0.117798H0.000976562V21.2378Z" fill="black"/>
<mask id="mask0" mask-type="alpha" maskUnits="userSpaceOnUse" x="29" y="13" width="93" height="9">
<path fill-rule="evenodd" clip-rule="evenodd" d="M29.9678 13.8895H121.756V21.4636H29.9678V13.8895Z" fill="white"/>
</mask>
<g mask="url(#mask0)">
<path fill-rule="evenodd" clip-rule="evenodd" d="M76.8276 14.5975L77.4525 14.6395L77.4644 14.6515L77.6488 14.8255V15.1585L74.6941 18.9805V14.8255L74.706 14.8135L74.8905 14.6395L75.5153 14.5975V14.0425H72.0041V14.5975L72.6409 14.6395L72.6528 14.6515L72.8492 14.8225V20.4505L72.8403 20.4625L72.6439 20.6815L72.0041 20.7235V21.2785H75.5153V20.7235L74.8875 20.6785L74.8786 20.6665L74.6941 20.4505V20.0305L77.6488 16.2085V20.4505L77.6399 20.4625L77.4554 20.6815L76.8276 20.7235V21.2785H80.3388V20.7235L79.6871 20.6815L79.6782 20.6665L79.4937 20.4475V14.8255L79.5056 14.8135L79.6901 14.6395L80.3388 14.5975V14.0425H76.8276V14.5975ZM115.201 14.0425V16.1575H116.031L116.249 14.8525L116.261 14.8405L116.454 14.7025H117.558V20.4505L117.329 20.6815L116.627 20.7235V21.2785H120.331V20.7235L119.626 20.6815L119.4 20.4505V14.7025H120.48L120.489 14.7115L120.7 14.8525L120.923 16.1575H121.756V14.0425H115.201ZM34.6306 14.5945L35.2554 14.6395L35.2673 14.6485L35.4518 14.8225V17.1175H32.6577V14.8225L32.6696 14.8105L32.8541 14.6395L33.479 14.5945V14.0395H29.9678V14.5945L30.6046 14.6395L30.6165 14.6485L30.8128 14.8225V20.4445L30.8039 20.4565L30.6075 20.6785L29.9678 20.7205V21.2755H33.479V20.7205L32.8511 20.6785L32.8392 20.6635L32.6577 20.4445V17.8405H35.4518V20.4445L35.4399 20.4565L35.2554 20.6785L34.6306 20.7205V21.2755H38.1388V20.7205L37.4871 20.6785L37.4782 20.6635L37.2937 20.4445V14.8225L37.3086 14.8105L37.4931 14.6395L38.1388 14.5945V14.0395H34.6306V14.5945ZM40.8555 18.1705L41.7303 15.7105L41.769 15.6055L42.7004 18.1705H40.8555ZM43.0159 13.9855H41.5162L39.0375 20.6785L38.3472 20.7205V21.2755H40.8735V20.7175L40.201 20.6455L40.1891 20.6305L40.0671 20.4835L40.6235 18.8215H42.9861L43.5753 20.4925L43.5634 20.5075L43.4652 20.6635L42.7511 20.7205V21.2755H46.173V20.7175L45.5214 20.6305L43.0159 13.9855ZM90.7745 14.5975L91.4113 14.6395L91.4232 14.6515L91.6195 14.8225V20.4505L91.6106 20.4625L91.4142 20.6815L90.7745 20.7235V21.2785H94.2857V20.7235L93.6549 20.6815L93.6459 20.6665L93.4615 20.4475V14.7025H96.1603V20.4475L96.1484 20.4625L95.9669 20.6815L95.3361 20.7235V21.2785H98.8473V20.7235L98.1986 20.6815L98.1867 20.6665L98.0052 20.4505V14.8255L98.0171 14.8135L98.1986 14.6395L98.8473 14.5975V14.0425H90.7745V14.5975ZM88.8669 20.4565L88.8609 20.4625L88.6764 20.6365L88.6645 20.6395C88.605 20.6485 88.5217 20.6545 88.4176 20.6635C88.3045 20.6755 88.1974 20.6815 88.0962 20.6815C87.879 20.6815 87.6766 20.6575 87.4921 20.6065C87.3077 20.5525 87.141 20.4865 86.9922 20.4055C86.8405 20.3245 86.7096 20.2345 86.5995 20.1355C86.4894 20.0335 86.3941 19.9315 86.3138 19.8265C86.1025 19.5535 85.9419 19.2295 85.8407 18.8545C85.7395 18.4795 85.6889 18.0745 85.6889 17.6455C85.6889 17.1325 85.7603 16.6705 85.9091 16.2715C86.052 15.8635 86.2543 15.5335 86.5102 15.2755C86.5578 15.2275 86.6233 15.1705 86.7096 15.0985C86.7988 15.0295 86.9089 14.9605 87.0428 14.8945C87.1738 14.8255 87.3285 14.7715 87.5041 14.7205C87.6796 14.6725 87.879 14.6515 88.0962 14.6515C88.2241 14.6515 88.3313 14.6605 88.4265 14.6725C88.5217 14.6845 88.605 14.7025 88.6854 14.7265L88.8788 14.9095L89.1347 16.2295H90.0571V14.3245C89.7001 14.1865 89.337 14.0815 88.971 14.0125C88.5961 13.9375 88.2152 13.9045 87.8284 13.9045H87.8165C87.2392 13.9045 86.7631 13.9585 86.3882 14.0755C86.0103 14.1895 85.6919 14.3305 85.436 14.4955C85.1087 14.6965 84.832 14.9275 84.6088 15.1855C84.3856 15.4435 84.2011 15.7165 84.0643 15.9955C83.9214 16.2775 83.8203 16.5595 83.7578 16.8475C83.6923 17.1355 83.6596 17.4115 83.6596 17.6755C83.6596 17.8945 83.6804 18.1165 83.7191 18.3505C83.7578 18.5845 83.8232 18.8185 83.9125 19.0585C84.0018 19.2925 84.1208 19.5295 84.2696 19.7605C84.4213 19.9885 84.6028 20.2045 84.8141 20.4055C85.0522 20.6305 85.2902 20.8045 85.5372 20.9395C85.7842 21.0715 86.0311 21.1735 86.2811 21.2485C86.531 21.3175 86.781 21.3685 87.0309 21.3955C87.2809 21.4135 87.5279 21.4285 87.7719 21.4285C88.0605 21.4285 88.3938 21.4045 88.7776 21.3505C89.1525 21.2965 89.578 21.1885 90.0571 21.0295V19.0585H89.1347L88.8669 20.4565ZM112.722 17.1025C112.639 17.3395 112.52 17.5255 112.362 17.6545C112.202 17.7955 112.005 17.8855 111.788 17.9185C111.574 17.9515 111.383 17.9665 111.214 17.9665H111.089V14.7025H111.568C111.827 14.7025 112.038 14.7595 112.208 14.8645C112.368 14.9665 112.493 15.0865 112.577 15.2245C112.666 15.3685 112.731 15.5365 112.776 15.7345C112.821 15.9265 112.844 16.1275 112.844 16.3255C112.844 16.6045 112.8 16.8625 112.722 17.1025ZM113.832 14.4295C113.77 14.3995 113.686 14.3575 113.582 14.3125C113.478 14.2735 113.347 14.2285 113.187 14.1895C113.029 14.1535 112.832 14.1145 112.6 14.0875C112.374 14.0575 112.106 14.0425 111.806 14.0425H108.345V14.5975L109.08 14.6395L109.092 14.6545L109.244 14.8285V20.4505L109.012 20.6815L108.345 20.7235V21.2785H112.05V20.7235L111.267 20.6815L111.255 20.6635L111.089 20.4475V18.6235L111.13 18.6295C111.324 18.6535 111.535 18.6625 111.764 18.6625C112.208 18.6595 112.633 18.6115 113.041 18.5095C113.448 18.4105 113.782 18.2425 114.052 18.0055C114.139 17.9335 114.219 17.8465 114.308 17.7445C114.392 17.6425 114.472 17.5195 114.543 17.3755C114.618 17.2345 114.68 17.0665 114.725 16.8715C114.77 16.6795 114.793 16.4605 114.793 16.2145C114.793 15.8305 114.722 15.4855 114.582 15.1825C114.442 14.8825 114.195 14.6305 113.832 14.4295ZM105.307 18.9895C105.206 19.4305 105.036 19.8055 104.798 20.1115C104.608 20.3485 104.405 20.5105 104.188 20.5915C103.977 20.6725 103.787 20.7145 103.611 20.7145H103.608C103.409 20.7145 103.2 20.6665 102.989 20.5765C102.775 20.4805 102.57 20.3095 102.382 20.0665C102.198 19.8295 102.043 19.5205 101.921 19.1335C101.796 18.7465 101.736 18.2695 101.736 17.6965C101.733 17.2165 101.784 16.7665 101.888 16.3435C101.989 15.9205 102.144 15.5665 102.358 15.2875C102.549 15.0295 102.754 14.8555 102.977 14.7685C103.191 14.6815 103.394 14.6395 103.581 14.6395C103.656 14.6395 103.745 14.6485 103.846 14.6605C103.95 14.6755 104.06 14.7085 104.176 14.7595C104.298 14.8045 104.414 14.8765 104.536 14.9635C104.655 15.0505 104.769 15.1765 104.879 15.3325C105.024 15.5395 105.158 15.8275 105.277 16.1905C105.399 16.5625 105.459 17.0335 105.459 17.6125C105.459 18.0865 105.405 18.5455 105.307 18.9895ZM106.096 14.6605C105.712 14.3785 105.313 14.1775 104.9 14.0635C104.483 13.9495 104.063 13.8925 103.632 13.8925C103.04 13.8925 102.522 13.9705 102.085 14.1235C101.644 14.2795 101.275 14.4715 100.978 14.7025C100.692 14.9155 100.463 15.1555 100.293 15.4165C100.124 15.6775 99.9898 15.9415 99.8945 16.2025C99.7963 16.4665 99.7309 16.7215 99.7011 16.9675C99.6684 17.2165 99.6505 17.4385 99.6505 17.6365C99.6505 17.9965 99.6892 18.3265 99.7606 18.6295C99.8291 18.9295 99.9273 19.2055 100.049 19.4575C100.168 19.7095 100.311 19.9315 100.469 20.1265C100.632 20.3185 100.799 20.4895 100.978 20.6335C101.305 20.9005 101.686 21.1045 102.117 21.2485C102.549 21.3925 103.019 21.4645 103.525 21.4645C104.084 21.4645 104.593 21.3805 105.045 21.2125C105.507 21.0475 105.902 20.8255 106.247 20.5465C106.706 20.1625 107.03 19.7215 107.235 19.2145C107.438 18.7075 107.539 18.1885 107.539 17.6575C107.539 17.0845 107.426 16.5385 107.194 16.0105C106.959 15.4825 106.596 15.0325 106.096 14.6605ZM63.4642 18.1705L64.3391 15.7105L64.3748 15.6055L65.3091 18.1705H63.4642ZM65.6216 13.9855H64.1219L61.6462 20.6785L61.1285 20.7085V21.2755H63.4822V20.7175L62.8097 20.6455L62.8007 20.6305L62.6758 20.4835L63.2322 18.8215H65.5948L66.181 20.4925L66.1721 20.5075L66.0739 20.6635L65.3568 20.7205V21.2755H68.7787V20.7175L68.133 20.6305L65.6216 13.9855ZM57.7749 17.4175C57.9355 17.3485 58.0754 17.2435 58.1944 17.1025C58.3105 16.9615 58.4325 16.7425 58.5545 16.4365L58.8996 15.5545C58.9354 15.4735 58.9651 15.4045 58.9859 15.3385C59.0097 15.2695 59.0574 15.1825 59.1317 15.0775L59.1555 15.0385L60.0631 15.8215C60.3131 15.7855 60.5065 15.6745 60.6523 15.4975C60.8011 15.3085 60.8755 15.0925 60.8755 14.8405C60.8755 14.6905 60.8516 14.5675 60.804 14.4685C60.7564 14.3695 60.6999 14.2855 60.6374 14.2135C60.563 14.1385 60.4589 14.0635 60.325 13.9945C60.194 13.9225 60.0155 13.8895 59.7804 13.8895C59.5959 13.8895 59.4353 13.9135 59.2954 13.9675C59.1585 14.0215 59.0276 14.0965 58.9086 14.1955C58.7181 14.3515 58.5753 14.5285 58.4771 14.7205C58.3759 14.9185 58.2867 15.1135 58.2063 15.3025L57.7749 16.3495C57.7154 16.4725 57.6558 16.5955 57.5934 16.7125C57.5309 16.8325 57.4446 16.9345 57.3404 17.0215C57.2303 17.1085 57.1113 17.1655 56.9863 17.1865C56.8703 17.2045 56.7691 17.2105 56.6888 17.2105H56.1621V14.8225L56.177 14.8105L56.3585 14.6395L56.9625 14.5945V14.0395H53.4305V14.5945L54.1208 14.6395L54.1327 14.6485L54.3202 14.8225V20.4445L54.3083 20.4565L54.1238 20.6785L53.4305 20.7205V21.2755H56.9625V20.7205L56.3555 20.6785L56.3436 20.6635L56.1621 20.4445V17.9365H56.4954C56.5757 17.9365 56.6679 17.9515 56.7632 17.9785C56.8643 18.0055 56.9625 18.0655 57.0607 18.1585C57.15 18.2395 57.2303 18.3445 57.2928 18.4675C57.3553 18.5875 57.4059 18.7045 57.4505 18.8125L58.2956 20.8915V21.2755H60.8755V20.7025L60.316 20.6575L60.3071 20.6485L60.0899 20.4595L59.4204 18.9865C59.3638 18.8515 59.2746 18.6895 59.1555 18.5035C59.0395 18.3145 58.8907 18.1435 58.7062 17.9755C58.5396 17.8345 58.3878 17.7265 58.2391 17.6605C58.0933 17.5945 57.9385 17.5465 57.7838 17.5195L57.7511 17.5135V17.4265L57.7749 17.4175ZM50.5531 14.5975L51.2345 14.6935L51.2434 14.7145L51.3356 14.9245L50.1662 17.9185L48.4553 14.8375L48.4701 14.8165L48.5892 14.6395L49.1992 14.5945V14.0395H45.7742V14.5975L46.4973 14.7025L49.2736 19.6315L49.2676 19.6525C49.223 19.7785 49.1605 19.9075 49.0801 20.0365C48.9968 20.1715 48.9076 20.2855 48.8034 20.3725C48.7171 20.4505 48.6189 20.5135 48.5029 20.5615C48.3868 20.6125 48.2708 20.6365 48.1577 20.6365H48.0357L48.0238 20.6275L47.8631 20.4865L47.6697 19.2085H46.7502V21.1585C47.0627 21.2755 47.3245 21.3475 47.5417 21.3805C47.7679 21.4105 47.9405 21.4255 48.0625 21.4255C48.6308 21.4255 49.101 21.2665 49.4848 20.9455C49.5324 20.9065 49.5949 20.8405 49.6693 20.7625C49.7437 20.6845 49.824 20.5825 49.9163 20.4565C50.0026 20.3305 50.0978 20.1775 50.193 20.0005C50.2912 19.8175 50.3924 19.5985 50.4995 19.3375L52.4217 14.6935L53.0704 14.5975V14.0395H50.5531V14.5975Z" fill="black"/>
</g>
<path fill-rule="evenodd" clip-rule="evenodd" d="M49.7508 6.83088L49.1438 6.78888L49.1348 6.77688L48.9504 6.55788V4.04988H49.2836C49.3669 4.04988 49.4562 4.06488 49.5514 4.08888C49.6556 4.11888 49.7538 4.17888 49.852 4.26888C49.9412 4.35588 50.0186 4.45488 50.0811 4.58088C50.1436 4.70088 50.1971 4.81488 50.2388 4.92588L51.0839 7.00188V7.38888H53.8393V6.83088L53.1043 6.76788L53.0954 6.76188L52.8782 6.57288L52.2086 5.09988C52.1521 4.96488 52.0658 4.80288 51.9468 4.61688C51.8307 4.42788 51.679 4.25388 51.4945 4.08888C51.3308 3.94788 51.1761 3.83988 51.0273 3.77088C50.8786 3.70488 50.7298 3.65688 50.5721 3.62988L50.5393 3.62388V3.54288L50.5661 3.53088C50.7238 3.46188 50.8637 3.35688 50.9827 3.21588C51.1017 3.07788 51.2207 2.85588 51.3427 2.54988L51.6909 1.66488C51.7266 1.58988 51.7534 1.51788 51.7742 1.45188C51.798 1.37988 51.8486 1.29288 51.92 1.19088L51.9468 1.15488L52.8544 1.93488C53.1043 1.89588 53.2977 1.78788 53.4406 1.60788C53.5923 1.42188 53.6637 1.20588 53.6667 0.950878C53.6667 0.803878 53.6399 0.680878 53.5953 0.581878C53.5447 0.479878 53.4882 0.392878 53.4286 0.326878C53.3543 0.251878 53.2471 0.176878 53.1132 0.107878C52.9853 0.0358779 52.8038 -0.00012207 52.5717 -0.00012207C52.3872 -0.00012207 52.2265 0.0268779 52.0866 0.0808779C51.9468 0.134878 51.8159 0.206878 51.6968 0.308878C51.5064 0.464878 51.3636 0.641878 51.2654 0.833878C51.1642 1.03188 51.0749 1.22688 50.9946 1.41288L50.5631 2.46288C50.5036 2.58588 50.4441 2.70888 50.3846 2.82588C50.3191 2.94588 50.2358 3.04788 50.1287 3.13188C50.0156 3.22188 49.8996 3.27888 49.7746 3.29688C49.6586 3.31488 49.5604 3.32688 49.477 3.32688H48.9504V0.935878L48.9623 0.920878L49.1467 0.749878L49.7508 0.704878V0.152878H46.2188V0.704878L46.9091 0.749878L46.921 0.761878L47.1085 0.935878V6.55788L47.0966 6.56988L46.9121 6.78888L46.2188 6.83088V7.38888H49.7508V6.83088Z" fill="black"/>
<path fill-rule="evenodd" clip-rule="evenodd" d="M57.5227 5.74403L57.5168 5.76203C57.4721 5.88803 57.4096 6.02003 57.3293 6.15203C57.246 6.28703 57.1537 6.39803 57.0526 6.48803C56.9663 6.56303 56.8681 6.62603 56.752 6.67703C56.639 6.72203 56.5229 6.74903 56.4069 6.74903H56.2849L56.2759 6.73703L56.1093 6.59903L55.9189 5.32103H54.9994V7.26803C55.3089 7.38503 55.5767 7.46003 55.7909 7.49003C56.02 7.52303 56.1896 7.54103 56.3116 7.54103C56.88 7.54103 57.3531 7.37903 57.734 7.05803C57.7816 7.01603 57.8441 6.95303 57.9214 6.87503C57.9929 6.80003 58.0762 6.69503 58.1654 6.56903C58.2517 6.44303 58.347 6.29303 58.4451 6.11003C58.5404 5.93003 58.6415 5.71103 58.7487 5.44703L60.6709 0.806029L61.3196 0.710029V0.155029H58.8052V0.710029L59.4836 0.806029L59.4955 0.827029L59.5848 1.04003L58.4154 4.03403L56.7074 0.950029L56.8383 0.749029L57.4513 0.707029V0.155029H54.0264V0.710029L54.7465 0.815029L57.5227 5.74403Z" fill="black"/>
<path fill-rule="evenodd" clip-rule="evenodd" d="M39.3584 5.16677C39.4477 5.40377 39.5667 5.63777 39.7184 5.86577C39.8642 6.09977 40.0458 6.31277 40.263 6.51377C40.4981 6.73577 40.7391 6.91577 40.9831 7.04777C41.2301 7.17977 41.477 7.28177 41.727 7.35377C41.9769 7.42577 42.2269 7.47677 42.4768 7.50077C42.7268 7.52777 42.9738 7.53977 43.2178 7.53977C43.5064 7.53977 43.8397 7.50977 44.2235 7.45877C44.5984 7.40477 45.0269 7.29677 45.503 7.13477V5.16677H44.5806L44.3158 6.56477L44.3068 6.57677L44.1253 6.74477L44.1104 6.74777C44.0509 6.75377 43.9676 6.76277 43.8605 6.77477C43.7504 6.78677 43.6462 6.79277 43.5451 6.79277C43.3249 6.79277 43.1196 6.76577 42.9381 6.71477C42.7565 6.66377 42.5899 6.59777 42.4382 6.51377C42.2864 6.43277 42.1555 6.34277 42.0454 6.24077C41.9353 6.14177 41.8401 6.03977 41.7597 5.93777C41.5455 5.66177 41.3907 5.34077 41.2866 4.96277C41.1854 4.59077 41.1348 4.18877 41.1348 3.75377C41.1348 3.23777 41.2062 2.78177 41.3521 2.37677C41.5008 1.97477 41.7002 1.63877 41.9591 1.38077C42.0037 1.33877 42.0692 1.27877 42.1555 1.21277C42.2447 1.13777 42.3548 1.07177 42.4858 1.00277C42.6197 0.936766 42.7714 0.879766 42.95 0.834766C43.1255 0.783766 43.3249 0.759766 43.5451 0.759766C43.6671 0.759766 43.7772 0.765766 43.8754 0.780766C43.9676 0.798766 44.048 0.810766 44.1313 0.837766L44.3247 1.01777L44.5806 2.34077H45.503V0.435766C45.146 0.294766 44.7829 0.192766 44.4169 0.117766C44.042 0.0487656 43.6582 0.00976562 43.2713 0.00976562C42.6911 0.00976562 42.212 0.0727656 41.8371 0.186766C41.4562 0.300766 41.1378 0.441766 40.8819 0.603766C40.5516 0.807766 40.2779 1.03877 40.0517 1.29377C39.8285 1.55477 39.647 1.82477 39.5072 2.10377C39.3703 2.38277 39.2691 2.66777 39.2037 2.95877C39.1382 3.24377 39.1055 3.51977 39.1055 3.78677C39.1055 4.00277 39.1263 4.22777 39.168 4.46177C39.2066 4.69577 39.2691 4.93277 39.3584 5.16677Z" fill="black"/>
<path fill-rule="evenodd" clip-rule="evenodd" d="M73.0371 7.53982C73.3228 7.53982 73.659 7.51282 74.0429 7.45882C74.4178 7.40482 74.8433 7.29682 75.3224 7.13482V5.16682H74.3999L74.1351 6.56482L74.1232 6.57382L73.9417 6.74482L73.9268 6.74782C73.8703 6.75682 73.787 6.76282 73.6798 6.77482C73.5697 6.78682 73.4626 6.79282 73.3614 6.79282C73.1412 6.79282 72.9389 6.76582 72.7544 6.71482C72.5729 6.66382 72.4063 6.59482 72.2575 6.51382C72.1057 6.43282 71.9748 6.34282 71.8647 6.24082C71.7546 6.14182 71.6594 6.04282 71.579 5.93782C71.3648 5.66482 71.2071 5.34082 71.1059 4.96282C71.0048 4.59082 70.9542 4.18582 70.9542 3.75382C70.9542 3.23782 71.0256 2.78182 71.1714 2.37682C71.3172 1.97482 71.5195 1.63882 71.7754 1.38082C71.8201 1.33882 71.8885 1.27882 71.9748 1.20982C72.0611 1.13782 72.1712 1.06882 72.3051 1.00282C72.439 0.936817 72.5937 0.879817 72.7663 0.831817C72.9449 0.783817 73.1412 0.759817 73.3614 0.759817C73.4864 0.759817 73.5935 0.768817 73.6917 0.780817C73.784 0.795817 73.8643 0.810817 73.9506 0.834817L74.144 1.01782L74.3999 2.34082H75.3224V0.435817C74.9623 0.294817 74.5993 0.192817 74.2333 0.120817C73.8584 0.0488174 73.4775 0.0128174 73.0936 0.0128174C72.5104 0.0128174 72.0313 0.0698174 71.6534 0.186817C71.2755 0.300817 70.9571 0.441817 70.7012 0.603817C70.371 0.807817 70.0972 1.03882 69.874 1.29682C69.6479 1.55482 69.4634 1.82482 69.3265 2.10382C69.1867 2.38282 69.0855 2.67082 69.02 2.95582C68.9575 3.24382 68.9248 3.52282 68.9248 3.78682C68.9248 3.99982 68.9456 4.22782 68.9843 4.46182C69.023 4.69582 69.0885 4.92982 69.1777 5.16682C69.264 5.40382 69.383 5.63782 69.5348 5.86582C69.6866 6.09682 69.8681 6.31282 70.0793 6.51382C70.3144 6.73582 70.5554 6.91582 70.8024 7.04782C71.0494 7.18282 71.2964 7.28482 71.5463 7.35382C71.7963 7.42882 72.0462 7.47682 72.2932 7.50082C72.5431 7.52482 72.7931 7.53982 73.0371 7.53982Z" fill="black"/>
<path fill-rule="evenodd" clip-rule="evenodd" d="M34.7922 0.707832L35.4171 0.749832L35.429 0.761832L35.6135 0.935832V1.27183L32.6587 5.09383V0.935832L32.6706 0.923832L32.8551 0.749832L33.48 0.707832V0.152832H29.9688V0.707832L30.6055 0.749832L30.6174 0.758832L30.8138 0.932832V6.55783L30.8049 6.56983L30.6085 6.79183L29.9688 6.83383V7.38583H33.48V6.83383L32.8521 6.78883L32.8402 6.77683L32.6587 6.55783V6.13783L35.6135 2.31583V6.55783L35.6046 6.56983L35.4201 6.79183L34.7922 6.83383V7.38583H38.3005V6.83383L37.6518 6.79183L37.6428 6.77683L37.4584 6.55783V0.935832L37.4703 0.923832L37.6548 0.749832L38.3005 0.707832V0.152832H34.7922V0.707832Z" fill="black"/>
<path fill-rule="evenodd" clip-rule="evenodd" d="M76.0928 2.26366H76.9289L77.1432 0.961663L77.1551 0.952663L77.3485 0.814663H78.4495V6.56266L78.2233 6.79066L77.5211 6.83266V7.38766H81.2227V6.83266L80.5235 6.79066L80.2943 6.56266V0.814663H81.3745L81.3834 0.823663L81.5947 0.958663L81.8178 2.26366H82.651V0.154663H76.0928V2.26366Z" fill="black"/>
<path fill-rule="evenodd" clip-rule="evenodd" d="M61.8369 5.16677C61.9262 5.40377 62.0452 5.63777 62.194 5.86577C62.3428 6.09977 62.5243 6.31277 62.7385 6.51377C62.9736 6.73577 63.2146 6.91577 63.4586 7.04777C63.7086 7.17977 63.9555 7.28177 64.2025 7.35377C64.4554 7.42577 64.7024 7.47677 64.9553 7.50077C65.2053 7.52777 65.4523 7.53977 65.6963 7.53977C65.9819 7.53977 66.3182 7.50977 66.702 7.45877C67.077 7.40477 67.5054 7.29677 67.9815 7.13477V5.16677H67.0591L66.7913 6.56477L66.7853 6.57677L66.6009 6.74477L66.586 6.74777C66.5294 6.75377 66.4461 6.76277 66.339 6.77477C66.2289 6.78677 66.1218 6.79277 66.0206 6.79277C65.8034 6.79277 65.5981 6.76577 65.4136 6.71477C65.2321 6.66377 65.0654 6.59777 64.9167 6.51377C64.7649 6.43277 64.634 6.34277 64.5239 6.24077C64.4138 6.14177 64.3156 6.03977 64.2382 5.93777C64.024 5.66177 63.8663 5.34077 63.7651 4.96277C63.6639 4.59077 63.6133 4.18877 63.6133 3.75377C63.6133 3.23777 63.6848 2.78177 63.8306 2.37677C63.9764 1.97477 64.1787 1.63877 64.4346 1.38077C64.4793 1.33877 64.5477 1.27877 64.634 1.21277C64.7233 1.13777 64.8333 1.07177 64.9643 1.00277C65.0982 0.936766 65.2499 0.879766 65.4285 0.834766C65.604 0.783766 65.8034 0.759766 66.0206 0.759766C66.1456 0.759766 66.2527 0.765766 66.3539 0.780766C66.4461 0.798766 66.5265 0.810766 66.6098 0.837766L66.8032 1.01777L67.0591 2.34077H67.9815V0.435766C67.6245 0.294766 67.2614 0.192766 66.8925 0.117766C66.5175 0.0487656 66.1367 0.00976562 65.7498 0.00976562C65.1696 0.00976562 64.6875 0.0727656 64.3126 0.186766C63.9347 0.300766 63.6163 0.441766 63.3604 0.603766C63.0301 0.807766 62.7564 1.03877 62.5302 1.29377C62.3071 1.55477 62.1255 1.82477 61.9857 2.10377C61.8458 2.38277 61.7447 2.66777 61.6792 2.95877C61.6167 3.24377 61.584 3.51977 61.584 3.78677C61.584 4.00277 61.6018 4.22777 61.6435 4.46177C61.6822 4.69577 61.7476 4.93277 61.8369 5.16677Z" fill="black"/>
<path fill-rule="evenodd" clip-rule="evenodd" d="M96.4844 5.09952C96.3832 5.54052 96.2136 5.91552 95.9786 6.22152C95.7881 6.45552 95.5828 6.62052 95.3686 6.70152C95.1543 6.78552 94.9639 6.82452 94.7913 6.82452H94.7853C94.586 6.82452 94.3807 6.77952 94.1694 6.68353C93.9522 6.59052 93.7498 6.41952 93.5594 6.17652C93.3749 5.93652 93.2202 5.62752 93.0982 5.24353C92.9732 4.85652 92.9107 4.37952 92.9107 3.80652C92.9107 3.32652 92.9613 2.87352 93.0654 2.45352C93.1666 2.03352 93.3243 1.67952 93.5356 1.39752C93.726 1.13952 93.9313 0.965525 94.1545 0.875525C94.3688 0.788525 94.5711 0.749525 94.7586 0.749525C94.8329 0.749525 94.9192 0.755525 95.0234 0.773525C95.1275 0.785525 95.2406 0.815525 95.3567 0.866525C95.4757 0.914525 95.5947 0.983525 95.7108 1.07352C95.8298 1.16352 95.9458 1.28652 96.0559 1.43952C96.2017 1.64952 96.3356 1.93752 96.4547 2.30352C96.5767 2.66952 96.6362 3.14352 96.6362 3.72252C96.6362 4.19652 96.5856 4.65552 96.4844 5.09952ZM98.371 2.12052C98.1389 1.59253 97.7759 1.14252 97.276 0.767525C96.8891 0.485525 96.4904 0.287525 96.0768 0.173525C95.6632 0.0595248 95.2436 0.00252476 94.8122 0.00252476C94.2171 -0.000475242 93.7023 0.0775248 93.2619 0.233525C92.8245 0.389525 92.4555 0.581525 92.155 0.809525C91.8693 1.02552 91.6432 1.26552 91.4706 1.52652C91.301 1.78752 91.1671 2.05152 91.0718 2.31252C90.9736 2.57352 90.9112 2.83152 90.8784 3.07752C90.8457 3.32652 90.8308 3.54852 90.8308 3.74353C90.8308 4.10353 90.8635 4.43353 90.9379 4.73653C91.0093 5.03652 91.1046 5.31553 91.2266 5.56753C91.3456 5.81953 91.4884 6.03853 91.6491 6.23653C91.8068 6.42852 91.9764 6.59953 92.155 6.74353C92.4823 7.00753 92.8632 7.21153 93.2946 7.35553C93.7261 7.49953 94.1962 7.57153 94.7021 7.57153C95.2615 7.57153 95.7703 7.49053 96.2256 7.32553C96.6838 7.15753 97.0826 6.93253 97.4248 6.65653C97.883 6.27553 98.2103 5.83153 98.4127 5.32453C98.615 4.81453 98.7191 4.29553 98.7191 3.76752C98.7191 3.19753 98.6031 2.64852 98.371 2.12052ZM87.8553 5.80452C87.8256 5.99952 87.7363 6.17652 87.5875 6.34152C87.4804 6.45552 87.3614 6.54252 87.2245 6.60852C87.0876 6.66852 86.9418 6.71652 86.7901 6.74352C86.6413 6.77052 86.4865 6.78252 86.3259 6.78252C86.1711 6.78252 86.0224 6.77352 85.8795 6.76152L85.8408 6.75552V3.98652H86.2277C86.2723 3.98652 86.3378 3.98952 86.4241 3.99252C86.5133 3.99552 86.6115 4.00752 86.7216 4.02552C86.8317 4.04052 86.9418 4.06752 87.0549 4.10352C87.1709 4.13652 87.2751 4.18152 87.3703 4.24152C87.5875 4.37952 87.7333 4.54752 87.8018 4.75452C87.8672 4.95252 87.9 5.15952 87.9 5.36952C87.9 5.47152 87.8851 5.61852 87.8553 5.80452ZM85.8408 0.773525H86.1622C86.311 0.773525 86.4746 0.785525 86.6561 0.815525C86.8436 0.845525 87.0102 0.920525 87.162 1.04052C87.3167 1.16652 87.4209 1.32552 87.4655 1.51152C87.5101 1.68552 87.531 1.84752 87.531 1.99752C87.531 2.17452 87.5101 2.34852 87.4655 2.51952C87.4209 2.68452 87.3495 2.82552 87.2513 2.93952C87.1441 3.07152 86.9805 3.17652 86.7603 3.25752C86.6056 3.31452 86.4181 3.34152 86.1979 3.34152C86.0997 3.34152 85.9926 3.33552 85.8795 3.32352L85.8408 3.32052V0.773525ZM89.23 3.99552C89.1199 3.91152 88.9949 3.83952 88.861 3.78852C88.7271 3.73152 88.5932 3.68952 88.4682 3.65952C88.3373 3.62652 88.2183 3.59952 88.1082 3.58752C87.9981 3.57253 87.9058 3.56352 87.8374 3.56352H87.7987V3.47052L87.8315 3.46152C88.0516 3.42552 88.2629 3.36252 88.4653 3.26652C88.6646 3.16752 88.8551 3.02052 89.0425 2.81052C89.1824 2.64852 89.2806 2.48952 89.3371 2.33352C89.3907 2.17752 89.4175 2.00652 89.4175 1.81152C89.4175 1.24152 89.2032 0.824525 88.7688 0.539525C88.5486 0.398525 88.2867 0.296525 87.9773 0.239525C87.6648 0.182525 87.3494 0.155525 87.028 0.155525H83.1865V0.707525L83.8441 0.749525L83.8531 0.761525L84.0405 0.935525V6.55753L84.0316 6.56952L83.8471 6.78852L83.1865 6.83052V7.38853H87.1143C87.2006 7.38853 87.3196 7.38552 87.4744 7.37652C87.6261 7.37052 87.7957 7.34952 87.9832 7.31052C88.1677 7.27752 88.3552 7.22353 88.5486 7.15753C88.739 7.08553 88.9205 6.98952 89.0901 6.86052C89.3163 6.69552 89.4948 6.49152 89.6257 6.24253C89.7537 5.99652 89.8192 5.68752 89.8192 5.32152C89.8192 4.93453 89.7567 4.64352 89.6317 4.44852C89.5037 4.25052 89.3698 4.09752 89.23 3.99552Z" fill="black"/>
</svg>
