<svg width="14" height="16" viewBox="0 0 14 16" fill="none" xmlns="http://www.w3.org/2000/svg">
<mask id="path-1-inside-1" fill="white">
<path d="M0.190564 15.3231L2.98671 12.429L3.48837 12.9419L0.69222 15.836L0.190564 15.3231Z"/>
</mask>
<path d="M0.190564 15.3231L2.98671 12.429L3.48837 12.9419L0.69222 15.836L0.190564 15.3231Z" fill="white"/>
<path d="M0.190564 15.3231L-1.24778 13.9334L-2.59871 15.3317L-1.23919 16.7216L0.190564 15.3231ZM2.98671 12.429L4.41647 11.0305L2.97787 9.55974L1.54836 11.0393L2.98671 12.429ZM3.48837 12.9419L4.92671 14.3315L6.27764 12.9333L4.91812 11.5434L3.48837 12.9419ZM0.69222 15.836L-0.737536 17.2345L0.701059 18.7052L2.13057 17.2256L0.69222 15.836ZM1.62891 16.7128L4.42505 13.8187L1.54836 11.0393L-1.24778 13.9334L1.62891 16.7128ZM1.55695 13.8275L2.05861 14.3404L4.91812 11.5434L4.41647 11.0305L1.55695 13.8275ZM2.05002 11.5522L-0.746125 14.4463L2.13057 17.2256L4.92671 14.3315L2.05002 11.5522ZM2.12198 14.4375L1.62032 13.9246L-1.23919 16.7216L-0.737536 17.2345L2.12198 14.4375Z" fill="#040304" mask="url(#path-1-inside-1)"/>
<path d="M6.92496 14.0909C10.4416 14.0909 13.2923 11.1604 13.2923 7.54545C13.2923 3.9305 10.4416 1 6.92496 1C3.40838 1 0.557617 3.9305 0.557617 7.54545C0.557617 11.1604 3.40838 14.0909 6.92496 14.0909Z" stroke="#040304"/>
</svg>
