<svg width="51" height="50" viewBox="0 0 51 50" fill="none" xmlns="http://www.w3.org/2000/svg">
<path fill-rule="evenodd" clip-rule="evenodd" d="M25.5 0C11.6929 0 0.5 11.1929 0.5 25C0.5 38.8071 11.6929 50 25.5 50C39.3071 50 50.5 38.8071 50.5 25C50.5 11.1929 39.3071 0 25.5 0ZM1.5 25C1.5 11.7452 12.2452 1 25.5 1C38.7548 1 49.5 11.7452 49.5 25C49.5 38.2548 38.7548 49 25.5 49C12.2452 49 1.5 38.2548 1.5 25ZM30.5985 32.7036L33.9026 17.6413C34.1948 16.322 33.4074 15.7958 32.5063 16.1099L13.0959 23.3505C11.7646 23.8531 11.7889 24.5677 12.8686 24.8976L17.8369 26.3975L29.3646 19.3768C29.9004 19.0313 30.3956 19.2276 29.9897 19.5732L20.662 27.7247L20.3048 32.68C20.8243 32.68 21.0516 32.4601 21.3195 32.201L23.7469 29.9393L28.7801 33.5282C29.6974 34.0308 30.355 33.7716 30.5985 32.7036Z" fill="black"/>
</svg>
