<svg width="51" height="50" viewBox="0 0 51 50" fill="none" xmlns="http://www.w3.org/2000/svg">
<path fill-rule="evenodd" clip-rule="evenodd" d="M25.5 0C11.6929 0 0.5 11.1929 0.5 25C0.5 38.8071 11.6929 50 25.5 50C39.3071 50 50.5 38.8071 50.5 25C50.5 11.1929 39.3071 0 25.5 0ZM1.5 25C1.5 11.7452 12.2452 1 25.5 1C38.7548 1 49.5 11.7452 49.5 25C49.5 38.2548 38.7548 49 25.5 49C12.2452 49 1.5 38.2548 1.5 25ZM30.3431 20.9583L29.7549 25.6406H26.2647V37.5H21.9902V25.6406H18.5V20.9583H21.9902V17.0921C21.9902 13.9952 24.0904 11.3655 27.1854 11.5053L30.5 11.6551V15.9668H27.8621C26.9835 15.9668 26.2647 16.7765 26.2647 17.7661V20.9583H30.3431Z" fill="#040304"/>
</svg>
