<svg width="51" height="51" viewBox="0 0 51 51" fill="none" xmlns="http://www.w3.org/2000/svg">
<path fill-rule="evenodd" clip-rule="evenodd" d="M25.5 0.5C11.6929 0.5 0.5 11.6929 0.5 25.5C0.5 39.3071 11.6929 50.5 25.5 50.5C39.3071 50.5 50.5 39.3071 50.5 25.5C50.5 11.6929 39.3071 0.5 25.5 0.5ZM1.5 25.5C1.5 12.2452 12.2452 1.5 25.5 1.5C38.7548 1.5 49.5 12.2452 49.5 25.5C49.5 38.7548 38.7548 49.5 25.5 49.5C12.2452 49.5 1.5 38.7548 1.5 25.5ZM35.1552 20C35.9493 20 36.1162 20.3727 35.9492 20.8802C35.6154 22.2755 32.4165 26.3856 32.4165 26.3856C32.1384 26.7915 32.0272 26.9945 32.4165 27.4511C32.5536 27.6262 32.8464 27.8878 33.1813 28.187C33.5256 28.4946 33.9144 28.8419 34.2246 29.1763C35.3525 30.3336 36.2024 31.3098 36.4393 31.9826C36.6555 32.6579 36.2805 33 35.5303 33H32.9047C32.2015 33 31.8474 32.6407 31.0823 31.8644C30.7579 31.5353 30.3597 31.1313 29.8297 30.6479C28.2718 29.2779 27.6043 29.1003 27.2148 29.1003C26.6863 29.1003 26.5282 29.2368 26.5282 29.9211V32.0684C26.5282 32.6579 26.3219 33 24.6528 33C21.8713 33 18.8144 31.4597 16.6447 28.6181C13.3901 24.4575 12.5 21.3115 12.5 20.6772C12.5 20.3219 12.65 20 13.4002 20H16.0258C16.6968 20 16.9493 20.2679 17.201 20.9309C18.4851 24.3427 20.6502 27.3243 21.5403 27.3243C21.8741 27.3243 22.0272 27.1842 22.0272 26.4109V22.8845C21.967 21.8807 21.5826 21.4466 21.2978 21.125C21.1219 20.9264 20.9841 20.7707 20.9841 20.5503C20.9841 20.2826 21.235 20 21.6521 20H25.778C26.3345 20 26.5282 20.2713 26.5282 20.8802V25.6244C26.5282 26.1319 26.7698 26.3094 26.9367 26.3094C27.2705 26.3094 27.5488 26.1319 28.1606 25.5736C30.0522 23.6455 31.3873 20.6772 31.3873 20.6772C31.5542 20.3219 31.8621 20 32.5296 20H35.1552Z" fill="#040304"/>
</svg>
