<svg width="73" height="24" viewBox="0 0 73 24" fill="none" xmlns="http://www.w3.org/2000/svg">
<path d="M28.57 1.82H27.55L26.01 7.23L24.2 1.82H23.2L25.58 9H26.52L28.08 3.34L29.68 9H30.62L33 1.82H31.94L30.16 7.23L28.57 1.82ZM36.2553 3.89C35.5353 3.89 35.0653 4.19 34.9253 4.56V1.72H34.0153V9H34.9253V5.79C35.0353 5.25 35.6253 4.86 36.2553 4.86C36.9653 4.86 37.5253 5.34 37.5253 6.2V9H38.4353V6.18C38.4353 4.58 37.3153 3.89 36.2553 3.89ZM43.0019 7.61C42.8419 7.93 42.2819 8.15 41.7519 8.15C40.9719 8.15 40.5519 7.88 40.5519 7.48C40.5519 7.05 41.0019 6.81 41.7519 6.81C42.2919 6.81 42.8419 6.95 43.0019 7.23V7.61ZM40.1719 5.55C40.4719 5.14 41.0319 4.86 41.6619 4.86C42.3819 4.86 43.0019 5.22 43.0019 6.05V6.29C42.6919 6 42.0919 5.88 41.6319 5.88C40.5219 5.88 39.6419 6.46 39.6419 7.5C39.6419 8.52 40.4219 9.12 41.6019 9.12C42.1519 9.12 42.7819 8.9 43.0319 8.56V9H43.9119V5.85C43.9119 4.62 43.0919 3.89 41.7719 3.89C40.9719 3.89 40.2819 4.24 39.9119 4.76L40.1719 5.55ZM48.3609 7.77C48.1809 7.98 47.9209 8.15 47.5509 8.15C47.0209 8.15 46.7509 7.9 46.7509 7.27V4.98H48.5009V4.01H46.7509V2.75H46.4709L44.9409 4.7V4.98H45.8409V7.43C45.8409 8.57 46.3409 9.12 47.3409 9.12C47.9409 9.12 48.3709 8.84 48.5509 8.49L48.3609 7.77ZM51.1752 6.92C51.5952 7.14 51.8852 7.36 51.8852 7.64C51.8852 8.02 51.5152 8.15 51.1452 8.15C50.4952 8.15 50.0452 7.9 49.6752 7.47L49.4552 8.22C49.6852 8.73 50.3152 9.12 51.0552 9.12C52.1152 9.12 52.7952 8.49 52.7952 7.63C52.7952 6.93 52.3952 6.55 51.6252 6.14L51.0652 5.84C50.7352 5.66 50.5052 5.54 50.5052 5.26C50.5052 4.96 50.7952 4.86 51.1252 4.86C51.5852 4.86 52.0452 5.08 52.4052 5.42L52.5552 4.61C52.3752 4.28 51.7852 3.89 51.1252 3.89C50.1452 3.89 49.5952 4.46 49.5952 5.25C49.5952 5.83 49.9652 6.28 50.6452 6.64L51.1752 6.92ZM57.1734 1.82H56.1634L53.3834 9H54.4134L55.0534 7.35H58.2934L58.9434 9H59.9434L57.1734 1.82ZM56.6634 3.18L57.9034 6.34H55.4434L56.6634 3.18ZM65.8508 6.51C65.8508 4.96 64.6608 3.89 63.2708 3.89C62.5108 3.89 61.9108 4.17 61.7508 4.54V4.01H60.8708V11.13H61.7808V8.46C61.9408 8.83 62.5308 9.12 63.2908 9.12C64.6508 9.12 65.8508 8.05 65.8508 6.51ZM64.9408 6.49C64.9408 7.5 64.2708 8.15 63.2608 8.15C62.5708 8.15 61.9508 7.8 61.7808 7.32V5.69C61.9508 5.21 62.5708 4.86 63.2608 4.86C64.2708 4.86 64.9408 5.5 64.9408 6.49ZM72.1301 6.51C72.1301 4.96 70.9401 3.89 69.5501 3.89C68.7901 3.89 68.1901 4.17 68.0301 4.54V4.01H67.1501V11.13H68.0601V8.46C68.2201 8.83 68.8101 9.12 69.5701 9.12C70.9301 9.12 72.1301 8.05 72.1301 6.51ZM71.2201 6.49C71.2201 7.5 70.5501 8.15 69.5401 8.15C68.8501 8.15 68.2301 7.8 68.0601 7.32V5.69C68.2301 5.21 68.8501 4.86 69.5401 4.86C70.5501 4.86 71.2201 5.5 71.2201 6.49Z" fill="#040304"/>
<mask id="mask0" mask-type="alpha" maskUnits="userSpaceOnUse" x="0" y="0" width="22" height="22">
<path fill-rule="evenodd" clip-rule="evenodd" d="M0 0.000976562H21.729V21.901H0V0.000976562Z" fill="white"/>
</mask>
<g mask="url(#mask0)">
<path fill-rule="evenodd" clip-rule="evenodd" d="M16.0651 13.0915C15.7981 12.9445 14.4841 12.2365 14.2381 12.1375C13.9921 12.0355 13.8121 11.9845 13.6201 12.2515C13.4281 12.5155 12.8821 13.1095 12.7171 13.2835C12.5521 13.4605 12.3901 13.4785 12.1261 13.3315C11.8561 13.1845 10.9921 12.8635 9.98411 11.9005C9.20111 11.1475 8.69111 10.2355 8.54111 9.95651C8.39111 9.67451 8.54111 9.53351 8.68211 9.40451C8.80811 9.28451 8.96411 9.09551 9.10811 8.94251C9.24911 8.78651 9.30011 8.67551 9.39611 8.49851C9.49511 8.31851 9.45611 8.15951 9.39311 8.02151C9.32711 7.88351 8.83511 6.52451 8.62811 5.96951C8.42111 5.41451 8.19011 5.49851 8.03411 5.48951C7.87511 5.48651 7.69211 5.45351 7.51211 5.44751C7.32911 5.44151 7.03211 5.49851 6.77111 5.76251C6.51311 6.02651 5.78411 6.65651 5.73611 7.99751C5.68511 9.33551 6.61211 10.6675 6.74111 10.8565C6.87011 11.0395 8.51111 13.9465 11.2381 15.1405C13.9651 16.3345 13.9801 15.9715 14.4811 15.9445C14.9821 15.9175 16.1161 15.3445 16.3681 14.7175C16.6171 14.0905 16.6381 13.5445 16.5751 13.4275C16.5091 13.3135 16.3321 13.2385 16.0651 13.0915ZM11.0641 19.5475C9.25805 19.5475 7.57805 19.0105 6.17705 18.0805L2.76305 19.1725L3.87305 15.8755C2.81105 14.4085 2.18405 12.6115 2.18405 10.6675C2.18405 5.77151 6.16505 1.78451 11.0641 1.78451C15.9601 1.78451 19.9441 5.77151 19.9441 10.6675C19.9441 15.5635 15.9601 19.5475 11.0641 19.5475ZM11.064 -0.000488281C5.172 -0.000488281 0.393 4.77851 0.393 10.6675C0.393 12.6835 0.954 14.5675 1.926 16.1755L0 21.9025L5.907 20.0095C7.434 20.8555 9.192 21.3355 11.064 21.3355C16.956 21.3355 21.732 16.5595 21.732 10.6675C21.732 4.77851 16.956 -0.000488281 11.064 -0.000488281Z" fill="#040304"/>
</g>
</svg>
