<svg width="171" height="32" viewBox="0 0 171 32" fill="none" xmlns="http://www.w3.org/2000/svg">
<mask id="mask0" mask-type="alpha" maskUnits="userSpaceOnUse" x="158" y="10" width="5" height="7">
<path fill-rule="evenodd" clip-rule="evenodd" d="M158.095 10.6687H162.825V16.002H158.095V10.6687Z" fill="white"/>
</mask>
<g mask="url(#mask0)">
<path fill-rule="evenodd" clip-rule="evenodd" d="M158.096 13.026C158.096 11.73 159.164 10.6687 160.458 10.6687C161.762 10.6687 162.82 11.7247 162.825 13.026C162.825 14.3167 161.756 15.378 160.458 15.3834C159.164 15.3834 158.096 14.3167 158.096 13.026ZM162.478 13.026C162.478 11.9114 161.575 11.01 160.458 11.01C159.352 11.01 158.438 11.9167 158.438 13.026C158.438 14.13 159.352 15.042 160.458 15.042C161.569 15.042 162.478 14.13 162.478 13.026Z" fill="black"/>
</g>
<mask id="mask1" mask-type="alpha" maskUnits="userSpaceOnUse" x="157" y="10" width="6" height="6">
<path fill-rule="evenodd" clip-rule="evenodd" d="M157.804 10.6676H162.825V15.7487H157.804V10.6676Z" fill="white"/>
</mask>
<g mask="url(#mask1)">
<path fill-rule="evenodd" clip-rule="evenodd" d="M160.389 11.2916C160.453 11.8676 160.918 11.5423 161.121 11.3823C161.191 11.3236 161.281 11.2116 161.33 11.185C161.362 11.169 161.41 11.1796 161.431 11.217C161.447 11.2756 161.458 11.3503 161.42 11.457C161.378 11.585 161.303 11.7023 161.265 11.7716C161.159 11.9423 161.052 12.0916 160.923 12.257C160.72 12.513 160.459 12.7156 160.245 12.961C159.919 13.345 159.732 13.937 159.833 14.433C159.86 14.561 159.919 14.7263 160.042 14.7903C160.763 15.1903 161.297 13.4676 161.052 12.961C161.02 12.897 160.95 12.7743 160.859 12.7956C160.405 12.881 160.191 14.353 160.48 14.465C160.464 14.6356 160.186 14.7423 160.106 14.4223C160.079 14.305 160.074 14.1876 160.079 14.0703C160.09 13.585 160.485 12.8383 160.939 12.609C161.143 12.5076 161.431 12.513 161.543 12.7423C161.949 13.5796 160.859 15.121 159.913 14.977C159.454 14.913 159.288 14.4756 159.326 14.0596C159.352 13.7183 159.497 13.393 159.694 13.1156C160.095 12.5556 160.72 12.3903 161.025 11.953C161.025 11.953 161.036 11.937 161.041 11.9263C161.046 11.9103 161.03 11.8943 161.009 11.9103C160.972 11.9423 160.801 12.033 160.678 12.049C160.432 12.0756 160.298 11.7396 160.255 11.553C160.245 11.5156 160.245 11.4783 160.202 11.5316C160.084 11.6863 159.994 12.561 159.871 12.609L159.39 12.7956C159.39 12.7956 159.374 12.8063 159.363 12.7796C159.31 12.577 159.801 11.873 159.94 11.633C159.956 11.6116 160.068 11.3876 160.09 11.3716C160.127 11.3396 160.346 11.2863 160.389 11.2916Z" fill="black"/>
</g>
<path fill-rule="evenodd" clip-rule="evenodd" d="M55.0168 27.8334H52.6656L50.0952 19.7054L50.4907 22.8894V27.8334H46.205V15.5934H51.7037L53.8412 22.3561L55.9787 15.5934H61.4774V27.8334H57.1864V22.8894L57.5818 19.7054L55.0168 27.8334ZM38.9536 27.8334H36.6023L34.032 19.7054L34.4274 22.8894V27.8334H30.1417V15.5934H35.6458L37.778 22.3561L39.9155 15.5934H45.4142V27.8334H41.1231V22.8894L41.5239 19.7054L38.9536 27.8334ZM156.131 23.9508C156.131 23.1828 155.704 22.8574 154.972 22.7721C154.822 22.7721 154.528 22.7614 154.095 22.7401C153.657 22.7241 153.075 22.7134 152.866 22.7134V25.0601L154.079 25.0868C154.411 25.0921 154.683 25.0814 154.892 25.0601C155.64 25.0121 156.131 24.8094 156.131 23.9508ZM160.951 23.9401C160.951 25.0121 160.444 25.9454 159.626 26.6174C158.547 27.5028 157.056 27.8334 155.682 27.8334H148.196V19.2521H145.401V15.6681H152.866V19.9401H155.42C156.842 19.9401 158.418 20.2121 159.546 21.1454C160.39 21.8441 160.951 22.8254 160.951 23.9401ZM145.246 19.2521H141.078V27.8334H136.226V19.2521H132.031V15.6681H145.246V19.2521ZM131.807 27.8334H126.97V23.2788H123.385V27.8334H118.597L118.591 15.8494L118.597 15.6681H123.385V19.7374H126.917V15.6681H131.807L131.801 27.6148L131.807 27.8334ZM118.18 27.8334H113.167L112.98 26.5428C112.612 27.0174 111.794 27.4068 110.971 27.7214C110.57 27.8761 110.154 27.9988 109.731 28.0734C109.309 28.1534 108.86 28.1854 108.39 28.1854C107.546 28.1854 106.776 28.0414 106.071 27.7428C105.371 27.4494 104.842 26.9854 104.473 26.3614C104.147 25.6788 103.987 24.9801 103.987 24.2708C103.987 23.3748 104.404 22.6334 104.981 21.9721C105.307 21.5988 105.627 21.3854 106.205 21.1614C106.477 21.0548 106.75 20.9641 107.017 20.8894C107.279 20.8148 107.53 20.7401 107.77 20.7081L109.822 20.3988C110.693 20.2654 111.538 20.1588 111.906 20.0308C112.136 19.9561 112.409 19.7108 112.542 19.5508C112.676 19.3961 112.654 19.2361 112.654 19.0654C112.654 18.8361 112.542 18.6441 112.318 18.4894C112.093 18.3348 111.773 18.2548 111.356 18.2548C110.859 18.2548 110.239 18.3294 109.94 18.4788C109.641 18.6228 109.443 18.9214 109.352 19.3641H104.708C104.863 18.5641 104.837 18.1001 105.061 17.6094C105.291 17.1241 105.649 16.7028 106.13 16.3614C106.621 16.0094 107.289 15.7428 108.15 15.5614C108.561 15.4814 109.053 15.4174 109.614 15.3748C110.18 15.3268 110.8 15.3001 111.495 15.3001C113.183 15.3001 114.45 15.5028 115.289 15.9028C116.133 16.3028 116.684 16.6228 116.935 17.2254C117.191 17.8174 117.362 18.5961 117.442 19.5454V25.9828C117.442 26.6441 117.694 27.1348 118.18 27.4601V27.8334ZM112.735 23.0494C112.735 22.8201 112.713 22.6334 112.671 22.4894C112.334 22.6761 111.81 22.8361 111.099 22.9801C110.554 23.0761 109.977 23.1988 109.491 23.4654C108.802 23.8014 108.839 24.7774 109.443 25.1721C110.138 25.5881 111.308 25.5508 111.896 24.9694C112.451 24.4361 112.735 23.7961 112.735 23.0494ZM100.385 27.6948C98.483 28.3614 95.8967 28.4574 93.9996 27.6734C92.808 27.1774 91.7553 26.3454 91.0873 25.2308C90.43 24.1641 90.088 22.9321 90.088 21.6841C90.088 20.8468 90.2697 20.0254 90.5636 19.2521C91.2476 17.5028 92.4286 16.4948 94.1386 15.8014C96.0944 15.0068 99.0014 15.0334 100.861 16.0414C102.63 17.0068 103.554 18.3294 103.8 20.2761H98.7876C98.6968 19.6788 98.5311 19.3054 98.28 18.9908C97.5799 18.0948 95.9875 18.5321 95.4852 19.4174C94.8386 20.5481 94.7317 22.2121 95.1378 23.4548C95.4104 24.2708 96.2974 24.9588 97.1578 24.9588C98.3815 24.9588 98.638 24.1428 98.9533 23.1134H103.8C103.747 25.1614 102.523 26.9481 100.385 27.6948ZM85.0593 21.4441C85.0593 20.9268 84.8883 20.3614 84.5409 19.7534C84.1936 19.1454 83.6913 18.8414 83.034 18.8414C82.3821 18.8414 81.8798 19.1294 81.5271 19.7001C81.1797 20.2654 81.0034 20.8468 81.0034 21.4441C81.0034 22.1694 81.137 22.8521 81.4095 23.4868C81.6874 24.1161 82.2271 24.4308 83.034 24.4308C83.8249 24.4308 84.3539 24.1054 84.6371 23.4494C84.8936 22.8201 85.0593 22.1268 85.0593 21.4441ZM89.0513 25.4174C88.1482 27.1348 86.4756 28.2068 84.4664 28.2068C83.0236 28.2068 82.0724 27.7374 81.0945 26.7401V31.9934H76.1996V15.6574H80.5334V17.4814C81.4739 15.6094 83.8038 14.9268 85.6848 15.4014C87.7314 15.9134 89.1048 17.6308 89.5964 19.5561C90.0559 21.3534 89.8956 23.8121 89.0513 25.4174ZM75.879 22.7508H66.6984C66.6984 23.1294 66.7626 23.4601 66.8962 23.7481C67.2862 24.6228 68.0023 25.2201 69.0283 25.2201C69.7764 25.2201 70.6421 24.9161 70.8078 24.1054H75.5049C75.3286 25.2628 74.5912 26.2761 73.64 26.9481C72.6781 27.6254 71.4971 27.9988 70.3375 28.1321C68.8413 28.3134 67.1152 28.2654 65.7312 27.6894C64.1281 27.0228 62.9204 25.7854 62.2685 24.1961C61.67 22.6441 61.6593 20.9214 62.2471 19.3588C62.8456 17.7321 64.0907 16.4841 65.7045 15.8174C67.6657 15.0121 70.407 15.0654 72.304 16.0094C73.9873 16.8414 75.1362 18.2654 75.6118 20.0628C75.8469 20.9641 75.9378 21.8281 75.879 22.7508ZM71.1764 20.3881C71.0054 19.5828 70.7222 19.0334 70.3321 18.7241C69.9366 18.4094 69.4397 18.2548 68.8305 18.2548C68.248 18.2548 67.7777 18.4041 67.4357 18.7081C67.0884 19.0121 66.8319 19.5668 66.6502 20.3881H71.1764ZM28.5815 25.3908C27.2829 27.3108 25.0546 28.2121 22.7514 28.2121C20.3788 28.2121 18.0917 27.3214 16.7664 25.3214C15.5481 23.4921 15.3931 20.5001 16.4191 18.5428C17.21 17.0388 18.6528 15.9454 20.3093 15.5028C22.1369 15.0014 24.1087 15.1081 25.8615 15.8334C27.502 16.5054 28.7204 17.8868 29.2494 19.5294C29.8266 21.3214 29.6235 23.8494 28.5815 25.3908ZM24.7659 21.6148C24.7659 20.8468 24.5895 20.1534 24.2261 19.5348C23.8628 18.9214 23.307 18.6121 22.5482 18.6121C21.8695 18.6121 21.3565 18.9214 21.0092 19.5401C20.6672 20.1641 20.4962 20.8521 20.4962 21.6148C20.4962 22.4254 20.6779 23.1988 21.0466 23.9188C21.41 24.6388 21.9764 25.0014 22.7299 25.0014C23.462 25.0014 23.9803 24.6494 24.2956 23.9454C24.6109 23.2468 24.7659 22.4681 24.7659 21.6148ZM17.4075 27.8334H10.8294L6.80552 21.1721L5.4963 22.5268V27.8334H0.00292969V11.0654H5.4963V16.4788L10.2095 11.0654H16.6594L10.6103 17.3214L17.4075 27.8334Z" fill="black"/>
</svg>
