<svg width="129" height="58" viewBox="0 0 129 58" fill="none" xmlns="http://www.w3.org/2000/svg">
<path fill-rule="evenodd" clip-rule="evenodd" d="M28.1686 57.4341C43.7128 57.4341 56.3373 44.5916 56.3373 28.7234C56.3373 12.8544 43.7128 0 28.1686 0C12.6005 0 0 12.8544 0 28.7234C0 44.5916 12.6005 57.4341 28.1686 57.4341Z" fill="black"/>
<path fill-rule="evenodd" clip-rule="evenodd" d="M27.0352 16.118V41.3161H34.8867V39.0504H29.2981V16.118H27.0352Z" fill="white"/>
<path fill-rule="evenodd" clip-rule="evenodd" d="M19.1735 22.9933C21.0414 22.9933 22.5472 21.4436 22.5472 19.5512C22.5472 17.6573 21.0414 16.1017 19.1735 16.1017C17.3055 16.1017 15.7998 17.6573 15.7998 19.5512C15.7998 21.4451 17.3055 22.9933 19.1735 22.9933Z" fill="white"/>
<path fill-rule="evenodd" clip-rule="evenodd" d="M29.2971 4.68764C29.0027 4.67276 28.4429 4.65417 28.1755 4.65417C15.1734 4.65417 4.5918 15.4541 4.5918 28.7115C4.5918 35.151 7.04425 41.1867 11.4864 45.7256C15.9467 50.2541 21.8654 52.7563 28.1755 52.7563C34.4615 52.7563 40.3787 50.2541 44.8311 45.7256C49.2841 41.1867 51.7482 35.151 51.7482 28.7115V27.6415H50.7942H34.9083V29.8559H49.502C49.502 29.9043 49.502 30.1392 49.4918 30.2002C48.7499 41.534 39.4721 50.5106 28.1755 50.5106C22.4572 50.5106 17.0953 48.2419 13.0599 44.1217C9.01132 40.0186 6.78042 34.5524 6.78042 28.7108C6.78042 22.9026 9.01132 17.4082 13.0599 13.2925C17.0953 9.18041 22.4572 6.91171 28.1755 6.91171C28.4218 6.91171 29.0209 6.91171 29.2971 6.92659V4.68764Z" fill="white"/>
<path fill-rule="evenodd" clip-rule="evenodd" d="M120.57 32.8072H113.676V25.8345H128.368V43.9707C125.346 46.1293 119.783 47.6091 114.1 47.6091C101.703 47.6091 96.0806 40.8238 96.0806 28.3018C96.0806 15.7188 102.307 9.11865 114.16 9.11865C119.419 9.11865 125.043 10.5374 128.248 15.222L122.985 20.1587C120.993 17.5673 118.575 16.2095 114.341 16.2095C106.723 16.2095 104.306 20.7179 104.306 28.3642C104.306 36.3824 106.844 40.3301 114.462 40.3301C116.82 40.3301 119.299 39.8378 120.57 39.3441V32.8072ZM69.0576 9.66817H77.5221V39.7769H95.0559V47.0544H69.0576V9.66817Z" fill="black"/>
</svg>
