<svg width="60" height="52" viewBox="0 0 60 52" fill="none" xmlns="http://www.w3.org/2000/svg">
<path fill-rule="evenodd" clip-rule="evenodd" d="M5.8463 22.8981C7.36759 24.0198 7.38888 26.4471 7.86694 26.4192C8.34888 26.3914 8.36436 25.4739 8.13984 24.6865C7.91339 23.9009 7.37533 23.2268 7.62694 22.8108C7.87468 22.3948 8.26952 22.4449 8.69726 22.4412C9.12307 22.4394 12.756 22.4412 14.1573 22.4654C15.5605 22.4895 17.3895 22.3057 18.1463 22.8071C18.9089 23.3067 19.2205 24.2872 19.2882 24.9038C19.4315 26.1927 19.4624 27.9792 19.5031 28.4807C19.5398 28.9821 20.074 38.5761 20.0469 38.8937C20.0237 39.2131 20.074 39.3171 20.0005 39.4991C19.9289 39.6811 19.716 40.0228 19.2766 40.0915C18.8373 40.1602 6.40372 40.0915 6.26243 40.0915C6.12114 40.0915 5.81146 39.8278 5.88307 39.4638C5.95468 39.0998 7.60952 34.5758 7.66178 34.4737C7.71791 34.3715 7.81855 34.2527 8.02565 34.2527C8.23275 34.2527 15.0302 34.2137 15.6592 34.2192C16.2902 34.2248 16.4527 33.9629 16.5689 33.7252C16.745 33.3594 16.6986 31.5635 16.5302 30.8039C16.2224 29.4259 14.9527 28.5512 14.5386 28.5624C14.1224 28.5735 7.75468 28.4862 7.64823 28.5884C7.54178 28.6905 7.43533 28.8335 7.29404 29.4724C7.15275 30.1112 6.37081 34.2805 5.82114 35.7625C5.27726 37.2427 5.06436 37.7794 4.81275 38.3012C4.56501 38.8268 4.12372 39.8278 3.80243 40.0117C3.48307 40.1937 2.96243 40.1249 2.89081 39.8984C2.8192 39.6699 2.74565 39.0422 3.00694 37.4247C3.27017 35.8071 4.38501 30.3731 4.19533 29.4389C4.00565 28.5048 3.48307 28.5159 3.24501 28.5159C3.00694 28.5159 1.88049 28.5271 1.6792 28.4249C1.47597 28.3228 0.94178 28.1761 1.01339 27.4667C1.08501 26.7609 1.58243 25.6448 1.60759 24.8704C1.63081 24.0959 1.53404 22.5694 1.71404 22.2611C1.8921 21.9547 2.1263 21.8024 2.56759 21.8024C3.00501 21.8024 4.99275 22.2611 5.8463 22.8981Z" fill="black"/>
<path fill-rule="evenodd" clip-rule="evenodd" d="M30.2263 28.3235C30.2263 27.5955 30.1798 26.3419 29.6805 25.3855C29.1811 24.4272 28.2424 24.2582 27.6598 24.2693C27.0792 24.2805 19.6121 24.2452 19.254 24.2452C18.8979 24.2452 18.7334 24.1078 18.4953 24.4736C18.2553 24.8376 18.9463 25.9556 19.0624 26.4552C19.1824 26.9566 19.2385 27.7478 18.834 27.7812C18.4314 27.8183 18.3501 27.2761 18.2805 26.6595C18.2108 26.0466 17.9011 25.0642 17.1405 24.5646C16.3798 24.0632 14.5527 24.2452 13.1514 24.2229C11.7501 24.1988 8.1153 24.1969 7.68756 24.1988C7.26175 24.2025 6.86885 24.1505 6.61723 24.5683C6.36949 24.9825 6.90368 25.6566 7.13014 26.4441C7.35852 27.2315 7.3411 28.1489 6.8611 28.1768C6.37917 28.2046 6.71788 25.8591 4.98175 24.6556C4.12627 24.0186 1.99917 23.5618 1.55788 23.5618C1.12046 23.5618 0.88433 23.7122 0.70433 24.0186C0.528201 24.3269 0.621104 25.8516 0.597878 26.6261C0.574652 27.4023 0.0772331 28.5185 0.00755567 29.2242C-0.0640572 29.9318 0.468201 30.0785 0.669491 30.1806C0.872717 30.2846 1.99917 30.2735 2.23723 30.2735C2.4753 30.2735 2.99981 30.2605 3.18756 31.1965C3.37723 32.1306 2.26239 37.5646 1.99917 39.1822C1.73788 40.7998 1.81143 41.4275 1.8811 41.6541C1.95272 41.8825 2.4753 41.9512 2.79659 41.7673C3.11594 41.5872 3.5553 40.5843 3.80691 40.0606C4.05465 39.5351 4.26756 39.0002 4.8153 37.5201C5.35917 36.0381 6.14497 31.8688 6.2882 31.2299C6.42949 30.5929 6.53401 30.4481 6.64046 30.3459C6.74691 30.2438 13.1147 30.3311 13.5288 30.3199C13.9469 30.3088 15.2127 31.1835 15.5224 32.5615C15.6927 33.3211 15.7392 35.1151 15.5611 35.4828C15.4469 35.7205 15.2805 35.9823 14.6534 35.9768C14.0224 35.9712 7.22497 36.0102 7.01788 36.0102C6.80885 36.0102 6.71014 36.1291 6.65594 36.2312C6.60175 36.3333 4.94691 40.8573 4.87336 41.2213C4.80368 41.5872 5.11143 41.8491 5.25659 41.8491C5.39788 41.8491 17.8295 41.9178 18.2669 41.8491C18.7101 41.7803 18.9211 41.4386 18.9908 41.2566C19.0624 41.0746 19.0179 40.9725 19.0411 40.6512C19.0624 40.3318 18.4953 30.2382 18.4953 30.2382C18.4953 30.2382 25.4069 30.2846 25.6895 30.3533C25.9759 30.4202 25.9972 30.4889 26.4017 30.8306C26.8063 31.1723 27.5185 32.3813 27.8495 35.0928C28.1824 37.8023 28.1243 40.2408 28.0895 40.7645C28.0527 41.2901 27.0966 41.8769 27.0966 41.8769C27.9017 41.8695 30.0637 41.9865 30.4217 41.7153C30.7256 41.4869 30.8417 41.1991 30.8417 40.8332C30.8417 40.4692 30.2263 29.0533 30.2263 28.3235Z" fill="black"/>
<path fill-rule="evenodd" clip-rule="evenodd" d="M1.55882 23.5609C1.11946 23.5609 0.883332 23.7113 0.705267 24.0178C0.529138 24.3261 0.622041 25.8526 0.598816 26.6271C0.573654 27.4015 0.076235 28.5176 0.00655757 29.2252C-0.0650553 29.9328 0.469138 30.0795 0.670429 30.1816C0.83688 30.2652 1.63236 30.2726 2.04075 30.2726H2.23817H2.25559C2.49946 30.2726 3.00269 30.2838 3.18849 31.1956C3.37624 32.1316 2.2614 37.5638 2.00011 39.1813C1.73882 40.8008 1.81236 41.4285 1.88204 41.6551C1.92462 41.7925 2.13559 41.8723 2.36591 41.8723C2.51301 41.8723 2.66978 41.8389 2.79753 41.7683C3.11688 41.5863 3.5543 40.5853 3.80591 40.0616C4.05365 39.5361 4.26656 38.9993 4.81623 37.5192C5.36011 36.0372 6.14398 31.8679 6.2872 31.2291C6.43043 30.5939 6.53301 30.4472 6.6414 30.3451C6.68011 30.3061 7.62462 30.2949 8.8014 30.2949C10.5356 30.2949 12.7769 30.3209 13.3885 30.3209C13.4562 30.3209 13.5046 30.3209 13.5298 30.3191H13.5356C13.9614 30.3191 15.2156 31.1919 15.5233 32.5606C15.6937 33.3202 15.7382 35.1161 15.5601 35.4819C15.4478 35.7178 15.2853 35.9759 14.6717 35.9759H14.6543C14.6117 35.9759 14.544 35.9759 14.4549 35.9759C13.164 35.9759 7.21236 36.0093 7.01688 36.0093C6.80978 36.0093 6.70914 36.1282 6.65688 36.2303C6.60075 36.3325 4.94785 40.8565 4.8743 41.2205C4.80462 41.5863 5.11236 41.8482 5.25559 41.8482C5.35043 41.8482 10.9072 41.8798 14.7317 41.8798C16.644 41.8798 18.1227 41.8705 18.2678 41.8482C18.7091 41.7795 18.922 41.4378 18.9917 41.2558C19.0633 41.0738 19.0188 40.9716 19.0401 40.6503C19.0633 40.3328 18.4962 30.2373 18.4962 30.2373C18.4962 30.2373 25.4059 30.2838 25.6904 30.3525C25.9749 30.4193 25.9982 30.4881 26.4027 30.8316C26.8072 31.1715 27.5175 32.3805 27.8504 35.0919C28.1833 37.8015 28.1253 40.2418 28.0885 40.7655C28.0517 41.2892 27.0956 41.8761 27.0956 41.8761H27.1749C27.5524 41.8761 28.1524 41.8965 28.7388 41.8965C29.4956 41.8965 30.2272 41.8631 30.4207 41.7163C30.7246 41.4879 30.8427 41.1982 30.8427 40.8342C30.8427 40.4683 30.2272 29.0543 30.2272 28.3226C30.2272 27.5946 30.1788 26.3429 29.6795 25.3846C29.1956 24.4579 28.2995 24.2685 27.7149 24.2685C27.6975 24.2685 27.6782 24.2703 27.6588 24.2703C27.5814 24.2722 27.384 24.2722 27.0937 24.2722C25.2162 24.2722 19.5646 24.2462 19.2549 24.2462C19.1001 24.2462 18.984 24.2202 18.8795 24.2202C18.742 24.2202 18.6298 24.2648 18.4962 24.4728C18.2562 24.8368 18.9453 25.9548 19.0633 26.4562C19.1814 26.9576 19.2395 27.7469 18.8349 27.7803C18.8214 27.7822 18.8098 27.7822 18.7962 27.7822C18.4266 27.7822 18.3491 27.2548 18.2814 26.6605C18.2117 26.0458 17.9001 25.0652 17.1414 24.5638C16.6807 24.2611 15.8369 24.2091 14.9291 24.2091C14.4278 24.2091 13.9091 24.2239 13.4272 24.2239C13.3324 24.2239 13.2414 24.2239 13.1504 24.2221C11.9949 24.2035 9.31236 24.1979 8.1743 24.1979C7.9343 24.1979 7.76398 24.1998 7.68849 24.1998H7.63817H7.47365C7.13107 24.1998 6.82527 24.2221 6.61623 24.5675C6.36849 24.9835 6.90462 25.6558 7.13107 26.4451C7.35753 27.2306 7.34011 28.1481 6.86011 28.1759H6.85043C6.38204 28.1759 6.7072 25.8508 4.98269 24.6548C4.12527 24.0178 2.00011 23.5609 1.55882 23.5609ZM1.55879 23.9323C1.92653 23.9323 3.97621 24.3762 4.75428 24.9556C5.73363 25.6353 5.97944 26.7608 6.14008 27.5055C6.26395 28.0645 6.36653 28.5473 6.88137 28.5473H6.88331C7.10395 28.5343 7.29944 28.4285 7.43299 28.2483C7.76202 27.8082 7.68653 26.9762 7.5046 26.3466C7.41944 26.0532 7.2975 25.7746 7.18137 25.5183C7.05944 25.2416 6.88911 24.8609 6.95299 24.7532C7.04202 24.6046 7.13492 24.5693 7.54718 24.5693H7.55299L7.68847 24.5712H7.6904L8.17428 24.5693C9.31041 24.5693 11.9891 24.5749 13.1446 24.5953L13.4272 24.5972C13.6672 24.5972 13.9188 24.5916 14.1723 24.5879C14.424 24.5842 14.6794 24.5805 14.9291 24.5805C15.651 24.5805 16.5298 24.6121 16.9207 24.8702C17.5323 25.2713 17.8265 26.1071 17.8943 26.7013C17.9678 27.3142 18.0627 28.1518 18.862 28.1518H18.8678C19.0594 28.1351 19.2278 28.0441 19.342 27.8918C19.6575 27.4776 19.5162 26.6921 19.4407 26.3745C19.3943 26.1739 19.282 25.9213 19.1659 25.6521C19.0459 25.3772 18.7943 24.8052 18.8252 24.6696C18.8562 24.6213 18.8756 24.5991 18.8814 24.5916C18.9162 24.5916 18.9491 24.5972 18.9898 24.6009C19.0672 24.6083 19.1543 24.6176 19.2549 24.6176L20.6369 24.6232C22.5104 24.6306 25.7581 24.6436 27.0936 24.6436C27.3878 24.6436 27.5891 24.6436 27.7149 24.6418C28.1427 24.6418 28.9227 24.7588 29.3349 25.5518C29.8381 26.5193 29.8381 27.8769 29.8381 28.3226C29.8381 28.7609 30.0452 32.7445 30.2272 36.2582C30.3433 38.5351 30.4556 40.6875 30.4556 40.8342C30.4556 41.1072 30.3781 41.2781 30.1962 41.4155C30.1478 41.4396 29.8923 41.5232 28.7388 41.5232C28.5298 41.5232 28.3188 41.5213 28.1175 41.5176C28.3052 41.3022 28.4562 41.0496 28.4756 40.7878C28.5104 40.2715 28.5704 37.7811 28.2336 35.0492C27.833 31.7732 26.9252 30.7796 26.6601 30.5531L26.453 30.3748C26.2207 30.1705 26.1046 30.0683 25.7852 29.9922C25.4969 29.9235 21.0975 29.8845 18.4981 29.8659L18.0859 29.8641L18.1091 30.2578C18.3336 34.2506 18.6646 40.3086 18.6549 40.6243C18.6433 40.7599 18.6452 40.8602 18.6472 40.9438C18.6472 41.0571 18.6472 41.0812 18.6278 41.1276C18.6104 41.1796 18.4962 41.4359 18.2117 41.4805C18.1227 41.4916 17.5478 41.5083 14.7317 41.5083C11.4278 41.5083 6.83105 41.4842 5.58073 41.4786L5.33879 41.4916C5.33879 41.4916 5.22847 41.4192 5.25363 41.2911C5.33105 40.9326 6.90847 36.6166 7.01686 36.3808L8.30202 36.3733C10.1756 36.3659 13.5259 36.3473 14.4549 36.3473H14.6717C15.4691 36.3473 15.7536 35.9685 15.9123 35.6379C16.162 35.1179 16.0575 33.1791 15.9007 32.4826C15.5523 30.9356 14.1549 29.9476 13.5201 29.9476H13.3885C13.162 29.9476 12.7091 29.9458 12.1381 29.9421C11.1781 29.9346 9.88911 29.9235 8.80137 29.9235C6.53299 29.9235 6.5117 29.9458 6.36653 30.0832C6.18653 30.2559 6.05879 30.4788 5.90976 31.1511C5.88073 31.2773 5.82653 31.5429 5.75492 31.8976C5.47041 33.3053 4.87815 36.2303 4.45041 37.3948C3.91234 38.8489 3.6975 39.3893 3.45363 39.9056L3.35299 40.1192C3.20008 40.4479 2.78976 41.3208 2.60008 41.4489C2.54202 41.4805 2.45299 41.5009 2.36589 41.5009C2.33299 41.5009 2.30589 41.4991 2.28266 41.4991C2.25944 41.4991 2.24395 41.5009 2.24395 41.5139C2.20137 41.3412 2.13557 40.7766 2.38331 39.2389C2.44524 38.8508 2.5575 38.2435 2.68718 37.5303C3.25621 34.4512 3.71299 31.8438 3.56782 31.1251C3.40331 30.3135 2.96395 29.9031 2.17234 29.9031H2.04073C1.06718 29.9031 0.860083 29.8529 0.852341 29.8529L0.765244 29.8121L0.755567 29.8083C0.50589 29.6969 0.356857 29.6096 0.391696 29.2605C0.418793 28.9763 0.532986 28.5938 0.651051 28.1889C0.807825 27.6596 0.970406 27.1099 0.98589 26.6382C0.991696 26.4042 0.989761 26.1033 0.98589 25.7858C0.980083 25.2583 0.96847 24.3725 1.04202 24.1998C1.14847 24.0178 1.25299 23.9323 1.55879 23.9323Z" fill="white"/>
<mask id="mask0" mask-type="alpha" maskUnits="userSpaceOnUse" x="0" y="-1" width="60" height="52">
<path fill-rule="evenodd" clip-rule="evenodd" d="M0 50.8689H59.1774V-0.00012207H0V50.8689Z" fill="white"/>
</mask>
<g mask="url(#mask0)">
<path fill-rule="evenodd" clip-rule="evenodd" d="M34.3877 25.9347H34.8173V22.8816H34.3877V25.9347Z" fill="black"/>
<path fill-rule="evenodd" clip-rule="evenodd" d="M34.6042 22.1091C33.2823 22.1091 32.2081 23.1417 32.2081 24.4101C32.2081 25.6767 33.2823 26.7074 34.6042 26.7074C35.9262 26.7074 37.0004 25.6767 37.0004 24.4101C37.0004 23.1417 35.9262 22.1091 34.6042 22.1091ZM34.6042 26.8021C33.2281 26.8021 32.1094 25.7287 32.1094 24.4101C32.1094 23.0878 33.2281 22.0144 34.6042 22.0144C35.9803 22.0144 37.101 23.0878 37.101 24.4101C37.101 25.7287 35.9803 26.8021 34.6042 26.8021Z" fill="black"/>
<path fill-rule="evenodd" clip-rule="evenodd" d="M14.5217 3.03679C15.532 3.03679 15.6578 2.48337 15.6578 2.05622C15.6578 1.62722 15.532 1.07379 14.5217 1.07379H14.4752V3.03679H14.5217ZM13.7843 1.07379H13.7378C12.7256 1.07379 12.6017 1.62722 12.6017 2.05622C12.6017 2.48337 12.7256 3.03679 13.7378 3.03679H13.7843V1.07379ZM13.7843 3.53822H13.6391C13.2714 3.53822 11.8643 3.46394 11.8643 2.05622C11.8643 1.48237 12.1275 0.572366 13.6391 0.572366H13.7843V0.000366211H14.4752V0.572366H14.6204C16.132 0.572366 16.3952 1.48237 16.3952 2.05622C16.3952 3.46394 14.9843 3.53822 14.6204 3.53822H14.4752V4.05265H13.7843V3.53822Z" fill="black"/>
<path fill-rule="evenodd" clip-rule="evenodd" d="M18.8181 3.46021C19.7471 3.46021 19.9252 2.64864 19.9252 2.0915C19.9252 1.5325 19.7471 0.722784 18.8181 0.722784C17.8871 0.722784 17.7091 1.5325 17.7091 2.0915C17.7091 2.64864 17.8871 3.46021 18.8181 3.46021ZM18.8181 0.174927C19.1452 0.174927 20.6626 0.215784 20.6626 2.0915C20.6626 3.96721 19.1452 4.00807 18.8181 4.00807C18.4891 4.00807 16.9717 3.96721 16.9717 2.0915C16.9717 0.215784 18.4891 0.174927 18.8181 0.174927Z" fill="black"/>
<path fill-rule="evenodd" clip-rule="evenodd" d="M22.1617 3.89918H21.4727V0.283325H22.1617V1.73004H23.8378V0.283325H24.5288V3.89918H23.8378V2.2779H22.1617V3.89918Z" fill="black"/>
<path fill-rule="evenodd" clip-rule="evenodd" d="M26.7564 0.831304V1.26402C26.7564 2.0663 26.6654 2.66988 26.2338 3.35145H27.8983V0.831304H26.7564ZM29.1041 3.35145L29.0712 4.71459H28.4692V3.8993H25.7305V4.71459H25.1267L25.0957 3.35145H25.417C25.6647 3.04688 26.0693 2.39688 26.0693 1.06345V0.283447H28.5873V3.35145H29.1041Z" fill="black"/>
<path fill-rule="evenodd" clip-rule="evenodd" d="M12.7847 7.18416H13.5841C13.9034 7.18416 14.3505 7.1433 14.3505 6.60101C14.3505 6.02716 13.8551 5.99559 13.5918 5.99559H12.7847V7.18416ZM13.5976 5.44958C14.1899 5.44958 15.0609 5.54244 15.0609 6.56944C15.0609 7.22501 14.6796 7.73201 13.5918 7.73201H12.7847V9.06544H12.0957V5.44958H13.5976Z" fill="black"/>
<path fill-rule="evenodd" clip-rule="evenodd" d="M17.3322 7.75728L16.7612 6.15085L16.1903 7.75728H17.3322ZM15.7335 9.06471H14.9961L16.4148 5.44885H17.1077L18.5264 9.06471H17.789L17.5142 8.30514H16.0084L15.7335 9.06471Z" fill="black"/>
<path fill-rule="evenodd" clip-rule="evenodd" d="M19.4967 7.82964C19.5025 8.12864 19.6361 8.62449 20.4586 8.62449C20.9715 8.62449 21.3006 8.41278 21.3006 8.02092C21.3006 7.57149 20.9773 7.45449 20.5573 7.45449H20.0386V6.90478H20.4877C20.6483 6.90478 21.1496 6.89549 21.1496 6.42935C21.1496 6.10992 20.9348 5.88706 20.3851 5.88706C19.7328 5.88706 19.5509 6.19906 19.5373 6.51292H18.8561C18.8715 5.56764 19.6206 5.34106 20.4432 5.34106C20.9599 5.34106 21.858 5.46549 21.858 6.36249C21.858 6.82864 21.5619 7.11092 21.2309 7.15735V7.16849C21.6373 7.22421 22.009 7.51949 22.009 8.08778C22.009 8.51121 21.767 9.17235 20.418 9.17235C19.4483 9.17235 18.8503 8.77492 18.8135 7.82964H19.4967Z" fill="black"/>
<path fill-rule="evenodd" clip-rule="evenodd" d="M23.5748 8.51661H24.5154C24.9374 8.51661 25.2529 8.41818 25.2529 7.97804C25.2529 7.49332 24.8193 7.46361 24.5348 7.46361H23.5748V8.51661ZM23.5748 6.91575H24.4864C24.8677 6.91575 25.098 6.80247 25.098 6.48675C25.098 6.00761 24.6141 5.99647 24.4709 5.99647H23.5748V6.91575ZM24.6625 5.44861C25.6206 5.44861 25.8083 5.96489 25.8083 6.36232C25.8083 6.76161 25.5509 7.07547 25.1851 7.13675V7.14789C25.4967 7.19989 25.9632 7.40789 25.9632 8.05047C25.9632 8.96604 25.1522 9.06447 24.5851 9.06447H22.8877V5.44861H24.6625Z" fill="black"/>
<path fill-rule="evenodd" clip-rule="evenodd" d="M29.325 5.44885H29.9986V9.06471H29.3096V6.41828L27.5154 9.06471H26.8438V5.44885H27.5308V8.09342L29.325 5.44885Z" fill="black"/>
<path fill-rule="evenodd" clip-rule="evenodd" d="M30.6328 5.9962V5.4502H33.6889V5.9962H32.5064V9.0642H31.8154V5.9962H30.6328Z" fill="black"/>
<path fill-rule="evenodd" clip-rule="evenodd" d="M36.8065 5.44885H37.482V9.06471H36.791V6.41828L34.9987 9.06471H34.3252V5.44885H35.0142V8.09342L36.8065 5.44885Z" fill="black"/>
<path fill-rule="evenodd" clip-rule="evenodd" d="M39.8756 5.99619C39.686 5.99619 39.115 5.99619 39.115 6.59605C39.115 7.12348 39.6221 7.16991 39.9221 7.16991H40.7737V5.99619H39.8756ZM40.1176 7.71777L39.2137 9.0642H38.3408L39.4073 7.64348C39.055 7.60262 38.4066 7.4002 38.4066 6.57934C38.4066 5.49477 39.3744 5.4502 39.9086 5.4502H41.4608V9.0642H40.7737V7.71777H40.1176Z" fill="black"/>
<path fill-rule="evenodd" clip-rule="evenodd" d="M15.3783 12.9944C15.3241 13.5423 15.0221 14.3371 13.7466 14.3371C13.4583 14.3371 11.8789 14.3111 11.8789 12.4819C11.8789 10.998 12.7712 10.5059 13.7099 10.5059C15.0028 10.5059 15.2931 11.2654 15.3241 11.7817H14.6408C14.5983 11.4809 14.4144 11.0537 13.7099 11.0537C12.8718 11.0537 12.6163 11.7074 12.6163 12.4559C12.6163 13.3046 13.1021 13.7893 13.7796 13.7893C14.4028 13.7893 14.6737 13.3826 14.695 12.9944H15.3783Z" fill="black"/>
<path fill-rule="evenodd" clip-rule="evenodd" d="M17.7781 13.7902C18.7091 13.7902 18.8871 12.9805 18.8871 12.4215C18.8871 11.8625 18.7091 11.0527 17.7781 11.0527C16.8471 11.0527 16.671 11.8625 16.671 12.4215C16.671 12.9805 16.8471 13.7902 17.7781 13.7902ZM17.7781 10.5049C18.1071 10.5049 19.6226 10.5457 19.6226 12.4215C19.6226 14.2953 18.1071 14.338 17.7781 14.338C17.451 14.338 15.9336 14.2953 15.9336 12.4215C15.9336 10.5457 17.451 10.5049 17.7781 10.5049Z" fill="black"/>
<path fill-rule="evenodd" clip-rule="evenodd" d="M21.1216 13.6814H22.0623C22.4823 13.6814 22.7997 13.583 22.7997 13.1428C22.7997 12.66 22.3662 12.6284 22.0797 12.6284H21.1216V13.6814ZM21.1217 12.0805H22.0313C22.4146 12.0805 22.6449 11.9673 22.6449 11.6515C22.6449 11.1724 22.1591 11.1613 22.0159 11.1613H21.1217V12.0805ZM22.2094 10.6134C23.1675 10.6134 23.3533 11.1315 23.3533 11.5271C23.3533 11.9264 23.0978 12.2403 22.73 12.3015V12.3127C23.0416 12.3647 23.51 12.5727 23.51 13.2171C23.51 14.1308 22.6991 14.2293 22.132 14.2293H20.4326V10.6134H22.2094Z" fill="black"/>
<path fill-rule="evenodd" clip-rule="evenodd" d="M25.0777 12.3492H25.879C26.1964 12.3492 26.6435 12.3083 26.6435 11.7661C26.6435 11.1922 26.15 11.1606 25.8848 11.1606H25.0777V12.3492ZM25.8906 10.6146C26.4829 10.6146 27.3538 10.7075 27.3538 11.7345C27.3538 12.3901 26.9725 12.8971 25.8848 12.8971H25.0777V14.2305H24.3887V10.6146H25.8906Z" fill="black"/>
<path fill-rule="evenodd" clip-rule="evenodd" d="M30.6969 12.1013V12.6492H28.7808V13.6818H30.9776V14.2296H28.0898V10.6138H30.9176V11.1616H28.7808V12.1013H30.6969Z" fill="black"/>
<path fill-rule="evenodd" clip-rule="evenodd" d="M32.3228 11.3681H32.3132L32.3228 11.5074V14.23H31.6357V10.6141H32.6635L33.6912 13.3571L34.717 10.6141H35.7467V14.23H35.0577V11.5074L35.0693 11.3681H35.0577L33.9506 14.23H33.4299L32.3228 11.3681Z" fill="black"/>
<path fill-rule="evenodd" clip-rule="evenodd" d="M39.3747 12.1013V12.6492H37.4605V13.6818H39.6553V14.2296H36.7695V10.6138H39.5953V11.1616H37.4605V12.1013H39.3747Z" fill="black"/>
<path fill-rule="evenodd" clip-rule="evenodd" d="M41.0006 14.229H40.3135V10.6132H41.0006V12.0599H42.6786V10.6132H43.3696V14.229H42.6786V12.6077H41.0006V14.229Z" fill="black"/>
<path fill-rule="evenodd" clip-rule="evenodd" d="M45.0787 14.229H44.3916V10.6132H45.0787V12.0599H46.7568V10.6132H47.4477V14.229H46.7568V12.6077H45.0787V14.229Z" fill="black"/>
<path fill-rule="evenodd" clip-rule="evenodd" d="M50.1033 13.7902C51.0323 13.7902 51.2104 12.9805 51.2104 12.4215C51.2104 11.8625 51.0323 11.0527 50.1033 11.0527C49.1723 11.0527 48.9962 11.8625 48.9962 12.4215C48.9962 12.9805 49.1723 13.7902 50.1033 13.7902ZM50.1033 10.5049C50.4304 10.5049 51.9478 10.5457 51.9478 12.4215C51.9478 14.2953 50.4304 14.338 50.1033 14.338C49.7742 14.338 48.2549 14.2953 48.2549 12.4215C48.2549 10.5457 49.7742 10.5049 50.1033 10.5049Z" fill="black"/>
<path fill-rule="evenodd" clip-rule="evenodd" d="M53.4449 14.229H52.7578V10.6132H55.2197V11.161H53.4449V14.229Z" fill="black"/>
<path fill-rule="evenodd" clip-rule="evenodd" d="M57.3308 13.7902C58.2618 13.7902 58.4379 12.9805 58.4379 12.4215C58.4379 11.8625 58.2618 11.0527 57.3308 11.0527C56.3999 11.0527 56.2237 11.8625 56.2237 12.4215C56.2237 12.9805 56.3999 13.7902 57.3308 13.7902ZM57.3308 10.5049C57.6599 10.5049 59.1773 10.5457 59.1773 12.4215C59.1773 14.2953 57.6599 14.338 57.3308 14.338C57.0037 14.338 55.4863 14.2953 55.4863 12.4215C55.4863 10.5457 57.0037 10.5049 57.3308 10.5049Z" fill="black"/>
<path fill-rule="evenodd" clip-rule="evenodd" d="M11.707 16.3262V15.7783H14.7632V16.3262H13.5806V19.3942H12.8896V16.3262H11.707Z" fill="black"/>
<path fill-rule="evenodd" clip-rule="evenodd" d="M18.0055 17.266V17.8139H16.0894V18.8464H18.2862V19.3943H15.3984V15.7784H18.2262V16.3263H16.0894V17.266H18.0055Z" fill="black"/>
<path fill-rule="evenodd" clip-rule="evenodd" d="M20.799 18.0871L20.228 16.4807L19.6571 18.0871H20.799ZM19.2003 19.3945H18.4629L19.8835 15.7787H20.5745L21.9932 19.3945H21.2558L20.981 18.635H19.4751L19.2003 19.3945Z" fill="black"/>
<path fill-rule="evenodd" clip-rule="evenodd" d="M21.7773 16.3262V15.7783H24.8335V16.3262H23.6509V19.3942H22.9599V16.3262H21.7773Z" fill="black"/>
<path fill-rule="evenodd" clip-rule="evenodd" d="M26.1588 17.5139H26.962C27.2794 17.5139 27.7265 17.473 27.7265 16.9308C27.7265 16.3569 27.231 16.3253 26.9659 16.3253H26.1588V17.5139ZM26.9717 15.7775C27.5659 15.7775 28.4368 15.8722 28.4368 16.8992C28.4368 17.5548 28.0536 18.0618 26.9659 18.0618H26.1588V19.3952H25.4717V15.7775H26.9717Z" fill="black"/>
<path fill-rule="evenodd" clip-rule="evenodd" d="M30.7082 18.0871L30.1372 16.4807L29.5663 18.0871H30.7082ZM29.1095 19.3945H28.3721L29.7908 15.7787H30.4817L31.9024 19.3945H31.1669L30.8901 18.635H29.3843L29.1095 19.3945Z" fill="black"/>
<path fill-rule="evenodd" clip-rule="evenodd" d="M37.424 43.4921C38.4344 43.4921 38.5602 42.9387 38.5602 42.5115C38.5602 42.0825 38.4344 41.5291 37.424 41.5291H37.3756V43.4921H37.424ZM36.6866 41.5291H36.6382C35.624 41.5291 35.504 42.0825 35.504 42.5115C35.504 42.9387 35.624 43.4921 36.6382 43.4921H36.6866V41.5291ZM36.6866 43.9935H36.5414C36.1737 43.9935 34.7646 43.9193 34.7646 42.5115C34.7646 41.9377 35.0298 41.0295 36.5414 41.0295H36.6866V40.4557H37.3756V41.0295H37.5208C39.0324 41.0295 39.2976 41.9377 39.2976 42.5115C39.2976 43.9193 37.8866 43.9935 37.5208 43.9935H37.3756V44.5098H36.6866V43.9935Z" fill="black"/>
<path fill-rule="evenodd" clip-rule="evenodd" d="M41.7205 43.9151C42.6495 43.9151 42.8276 43.1054 42.8276 42.5464C42.8276 41.9874 42.6495 41.1777 41.7205 41.1777C40.7895 41.1777 40.6114 41.9874 40.6114 42.5464C40.6114 43.1054 40.7895 43.9151 41.7205 43.9151ZM41.7205 40.6317C42.0476 40.6317 43.565 40.6726 43.565 42.5464C43.565 44.4221 42.0476 44.463 41.7205 44.463C41.3914 44.463 39.874 44.4221 39.874 42.5464C39.874 40.6726 41.3914 40.6317 41.7205 40.6317Z" fill="black"/>
<path fill-rule="evenodd" clip-rule="evenodd" d="M45.0621 44.3546H44.375V40.7388H45.0621V42.1855H46.7402V40.7388H47.4311V44.3546H46.7402V42.7333H45.0621V44.3546Z" fill="black"/>
<path fill-rule="evenodd" clip-rule="evenodd" d="M49.6587 41.2867V41.7213C49.6587 42.5217 49.5677 43.1253 49.1361 43.8087H50.8006V41.2867H49.6587ZM52.0045 43.8087L51.9735 45.17H51.3696V44.3547H48.6309V45.17H48.0271L47.9961 43.8087H48.3193C48.5671 43.5023 48.9696 42.8523 48.9696 41.5189V40.7407H51.4877V43.8087H52.0045Z" fill="black"/>
<path fill-rule="evenodd" clip-rule="evenodd" d="M11.9454 47.3923H11.9241V50.7333H10.7764V46.0552H12.3906L13.5538 49.2699L14.7189 46.0552H16.337V50.7333H15.1873V47.3923H15.166L13.9448 50.7333H13.1648L11.9454 47.3923Z" fill="black"/>
<path fill-rule="evenodd" clip-rule="evenodd" d="M20.3331 46.0552H21.4809V50.7352H20.3331V47.6783L18.388 50.7352H17.2383V46.0552H18.388V49.0767L20.3331 46.0552Z" fill="black"/>
<path fill-rule="evenodd" clip-rule="evenodd" d="M23.3149 50.7348H21.8652L23.582 48.302L22.0181 46.0548H23.3846L24.3194 47.5944L25.2601 46.0548H26.6246L25.0568 48.302L26.7794 50.7348H25.3278L24.3194 49.1247L23.3149 50.7348Z" fill="black"/>
<path fill-rule="evenodd" clip-rule="evenodd" d="M30.5952 48.3951C30.5952 47.9661 30.5391 46.8314 29.3681 46.8314C28.7333 46.8314 28.1488 47.1582 28.1488 48.3951C28.1488 49.619 28.7333 49.9588 29.3681 49.9588C30.5391 49.9588 30.5952 48.7888 30.5952 48.3951ZM26.9023 48.3951C26.9023 47.3068 27.4443 45.9214 29.3681 45.9214C31.0462 45.9214 31.8359 46.9781 31.8359 48.3951C31.8359 49.8121 31.0462 50.867 29.3681 50.867C27.4443 50.867 26.9023 49.4834 26.9023 48.3951Z" fill="black"/>
<path fill-rule="evenodd" clip-rule="evenodd" d="M33.9649 48.8097V47.9554H35.8268C35.7127 46.8709 34.9617 46.83 34.6056 46.83C33.7714 46.83 33.5197 47.3129 33.4849 47.6119H32.312C32.3701 46.8579 32.9217 45.9219 34.5378 45.9219C36.5585 45.9219 37.0675 47.233 37.0675 48.3343C37.0675 50.743 35.2752 50.8693 34.6133 50.8693C33.121 50.8693 32.3352 50.067 32.2578 49.0493H33.4307C33.4481 49.4913 33.812 49.9612 34.5997 49.9612C35.072 49.9612 35.7901 49.8052 35.8268 48.8097H33.9649Z" fill="black"/>
<path fill-rule="evenodd" clip-rule="evenodd" d="M37.3008 49.8253C38.3885 49.9664 38.4176 49.0694 38.4369 48.2876L38.4717 46.0553H42.0814V50.7334H40.9317V46.9634H39.5576L39.5227 48.594C39.4976 49.5059 39.3563 51.0027 37.3008 50.7334V49.8253Z" fill="black"/>
<path fill-rule="evenodd" clip-rule="evenodd" d="M47.3623 49.084C47.2849 49.786 46.8746 50.8668 45.1442 50.8668C43.8997 50.8668 42.7559 50.3208 42.7559 48.4822C42.7559 46.016 44.6313 45.9231 45.1036 45.9231C46.8378 45.9231 47.2694 46.9575 47.3062 47.6465H46.1778C46.0655 46.8647 45.4249 46.8312 45.1578 46.8312C44.9023 46.8312 43.9965 46.8777 43.9965 48.4414C43.9965 49.3235 44.4146 49.9587 45.1946 49.9587C45.9533 49.9587 46.1623 49.4312 46.2184 49.084H47.3623Z" fill="black"/>
<path fill-rule="evenodd" clip-rule="evenodd" d="M50.3639 49.0635L49.7368 47.2788L49.0942 49.0635H50.3639ZM50.3155 46.0549L52.1465 50.7349H50.9271L50.6136 49.8584H48.8446L48.5387 50.7349H47.3252L49.1504 46.0549H50.3155Z" fill="black"/>
</g>
</svg>
