<svg width="111" height="43" viewBox="0 0 111 43" fill="none" xmlns="http://www.w3.org/2000/svg">
<mask id="mask0" mask-type="alpha" maskUnits="userSpaceOnUse" x="0" y="6" width="107" height="33">
<path fill-rule="evenodd" clip-rule="evenodd" d="M0.000976562 6.14429H106.11V38.5896H0.000976562V6.14429Z" fill="white"/>
</mask>
<g mask="url(#mask0)">
<path fill-rule="evenodd" clip-rule="evenodd" d="M103.202 38.5896H2.91035C1.30377 38.5896 0.000976562 37.2136 0.000976562 35.5305V9.20221C0.000976562 7.51292 1.30377 6.14307 2.91035 6.14307H103.202C104.803 6.14307 106.111 7.51292 106.111 9.20221V35.5305C106.111 37.2136 104.803 38.5896 103.202 38.5896ZM2.91046 7.67264C2.10425 7.67264 1.45577 8.35449 1.45577 9.20221V35.5305C1.45577 36.3782 2.10425 37.0601 2.91046 37.0601H103.202C104.002 37.0601 104.657 36.3782 104.657 35.5305V9.20221C104.657 8.35449 104.002 7.67264 103.202 7.67264H2.91046Z" fill="black"/>
</g>
<path fill-rule="evenodd" clip-rule="evenodd" d="M12.433 18.7274H12.4973C13.2859 17.5787 14.3609 16.3869 15.43 15.5454C16.5283 14.7161 17.7201 14.2369 18.6957 14.2369C19.7064 14.2369 20.3432 14.7161 20.682 15.1952C20.9274 15.5208 21.1377 16.0614 21.1377 16.8968C21.1377 17.6708 20.9566 18.3158 20.8047 18.8564L18.6957 26.3752C18.6373 26.5657 18.6023 26.7315 18.6023 27.0202C18.6023 27.4994 18.9703 27.6591 19.2157 27.6591C19.7356 27.6591 20.314 26.9527 20.5302 26.6639C20.8924 26.1787 21.1728 25.7364 21.4415 25.2511C21.6577 24.8641 21.903 24.3849 22.0842 23.9672L22.5457 24.1945C22.3295 24.6368 21.9615 25.3432 21.7512 25.6995C21.1377 26.7868 20.7113 27.4011 20.0978 27.9171C19.461 28.4269 18.8827 28.6174 18.1758 28.6174C17.539 28.6174 17.0483 28.4945 16.6159 28.0154C16.2537 27.5915 16.096 27.1124 16.096 26.5349C16.096 25.9268 16.2829 25.0238 16.4348 24.5385L18.2693 18.0271C18.3919 17.6339 18.4504 17.4804 18.4504 16.8354C18.4504 16.4484 18.4212 16.0921 18.1466 15.7788C17.9304 15.5208 17.685 15.3918 17.2936 15.3918C16.131 15.3918 14.875 16.5467 13.8994 17.6708C13.1399 18.5369 12.5849 19.3417 12.0065 20.3675L9.99099 28.2734H7.27441L10.6044 15.0355H7.67168L7.79436 14.5871H13.4729L12.433 18.7274Z" fill="black"/>
<path fill-rule="evenodd" clip-rule="evenodd" d="M35.0674 26.3764C35.0382 26.53 34.9739 26.9231 34.9739 27.0767C34.9739 27.5251 35.3419 27.6603 35.5873 27.6603C36.1365 27.6603 36.5922 27.046 36.8726 26.6958C37.264 26.1491 37.4802 25.7621 37.819 25.1908C38.0585 24.7363 38.2396 24.4168 38.4558 23.9623L38.8823 24.1957C38.5785 24.9328 38.3039 25.4427 37.632 26.5054C37.3283 26.9845 36.9894 27.5251 36.411 27.9797C35.8619 28.3974 35.2193 28.6185 34.5182 28.6185C34.0567 28.6185 33.4199 28.5264 32.9584 28.0165C32.5611 27.5927 32.4735 27.046 32.4735 26.5668C32.4735 25.8297 32.6546 25.1908 32.8065 24.5397L32.9291 23.993H32.8357C32.4384 24.6073 31.8893 25.412 31.0071 26.2781C30.0256 27.2425 28.2847 28.6185 26.5145 28.6185C24.5574 28.6185 24.1309 27.046 24.1309 25.8911C24.1309 25.1233 24.3471 24.4168 24.499 23.7718L26.6956 15.0367H23.8271L23.9498 14.5883H29.5699L26.9702 24.8345C26.8826 25.1908 26.7891 25.67 26.7891 26.0815C26.7891 27.175 27.607 26.9477 27.8231 27.4023C28.0627 27.9121 28.9565 27.433 30.3937 26.1184C31.0071 25.5717 31.7374 24.7363 32.3157 23.9623C32.748 23.3541 33.081 22.8074 33.3556 22.2607L35.2835 14.5883H38.0293L35.0674 26.3764Z" fill="black"/>
<path fill-rule="evenodd" clip-rule="evenodd" d="M44.4447 19.2132C44.6609 18.3409 45.2684 16.5779 46.5829 15.5152C47.1029 15.0975 47.8623 14.6859 48.7503 14.6859C49.8487 14.6859 51.2858 15.2326 51.2858 17.702C51.2858 18.218 51.1923 19.3115 51.0755 19.7599L49.8837 24.3855C49.6968 25.1533 49.2411 26.3389 48.2596 27.2419C47.5293 27.9176 46.8575 28.1695 46.063 28.1695C44.5966 28.1695 43.1945 27.2726 43.1945 25.055C43.1945 24.6066 43.2821 23.8019 43.3756 23.3903L44.4447 19.2132ZM40.5947 22.776C40.5947 24.5759 41.2374 26.0502 42.213 27.076C43.0718 27.979 44.2636 28.6179 45.911 28.6179C47.319 28.6179 49.6091 28.108 51.7473 25.6018C53.424 23.6115 53.9439 21.6212 53.9439 19.9503C53.9439 18.2795 53.3656 16.799 52.571 15.8715C51.5954 14.7166 50.3101 14.2313 48.8438 14.2313C46.4602 14.2313 44.1409 15.6135 42.6161 17.444C41.4535 18.8569 40.5947 20.7858 40.5947 22.776Z" fill="black"/>
<path fill-rule="evenodd" clip-rule="evenodd" d="M59.5401 20.881H64.7337L66.3228 14.5907H69.0685L66.0774 26.3788C66.0423 26.5324 65.9839 26.6307 65.9839 26.9194C65.9839 27.5276 66.352 27.6627 66.5973 27.6627C67.1465 27.6627 67.6314 27.0484 67.8768 26.6921C68.2448 26.213 68.4551 25.8874 68.8232 25.2486C69.0393 24.8616 69.2555 24.4438 69.495 23.9647L69.9215 24.192C69.3782 25.3161 69.0393 25.8874 68.6421 26.5017C68.0929 27.374 67.6956 27.718 67.4503 27.9453C66.9654 28.3323 66.352 28.621 65.5224 28.621C64.6986 28.621 64.243 28.3323 63.9684 28.0128C63.6938 27.6873 63.4776 27.2081 63.4776 26.5017C63.4776 25.9243 63.6295 25.3161 63.8165 24.5421L64.611 21.3294H59.4174L57.6764 28.2708H54.9248L58.2899 15.0391L55.252 15.3893L55.474 14.5907H61.1233L59.5401 20.881Z" fill="black"/>
<path fill-rule="evenodd" clip-rule="evenodd" d="M74.7185 21.8767L75.18 20.0154C75.7292 17.7978 76.4887 16.7044 76.8918 16.2253C77.7447 15.1933 78.8722 14.6834 79.8187 14.6834C80.0056 14.6834 80.952 14.7141 80.952 15.8997C80.952 16.0656 80.9228 16.256 80.8878 16.4157L80.584 17.8286C80.4905 18.277 80.2451 19.1186 80.0056 19.567C79.4857 20.5621 78.6269 20.9491 78.0485 21.072L74.7185 21.8767ZM74.5665 22.3927L78.4457 21.5573C79.5148 21.33 81.1681 20.8508 81.9918 20.212C82.9675 19.438 83.3939 18.277 83.3939 17.2204C83.3939 16.1577 82.8448 15.4513 82.3833 15.0704C81.7114 14.493 80.7358 14.235 79.7602 14.235C78.2003 14.235 76.3717 14.9721 74.8411 16.2253C72.7321 17.9576 71.6338 20.212 71.6338 23.0008C71.6338 24.2233 71.8499 25.6668 73.1002 27.049C74.0174 28.0748 75.0222 28.4434 76.4886 28.4127C77.6453 28.3881 79.6375 28.3328 81.653 26.3426C82.4183 25.5993 82.7805 25.028 83.0609 24.4444L82.6286 24.254C82.2314 24.9604 81.2557 26.5023 79.1175 27.4974C78.3581 27.8537 77.6219 28.0748 76.7339 28.0748C75.6941 28.0748 75.0865 27.823 74.5665 27.0183C74.1401 26.3733 74.0466 25.7344 74.0466 25.028C74.0466 24.4444 74.1401 24.2233 74.1985 23.9346L74.5665 22.3927Z" fill="black"/>
<path fill-rule="evenodd" clip-rule="evenodd" d="M89.4469 20.1432C89.6339 19.3078 90.0604 17.4158 90.8198 16.2855C91.404 15.45 92.3797 14.6822 93.2969 14.6822C93.9103 14.6822 94.5179 14.9709 94.8859 15.3579C95.6162 16.1319 95.7097 17.385 95.7097 18.4109C95.7097 18.89 95.6805 19.4368 95.587 19.8545L94.8859 23.2945C94.734 23.964 94.3076 25.4752 93.9979 26.1509C93.2677 27.7235 92.1343 28.1719 91.2814 28.1719C90.8198 28.1719 90.0604 28.0122 89.4469 27.146C88.8101 26.243 88.7167 25.1496 88.7167 24.351C88.7167 23.4173 88.8101 23.0058 88.962 22.3546L89.4469 20.1432ZM90.4227 14.5901H84.8668L84.7734 15.0385H87.7061L83.0967 34.5666H85.8775L88.0449 24.9899H88.226C88.2553 26.1509 88.746 27.2751 89.3536 27.8525C90.1189 28.5896 91.188 28.6203 91.743 28.6203C93.9396 28.6203 95.6806 27.2751 96.8081 25.8929C98.1518 24.2221 98.6133 22.4898 98.6133 20.5241C98.6133 19.2463 98.3972 18.1222 97.7545 16.9612C96.6562 14.9402 94.9737 14.2338 93.5716 14.2338C92.5317 14.2338 91.8014 14.5532 91.0361 15.3272C90.3935 15.9968 90.1773 16.5128 89.8443 17.3175H89.7216L90.4227 14.5901Z" fill="black"/>
<path fill-rule="evenodd" clip-rule="evenodd" d="M11.6162 19.6697C13.0125 18.5947 16.1263 14.522 18.4106 14.522C20.2041 14.522 20.9694 15.0933 20.9694 17.1265C20.9694 17.9988 20.7299 18.8711 20.6248 19.5468L19.9763 23.724C19.8711 24.4243 19.7835 24.9403 19.7076 25.53C19.357 28.2451 20.9811 26.1873 20.7241 26.8937C20.5313 27.4097 17.3473 30.8927 17.3473 25.7204C17.3473 25.186 17.3999 24.8788 17.5635 23.9451L18.3697 18.9018C18.3931 18.7605 18.3931 18.6193 18.4223 18.478C18.4749 18.0848 18.5567 17.8883 18.5567 17.4337C18.5567 15.6584 17.3064 15.4434 16.7047 15.5724C15.1332 15.9225 13.1001 18.6254 11.6513 19.8663L9.53061 27.8028L7.67282 27.9687L9.19761 18.5333C9.22098 18.4227 9.30277 17.9435 9.30277 17.4951C9.30277 16.586 8.3505 16.3034 7.70787 16.199L7.00098 16.1621L7.24634 15.2345C8.16356 15.1793 9.78766 15.0073 11.3942 14.5895H12.2238L11.6162 19.6697Z" fill="black"/>
<path fill-rule="evenodd" clip-rule="evenodd" d="M27.6995 23.8628C27.6177 24.2559 27.4833 25.5029 27.5008 25.9268C27.5476 26.885 27.5826 26.8973 28.7861 26.8973C30.6906 26.8973 33.1618 24.0409 33.8863 23.3959L35.6915 14.587H38.1043L36.632 23.5249C36.4685 24.5385 36.4159 24.9623 36.4159 25.3555C36.4159 26.3998 36.2757 27.0509 37.0585 26.6885C37.7187 26.3752 38.0108 24.9685 38.3847 24.5753L38.5833 24.5385C37.9232 25.853 37.2572 27.917 34.8502 28.5928C33.3721 29.0043 33.5007 26.1233 33.524 24.4955C32.0518 25.9022 28.8971 28.6665 26.7005 28.6665C24.7141 28.6665 25.0705 27.2782 25.0705 25.552C25.0705 25.0483 25.1523 24.7105 25.2867 23.832L26.0929 18.93C26.198 18.2543 26.2506 18.027 26.2506 17.8059C26.2506 16.5343 25.3685 16.5343 24.5915 16.479L23.4873 16.4238L23.8086 15.3672C25.2283 15.3242 26.4901 15.2628 28.2077 14.587H29.2593L27.6995 23.8628Z" fill="black"/>
<path fill-rule="evenodd" clip-rule="evenodd" d="M47.896 15.4341C49.5318 15.4341 50.9514 16.4477 50.9514 19.4331C50.9514 22.3141 49.6662 27.3328 45.9097 27.3328C44.8114 27.3328 42.8835 26.7677 42.8835 23.4935C42.8835 19.4024 44.7588 15.4341 47.896 15.4341ZM48.112 14.3038C42.9067 14.3038 40.0908 19.0707 40.0908 22.7073C40.0908 25.5821 41.7792 28.457 45.7752 28.457C50.1451 28.457 53.738 24.7405 53.738 20.115C53.738 16.5337 51.4888 14.3038 48.112 14.3038Z" fill="black"/>
<path fill-rule="evenodd" clip-rule="evenodd" d="M68.7935 26.0164C67.8237 27.2266 67.111 28.191 65.8257 28.191C64.9961 28.191 64.1958 28.2033 64.1958 25.8076C64.1958 25.3038 64.2775 24.8554 64.3593 24.3456L64.815 21.3786H58.2134L57.1677 28.234H54.7549L56.233 18.5344C56.2563 18.3071 56.3381 17.914 56.3381 17.4901C56.3381 16.8144 56.0168 16.366 55.0762 16.194L54.4336 16.1203L54.6205 15.2357C56.3089 15.1251 57.6 14.8118 58.377 14.5907H59.2358L58.377 20.2544H64.9728L65.8315 14.5907H68.2443L66.9065 23.5286C66.7721 24.4868 66.6903 24.9906 66.6903 25.4144C66.6903 26.5447 67.4673 26.9133 68.0574 26.9133C68.6708 26.9133 68.1684 26.5693 68.6241 26.0656L68.7935 26.0164Z" fill="black"/>
<path fill-rule="evenodd" clip-rule="evenodd" d="M73.5297 21.0432C74.5754 17.3759 77.07 15.4347 79.214 15.4347C80.7972 15.4347 81.4691 16.4176 81.4691 17.3759C81.4691 18.758 80.3123 20.8773 73.5297 21.0432ZM82.2929 24.8394C80.92 26.4243 79.0271 27.1307 77.0408 27.1307C74.8675 27.1307 73.1558 25.982 73.1558 23.4696C73.1558 22.9597 73.1792 22.5973 73.3135 22.1734C82.3513 21.8909 84.0689 19.2986 84.0689 17.4066C84.0689 16.0797 82.9705 14.3044 79.5938 14.3044C74.6046 14.3044 70.3633 18.6167 70.3633 23.187C70.3633 26.5963 73.3778 28.4576 76.3281 28.4576C79.0622 28.4576 80.9667 26.6209 82.3396 25.5213L82.2929 24.8394Z" fill="black"/>
<path fill-rule="evenodd" clip-rule="evenodd" d="M88.0059 24.7921C89.3204 17.0951 92.0311 15.6331 93.9357 15.6331C96.1323 15.6331 96.2433 17.9121 96.2433 18.8704C96.2433 22.9001 94.1226 27.1326 90.9854 27.1326C90.3369 27.1326 88.8414 26.9421 87.8716 25.5846L88.0059 24.7921ZM89.671 14.5888H88.9173C88.0352 14.7547 86.931 14.9513 86.1832 15.0066C85.8093 15.0373 85.5114 14.896 85.1375 14.896L84.8746 15.9403L85.5932 16.0201C86.1832 16.1368 86.7733 16.3641 86.7733 17.4084C86.7733 17.6603 86.6915 17.9736 86.6389 18.3667L84.787 29.559C84.3839 31.9301 86.1365 33.4536 84.0158 33.343L83.7471 34.5654H88.783L88.9173 33.7238H88.5376C87.4977 33.7238 86.9077 32.9683 86.9077 31.6168C86.9077 31.279 87.0654 30.462 87.0946 30.2654L87.6847 26.7087C89.0517 28.3181 90.7167 28.4594 91.6281 28.4594C96.4537 28.4594 99.03 22.9861 99.03 18.9871C99.03 15.541 96.6172 14.3063 94.6601 14.3063C92.592 14.3063 90.2902 15.6884 89.0517 18.2746L89.671 14.5888Z" fill="black"/>
<path fill-rule="evenodd" clip-rule="evenodd" d="M5.12653 10.7312H5.1499C5.20832 10.596 5.24337 10.51 5.35437 10.3872C5.4829 10.2582 5.61143 10.2029 5.78669 10.2029C6.02622 10.2029 6.31248 10.3257 6.49943 10.6697C6.61043 10.8663 6.64548 11.0629 6.64548 11.284C6.64548 11.6157 6.56953 11.9106 6.34169 12.1932C6.14306 12.4327 5.85095 12.66 5.47122 12.66C5.37774 12.66 5.19664 12.6539 5.06227 12.531C4.96295 12.4327 4.87532 12.2423 4.87532 12.0457H4.84027L4.47222 13.6736H3.99316L4.78185 10.3442H4.27943L4.29695 10.2643H5.24922L5.12653 10.7312ZM4.9982 11.5973C4.96898 11.7017 4.9573 11.7755 4.9573 11.9352C4.9573 12.0703 4.96898 12.2546 5.07998 12.4082C5.18514 12.5617 5.31367 12.5863 5.39546 12.5863C5.54151 12.5863 5.7343 12.5126 5.85698 12.2423C5.90956 12.1256 5.97967 11.8676 6.00888 11.7509L6.13156 11.1612C6.14325 11.0936 6.14909 11.0015 6.14909 10.9155C6.14909 10.7435 6.13156 10.5285 6.00888 10.3933C5.95046 10.3319 5.8453 10.2827 5.7343 10.2827C5.58241 10.2827 5.41298 10.4117 5.31367 10.5592C5.18514 10.7496 5.11504 11.0752 5.07998 11.2165L4.9982 11.5973Z" fill="black"/>
<path fill-rule="evenodd" clip-rule="evenodd" d="M8.84342 12.2786C8.785 12.512 8.65063 12.9052 8.46369 13.1754C8.17742 13.5993 7.75095 13.8327 7.342 13.8327C7.14337 13.8327 6.97979 13.7713 6.86879 13.6853C6.75779 13.587 6.68769 13.4396 6.68769 13.3045C6.68769 13.114 6.83374 12.9543 7.02653 12.9543C7.19011 12.9543 7.342 13.0956 7.342 13.2922C7.342 13.3904 7.29526 13.4642 7.24853 13.5072C7.19011 13.5563 7.10832 13.5686 7.10832 13.6423C7.10832 13.6607 7.10832 13.6914 7.1609 13.7222C7.19011 13.7344 7.23684 13.7467 7.32447 13.7467C7.61658 13.7467 7.79184 13.6116 7.87947 13.4949C8.03137 13.3229 8.15405 13.0034 8.21832 12.7762L8.48121 11.8732H8.47537C8.34684 12.0574 8.11316 12.3277 7.93205 12.4567C7.76847 12.5796 7.55232 12.6594 7.38874 12.6594C7.03237 12.6594 6.99147 12.3584 6.99147 12.1987C6.99147 12.1189 7.02069 11.9469 7.04405 11.8732L7.42963 10.3436H6.92721L6.94474 10.2637H7.89116L7.46469 12.0144C7.44716 12.0759 7.43547 12.1803 7.43547 12.2417C7.43547 12.4076 7.54063 12.4629 7.64579 12.4629C7.786 12.4629 7.93205 12.3339 8.008 12.2602C8.1599 12.125 8.28258 11.9837 8.3819 11.8547C8.452 11.7687 8.50458 11.7012 8.563 11.5783L8.89016 10.2637H9.35169L8.84342 12.2786Z" fill="black"/>
<path fill-rule="evenodd" clip-rule="evenodd" d="M11.3404 11.835C11.1943 12.1237 11.0658 12.2957 10.9198 12.4308C10.7562 12.5721 10.5751 12.6643 10.3472 12.6643C10.172 12.6643 9.96165 12.6151 9.8156 12.5046C9.71044 12.4308 9.45923 12.1974 9.45923 11.706C9.45923 11.2514 9.63449 10.9013 9.91492 10.6187C10.2596 10.2624 10.6218 10.201 10.8497 10.201C11.3462 10.201 11.504 10.5143 11.504 10.7477C11.504 10.9627 11.3638 11.1101 11.1651 11.1101C10.9899 11.1101 10.8555 10.9811 10.8555 10.8091C10.8555 10.6924 10.9139 10.6433 10.9607 10.5941C11.0015 10.5573 11.06 10.5081 11.06 10.4344C11.06 10.3976 11.0424 10.3546 11.0074 10.3238C10.9723 10.2993 10.8964 10.2808 10.8438 10.2808C10.7036 10.2808 10.505 10.3423 10.3589 10.5388C10.2421 10.6986 10.172 10.9074 10.1252 11.0733C9.96165 11.6261 9.9266 11.878 9.9266 12.0254C9.9266 12.1544 9.93828 12.2834 10.0259 12.4124C10.1194 12.5291 10.2304 12.5783 10.3472 12.5783C10.5342 12.5783 10.7328 12.4738 10.8613 12.351C11.0541 12.1851 11.1943 11.9333 11.2644 11.792L11.3404 11.835Z" fill="black"/>
<path fill-rule="evenodd" clip-rule="evenodd" d="M13.7506 11.835C13.6045 12.1237 13.476 12.2957 13.3299 12.4308C13.1663 12.5721 12.9852 12.6643 12.7574 12.6643C12.5821 12.6643 12.3718 12.6151 12.2258 12.5046C12.1206 12.4308 11.8694 12.1974 11.8694 11.706C11.8694 11.2514 12.0505 10.9013 12.3251 10.6187C12.6698 10.2624 13.032 10.201 13.2598 10.201C13.7622 10.201 13.92 10.5143 13.92 10.7477C13.92 10.9627 13.7739 11.1101 13.5811 11.1101C13.4 11.1101 13.2715 10.9811 13.2715 10.8091C13.2715 10.6924 13.3241 10.6433 13.3708 10.5941C13.4117 10.5573 13.4701 10.5081 13.4701 10.4344C13.4701 10.3976 13.4526 10.3546 13.4176 10.3238C13.3825 10.2993 13.3066 10.2808 13.254 10.2808C13.1138 10.2808 12.9151 10.3423 12.7691 10.5388C12.6522 10.6986 12.5821 10.9074 12.5354 11.0733C12.3718 11.6261 12.3368 11.878 12.3368 12.0254C12.3368 12.1544 12.3484 12.2834 12.4419 12.4124C12.5296 12.5291 12.6406 12.5783 12.7574 12.5783C12.9443 12.5783 13.143 12.4738 13.2773 12.351C13.4643 12.1851 13.6045 11.9333 13.6804 11.792L13.7506 11.835Z" fill="black"/>
<path fill-rule="evenodd" clip-rule="evenodd" d="M14.9965 11.2827H15.3237C15.3704 11.2827 15.4873 11.2766 15.5749 11.2152C15.6859 11.1353 15.7326 10.9387 15.7677 10.7852C15.832 10.5456 15.8787 10.3982 15.9605 10.3183C16.0131 10.2507 16.1124 10.2016 16.2526 10.2016C16.3577 10.2016 16.4629 10.2446 16.533 10.3122C16.5914 10.3736 16.6382 10.4657 16.6382 10.5763C16.6382 10.7606 16.5096 10.9019 16.3461 10.9019C16.2292 10.9019 16.0715 10.822 16.0715 10.6439C16.0715 10.5702 16.1065 10.5149 16.1299 10.4965C16.1474 10.4719 16.165 10.4473 16.165 10.4043C16.165 10.3675 16.1533 10.3429 16.1007 10.3429C16.0598 10.3429 15.978 10.3613 15.9196 10.5702C15.8436 10.7913 15.8144 11.0247 15.7326 11.1537C15.6859 11.2336 15.6392 11.2766 15.5749 11.2889V11.3073C15.6625 11.3257 15.7618 11.3626 15.8436 11.4117C15.9955 11.51 16.0481 11.6575 16.0481 11.8295C16.0481 11.8847 16.0364 11.9646 16.0306 12.0015L15.9838 12.2472C15.9722 12.3393 15.9663 12.3885 15.9663 12.413C15.9663 12.4437 15.9722 12.5052 16.0423 12.5052C16.1533 12.5052 16.311 12.2717 16.3811 12.1612C16.4395 12.069 16.498 11.9523 16.533 11.8786L16.6031 11.9093C16.5564 12.0322 16.5038 12.1059 16.422 12.2349C16.2818 12.4437 16.1357 12.6649 15.832 12.6649C15.499 12.6649 15.4873 12.3639 15.4873 12.2472C15.4873 12.155 15.5048 12.0383 15.5223 11.9462L15.5866 11.6882C15.5983 11.6575 15.6158 11.6145 15.6158 11.5469C15.6158 11.4425 15.5924 11.3872 15.499 11.3687C15.4697 11.3626 15.3529 11.3565 15.3237 11.3565H14.9848L14.6752 12.6035H14.2078L14.7804 10.3429H14.278L14.2955 10.263H15.2477L14.9965 11.2827Z" fill="black"/>
<path fill-rule="evenodd" clip-rule="evenodd" d="M18.7766 12.2786C18.7708 12.3093 18.7649 12.3769 18.7649 12.4014C18.7649 12.4751 18.8233 12.4997 18.8642 12.4997C18.9577 12.4997 19.0395 12.3953 19.0862 12.3339C19.1505 12.2417 19.1914 12.1741 19.2498 12.0759C19.2907 11.996 19.3199 11.9407 19.355 11.8731L19.4309 11.9039C19.3783 12.0329 19.3316 12.125 19.2148 12.3031C19.1622 12.383 19.1038 12.4751 19.0103 12.555C18.911 12.6287 18.8 12.6594 18.6831 12.6594C18.6072 12.6594 18.4962 12.6471 18.4144 12.5611C18.3501 12.4874 18.3326 12.3953 18.3326 12.3154C18.3326 12.1864 18.3677 12.0759 18.391 11.9653L18.4144 11.8731H18.3969C18.3268 11.9776 18.2333 12.1189 18.0814 12.2601C17.9178 12.426 17.6199 12.6594 17.3161 12.6594C16.9831 12.6594 16.9071 12.3953 16.9071 12.1926C16.9071 12.0636 16.948 11.9407 16.9714 11.8363L17.3453 10.3436H16.8545L16.8779 10.2637H17.836L17.392 12.0144C17.3803 12.0759 17.3628 12.1557 17.3628 12.2294C17.3628 12.4137 17.4797 12.4629 17.5614 12.4629C17.5848 12.4629 17.7309 12.4567 17.9762 12.2356C18.0814 12.1434 18.2099 11.996 18.3092 11.8731C18.3793 11.7626 18.4378 11.6704 18.4845 11.5783L18.8117 10.2637H19.2849L18.7766 12.2786Z" fill="black"/>
<path fill-rule="evenodd" clip-rule="evenodd" d="M21.5685 12.2785C21.5627 12.3092 21.5569 12.3768 21.5569 12.4014C21.5569 12.4751 21.6153 12.4997 21.6562 12.4997C21.7496 12.4997 21.8314 12.3952 21.8782 12.3338C21.9424 12.2417 21.9833 12.1741 22.0417 12.0758C22.0826 11.9959 22.1119 11.9407 22.1469 11.8731L22.2229 11.9038C22.1703 12.0328 22.1235 12.1249 22.0067 12.3031C21.9541 12.3829 21.8957 12.4751 21.8022 12.5549C21.7029 12.6287 21.5919 12.6594 21.4751 12.6594C21.3991 12.6594 21.2881 12.6471 21.2063 12.5611C21.1421 12.4874 21.1245 12.3952 21.1245 12.3154C21.1245 12.1864 21.1596 12.0758 21.183 11.9652L21.2063 11.8731H21.1888C21.1187 11.9775 21.0252 12.1188 20.8733 12.2601C20.7097 12.4259 20.4118 12.6594 20.108 12.6594C19.775 12.6594 19.6991 12.3952 19.6991 12.1925C19.6991 12.0635 19.74 11.9407 19.7633 11.8362L20.1372 10.3435H19.6465L19.6699 10.2637H20.628L20.184 12.0144C20.1723 12.0758 20.1547 12.1557 20.1547 12.2294C20.1547 12.4137 20.2657 12.4628 20.3534 12.4628C20.3767 12.4628 20.5228 12.4567 20.7682 12.2355C20.8733 12.1434 21.0019 11.9959 21.0953 11.8731C21.1713 11.7625 21.2297 11.6704 21.2764 11.5782L21.6036 10.2637H22.0768L21.5685 12.2785ZM22.0532 9.17637C21.8838 9.3668 21.7377 9.50194 21.6209 9.59409C21.4222 9.74151 21.2119 9.85209 21.0075 9.85209C20.9023 9.85209 20.7679 9.81523 20.6803 9.74151C20.5927 9.6678 20.5401 9.55723 20.5401 9.41594C20.5401 9.1948 20.7095 9.08423 20.8731 9.08423C21.0717 9.08423 21.171 9.24394 21.171 9.39751C21.171 9.55723 21.0834 9.60023 21.0308 9.61251C20.9958 9.6248 20.949 9.63709 20.949 9.68623C20.949 9.72309 20.9724 9.76609 21.0542 9.76609C21.1944 9.76609 21.393 9.64323 21.4982 9.56951C21.6442 9.47123 21.8137 9.32994 21.9948 9.1088L22.0532 9.17637Z" fill="black"/>
</svg>
