<svg width="61" height="78" viewBox="0 0 61 78" fill="none" xmlns="http://www.w3.org/2000/svg">
<mask id="mask0" mask-type="alpha" maskUnits="userSpaceOnUse" x="6" y="60" width="5" height="7">
<path fill-rule="evenodd" clip-rule="evenodd" d="M6.09933 60.2196H10.6042V66.2196H6.09933V60.2196Z" fill="white"/>
</mask>
<g mask="url(#mask0)">
<path fill-rule="evenodd" clip-rule="evenodd" d="M6.19458 61.5336H6.68258V63.8316L6.67038 64.2456H6.69478C6.81068 64.0176 6.87778 63.9096 6.99978 63.7176L8.36618 61.5336H8.91518V64.9056H8.42718V62.6076L8.44548 62.1876H8.42108C8.29298 62.4516 8.21368 62.5536 8.10998 62.7156L6.74358 64.9056H6.19458V61.5336Z" fill="black"/>
</g>
<path fill-rule="evenodd" clip-rule="evenodd" d="M9.92917 61.5336H10.4233V62.9436H12.052V61.5336H12.54V64.9056H12.052V63.3696H10.4233V64.9056H9.92917V61.5336Z" fill="black"/>
<path fill-rule="evenodd" clip-rule="evenodd" d="M15.395 61.8324H15.5231C15.9562 61.8324 16.2673 61.9764 16.4564 62.1204C16.737 62.3364 16.9749 62.7024 16.9749 63.1704C16.9749 63.5904 16.7919 63.9684 16.4991 64.2084C16.3771 64.2984 16.066 64.5084 15.5231 64.5084H15.395V64.9524H14.9009V64.5084H14.7789C14.236 64.5084 13.9188 64.2984 13.7968 64.2084C13.5101 63.9684 13.3271 63.5904 13.3271 63.1704C13.3271 62.7024 13.5589 62.3364 13.8456 62.1204C14.0347 61.9764 14.3458 61.8324 14.7789 61.8324H14.9009V61.4004H15.395V61.8324ZM14.7658 62.2284C14.6072 62.2284 14.3449 62.2524 14.1253 62.4504C13.9972 62.5704 13.8447 62.7864 13.8447 63.1704C13.8447 63.5244 13.9606 63.7344 14.0948 63.8664C14.3083 64.0824 14.5767 64.1124 14.7658 64.1124H14.9V62.2284H14.7658ZM15.3948 64.1124H15.529C15.7242 64.1124 15.9926 64.0824 16.2061 63.8664C16.3403 63.7344 16.4562 63.5244 16.4562 63.1704C16.4562 62.7864 16.3037 62.5704 16.1695 62.4504C15.956 62.2524 15.6937 62.2284 15.529 62.2284H15.3948V64.1124Z" fill="black"/>
<path fill-rule="evenodd" clip-rule="evenodd" d="M20.5252 61.9968C20.7814 62.2848 20.9461 62.7048 20.9461 63.2208C20.9461 63.7428 20.7692 64.1688 20.5252 64.4448C20.3117 64.6908 19.9274 64.9488 19.3052 64.9488C18.6769 64.9488 18.2987 64.6908 18.0791 64.4448C17.8351 64.1688 17.6582 63.7428 17.6582 63.2208C17.6582 62.7048 17.829 62.2848 18.0791 61.9968C18.3597 61.6788 18.7562 61.4868 19.3052 61.4868C19.8542 61.4868 20.2507 61.6788 20.5252 61.9968ZM18.4695 62.2968C18.2926 62.5188 18.1767 62.8728 18.1767 63.2208C18.1767 63.5028 18.256 63.8748 18.4695 64.1388C18.6342 64.3548 18.8904 64.5288 19.3052 64.5288C19.7139 64.5288 19.9762 64.3548 20.1409 64.1388C20.3483 63.8748 20.4276 63.5028 20.4276 63.2208C20.4276 62.8728 20.3178 62.5188 20.1409 62.2968C19.9823 62.0988 19.7017 61.9068 19.3052 61.9068C18.9026 61.9068 18.622 62.0988 18.4695 62.2968Z" fill="black"/>
<path fill-rule="evenodd" clip-rule="evenodd" d="M21.7461 61.5336H22.6367C22.899 61.5336 23.2955 61.5636 23.5822 61.7796C23.7469 61.9056 23.9238 62.1336 23.9238 62.5296C23.9238 62.8356 23.814 63.0636 23.692 63.1956C23.3992 63.5376 22.9295 63.5556 22.716 63.5556H22.2341V64.9056H21.7461V61.5336ZM22.2345 63.1356H22.7225C22.9055 63.1356 23.119 63.0756 23.241 62.9616C23.3142 62.8956 23.3996 62.7576 23.3996 62.5476C23.3996 62.3496 23.3264 62.2056 23.18 62.1036C23.0031 61.9776 22.8018 61.9596 22.6493 61.9596H22.2345V63.1356Z" fill="black"/>
<path fill-rule="evenodd" clip-rule="evenodd" d="M24.6403 61.5336H25.4455L26.5191 64.3356L27.5683 61.5336H28.3796V64.9056H27.8916V61.9836H27.8794L26.7509 64.9056H26.269L25.1405 61.9836H25.1344V64.9056H24.6403V61.5336Z" fill="black"/>
<path fill-rule="evenodd" clip-rule="evenodd" d="M30.5233 61.5336H31.0357L32.4814 64.9056H31.9446L31.5969 64.0536H29.9255L29.5778 64.9056H29.0654L30.5233 61.5336ZM30.7614 61.9836L30.0843 63.6576H31.4446L30.7614 61.9836Z" fill="black"/>
<path fill-rule="evenodd" clip-rule="evenodd" d="M33.6541 61.5336V64.4796H35.1669V61.5336H35.6549V64.4796H36.0453V65.6556H35.5634V64.9056H33.1661V61.5336H33.6541Z" fill="black"/>
<path fill-rule="evenodd" clip-rule="evenodd" d="M36.7483 61.5336H37.2363V63.8316L37.2241 64.2456H37.2485C37.3644 64.0176 37.4315 63.9096 37.5535 63.7176L38.926 61.5336H39.4689V64.9056H38.9809V62.6076L38.9992 62.1876H38.9748C38.8467 62.4516 38.7674 62.5536 38.6637 62.7156L37.2973 64.9056H36.7483V61.5336Z" fill="black"/>
<path fill-rule="evenodd" clip-rule="evenodd" d="M43.1619 61.9968C43.4181 62.2848 43.5828 62.7048 43.5828 63.2208C43.5828 63.7428 43.412 64.1688 43.1619 64.4448C42.9484 64.6908 42.5641 64.9488 41.9419 64.9488C41.3136 64.9488 40.9354 64.6908 40.7158 64.4448C40.4718 64.1688 40.2949 63.7428 40.2949 63.2208C40.2949 62.7048 40.4657 62.2848 40.7158 61.9968C40.9964 61.6788 41.3929 61.4868 41.9419 61.4868C42.4909 61.4868 42.8874 61.6788 43.1619 61.9968ZM41.1062 62.2968C40.9293 62.5188 40.8134 62.8728 40.8134 63.2208C40.8134 63.5028 40.8927 63.8748 41.1062 64.1388C41.2709 64.3548 41.5271 64.5288 41.9419 64.5288C42.3506 64.5288 42.6129 64.3548 42.7776 64.1388C42.985 63.8748 43.0643 63.5028 43.0643 63.2208C43.0643 62.8728 42.9545 62.5188 42.7776 62.2968C42.619 62.0988 42.3445 61.9068 41.9419 61.9068C41.5393 61.9068 41.2587 62.0988 41.1062 62.2968Z" fill="black"/>
<path fill-rule="evenodd" clip-rule="evenodd" d="M44.4087 61.5336H44.8967V62.9436H46.5315V61.5336H47.0195V64.9056H46.5315V63.3696H44.8967V64.9056H44.4087V61.5336Z" fill="black"/>
<path fill-rule="evenodd" clip-rule="evenodd" d="M48.0337 61.5336H48.5217V62.9436H50.1565V61.5336H50.6445V64.9056H50.1565V63.3696H48.5217V64.9056H48.0337V61.5336Z" fill="black"/>
<mask id="mask1" mask-type="alpha" maskUnits="userSpaceOnUse" x="51" y="61" width="7" height="7">
<path fill-rule="evenodd" clip-rule="evenodd" d="M51.4686 61.4868H57.565V67.4868H51.4686V61.4868Z" fill="white"/>
</mask>
<g mask="url(#mask1)">
<path fill-rule="evenodd" clip-rule="evenodd" d="M54.3357 61.9968C54.5919 62.2848 54.7566 62.7048 54.7566 63.2208C54.7566 63.7428 54.5797 64.1688 54.3357 64.4448C54.1161 64.6908 53.7379 64.9488 53.1096 64.9488C52.4874 64.9488 52.1031 64.6908 51.8896 64.4448C51.6456 64.1688 51.4688 63.7428 51.4688 63.2208C51.4688 62.7048 51.6334 62.2848 51.8896 61.9968C52.1702 61.6788 52.5606 61.4868 53.1096 61.4868C53.6586 61.4868 54.0551 61.6788 54.3357 61.9968ZM52.2739 62.2968C52.097 62.5188 51.9872 62.8728 51.9872 63.2208C51.9872 63.5028 52.0665 63.8748 52.2739 64.1388C52.4386 64.3548 52.7009 64.5288 53.1096 64.5288C53.5244 64.5288 53.7806 64.3548 53.9514 64.1388C54.1588 63.8748 54.2381 63.5028 54.2381 63.2208C54.2381 62.8728 54.1222 62.5188 53.9514 62.2968C53.7928 62.0988 53.5122 61.9068 53.1096 61.9068C52.707 61.9068 52.4325 62.0988 52.2739 62.2968Z" fill="black"/>
</g>
<mask id="mask2" mask-type="alpha" maskUnits="userSpaceOnUse" x="53" y="60" width="5" height="7">
<path fill-rule="evenodd" clip-rule="evenodd" d="M53.4857 60.2196H57.5654V66.2196H53.4857V60.2196Z" fill="white"/>
</mask>
<g mask="url(#mask2)">
<path fill-rule="evenodd" clip-rule="evenodd" d="M55.5817 61.5336H57.491V61.9596H56.0758V62.9436H57.369V63.3696H56.0758V64.4796H57.491V64.9056H55.5817V61.5336Z" fill="black"/>
</g>
<mask id="mask3" mask-type="alpha" maskUnits="userSpaceOnUse" x="6" y="68" width="7" height="4">
<path fill-rule="evenodd" clip-rule="evenodd" d="M6.09955 68.2662H12.1977V71.6832H6.09955V68.2662Z" fill="white"/>
</mask>
<g mask="url(#mask3)">
<path fill-rule="evenodd" clip-rule="evenodd" d="M7.55653 68.2662H8.06893L9.51463 71.6382H8.97783L8.63623 70.7862H6.95873L6.61713 71.6382H6.09863L7.55653 68.2662ZM7.80071 68.7162L7.11751 70.3902H8.47781L7.80071 68.7162Z" fill="black"/>
</g>
<mask id="mask4" mask-type="alpha" maskUnits="userSpaceOnUse" x="8" y="66" width="7" height="6">
<path fill-rule="evenodd" clip-rule="evenodd" d="M8.13086 66.9522H14.2309V71.6832H8.13086V66.9522Z" fill="white"/>
</mask>
<g mask="url(#mask4)">
<path fill-rule="evenodd" clip-rule="evenodd" d="M10.275 68.2663H12.0867V68.6863H10.763V71.6383H10.275V68.2663Z" fill="black"/>
</g>
<mask id="mask5" mask-type="alpha" maskUnits="userSpaceOnUse" x="10" y="66" width="7" height="6">
<path fill-rule="evenodd" clip-rule="evenodd" d="M10.7715 66.9522H16.8715V71.6832H10.7715V66.9522Z" fill="white"/>
</mask>
<g mask="url(#mask5)">
<path fill-rule="evenodd" clip-rule="evenodd" d="M12.8668 68.2663H14.7761V68.6863H13.3609V69.6763H14.6541V70.1023H13.3609V71.2123H14.7761V71.6383H12.8668V68.2663Z" fill="black"/>
</g>
<mask id="mask6" mask-type="alpha" maskUnits="userSpaceOnUse" x="13" y="66" width="8" height="6">
<path fill-rule="evenodd" clip-rule="evenodd" d="M13.9844 66.9522H20.0844V71.6832H13.9844V66.9522Z" fill="white"/>
</mask>
<g mask="url(#mask6)">
<path fill-rule="evenodd" clip-rule="evenodd" d="M15.729 68.2663H16.217V69.6763H17.8518V68.2663H18.3398V71.6383H17.8518V70.1023H16.217V71.6383H15.729V68.2663Z" fill="black"/>
</g>
<mask id="mask7" mask-type="alpha" maskUnits="userSpaceOnUse" x="17" y="66" width="7" height="6">
<path fill-rule="evenodd" clip-rule="evenodd" d="M17.3799 66.951H23.4799V71.6832H17.3799V66.951Z" fill="white"/>
</mask>
<g mask="url(#mask7)">
<path fill-rule="evenodd" clip-rule="evenodd" d="M20.1859 68.6881H19.1245V68.2681H21.7353V68.6881H20.6739V71.6341H20.1859V68.6881Z" fill="black"/>
</g>
<mask id="mask8" mask-type="alpha" maskUnits="userSpaceOnUse" x="20" y="66" width="7" height="6">
<path fill-rule="evenodd" clip-rule="evenodd" d="M20.4326 66.951H26.5326V71.6832H20.4326V66.951Z" fill="white"/>
</mask>
<g mask="url(#mask8)">
<path fill-rule="evenodd" clip-rule="evenodd" d="M24.727 68.8291C24.5135 68.7031 24.2695 68.6431 24.0255 68.6431C23.7205 68.6431 23.4155 68.7331 23.1898 68.9131C22.9153 69.1231 22.714 69.4831 22.714 69.9511C22.714 70.3591 22.8665 70.6531 23.0373 70.8451C23.2691 71.1151 23.6107 71.2591 24.0743 71.2591C24.239 71.2591 24.4708 71.2231 24.7392 71.1031L24.7697 71.5651C24.4891 71.6731 24.2573 71.6851 24.0621 71.6851C23.6046 71.6851 23.0678 71.5951 22.6652 71.1931C22.409 70.9291 22.1955 70.4911 22.1955 69.9511C22.1955 69.5971 22.287 69.0031 22.8299 68.5891C23.1837 68.3251 23.6229 68.2171 24.0255 68.2171C24.3976 68.2171 24.6111 68.2891 24.7697 68.3671L24.727 68.8291Z" fill="black"/>
</g>
<mask id="mask9" mask-type="alpha" maskUnits="userSpaceOnUse" x="23" y="66" width="7" height="6">
<path fill-rule="evenodd" clip-rule="evenodd" d="M23.6904 66.951H29.7904V71.6832H23.6904V66.951Z" fill="white"/>
</mask>
<g mask="url(#mask9)">
<path fill-rule="evenodd" clip-rule="evenodd" d="M26.4964 68.6881H25.435V68.2681H28.0458V68.6881H26.9844V71.6341H26.4964V68.6881Z" fill="black"/>
</g>
<mask id="mask10" mask-type="alpha" maskUnits="userSpaceOnUse" x="28" y="68" width="7" height="4">
<path fill-rule="evenodd" clip-rule="evenodd" d="M28.8262 68.2662H34.9262V71.6832H28.8262V68.2662Z" fill="white"/>
</mask>
<g mask="url(#mask10)">
<path fill-rule="evenodd" clip-rule="evenodd" d="M28.8262 68.2662H29.7534C30.0462 68.2662 30.4122 68.3022 30.6684 68.5002C30.8636 68.6442 30.949 68.8542 30.949 69.1182C30.949 69.2562 30.9246 69.4602 30.7782 69.6342C30.6501 69.7782 30.4305 69.8802 30.2475 69.9162V69.9282C30.4732 69.9402 30.6745 70.0362 30.8087 70.1562C30.9429 70.2882 31.0344 70.4922 31.0344 70.7322C31.0344 71.0562 30.9063 71.2602 30.7721 71.3742C30.4854 71.6142 30.0096 71.6382 29.7351 71.6382H28.8262V68.2662ZM29.315 69.7062H29.5895C29.803 69.7062 30.1507 69.7062 30.3276 69.5382C30.4496 69.4182 30.4618 69.2622 30.4618 69.1782C30.4618 69.0162 30.4191 68.8842 30.2849 68.7882C30.1629 68.6922 29.986 68.6622 29.8335 68.6622H29.315V69.7062ZM29.3145 71.2422H29.6866C29.894 71.2422 30.2173 71.2242 30.3881 71.0562C30.4552 70.9782 30.5162 70.8702 30.5162 70.6782C30.5162 70.4622 30.443 70.3062 30.2234 70.1922C30.0526 70.1142 29.8391 70.1022 29.6317 70.1022H29.3145V71.2422Z" fill="black"/>
</g>
<mask id="mask11" mask-type="alpha" maskUnits="userSpaceOnUse" x="31" y="68" width="7" height="4">
<path fill-rule="evenodd" clip-rule="evenodd" d="M31.791 68.2194H37.891V71.6832H31.791V68.2194Z" fill="white"/>
</mask>
<g mask="url(#mask11)">
<path fill-rule="evenodd" clip-rule="evenodd" d="M34.658 68.7294C34.9142 69.0174 35.0789 69.4374 35.0789 69.9534C35.0789 70.4754 34.902 70.9014 34.658 71.1774C34.4445 71.4234 34.0602 71.6814 33.4319 71.6814C32.8097 71.6814 32.4254 71.4234 32.2119 71.1774C31.9679 70.9014 31.791 70.4754 31.791 69.9534C31.791 69.4374 31.9557 69.0174 32.2119 68.7294C32.4925 68.4114 32.8829 68.2194 33.4319 68.2194C33.9809 68.2194 34.3774 68.4114 34.658 68.7294ZM32.6023 69.0294C32.4193 69.2514 32.3095 69.6054 32.3095 69.9534C32.3095 70.2354 32.3888 70.6074 32.6023 70.8714C32.7609 71.0874 33.0232 71.2614 33.4319 71.2614C33.8467 71.2614 34.1029 71.0874 34.2737 70.8714C34.4811 70.6074 34.5604 70.2354 34.5604 69.9534C34.5604 69.6054 34.4445 69.2514 34.2737 69.0294C34.1151 68.8314 33.8345 68.6394 33.4319 68.6394C33.0354 68.6394 32.7548 68.8314 32.6023 69.0294Z" fill="black"/>
</g>
<mask id="mask12" mask-type="alpha" maskUnits="userSpaceOnUse" x="37" y="68" width="7" height="4">
<path fill-rule="evenodd" clip-rule="evenodd" d="M37.4277 68.2662H43.5277V71.6832H37.4277V68.2662Z" fill="white"/>
</mask>
<g mask="url(#mask12)">
<path fill-rule="evenodd" clip-rule="evenodd" d="M37.4277 68.2662H38.3244C38.5806 68.2662 38.9771 68.2962 39.2638 68.5122C39.4285 68.6382 39.6054 68.8662 39.6054 69.2622C39.6054 69.5682 39.4956 69.7962 39.3736 69.9282C39.0808 70.2702 38.6111 70.2882 38.3976 70.2882H37.9157V71.6382H37.4277V68.2662ZM37.916 69.8682H38.404C38.587 69.8682 38.8005 69.8082 38.9225 69.6942C38.9957 69.6282 39.0872 69.4902 39.0872 69.2802C39.0872 69.0822 39.0079 68.9382 38.8615 68.8362C38.6846 68.7102 38.4833 68.6862 38.3308 68.6862H37.916V69.8682Z" fill="black"/>
</g>
<mask id="mask13" mask-type="alpha" maskUnits="userSpaceOnUse" x="40" y="68" width="7" height="4">
<path fill-rule="evenodd" clip-rule="evenodd" d="M40.3008 68.2194H46.4008V71.6832H40.3008V68.2194Z" fill="white"/>
</mask>
<g mask="url(#mask13)">
<path fill-rule="evenodd" clip-rule="evenodd" d="M43.1678 68.7294C43.424 69.0174 43.5887 69.4374 43.5887 69.9534C43.5887 70.4754 43.4118 70.9014 43.1678 71.1774C42.9543 71.4234 42.57 71.6814 41.9478 71.6814C41.3195 71.6814 40.9413 71.4234 40.7217 71.1774C40.4777 70.9014 40.3008 70.4754 40.3008 69.9534C40.3008 69.4374 40.4716 69.0174 40.7217 68.7294C41.0023 68.4114 41.3988 68.2194 41.9478 68.2194C42.4968 68.2194 42.8933 68.4114 43.1678 68.7294ZM41.1121 69.0294C40.9352 69.2514 40.8193 69.6054 40.8193 69.9534C40.8193 70.2354 40.8986 70.6074 41.1121 70.8714C41.2768 71.0874 41.533 71.2614 41.9478 71.2614C42.3565 71.2614 42.6188 71.0874 42.7835 70.8714C42.9909 70.6074 43.0702 70.2354 43.0702 69.9534C43.0702 69.6054 42.9604 69.2514 42.7835 69.0294C42.6249 68.8314 42.3504 68.6394 41.9478 68.6394C41.5452 68.6394 41.2646 68.8314 41.1121 69.0294Z" fill="black"/>
</g>
<mask id="mask14" mask-type="alpha" maskUnits="userSpaceOnUse" x="42" y="66" width="7" height="6">
<path fill-rule="evenodd" clip-rule="evenodd" d="M42.6133 66.951H48.7133V71.6832H42.6133V66.951Z" fill="white"/>
</mask>
<g mask="url(#mask14)">
<path fill-rule="evenodd" clip-rule="evenodd" d="M46.9107 68.8291C46.6911 68.7031 46.4471 68.6431 46.2031 68.6431C45.8981 68.6431 45.5992 68.7331 45.3735 68.9131C45.099 69.1231 44.8916 69.4831 44.8916 69.9511C44.8916 70.3591 45.0441 70.6531 45.221 70.8451C45.4528 71.1151 45.7883 71.2591 46.258 71.2591C46.4166 71.2591 46.6545 71.2231 46.9229 71.1031L46.9534 71.5651C46.6667 71.6731 46.441 71.6851 46.2397 71.6851C45.7822 71.6851 45.2515 71.5951 44.8489 71.1931C44.5927 70.9291 44.3731 70.4911 44.3731 69.9511C44.3731 69.5971 44.4646 69.0031 45.0136 68.5891C45.3674 68.3251 45.8066 68.2171 46.2031 68.2171C46.5752 68.2171 46.7887 68.2891 46.9473 68.3671L46.9107 68.8291Z" fill="black"/>
</g>
<mask id="mask15" mask-type="alpha" maskUnits="userSpaceOnUse" x="45" y="66" width="7" height="6">
<path fill-rule="evenodd" clip-rule="evenodd" d="M45.7793 66.951H51.8793V71.6832H45.7793V66.951Z" fill="white"/>
</mask>
<g mask="url(#mask15)">
<path fill-rule="evenodd" clip-rule="evenodd" d="M50.0737 68.8291C49.8602 68.7031 49.6162 68.6431 49.3722 68.6431C49.0672 68.6431 48.7622 68.7331 48.5365 68.9131C48.262 69.1231 48.0607 69.4831 48.0607 69.9511C48.0607 70.3591 48.2071 70.6531 48.384 70.8451C48.6158 71.1151 48.9513 71.2591 49.421 71.2591C49.5857 71.2591 49.8175 71.2231 50.0859 71.1031L50.1164 71.5651C49.8358 71.6731 49.604 71.6851 49.4027 71.6851C48.9513 71.6851 48.4145 71.5951 48.0119 71.1931C47.7557 70.9291 47.5422 70.4911 47.5422 69.9511C47.5422 69.5971 47.6276 69.0031 48.1766 68.5891C48.5304 68.3251 48.9696 68.2171 49.3722 68.2171C49.7443 68.2171 49.9578 68.2891 50.1103 68.3671L50.0737 68.8291Z" fill="black"/>
</g>
<mask id="mask16" mask-type="alpha" maskUnits="userSpaceOnUse" x="49" y="66" width="7" height="6">
<path fill-rule="evenodd" clip-rule="evenodd" d="M49.2959 66.9522H55.3959V71.6832H49.2959V66.9522Z" fill="white"/>
</mask>
<g mask="url(#mask16)">
<path fill-rule="evenodd" clip-rule="evenodd" d="M50.9856 68.2663H51.4736V70.5643L51.4614 70.9783H51.4858C51.6017 70.7503 51.6688 70.6423 51.7908 70.4503L53.1572 68.2663H53.7062V71.6383H53.2182V69.3403L53.2365 68.9203H53.2121C53.084 69.1843 53.0047 69.2863 52.901 69.4483L51.5346 71.6383H50.9856V68.2663Z" fill="black"/>
</g>
<mask id="mask17" mask-type="alpha" maskUnits="userSpaceOnUse" x="53" y="66" width="5" height="6">
<path fill-rule="evenodd" clip-rule="evenodd" d="M53.1346 66.9522H57.565V71.6832H53.1346V66.9522Z" fill="white"/>
</mask>
<g mask="url(#mask17)">
<path fill-rule="evenodd" clip-rule="evenodd" d="M54.8245 68.2663H55.3125V70.5643L55.3003 70.9783H55.3247C55.4406 70.7503 55.5077 70.6423 55.6297 70.4503L56.9961 68.2663H57.5451V71.6383H57.0571V69.3403L57.0754 68.9203H57.051C56.9229 69.1843 56.8436 69.2863 56.7399 69.4483L55.3735 71.6383H54.8245V68.2663Z" fill="black"/>
</g>
<path fill-rule="evenodd" clip-rule="evenodd" d="M23.7825 45.6786C23.7825 46.2726 24.2217 46.7046 24.8195 46.7046H29.0285V44.6406H24.8195C24.2217 44.6406 23.7825 45.0666 23.7825 45.6786Z" fill="black"/>
<mask id="mask18" mask-type="alpha" maskUnits="userSpaceOnUse" x="6" y="6" width="52" height="51">
<path fill-rule="evenodd" clip-rule="evenodd" d="M6.2373 6.00122H57.5658V56.4858H6.2373V6.00122Z" fill="white"/>
</mask>
<g mask="url(#mask18)">
<path fill-rule="evenodd" clip-rule="evenodd" d="M48.0165 46.6158H54.0494V49.3278H48.0165C45.9059 49.3278 44.5395 48.0738 44.5395 46.0878V40.9338C44.5395 38.9658 45.9059 37.6818 48.0165 37.6818H54.7692L53.1832 40.3938H48.0165C47.6871 40.3938 47.4492 40.5918 47.4492 40.9338V46.0878C47.4492 46.4358 47.6871 46.6158 48.0165 46.6158ZM37.2135 46.6158H43.2403V49.3278H37.2135C35.0968 49.3278 33.7304 48.0738 33.7304 46.0878V40.9338C33.7304 38.9658 35.0968 37.6818 37.2135 37.6818H43.9601L42.3741 40.3938H37.2135C36.878 40.3938 36.6401 40.5918 36.6401 40.9338V46.0878C36.6401 46.4358 36.878 46.6158 37.2135 46.6158ZM31.9432 49.3278H24.4646C22.3662 49.3278 20.829 47.8098 20.829 45.7458C20.829 43.6938 22.3662 42.1758 24.4646 42.1758H29.0335V40.9338C29.0335 40.5918 28.8261 40.3938 28.4784 40.3938H21.439L23.0311 37.6818H28.4784C30.5768 37.6818 31.9432 38.9658 31.9432 40.9338V49.3278ZM16.4431 40.3938V49.3278H13.5334V40.3938H9.45251V37.6818H21.0852L19.4992 40.3938H16.4431ZM6.2373 56.4858H57.5688V6.00183H6.2373V56.4858Z" fill="black"/>
</g>
</svg>
